<svg width="18" height="23" viewBox="0 0 18 23" fill="none" xmlns="http://www.w3.org/2000/svg">
<g clip-path="url(#clip0_134_2465)">
<path d="M9.00963 3.99134C6.69854 3.98602 4.81526 5.77631 4.81433 7.97824C4.8134 10.1811 6.69575 11.9731 9.00591 11.9696C11.2938 11.9669 13.1687 10.1846 13.178 8.00396C13.1863 5.79671 11.3161 3.99578 9.00963 3.99134ZM8.98452 10.6397C7.46116 10.6353 6.21308 9.44471 6.20843 7.99154C6.20378 6.51797 7.46209 5.31676 9.00684 5.3212C10.5311 5.32474 11.7792 6.51531 11.7839 7.96936C11.7885 9.44293 10.5293 10.6441 8.98452 10.6397Z" fill="#F7F9FA"/>
<path d="M9.00593 -2.34823e-05C8.43118 -0.00889507 7.8648 0.0620776 7.30121 0.168537C3.07987 0.970528 0.154038 4.86249 0.695308 8.931C0.927812 10.6858 1.61044 12.2862 2.4642 13.8326C4.14939 16.887 6.40654 19.5796 8.43862 22.414C8.74553 22.8416 9.28029 22.8088 9.60021 22.3608C11.2017 20.1181 12.9446 17.9676 14.4363 15.6521C15.6053 13.8388 16.6349 11.9651 17.1371 9.86695C18.3517 4.79418 14.4065 0.00529947 9.00593 -2.34823e-05ZM15.7309 9.7605C15.3291 11.321 14.6018 12.7467 13.7667 14.128C12.3958 16.3938 10.7367 18.4715 9.17799 20.6158C9.04685 20.7959 8.96501 20.8251 8.82179 20.6273C7.0715 18.2169 5.18543 15.8908 3.73739 13.2905C2.94502 11.8666 2.30982 10.3922 2.07266 8.77398C1.56952 5.34954 4.27866 1.8985 7.88061 1.41766C8.24797 1.36886 8.61533 1.31297 8.9213 1.33071C13.59 1.32805 16.8525 5.40898 15.7309 9.76138V9.7605Z" fill="#F7F9FA"/>
<path d="M9.00963 3.99134C6.69854 3.98602 4.81526 5.77631 4.81433 7.97824C4.8134 10.1811 6.69575 11.9731 9.00591 11.9696C11.2938 11.9669 13.1687 10.1846 13.178 8.00396C13.1863 5.79671 11.3161 3.99578 9.00963 3.99134ZM8.98452 10.6397C7.46116 10.6353 6.21308 9.44471 6.20843 7.99154C6.20378 6.51797 7.46209 5.31676 9.00684 5.3212C10.5311 5.32474 11.7792 6.51531 11.7839 7.96936C11.7885 9.44293 10.5293 10.6441 8.98452 10.6397Z" fill="black"/>
<path d="M9.00593 -2.34823e-05C8.43118 -0.00889507 7.8648 0.0620776 7.30121 0.168537C3.07987 0.970528 0.154038 4.86249 0.695308 8.931C0.927812 10.6858 1.61044 12.2862 2.4642 13.8326C4.14939 16.887 6.40654 19.5796 8.43862 22.414C8.74553 22.8416 9.28029 22.8088 9.60021 22.3608C11.2017 20.1181 12.9446 17.9676 14.4363 15.6521C15.6053 13.8388 16.6349 11.9651 17.1371 9.86695C18.3517 4.79418 14.4065 0.00529947 9.00593 -2.34823e-05ZM15.7309 9.7605C15.3291 11.321 14.6018 12.7467 13.7667 14.128C12.3958 16.3938 10.7367 18.4715 9.17799 20.6158C9.04685 20.7959 8.96501 20.8251 8.82179 20.6273C7.0715 18.2169 5.18543 15.8908 3.73739 13.2905C2.94502 11.8666 2.30982 10.3922 2.07266 8.77398C1.56952 5.34954 4.27866 1.8985 7.88061 1.41766C8.24797 1.36886 8.61533 1.31297 8.9213 1.33071C13.59 1.32805 16.8525 5.40898 15.7309 9.76138V9.7605Z" fill="black"/>
<path d="M9.00963 3.99134C6.69854 3.98602 4.81526 5.77631 4.81433 7.97824C4.8134 10.1811 6.69575 11.9731 9.00591 11.9696C11.2938 11.9669 13.1687 10.1846 13.178 8.00396C13.1863 5.79671 11.3161 3.99578 9.00963 3.99134ZM8.98452 10.6397C7.46116 10.6353 6.21308 9.44471 6.20843 7.99154C6.20378 6.51797 7.46209 5.31676 9.00684 5.3212C10.5311 5.32474 11.7792 6.51531 11.7839 7.96936C11.7885 9.44293 10.5293 10.6441 8.98452 10.6397Z" fill="#F7F9FA"/>
<path d="M9.00963 3.99134C6.69854 3.98602 4.81526 5.77631 4.81433 7.97824C4.8134 10.1811 6.69575 11.9731 9.00591 11.9696C11.2938 11.9669 13.1687 10.1846 13.178 8.00396C13.1863 5.79671 11.3161 3.99578 9.00963 3.99134ZM8.98452 10.6397C7.46116 10.6353 6.21308 9.44471 6.20843 7.99154C6.20378 6.51797 7.46209 5.31676 9.00684 5.3212C10.5311 5.32474 11.7792 6.51531 11.7839 7.96936C11.7885 9.44293 10.5293 10.6441 8.98452 10.6397Z" fill="black"/>
</g>
<defs>
<clipPath id="clip0_134_2465">
<rect width="16.7273" height="22.7166" fill="white" transform="translate(0.631104 1.52588e-05)"/>
</clipPath>
</defs>
</svg>
