<?xml version="1.0" encoding="utf-8"?>
<!-- Generator: Adobe Illustrator 25.0.1, SVG Export Plug-In . SVG Version: 6.00 Build 0)  -->
<svg version="1.1" id="Layer_1" xmlns="http://www.w3.org/2000/svg" xmlns:xlink="http://www.w3.org/1999/xlink" x="0px" y="0px"
	 viewBox="0 0 496 496" style="enable-background:new 0 0 496 496;" xml:space="preserve">
<style type="text/css">
	.st0{fill:#2D8427;}
</style>
<g>
	<path class="st0" d="M32,208h96v96H32V208z"/>
	<path class="st0" d="M32,344h96v96H32V344z"/>
	<path class="st0" d="M240,160H32V80h208V160z"/>
</g>
<path d="M352.5,256c4.8,0,9.4,1.4,13.3,4l55.9,37.2c6.6,4.4,14.3,6.7,22.2,6.7H496v-16h-52.1c-4.8,0-9.4-1.4-13.3-4l-22.6-15V0H104
	v48H0v448h304v-48h104v-67.3c0.5-0.1,1-0.2,1.5-0.3l37.2-9.3c8.3-2.1,16.8-3.1,25.3-3.1h24v-16h-24c-9.8,0-19.6,1.2-29.1,3.6
	l-37.2,9.3c-19.1,4.8-39.5,4-58.2-2.2l-13.5-4.5c-12.3-4.1-25.1-6.2-38-6.2h-69.8c0-13.2,10.8-24,24-24h88c13.2,0,24-10.8,24-24
	c0-12.3-9.3-22.3-21.2-23.7l6.6-24.3H352.5z M342.4,377.8c12.3,4.1,25.1,6.2,38,6.2c3.9,0,7.8-0.3,11.6-0.7V432h-88v-26.2
	c2.8-3.2,5-7.1,6.2-11.4l6.6-24.3c4.1,0.8,8.2,1.8,12.2,3.2L342.4,377.8z M300.7,368.2l-6,22.1c-1.6,5.7-6.8,9.8-12.7,9.8h-2.6
	c-7.3,0-13.2-5.9-13.2-13.2c0-1.2,0.2-2.3,0.5-3.4l4.2-15.4H296C297.6,368,299.1,368.1,300.7,368.2z M254.2,368l-3,11.2
	c-0.7,2.5-1,5-1,7.6c0,10.8,6,20.2,14.7,25.2l-2.5,10l15.5,3.9l2.5-9.9h1.5c2.1,0,4.1-0.3,6-0.7V480H16V64h104V16h272v242.3
	l-17.3-11.5c-6.6-4.4-14.3-6.7-22.2-6.7h-0.6l33.3-123.2c0.7-2.5,1-5,1-7.6c0-16.1-13.1-29.2-29.2-29.2h-2.6
	c-13.2,0-24.7,8.9-28.2,21.6L304,183.9V48H136v16h152v176h-16.6c-8.7,0-16.9,2.9-23.8,8H168v16h62.9l-16,16H168v16h30.9l-13.4,13.4
	c-4.7,4.7-7.3,11-7.3,17.7c0,13.8,11.2,25,25,25c2.5,0,4.8-0.5,7.1-1.2c0,0.4-0.1,0.8-0.1,1.2c0,8.8,7.2,16,16,16H254.2z M315.9,312
	h-29.9l33.8-125l27.4,9.1L315.9,312z M254.5,263c4.5-4.5,10.7-7,17-7h13.1l-6.5,24.1c-10.1,0.4-19.6,4.4-26.8,11.6l-41.7,41.7
	c-1.7,1.7-4,2.6-6.3,2.6c-5,0-9-4-9-9c0-2.4,0.9-4.6,2.6-6.3L254.5,263z M262.5,303c3-3,6.9-5.1,11-6.2l-4.1,15.1h-15.9L262.5,303z
	 M369.7,112.6l-9.8,36.2l-27.4-9.1l9.2-34c1.6-5.7,6.8-9.8,12.7-9.8h2.6c7.3,0,13.2,5.9,13.2,13.2
	C370.2,110.4,370,111.5,369.7,112.6z M328.3,155.2l27.4,9.1l-4.4,16.3l-27.4-9.1L328.3,155.2z M338.2,296c4.4,0,8,3.6,8,8
	s-3.6,8-8,8h-5.8l4.3-16H338.2z"/>
<path d="M64,112h16v16H64V112z"/>
<path d="M96,112h16v16H96V112z"/>
<path d="M128,112h16v16h-16V112z"/>
<path d="M160,112h16v16h-16V112z"/>
<path d="M192,112h16v16h-16V112z"/>
<path d="M165.7,189.7l-11.3-11.3L80,252.7l-10.3-10.3l-11.3,11.3L80,275.3L165.7,189.7z"/>
<path d="M154.3,314.3L80,388.7l-10.3-10.3l-11.3,11.3L80,411.3l85.7-85.7L154.3,314.3z"/>
<path d="M256,440h16v16h-16V440z"/>
<path d="M152,440h88v16h-88V440z"/>
<path d="M168,216h104v16H168V216z"/>
</svg>
