<svg width="22" height="22" viewBox="0 0 22 22" fill="none" xmlns="http://www.w3.org/2000/svg">
<path d="M16.0832 16.8697C16.0849 17.2415 15.9835 17.3294 15.6322 17.318C14.7835 17.2916 14.7826 17.3109 14.7826 16.4514V11.9706C14.7826 10.3016 14.7878 8.63252 14.7775 6.96258C14.7758 6.69451 14.8204 6.5864 15.1194 6.58904C16.0746 6.59519 16.0746 6.58025 16.0746 7.55673C16.0746 10.6611 16.0686 13.7654 16.0832 16.8697Z" fill="#F7F9FA"/>
<path d="M19.0467 18.6803C19.0493 19.0011 19.0021 19.1435 18.6361 19.1329C17.7419 19.1092 17.741 19.1303 17.741 18.2206C17.741 14.5054 17.7453 10.7903 17.7342 7.07596C17.7325 6.71912 17.7763 6.56619 18.1843 6.58465C19.0399 6.62332 19.0407 6.59519 19.0407 7.49081V12.8443C19.0407 14.7893 19.0347 16.7353 19.0467 18.6803Z" fill="#F7F9FA"/>
<path d="M9.3142 16.6359C9.29015 16.6245 9.25751 16.6342 9.22916 16.6342C8.77389 16.6342 8.31776 16.6474 7.86248 16.6289C7.62196 16.6192 7.55496 16.694 7.55152 16.9427C7.53606 17.957 7.52661 17.957 8.53509 17.957C8.79193 17.957 9.04791 17.9473 9.30389 17.9596C9.63805 17.9745 9.55558 17.7056 9.51779 17.5676C9.43361 17.2591 9.78752 16.8469 9.3142 16.6359ZM9.53583 10.8773C9.5281 10.6496 9.46882 10.5723 9.24376 10.5793C8.77475 10.5943 8.30487 10.596 7.83671 10.5784C7.60306 10.5697 7.55926 10.6611 7.55238 10.8799C7.52146 11.91 7.51459 11.91 8.51876 11.91C9.57706 11.91 9.56933 11.91 9.53583 10.8773ZM8.59092 13.623H8.54883C7.85533 13.623 7.5249 13.9711 7.55754 14.6672C7.55926 14.6962 7.56011 14.7252 7.55754 14.7542C7.54465 14.9115 7.62454 14.9502 7.76456 14.9484C8.27652 14.9431 8.78849 14.9431 9.30046 14.9484C9.45766 14.9502 9.51607 14.901 9.53411 14.7287C9.65437 13.6221 9.65952 13.623 8.59092 13.623ZM7.55754 14.7542C7.54465 14.9115 7.62454 14.9502 7.76456 14.9484C8.27652 14.9431 8.78849 14.9431 9.30046 14.9484C9.45766 14.9502 9.51607 14.901 9.53411 14.7287C9.65437 13.6221 9.65952 13.623 8.59092 13.623H8.54883C7.85533 13.623 7.5249 13.9711 7.55754 14.6672C7.55926 14.6962 7.56011 14.7252 7.55754 14.7542ZM8.51876 11.91C9.57706 11.91 9.56933 11.91 9.53583 10.8773C9.5281 10.6496 9.46882 10.5723 9.24376 10.5793C8.77475 10.5943 8.30487 10.596 7.83671 10.5784C7.60306 10.5697 7.55926 10.6611 7.55238 10.8799C7.52146 11.91 7.51459 11.91 8.51876 11.91ZM9.3142 16.6359C9.29015 16.6245 9.25751 16.6342 9.22916 16.6342C8.77389 16.6342 8.31776 16.6474 7.86248 16.6289C7.62196 16.6192 7.55496 16.694 7.55152 16.9427C7.53606 17.957 7.52661 17.957 8.53509 17.957C8.79193 17.957 9.04791 17.9473 9.30389 17.9596C9.63805 17.9745 9.55558 17.7056 9.51779 17.5676C9.43361 17.2591 9.78752 16.8469 9.3142 16.6359ZM21.9966 2.18391C21.9974 1.91145 21.9296 1.81564 21.6555 1.76994C19.3285 1.38409 17.0092 0.956062 14.6796 0.586917C13.2296 0.356641 11.8002 -0.0344774 10.3098 0.00243715C9.91121 0.0121052 9.85709 0.131638 9.85967 0.491994C9.87771 2.3509 9.85366 4.21069 9.87943 6.0696C9.88544 6.49236 9.75144 6.56531 9.37777 6.56092C7.71817 6.54158 6.05857 6.56355 4.39897 6.54422C4.05451 6.53982 3.93339 6.60926 3.94456 6.98983C3.97291 8.01377 3.93425 9.03946 3.96432 10.0634C3.97634 10.4703 3.90075 10.6127 3.46609 10.596C2.45161 10.5574 1.43455 10.6004 0.419201 10.5749C0.073881 10.5661 0.000865489 10.6734 0.00172449 11.01C0.0146096 14.5239 0.0154686 18.0369 6.48369e-06 21.5508C-0.000852522 21.9165 0.08333 22.0017 0.439817 22C3.94542 21.985 7.45102 21.9912 10.9566 21.9912C14.4622 21.9912 18.0537 21.9885 21.6014 21.9956C21.8634 21.9965 22.0009 21.9885 22 21.6405C21.988 15.155 21.9897 8.66944 21.9966 2.18391ZM3.87069 20.6043C3.64305 20.8108 3.10875 20.6649 2.71103 20.6693C2.35282 20.6728 1.99376 20.6473 1.63813 20.6772C1.34006 20.7009 1.29281 20.5788 1.29539 20.3072C1.30741 18.9756 1.30054 17.6432 1.30054 16.3107C1.30054 14.9783 1.30913 13.6169 1.29453 12.2704C1.29109 11.9856 1.35981 11.8915 1.64758 11.9012C2.31932 11.9223 2.99192 11.9162 3.66452 11.903C3.88615 11.8995 3.96604 11.9627 3.95916 12.1983C3.9437 12.7098 3.94456 13.2231 3.9583 13.7346C3.96432 13.95 3.89388 14.0308 3.69115 14.0009C3.66281 13.9966 3.6336 14.0001 3.60525 14.0001C2.90373 14.01 2.58991 14.3809 2.66378 15.1128C2.67667 15.249 2.69127 15.3431 2.8519 15.3228C2.88025 15.3193 2.90946 15.3193 2.93781 15.3228C3.2711 15.3659 3.82086 15.1646 3.89731 15.409C4.0485 15.8862 3.94971 16.4479 3.94886 16.9743C3.94886 17.0666 3.87412 17.0851 3.79853 17.0868C3.71349 17.0886 3.62673 17.0816 3.54169 17.0895C3.26079 17.1141 2.8184 16.9576 2.7325 17.1527C2.59249 17.47 2.67753 17.8919 2.66894 18.2707C2.66636 18.385 2.73336 18.4175 2.83301 18.4131C2.8897 18.4105 2.94725 18.4122 3.00481 18.4131C3.95401 18.4281 3.9626 18.4281 3.94971 19.3896C3.94456 19.808 4.13354 20.3661 3.87069 20.6043ZM11.838 14.2875C11.838 16.2773 11.8319 18.2672 11.8448 20.2562C11.8466 20.5629 11.8019 20.6825 11.4591 20.6798C9.49975 20.6596 7.54122 20.6631 5.58268 20.6781C5.28804 20.6798 5.23908 20.5823 5.23994 20.3107C5.24767 16.287 5.24853 12.2642 5.23908 8.24141C5.23822 7.9496 5.31639 7.87665 5.59471 7.87841C7.55324 7.89072 9.51177 7.8916 11.4712 7.87753C11.7795 7.87578 11.8466 7.97685 11.8448 8.2748C11.8319 10.2796 11.838 12.2835 11.838 14.2875ZM20.6995 11.8107C20.6995 14.6215 20.6952 17.4314 20.7063 20.2413C20.7081 20.5647 20.6539 20.6825 20.2992 20.6798C18.0391 20.6605 15.7791 20.6623 13.519 20.679C13.1952 20.6807 13.1239 20.5972 13.1248 20.272C13.1359 15.866 13.1273 11.4609 13.1402 7.05575C13.1411 6.67342 13.0749 6.50027 12.6592 6.54422C12.2623 6.58465 11.8577 6.53719 11.4583 6.55828C11.2049 6.57234 11.1551 6.47215 11.1568 6.23484C11.1654 4.69849 11.1654 3.16126 11.1568 1.62492C11.1559 1.39992 11.1954 1.31642 11.4402 1.35949C14.3823 1.87365 17.3244 2.38782 20.2708 2.87298C20.6488 2.93538 20.7089 3.07601 20.7072 3.42494C20.6934 6.2199 20.6995 9.01573 20.6995 11.8107ZM8.59092 13.623H8.54883C7.85533 13.623 7.5249 13.9711 7.55754 14.6672C7.55926 14.6962 7.56011 14.7252 7.55754 14.7542C7.54465 14.9115 7.62454 14.9502 7.76456 14.9484C8.27652 14.9431 8.78849 14.9431 9.30046 14.9484C9.45766 14.9502 9.51607 14.901 9.53411 14.7287C9.65437 13.6221 9.65952 13.623 8.59092 13.623ZM8.51876 11.91C9.57706 11.91 9.56933 11.91 9.53583 10.8773C9.5281 10.6496 9.46882 10.5723 9.24376 10.5793C8.77475 10.5943 8.30487 10.596 7.83671 10.5784C7.60306 10.5697 7.55926 10.6611 7.55238 10.8799C7.52146 11.91 7.51459 11.91 8.51876 11.91ZM9.3142 16.6359C9.29015 16.6245 9.25751 16.6342 9.22916 16.6342C8.77389 16.6342 8.31776 16.6474 7.86248 16.6289C7.62196 16.6192 7.55496 16.694 7.55152 16.9427C7.53606 17.957 7.52661 17.957 8.53509 17.957C8.79193 17.957 9.04791 17.9473 9.30389 17.9596C9.63805 17.9745 9.55558 17.7056 9.51779 17.5676C9.43361 17.2591 9.78752 16.8469 9.3142 16.6359ZM9.3142 16.6359C9.29015 16.6245 9.25751 16.6342 9.22916 16.6342C8.77389 16.6342 8.31776 16.6474 7.86248 16.6289C7.62196 16.6192 7.55496 16.694 7.55152 16.9427C7.53606 17.957 7.52661 17.957 8.53509 17.957C8.79193 17.957 9.04791 17.9473 9.30389 17.9596C9.63805 17.9745 9.55558 17.7056 9.51779 17.5676C9.43361 17.2591 9.78752 16.8469 9.3142 16.6359ZM9.53583 10.8773C9.5281 10.6496 9.46882 10.5723 9.24376 10.5793C8.77475 10.5943 8.30487 10.596 7.83671 10.5784C7.60306 10.5697 7.55926 10.6611 7.55238 10.8799C7.52146 11.91 7.51459 11.91 8.51876 11.91C9.57706 11.91 9.56933 11.91 9.53583 10.8773ZM8.59092 13.623H8.54883C7.85533 13.623 7.5249 13.9711 7.55754 14.6672C7.55926 14.6962 7.56011 14.7252 7.55754 14.7542C7.54465 14.9115 7.62454 14.9502 7.76456 14.9484C8.27652 14.9431 8.78849 14.9431 9.30046 14.9484C9.45766 14.9502 9.51607 14.901 9.53411 14.7287C9.65437 13.6221 9.65952 13.623 8.59092 13.623ZM8.59092 13.623H8.54883C7.85533 13.623 7.5249 13.9711 7.55754 14.6672C7.55926 14.6962 7.56011 14.7252 7.55754 14.7542C7.54465 14.9115 7.62454 14.9502 7.76456 14.9484C8.27652 14.9431 8.78849 14.9431 9.30046 14.9484C9.45766 14.9502 9.51607 14.901 9.53411 14.7287C9.65437 13.6221 9.65952 13.623 8.59092 13.623ZM9.53583 10.8773C9.5281 10.6496 9.46882 10.5723 9.24376 10.5793C8.77475 10.5943 8.30487 10.596 7.83671 10.5784C7.60306 10.5697 7.55926 10.6611 7.55238 10.8799C7.52146 11.91 7.51459 11.91 8.51876 11.91C9.57706 11.91 9.56933 11.91 9.53583 10.8773ZM9.3142 16.6359C9.29015 16.6245 9.25751 16.6342 9.22916 16.6342C8.77389 16.6342 8.31776 16.6474 7.86248 16.6289C7.62196 16.6192 7.55496 16.694 7.55152 16.9427C7.53606 17.957 7.52661 17.957 8.53509 17.957C8.79193 17.957 9.04791 17.9473 9.30389 17.9596C9.63805 17.9745 9.55558 17.7056 9.51779 17.5676C9.43361 17.2591 9.78752 16.8469 9.3142 16.6359Z" fill="#F7F9FA"/>
<path d="M16.0832 16.8697C16.0849 17.2415 15.9835 17.3294 15.6322 17.318C14.7835 17.2916 14.7826 17.3109 14.7826 16.4514V11.9706C14.7826 10.3016 14.7878 8.63252 14.7775 6.96258C14.7758 6.69451 14.8204 6.5864 15.1194 6.58904C16.0746 6.59519 16.0746 6.58025 16.0746 7.55673C16.0746 10.6611 16.0686 13.7654 16.0832 16.8697Z" fill="black"/>
<path d="M19.0467 18.6803C19.0493 19.0011 19.0021 19.1435 18.6361 19.1329C17.7419 19.1092 17.741 19.1303 17.741 18.2206C17.741 14.5054 17.7453 10.7903 17.7342 7.07596C17.7325 6.71912 17.7763 6.56619 18.1843 6.58465C19.0399 6.62332 19.0407 6.59519 19.0407 7.49081V12.8443C19.0407 14.7893 19.0347 16.7353 19.0467 18.6803Z" fill="black"/>
<path d="M9.3142 16.6359C9.29015 16.6245 9.25751 16.6342 9.22916 16.6342C8.77389 16.6342 8.31776 16.6474 7.86248 16.6289C7.62196 16.6192 7.55496 16.694 7.55152 16.9427C7.53606 17.957 7.52661 17.957 8.53509 17.957C8.79193 17.957 9.04791 17.9473 9.30389 17.9596C9.63805 17.9745 9.55558 17.7056 9.51779 17.5676C9.43361 17.2591 9.78752 16.8469 9.3142 16.6359ZM9.53583 10.8773C9.5281 10.6496 9.46882 10.5723 9.24376 10.5793C8.77475 10.5943 8.30487 10.596 7.83671 10.5784C7.60306 10.5697 7.55926 10.6611 7.55238 10.8799C7.52146 11.91 7.51459 11.91 8.51876 11.91C9.57706 11.91 9.56933 11.91 9.53583 10.8773ZM8.59092 13.623H8.54883C7.85533 13.623 7.5249 13.9711 7.55754 14.6672C7.55926 14.6962 7.56011 14.7252 7.55754 14.7542C7.54465 14.9115 7.62454 14.9502 7.76456 14.9484C8.27652 14.9431 8.78849 14.9431 9.30046 14.9484C9.45766 14.9502 9.51607 14.901 9.53411 14.7287C9.65437 13.6221 9.65952 13.623 8.59092 13.623ZM7.55754 14.7542C7.54465 14.9115 7.62454 14.9502 7.76456 14.9484C8.27652 14.9431 8.78849 14.9431 9.30046 14.9484C9.45766 14.9502 9.51607 14.901 9.53411 14.7287C9.65437 13.6221 9.65952 13.623 8.59092 13.623H8.54883C7.85533 13.623 7.5249 13.9711 7.55754 14.6672C7.55926 14.6962 7.56011 14.7252 7.55754 14.7542ZM8.51876 11.91C9.57706 11.91 9.56933 11.91 9.53583 10.8773C9.5281 10.6496 9.46882 10.5723 9.24376 10.5793C8.77475 10.5943 8.30487 10.596 7.83671 10.5784C7.60306 10.5697 7.55926 10.6611 7.55238 10.8799C7.52146 11.91 7.51459 11.91 8.51876 11.91ZM9.3142 16.6359C9.29015 16.6245 9.25751 16.6342 9.22916 16.6342C8.77389 16.6342 8.31776 16.6474 7.86248 16.6289C7.62196 16.6192 7.55496 16.694 7.55152 16.9427C7.53606 17.957 7.52661 17.957 8.53509 17.957C8.79193 17.957 9.04791 17.9473 9.30389 17.9596C9.63805 17.9745 9.55558 17.7056 9.51779 17.5676C9.43361 17.2591 9.78752 16.8469 9.3142 16.6359ZM21.9966 2.18391C21.9974 1.91145 21.9296 1.81564 21.6555 1.76994C19.3285 1.38409 17.0092 0.956062 14.6796 0.586917C13.2296 0.356641 11.8002 -0.0344774 10.3098 0.00243715C9.91121 0.0121052 9.85709 0.131638 9.85967 0.491994C9.87771 2.3509 9.85366 4.21069 9.87943 6.0696C9.88544 6.49236 9.75144 6.56531 9.37777 6.56092C7.71817 6.54158 6.05857 6.56355 4.39897 6.54422C4.05451 6.53982 3.93339 6.60926 3.94456 6.98983C3.97291 8.01377 3.93425 9.03946 3.96432 10.0634C3.97634 10.4703 3.90075 10.6127 3.46609 10.596C2.45161 10.5574 1.43455 10.6004 0.419201 10.5749C0.073881 10.5661 0.000865489 10.6734 0.00172449 11.01C0.0146096 14.5239 0.0154686 18.0369 6.48369e-06 21.5508C-0.000852522 21.9165 0.08333 22.0017 0.439817 22C3.94542 21.985 7.45102 21.9912 10.9566 21.9912C14.4622 21.9912 18.0537 21.9885 21.6014 21.9956C21.8634 21.9965 22.0009 21.9885 22 21.6405C21.988 15.155 21.9897 8.66944 21.9966 2.18391ZM3.87069 20.6043C3.64305 20.8108 3.10875 20.6649 2.71103 20.6693C2.35282 20.6728 1.99376 20.6473 1.63813 20.6772C1.34006 20.7009 1.29281 20.5788 1.29539 20.3072C1.30741 18.9756 1.30054 17.6432 1.30054 16.3107C1.30054 14.9783 1.30913 13.6169 1.29453 12.2704C1.29109 11.9856 1.35981 11.8915 1.64758 11.9012C2.31932 11.9223 2.99192 11.9162 3.66452 11.903C3.88615 11.8995 3.96604 11.9627 3.95916 12.1983C3.9437 12.7098 3.94456 13.2231 3.9583 13.7346C3.96432 13.95 3.89388 14.0308 3.69115 14.0009C3.66281 13.9966 3.6336 14.0001 3.60525 14.0001C2.90373 14.01 2.58991 14.3809 2.66378 15.1128C2.67667 15.249 2.69127 15.3431 2.8519 15.3228C2.88025 15.3193 2.90946 15.3193 2.93781 15.3228C3.2711 15.3659 3.82086 15.1646 3.89731 15.409C4.0485 15.8862 3.94971 16.4479 3.94886 16.9743C3.94886 17.0666 3.87412 17.0851 3.79853 17.0868C3.71349 17.0886 3.62673 17.0816 3.54169 17.0895C3.26079 17.1141 2.8184 16.9576 2.7325 17.1527C2.59249 17.47 2.67753 17.8919 2.66894 18.2707C2.66636 18.385 2.73336 18.4175 2.83301 18.4131C2.8897 18.4105 2.94725 18.4122 3.00481 18.4131C3.95401 18.4281 3.9626 18.4281 3.94971 19.3896C3.94456 19.808 4.13354 20.3661 3.87069 20.6043ZM11.838 14.2875C11.838 16.2773 11.8319 18.2672 11.8448 20.2562C11.8466 20.5629 11.8019 20.6825 11.4591 20.6798C9.49975 20.6596 7.54122 20.6631 5.58268 20.6781C5.28804 20.6798 5.23908 20.5823 5.23994 20.3107C5.24767 16.287 5.24853 12.2642 5.23908 8.24141C5.23822 7.9496 5.31639 7.87665 5.59471 7.87841C7.55324 7.89072 9.51177 7.8916 11.4712 7.87753C11.7795 7.87578 11.8466 7.97685 11.8448 8.2748C11.8319 10.2796 11.838 12.2835 11.838 14.2875ZM20.6995 11.8107C20.6995 14.6215 20.6952 17.4314 20.7063 20.2413C20.7081 20.5647 20.6539 20.6825 20.2992 20.6798C18.0391 20.6605 15.7791 20.6623 13.519 20.679C13.1952 20.6807 13.1239 20.5972 13.1248 20.272C13.1359 15.866 13.1273 11.4609 13.1402 7.05575C13.1411 6.67342 13.0749 6.50027 12.6592 6.54422C12.2623 6.58465 11.8577 6.53719 11.4583 6.55828C11.2049 6.57234 11.1551 6.47215 11.1568 6.23484C11.1654 4.69849 11.1654 3.16126 11.1568 1.62492C11.1559 1.39992 11.1954 1.31642 11.4402 1.35949C14.3823 1.87365 17.3244 2.38782 20.2708 2.87298C20.6488 2.93538 20.7089 3.07601 20.7072 3.42494C20.6934 6.2199 20.6995 9.01573 20.6995 11.8107ZM8.59092 13.623H8.54883C7.85533 13.623 7.5249 13.9711 7.55754 14.6672C7.55926 14.6962 7.56011 14.7252 7.55754 14.7542C7.54465 14.9115 7.62454 14.9502 7.76456 14.9484C8.27652 14.9431 8.78849 14.9431 9.30046 14.9484C9.45766 14.9502 9.51607 14.901 9.53411 14.7287C9.65437 13.6221 9.65952 13.623 8.59092 13.623ZM8.51876 11.91C9.57706 11.91 9.56933 11.91 9.53583 10.8773C9.5281 10.6496 9.46882 10.5723 9.24376 10.5793C8.77475 10.5943 8.30487 10.596 7.83671 10.5784C7.60306 10.5697 7.55926 10.6611 7.55238 10.8799C7.52146 11.91 7.51459 11.91 8.51876 11.91ZM9.3142 16.6359C9.29015 16.6245 9.25751 16.6342 9.22916 16.6342C8.77389 16.6342 8.31776 16.6474 7.86248 16.6289C7.62196 16.6192 7.55496 16.694 7.55152 16.9427C7.53606 17.957 7.52661 17.957 8.53509 17.957C8.79193 17.957 9.04791 17.9473 9.30389 17.9596C9.63805 17.9745 9.55558 17.7056 9.51779 17.5676C9.43361 17.2591 9.78752 16.8469 9.3142 16.6359ZM9.3142 16.6359C9.29015 16.6245 9.25751 16.6342 9.22916 16.6342C8.77389 16.6342 8.31776 16.6474 7.86248 16.6289C7.62196 16.6192 7.55496 16.694 7.55152 16.9427C7.53606 17.957 7.52661 17.957 8.53509 17.957C8.79193 17.957 9.04791 17.9473 9.30389 17.9596C9.63805 17.9745 9.55558 17.7056 9.51779 17.5676C9.43361 17.2591 9.78752 16.8469 9.3142 16.6359ZM9.53583 10.8773C9.5281 10.6496 9.46882 10.5723 9.24376 10.5793C8.77475 10.5943 8.30487 10.596 7.83671 10.5784C7.60306 10.5697 7.55926 10.6611 7.55238 10.8799C7.52146 11.91 7.51459 11.91 8.51876 11.91C9.57706 11.91 9.56933 11.91 9.53583 10.8773ZM8.59092 13.623H8.54883C7.85533 13.623 7.5249 13.9711 7.55754 14.6672C7.55926 14.6962 7.56011 14.7252 7.55754 14.7542C7.54465 14.9115 7.62454 14.9502 7.76456 14.9484C8.27652 14.9431 8.78849 14.9431 9.30046 14.9484C9.45766 14.9502 9.51607 14.901 9.53411 14.7287C9.65437 13.6221 9.65952 13.623 8.59092 13.623ZM8.59092 13.623H8.54883C7.85533 13.623 7.5249 13.9711 7.55754 14.6672C7.55926 14.6962 7.56011 14.7252 7.55754 14.7542C7.54465 14.9115 7.62454 14.9502 7.76456 14.9484C8.27652 14.9431 8.78849 14.9431 9.30046 14.9484C9.45766 14.9502 9.51607 14.901 9.53411 14.7287C9.65437 13.6221 9.65952 13.623 8.59092 13.623ZM9.53583 10.8773C9.5281 10.6496 9.46882 10.5723 9.24376 10.5793C8.77475 10.5943 8.30487 10.596 7.83671 10.5784C7.60306 10.5697 7.55926 10.6611 7.55238 10.8799C7.52146 11.91 7.51459 11.91 8.51876 11.91C9.57706 11.91 9.56933 11.91 9.53583 10.8773ZM9.3142 16.6359C9.29015 16.6245 9.25751 16.6342 9.22916 16.6342C8.77389 16.6342 8.31776 16.6474 7.86248 16.6289C7.62196 16.6192 7.55496 16.694 7.55152 16.9427C7.53606 17.957 7.52661 17.957 8.53509 17.957C8.79193 17.957 9.04791 17.9473 9.30389 17.9596C9.63805 17.9745 9.55558 17.7056 9.51779 17.5676C9.43361 17.2591 9.78752 16.8469 9.3142 16.6359Z" fill="black"/>
<path d="M16.0832 16.8697C16.0849 17.2415 15.9835 17.3294 15.6322 17.318C14.7835 17.2916 14.7826 17.3109 14.7826 16.4514V11.9706C14.7826 10.3016 14.7878 8.63252 14.7775 6.96258C14.7758 6.69451 14.8204 6.5864 15.1194 6.58904C16.0746 6.59519 16.0746 6.58025 16.0746 7.55673C16.0746 10.6611 16.0686 13.7654 16.0832 16.8697Z" fill="#F7F9FA"/>
<path d="M19.0467 18.6803C19.0493 19.0011 19.0021 19.1435 18.6361 19.1329C17.7419 19.1092 17.741 19.1303 17.741 18.2206C17.741 14.5054 17.7453 10.7903 17.7342 7.07596C17.7325 6.71912 17.7763 6.56619 18.1843 6.58465C19.0399 6.62332 19.0407 6.59519 19.0407 7.49081V12.8443C19.0407 14.7893 19.0347 16.7353 19.0467 18.6803Z" fill="#F7F9FA"/>
<path d="M9.51779 17.5676C9.55558 17.7056 9.63805 17.9745 9.30389 17.9596C9.04791 17.9473 8.79193 17.957 8.53509 17.957C7.52661 17.957 7.53606 17.957 7.55152 16.9427C7.55496 16.694 7.62196 16.6192 7.86248 16.6289C8.31776 16.6474 8.77389 16.6342 9.22916 16.6342C9.25751 16.6342 9.29015 16.6245 9.3142 16.6359C9.78752 16.8469 9.43361 17.2591 9.51779 17.5676Z" fill="#F7F9FA"/>
<path d="M7.55238 10.8799C7.55926 10.6611 7.60306 10.5697 7.83671 10.5784C8.30487 10.596 8.77475 10.5943 9.24376 10.5793C9.46882 10.5723 9.5281 10.6496 9.53583 10.8773C9.56933 11.91 9.57706 11.91 8.51876 11.91C7.46047 11.91 7.52146 11.91 7.55238 10.8799Z" fill="#F7F9FA"/>
<path d="M7.55754 14.6672C7.5249 13.9711 7.85533 13.623 8.54883 13.623H8.59092C9.65952 13.623 9.65437 13.6221 9.53411 14.7287C9.51607 14.901 9.45766 14.9502 9.30046 14.9484C8.78849 14.9431 8.27652 14.9431 7.76456 14.9484C7.62454 14.9502 7.54465 14.9115 7.55754 14.7542C7.56011 14.7252 7.55926 14.6962 7.55754 14.6672Z" fill="#F7F9FA"/>
<path d="M19.0467 18.6803C19.0493 19.0011 19.0021 19.1435 18.6361 19.1329C17.7419 19.1092 17.741 19.1303 17.741 18.2206C17.741 14.5054 17.7453 10.7903 17.7342 7.07596C17.7325 6.71912 17.7763 6.56619 18.1843 6.58465C19.0399 6.62332 19.0407 6.59519 19.0407 7.49081V12.8443C19.0407 14.7893 19.0347 16.7353 19.0467 18.6803Z" fill="#010101"/>
<path d="M16.0832 16.8697C16.0849 17.2415 15.9835 17.3294 15.6322 17.318C14.7835 17.2916 14.7826 17.3109 14.7826 16.4514V11.9706C14.7826 10.3016 14.7878 8.63252 14.7775 6.96258C14.7758 6.69451 14.8204 6.5864 15.1194 6.58904C16.0746 6.59519 16.0746 6.58025 16.0746 7.55673C16.0746 10.6611 16.0686 13.7654 16.0832 16.8697Z" fill="black"/>
<path d="M8.51876 11.91C7.51459 11.91 7.52146 11.91 7.55238 10.8799C7.55926 10.6611 7.60306 10.5697 7.83671 10.5784C8.30487 10.596 8.77475 10.5943 9.24376 10.5793C9.46882 10.5723 9.5281 10.6496 9.53583 10.8773C9.56933 11.91 9.57706 11.91 8.51876 11.91Z" fill="#010101"/>
<path d="M9.53411 14.7287C9.51607 14.901 9.45766 14.9502 9.30046 14.9484C8.78849 14.9431 8.27652 14.9431 7.76456 14.9484C7.62454 14.9502 7.54465 14.9115 7.55754 14.7542C7.56011 14.7252 7.55926 14.6962 7.55754 14.6672C7.5249 13.9711 7.85533 13.623 8.54883 13.623H8.59092C9.65952 13.623 9.65437 13.6221 9.53411 14.7287Z" fill="#010101"/>
<path d="M9.51779 17.5676C9.55558 17.7056 9.63805 17.9745 9.30389 17.9596C9.04791 17.9473 8.79193 17.957 8.53509 17.957C7.52661 17.957 7.53606 17.957 7.55152 16.9427C7.55496 16.694 7.62196 16.6192 7.86248 16.6289C8.31776 16.6474 8.77389 16.6342 9.22916 16.6342C9.25751 16.6342 9.29015 16.6245 9.3142 16.6359C9.78752 16.8469 9.43361 17.2591 9.51779 17.5676Z" fill="#010101"/>
</svg>
