<?xml version="1.0" encoding="utf-8"?>
<!-- Generator: Adobe Illustrator 25.0.1, SVG Export Plug-In . SVG Version: 6.00 Build 0)  -->
<svg version="1.1" id="_x31__x2C_5_px" xmlns="http://www.w3.org/2000/svg" xmlns:xlink="http://www.w3.org/1999/xlink" x="0px"
	 y="0px" viewBox="0 0 512 512" style="enable-background:new 0 0 512 512;" xml:space="preserve">
<style type="text/css">
	.st0{fill:#3B9336;}
</style>
<path class="st0" d="M267.2,512c-4.2,0-8.3-1.7-11.3-4.7c-3.7-3.7-5.4-9-4.4-14.1l11.3-64.1c0.6-3.2,2.1-6.2,4.4-8.5l158.4-158.4
	c6.7-6.7,13.9-11,21.2-12.5c10.2-2.2,20,1,27.8,8.7l26.4,26.4c14.5,14.6,14.5,38.2,0,52.8L342.7,496c-2.3,2.3-5.3,3.9-8.5,4.4
	L270,511.7C269.1,511.9,268.2,512,267.2,512L267.2,512z M331.4,484.7h0.2H331.4z M293.4,439.6l-6.5,36.6l36.6-6.5L478.4,315
	c2.1-2.1,2.1-5.5,0-7.6l-26.2-26.2c-0.2,0.4-1.8,1.4-4,3.6L293.4,439.6z"/>
<path class="st0" d="M213.5,448H58.7C26.3,448,0,421.7,0,389.3V58.7C0,26.3,26.3,0,58.7,0H304c32.4,0,58.7,26.3,58.7,58.7v214.6
	c0,8.8-7.2,16-16,16c-8.8,0-16-7.2-16-16V58.7c0-14.7-12-26.7-26.7-26.7H58.7C44,32,32,44,32,58.7v330.7C32,404,44,416,58.7,416
	h154.9c8.8,0,16,7.2,16,16C229.5,440.8,222.4,448,213.5,448z"/>
<path class="st0" d="M282.7,202.7H80c-8.8,0-16-7.2-16-16s7.2-16,16-16h202.7c8.8,0,16,7.2,16,16S291.5,202.7,282.7,202.7z"/>
<path class="st0" d="M197.3,288H80c-8.8,0-16-7.2-16-16c0-8.8,7.2-16,16-16h117.3c8.8,0,16,7.2,16,16
	C213.3,280.8,206.2,288,197.3,288z"/>
<path class="st0" d="M176,117.3H80c-8.8,0-16-7.2-16-16s7.2-16,16-16h96c8.8,0,16,7.2,16,16S184.8,117.3,176,117.3z"/>
</svg>
