<?xml version="1.0" encoding="utf-8"?>
<!-- Generator: Adobe Illustrator 25.0.1, SVG Export Plug-In . SVG Version: 6.00 Build 0)  -->
<svg version="1.1" id="_x33_0" xmlns="http://www.w3.org/2000/svg" xmlns:xlink="http://www.w3.org/1999/xlink" x="0px" y="0px"
	 viewBox="0 0 512 512" style="enable-background:new 0 0 512 512;" xml:space="preserve">
<style type="text/css">
	.st0{fill:#2D8427;}
</style>
<g>
	<g>
		<path class="st0" d="M152,104h96v136h-96V104z"/>
	</g>
	<g>
		<g>
			<path class="st0" d="M360,360H248v-96h112V360z"/>
		</g>
	</g>
	<g>
		<path d="M384,120c8.5,0,15.8-6.4,17-14.8l6.9-48.1L408,56c0-8.8-7.2-16-16-16h-16c-8.8,0-16,7.2-16,16l7,49.2
			C368.2,113.6,375.5,120,384,120L384,120z M391.9,56l-6.7,46.9c-0.2,1.2-2.3,1.2-2.4,0L376.1,56H391.9z"/>
		<path d="M384,184c13.2,0,24-10.8,24-24s-10.8-24-24-24s-24,10.8-24,24S370.8,184,384,184z M384,152c4.4,0,8,3.6,8,8s-3.6,8-8,8
			s-8-3.6-8-8S379.6,152,384,152z"/>
		<path d="M511,304l-47-70.4L417,304h39v168h-80v16h80c8.8,0,16-7.2,16-16V304H511z M464,262.4l17,25.6h-34.1L464,262.4z"/>
		<path d="M208,456c-13.2,0-24,10.8-24,24s10.8,24,24,24s24-10.8,24-24S221.2,456,208,456z M208,488c-4.4,0-8-3.6-8-8s3.6-8,8-8
			s8,3.6,8,8S212.4,488,208,488z"/>
		<path d="M272,456c-13.2,0-24,10.8-24,24s10.8,24,24,24s24-10.8,24-24S285.2,456,272,456z M272,488c-4.4,0-8-3.6-8-8s3.6-8,8-8
			s8,3.6,8,8S276.4,488,272,488z"/>
		<path d="M336,456c-13.2,0-24,10.8-24,24s10.8,24,24,24s24-10.8,24-24S349.2,456,336,456z M336,488c-4.4,0-8-3.6-8-8s3.6-8,8-8
			s8,3.6,8,8S340.4,488,336,488z"/>
		<path d="M48,278.4L95,208H56V40h64V24H56c-8.8,0-16,7.2-16,16v168H1L48,278.4z M48,249.6L31,224h34.1L48,249.6z"/>
		<path d="M224,56c13.2,0,24-10.8,24-24S237.2,8,224,8s-24,10.8-24,24S210.8,56,224,56z M224,24c4.4,0,8,3.6,8,8s-3.6,8-8,8
			s-8-3.6-8-8S219.6,24,224,24z"/>
		<path d="M160,56c13.2,0,24-10.8,24-24S173.2,8,160,8s-24,10.8-24,24S146.8,56,160,56z M160,24c4.4,0,8,3.6,8,8s-3.6,8-8,8
			s-8-3.6-8-8S155.6,24,160,24z"/>
		<path d="M376,440c8.8,0,16-7.2,16-16V227.3l11.3-11.3H480c13.2,0,24-10.8,24-24V32c0-13.2-10.8-24-24-24H288
			c-13.2,0-24,10.8-24,24v40H136c-8.8,0-16,7.2-16,16v244.7l-99.7,99.7C12.4,440.3,8,450.8,8,462.1C8,485.2,26.8,504,50,504
			c11.2,0,21.7-4.4,29.6-12.3l51.7-51.7H376z M280,32c0-4.4,3.6-8,8-8h192c4.4,0,8,3.6,8,8v160c0,4.4-3.6,8-8,8h-83.3l-31,31
			c-1.9,1.9-5.7,0.4-5.7-2.3V200h-72c-4.4,0-8-3.6-8-8L280,32z M136,88h128v104c0,13.2,10.8,24,24,24h56v12.7
			c0,10.6,8.7,19.3,19.3,19.3c4.7,0,9.2-1.8,12.7-4.9V424H147.3l59.4-59.4l23.5-54.9c1.1-2.7,1.7-5.5,1.7-8.4
			c0-11.7-9.5-21.3-21.3-21.3c-2.9,0-5.7,0.6-8.4,1.7l-54.9,23.5L136,316.7L136,88z M215.6,303.4l-3.8,8.9l-12-12l8.9-3.8
			c3.3-1.4,7.3,1.2,7.3,4.9C216,302,215.9,302.7,215.6,303.4L215.6,303.4z M183.9,307l21.1,21.1l-7.7,17.9L166,314.7L183.9,307z
			 M152,323.3l12.7,12.7L80,420.7L67.3,408L152,323.3z M92.7,456L80,468.7L43.3,432L56,419.3L92.7,456z M91.3,432l84.7-84.7
			l12.7,12.7L104,444.7L91.3,432z M49.9,488C35.6,488,24,476.4,24,462c0-6.9,2.7-13.4,7.6-18.3l0.4-0.4L68.7,480l-0.4,0.4
			C63.4,485.3,56.9,488,49.9,488z"/>
		<path d="M152,104h48v16h-48V104z"/>
		<path d="M216,104h32v16h-32V104z"/>
		<path d="M152,136h96v16h-96V136z"/>
		<path d="M152,168h48v16h-48V168z"/>
		<path d="M216,168h32v16h-32V168z"/>
		<path d="M152,200h32v16h-32V200z"/>
		<path d="M200,200h48v16h-48V200z"/>
		<path d="M242.2,386.5C238.7,380,232,376,224.6,376c-8.6,0-16.2,5.5-18.9,13.6l-5.3,15.8l15.2,5.1l5.3-15.8c1-3,5.8-3.4,7.3-0.5
			l9.7,19.3l20.5-20.5c1.9-1.9,5.7-0.4,5.7,2.3V408h96v-16h-80.3c-1.6-9.1-9.5-16-19-16c-5.2,0-10,2-13.7,5.7L242.2,386.5z"/>
		<path d="M152,232h96v16h-96V232z"/>
	</g>
</g>
</svg>
