<?xml version="1.0" encoding="utf-8"?>
<!-- Generator: Adobe Illustrator 25.0.1, SVG Export Plug-In . SVG Version: 6.00 Build 0)  -->
<svg version="1.1" id="regular" xmlns="http://www.w3.org/2000/svg" xmlns:xlink="http://www.w3.org/1999/xlink" x="0px" y="0px"
	 viewBox="0 0 512 512" style="enable-background:new 0 0 512 512;" xml:space="preserve">
<style type="text/css">
	.st0{fill:#3B9336;}
</style>
<path class="st0" d="M374.9,352.3c32.2-37.4,51.8-85.9,51.8-138.9C426.7,95.7,331,0,213.3,0S0,95.7,0,213.3s95.7,213.3,213.3,213.3
	c53.1,0,101.5-19.6,138.9-51.8l132.4,132.4c3.1,3.1,7.2,4.7,11.3,4.7c4.1,0,8.2-1.6,11.3-4.7c6.3-6.3,6.3-16.4,0-22.6L374.9,352.3z
	 M32,213.3C32,113.3,113.3,32,213.3,32s181.3,81.3,181.3,181.3s-81.3,181.3-181.3,181.3S32,313.3,32,213.3L32,213.3z"/>
<path class="st0" d="M213.3,192c35.3,0,64-28.7,64-64s-28.7-64-64-64s-64,28.7-64,64S178,192,213.3,192z M213.3,96
	c17.6,0,32,14.4,32,32s-14.4,32-32,32s-32-14.4-32-32S195.7,96,213.3,96z"/>
<path class="st0" d="M261.3,213.3h-96c-32.4,0-58.7,26.3-58.7,58.7v32c0,8.8,7.2,16,16,16s16-7.2,16-16v-32
	c0-14.7,12-26.7,26.7-26.7h96c14.7,0,26.7,12,26.7,26.7v32c0,8.8,7.2,16,16,16c8.8,0,16-7.2,16-16v-32
	C320,239.6,293.7,213.3,261.3,213.3z"/>
</svg>
