<svg xmlns="http://www.w3.org/2000/svg" viewBox="0 0 140.48 123.51"><defs><style>.cls-1{fill:#23601d;}.cls-2{fill:#3b9332;}</style></defs><g id="Logo_Artwork" data-name="Logo Artwork"><path class="cls-1" d="M140.48,0,124,36.7A73.64,73.64,0,0,0,81.64,57.37L70.24,32.06,58.84,57.37A73.64,73.64,0,0,0,16.54,36.7L0,0H27.47L44.63,38.07,60.84,0h18.8L95.86,38.07,113,0Z"/><path class="cls-2" d="M123.24,38.3,84.85,123.51H55.64L17.24,38.3a60.87,60.87,0,0,1,32.1,19.21c1.58,1.85,3.08,3.78,4.47,5.77A76.65,76.65,0,0,1,61,75.84L70.24,96.4l9.28-20.56a77.39,77.39,0,0,1,7.15-12.56,73,73,0,0,1,4.48-5.77A60.81,60.81,0,0,1,123.24,38.3Z"/></g></svg>