<?xml version="1.0" encoding="utf-8"?>
<!-- Generator: Adobe Illustrator 25.0.1, SVG Export Plug-In . SVG Version: 6.00 Build 0)  -->
<svg version="1.1" id="Capa_1" xmlns="http://www.w3.org/2000/svg" xmlns:xlink="http://www.w3.org/1999/xlink" x="0px" y="0px"
	 viewBox="0 0 385 385" style="enable-background:new 0 0 385 385;" xml:space="preserve">
<style type="text/css">
	.st0{fill:#FFFFFF;}
</style>
<g>
	<g id="Chevron_Right_Circle">
		<path class="st0" d="M192.5,0C86.2,0,0,86.2,0,192.5C0,298.8,86.2,385,192.5,385C298.8,385,385,298.8,385,192.5
			C385,86.2,298.8,0,192.5,0z M192.5,360.9c-92.9,0-168.4-75.5-168.4-168.4S99.6,23.7,192.5,23.7s168.4,75.9,168.4,168.8
			S285.4,360.9,192.5,360.9z"/>
		<path class="st0" d="M166.1,99.5c-4.7-4.7-12.3-4.7-17,0c-4.7,4.8-4.7,12.4,0,17.2l74.5,75.6l-74.5,75.6c-4.7,4.7-4.7,12.4,0,17.2
			c4.7,4.7,12.3,4.7,17,0l83-84.2c4.6-4.6,4.6-12.6,0-17.2L166.1,99.5z"/>
	</g>
</g>
</svg>
