<?xml version="1.0" encoding="utf-8"?>
<!-- Generator: Adobe Illustrator 25.4.0, SVG Export Plug-In . SVG Version: 6.00 Build 0)  -->
<svg version="1.1" id="Layer_1" xmlns="http://www.w3.org/2000/svg" xmlns:xlink="http://www.w3.org/1999/xlink" x="0px" y="0px"
	 viewBox="0 0 24 24" style="enable-background:new 0 0 24 24;" xml:space="preserve">
<style type="text/css">
	.st0{fill:#FFFFFF;}
</style>
<path class="st0" d="M20,7H5.6C4.4,7,4,6.4,4,6l16-1.5V3c0-0.6-0.6-1.1-1.2-1L3.7,4.7c-1,0.2-1.7,1-1.7,2V20c0,1.1,0.9,2,2,2h16
	c1.1,0,2-0.9,2-2V9C22,7.9,21.1,7,20,7z M18.5,16c-0.8,0-1.5-0.7-1.5-1.5s0.7-1.5,1.5-1.5s1.5,0.7,1.5,1.5S19.3,16,18.5,16z"/>
</svg>
