<?xml version="1.0" encoding="utf-8"?>
<!-- Generator: Adobe Illustrator 25.0.1, SVG Export Plug-In . SVG Version: 6.00 Build 0)  -->
<svg version="1.1" id="Layer_1" xmlns="http://www.w3.org/2000/svg" xmlns:xlink="http://www.w3.org/1999/xlink" x="0px" y="0px"
	 viewBox="0 0 511 511" style="enable-background:new 0 0 511 511;" xml:space="preserve">
<style type="text/css">
	.st0{fill:#63C959;}
</style>
<path class="st0" d="M295.9,335.9c-12.5-8.7-25.8-15.8-39.8-21.2c18.6-16.9,30.9-40.5,33-67c28.2-27.5,65.1-42.5,104.7-42.5
	c30.9,0,60.6,9.3,85.8,26.9c9,6.3,21.5,4.1,27.8-5c6.3-9,4.1-21.5-5-27.8c-12.5-8.7-25.9-15.8-39.8-21.2
	c20.5-18.6,33.4-45.5,33.4-75.3C496,46.7,450.4,1,394.2,1c-56.1,0-101.8,45.7-101.8,101.8c0,29.7,12.8,56.5,33.1,75.1
	c-2.8,1.1-5.6,2.2-8.3,3.4c-12.5,5.5-24.2,12.3-35.2,20.2c-15.1-37.4-51.7-63.9-94.5-63.9c-56.1,0-101.8,45.7-101.8,101.8
	c0,29.6,12.7,56.3,33,74.9c-54.1,20.3-98,63.9-115.9,119.4c-5.9,18.4-2.8,38,8.6,53.6s29,24.6,48.4,24.6h173.6c11,0,20-8.9,20-20
	c0-11-8.9-20-20-20H59.9c-6.5,0-12.3-3-16.1-8.2S39,452,40.9,445.8c19.7-61.3,79.9-104.2,146.3-104.2c30.9,0,60.6,9.3,85.8,26.9
	c9,6.3,21.5,4.1,27.8-5C307.1,354.7,304.9,342.2,295.9,335.9z M394.2,40.9c34.1,0,61.9,27.8,61.9,61.9s-27.8,61.9-61.9,61.9
	s-61.9-27.8-61.9-61.9C332.4,68.7,360.1,40.9,394.2,40.9z M187.7,177.5c34.1,0,61.9,27.8,61.9,61.9s-27.8,61.9-61.9,61.9
	s-61.9-27.8-61.9-61.9C125.8,205.3,153.6,177.5,187.7,177.5z M511,417.1c0,11-8.9,20-20,20h-54.9V492c0,11-8.9,20-20,20
	c-11,0-20-8.9-20-20v-54.9h-54.9c-11,0-20-8.9-20-20c0-11,8.9-20,20-20h54.9v-54.9c0-11,8.9-20,20-20c11,0,20,8.9,20,20v54.9H491
	C502.1,397.2,511,406.1,511,417.1z"/>
</svg>
