<svg width="21" height="21" viewBox="0 0 21 21" fill="none" xmlns="http://www.w3.org/2000/svg">
<path d="M20.4015 15.45C19.5918 14.619 18.7682 13.8012 17.9429 12.9858C17.0824 12.1352 16.0219 12.1319 15.1523 12.9719C14.8188 13.2943 14.4975 13.6298 14.1672 13.9554C13.4542 14.6568 12.6789 14.6666 11.9749 13.9661C10.3309 12.328 8.69183 10.6858 7.05602 9.03867C6.35202 8.32995 6.35694 7.55889 7.05192 6.8436C7.45104 6.43264 7.87556 6.04219 8.24682 5.60744C8.81149 4.94548 8.83772 3.9513 8.24682 3.31805C7.32565 2.33043 6.36841 1.37399 5.38086 0.452815C4.72194 -0.161574 3.74996 -0.137786 3.0599 0.445432C2.67553 0.770262 2.31902 1.13118 1.97071 1.49621C-0.585458 4.18344 -0.690361 8.06992 1.86335 10.7555C4.5818 13.6134 7.41088 16.3662 10.2137 19.142C11.4717 20.3872 13.0297 20.9663 14.5401 21C15.522 21.0024 16.2284 20.8753 16.9217 20.6538C18.41 20.1789 19.4959 19.1494 20.504 18.0265C21.2055 17.2447 21.1555 16.2251 20.4007 15.45H20.4015ZM3.39755 1.82514C3.48688 1.41828 4.27365 1.08607 4.5777 1.37481C5.50461 2.25743 6.39874 3.17532 7.30352 4.08173C7.40514 4.18262 7.42317 4.32289 7.43629 4.45987C7.43547 4.66412 7.04372 5.22191 6.8708 5.27195C6.76671 5.30148 6.72246 5.22191 6.66919 5.16859C5.60869 4.10879 4.54902 3.04818 3.49098 1.98591C3.44836 1.94326 3.3787 1.91455 3.39755 1.82514ZM17.9929 18.7327C17.0307 19.4201 15.9645 19.7695 14.7753 19.7802C13.2805 19.7531 11.9979 19.2036 10.9374 18.1429C8.24436 15.45 5.54067 12.7668 2.86894 10.0534C0.928248 8.08304 0.70779 5.14317 2.27559 3.02357C2.44277 2.79799 2.52965 2.75123 2.74929 2.97681C3.72947 3.98411 4.72686 4.97583 5.72835 5.96262C5.90209 6.13406 5.93241 6.23578 5.77752 6.45807C5.06451 7.48178 5.14974 8.83442 6.02502 9.73016C7.76083 11.5069 9.5163 13.2656 11.2906 15.0037C12.179 15.874 13.5231 15.9479 14.5614 15.2301C14.7696 15.0866 14.863 15.1104 15.0261 15.2752C16.0219 16.2866 17.0225 17.2939 18.0372 18.2873C18.247 18.4924 18.2101 18.5777 17.9929 18.7327ZM19.1862 17.6212C19.0772 17.6532 19.0452 17.5597 18.9944 17.5089C17.9396 16.4581 16.8898 15.4032 15.8342 14.3541C15.7121 14.2327 15.7055 14.1613 15.8285 14.026C16.3563 13.4419 16.6513 13.4272 17.2119 13.9882C17.965 14.7412 18.7174 15.4959 19.4722 16.2481C19.6304 16.4056 19.7672 16.5705 19.7615 16.8108C19.7574 17.0069 19.3525 17.5712 19.1862 17.6212Z" fill="black"/>
</svg>
