<svg width="18" height="21" viewBox="0 0 18 21" fill="none" xmlns="http://www.w3.org/2000/svg">
<path d="M15.3609 11.7533C14.4757 10.865 13.4272 10.2124 12.2255 9.7346C15.0503 7.55583 15.0494 3.84848 12.9567 1.66808C10.8955 -0.479494 7.4661 -0.569797 5.22342 1.4924C3.09482 3.45033 2.70258 7.36127 5.74474 9.7346C5.64064 9.78385 5.54071 9.82982 5.4416 9.87662C1.98305 11.498 0.134267 14.1833 0.00185455 17.9669C-0.0564404 19.6334 1.26685 20.9814 2.94325 20.988C6.97809 21.0044 11.0146 21.0036 15.0503 20.988C16.695 20.9814 18 19.672 18 18.0523C18 15.5985 17.1014 13.5002 15.3609 11.7525V11.7533ZM5.17345 5.35818C5.18344 3.27629 6.9198 1.59501 9.03923 1.61636C11.1412 1.6377 12.8334 3.32883 12.8234 5.39759C12.8134 7.45732 11.0887 9.14927 9.00009 9.14927C6.89315 9.14845 5.16429 7.43597 5.17345 5.35818ZM14.9312 19.3691C12.95 19.3798 10.968 19.3724 8.98677 19.3724C7.00557 19.3724 5.16179 19.374 3.24972 19.3724C2.09298 19.3724 1.5958 18.8199 1.64161 17.6944C1.77069 14.4615 4.1766 11.6917 7.36201 10.9406C11.0404 10.0728 15.0786 12.3829 16.0738 15.986C16.242 16.5952 16.3319 17.2117 16.3652 17.8413C16.4135 18.7485 15.8589 19.3642 14.9312 19.3691Z" fill="#F7F9FA"/>
<path d="M15.3609 11.7533C14.4757 10.865 13.4272 10.2124 12.2255 9.7346C15.0503 7.55583 15.0494 3.84848 12.9567 1.66808C10.8955 -0.479494 7.4661 -0.569797 5.22342 1.4924C3.09482 3.45033 2.70258 7.36127 5.74474 9.7346C5.64064 9.78385 5.54071 9.82982 5.4416 9.87662C1.98305 11.498 0.134267 14.1833 0.00185455 17.9669C-0.0564404 19.6334 1.26685 20.9814 2.94325 20.988C6.97809 21.0044 11.0146 21.0036 15.0503 20.988C16.695 20.9814 18 19.672 18 18.0523C18 15.5985 17.1014 13.5002 15.3609 11.7525V11.7533ZM5.17345 5.35818C5.18344 3.27629 6.9198 1.59501 9.03923 1.61636C11.1412 1.6377 12.8334 3.32883 12.8234 5.39759C12.8134 7.45732 11.0887 9.14927 9.00009 9.14927C6.89315 9.14845 5.16429 7.43597 5.17345 5.35818ZM14.9312 19.3691C12.95 19.3798 10.968 19.3724 8.98677 19.3724C7.00557 19.3724 5.16179 19.374 3.24972 19.3724C2.09298 19.3724 1.5958 18.8199 1.64161 17.6944C1.77069 14.4615 4.1766 11.6917 7.36201 10.9406C11.0404 10.0728 15.0786 12.3829 16.0738 15.986C16.242 16.5952 16.3319 17.2117 16.3652 17.8413C16.4135 18.7485 15.8589 19.3642 14.9312 19.3691Z" fill="black"/>
</svg>
