<?xml version="1.0" encoding="utf-8"?>
<!-- Generator: Adobe Illustrator 25.0.1, SVG Export Plug-In . SVG Version: 6.00 Build 0)  -->
<svg version="1.1" id="Layer_1" xmlns="http://www.w3.org/2000/svg" xmlns:xlink="http://www.w3.org/1999/xlink" x="0px" y="0px"
	 viewBox="0 0 512 512" style="enable-background:new 0 0 512 512;" xml:space="preserve">
<style type="text/css">
	.st0{fill:#FFFFFF;}
</style>
<path class="st0" d="M512,489.4c0-18.1-10.8-34.3-27.4-41.4l-127.5-54.3V362c13.5-17,22-37.1,24.9-58.8H408c24.8,0,45-20.2,45-45
	v-64.5c0-22.7-16.9-41.5-38.7-44.6C411.1,51.5,356.5,0,256,0S100.9,51.5,97.7,149.1C75.8,152.2,59,171,59,193.6v64.5
	c0,24.8,20.2,45,45,45H130c2.9,21.7,11.4,41.9,24.9,58.8v31.8L27.4,448.1C10.8,455.1,0,471.4,0,489.4v7.5c0,4,1.6,7.8,4.4,10.6
	C7.2,510.4,11,512,15,512h482c4,0,7.8-1.6,10.6-4.4c2.8-2.8,4.4-6.6,4.4-10.6L512,489.4z M327.1,404.3c0,0.4,0.9,36.8-20.7,59.2
	C294.6,475.8,277.7,482,256,482c-21.6,0-38.5-6.2-50.3-18.4c-21.8-22.5-20.8-59-20.8-59.3c0-0.2,0-0.4,0-0.6v-14.9
	c20.5,13,45,20,71.1,20s50.5-7,71.1-20v14.9C327.1,403.9,327.1,404.1,327.1,404.3z M353,280.1l-28.5,19c-9.1,6-19.6,9.2-30.5,9.2
	h-25.4c-8.3,0-15,6.7-15,15s6.7,15,15,15H294c16.8,0,33.1-4.9,47.2-14.3l5.7-3.8c-13.5,34.9-48.2,58.5-90.9,58.5
	c-55.3,0-97-39.6-97-92V165.2c5.9-27.5,14.5-45,24.8-50.6c10.3-5.6,25.2,0.2,39.7,5.8c11.3,4.4,21.9,8.5,32.6,8.5
	c10.8,0,21.3-4.2,32.4-8.6c14.5-5.8,28.1-11.2,38.3-5.9c7.4,3.8,17.9,15.8,26.4,50.9V280.1z M423,193.6v64.5c0,8.3-6.7,15-15,15h-25
	v-94.5h25C416.3,178.6,423,185.4,423,193.6z M154.4,66.7C175.2,42.4,209.4,30,256,30s80.8,12.4,101.6,36.7
	c16.4,19.2,25.3,46.7,26.7,81.9h-4.6c-9.1-32.2-21.6-51.6-39.1-60.7c-22.3-11.6-45-2.6-63.2,4.6c-8,3.2-16.3,6.5-21.3,6.5
	c-5,0-13.5-3.3-21.7-6.5c-18.9-7.3-42.4-16.5-64.9-4.2c-17,9.2-29.3,29-37.4,60.4h-4.3C129.1,113.5,138.1,85.9,154.4,66.7z
	 M89,258.2v-64.5c0-8.3,6.7-15,15-15h25v94.5h-25C95.7,273.2,89,266.4,89,258.2z M39.1,475.7l117.5-50c2.6,16.3,9.2,38.4,25.2,56.3
	H32C33.6,479.2,36.1,477,39.1,475.7z M330.1,482c16-17.9,22.6-40.1,25.2-56.3l117.5,50c3.1,1.3,5.6,3.6,7.1,6.3H330.1z"/>
</svg>
