<svg width="18" height="21" viewBox="0 0 18 21" fill="none" xmlns="http://www.w3.org/2000/svg">
<path d="M15.3766 6.92524C15.2181 6.68172 15.2087 6.51054 15.3719 6.26084C16.1897 5.01321 16.9859 3.75234 17.784 2.49323C18.1226 1.95853 18.0578 1.4706 17.6208 1.15031C17.3592 0.957075 17.0506 0.937664 16.7336 0.937664C12.6728 0.939428 8.61106 0.930605 4.55025 0.950899C4.08696 0.953546 3.93128 0.835312 4.01287 0.422375C4.07758 0.0959082 3.94535 -0.0249728 3.58522 0.00590919C3.22885 0.0376735 2.86497 0.0385559 2.50859 0.00679153C2.11001 -0.0293845 1.98434 0.0720849 1.98716 0.477963C2.00873 3.46117 1.99841 6.44437 1.99841 9.42757C1.99841 12.4108 1.99185 15.424 2.00779 18.4222C2.00966 18.7539 1.92432 18.8536 1.57357 18.8272C1.15436 18.7954 0.729525 18.8342 0.309376 18.8148C0.0552237 18.8025 -0.00761105 18.8854 0.00176727 19.1104C0.0195861 19.5366 0.0233374 19.9636 0.000829438 20.3889C-0.013238 20.6483 0.0842965 20.7013 0.343138 20.6995C2.12314 20.6889 3.90408 20.6907 5.68503 20.6977C5.90917 20.6986 6.02452 20.6713 6.01139 20.4189C5.98888 19.9786 5.98795 19.5366 6.01233 19.0963C6.0264 18.8431 5.91292 18.8086 5.68878 18.8166C5.2827 18.8289 4.87474 18.7989 4.47054 18.8263C4.12166 18.8492 3.99881 18.7707 4.00349 18.4081C4.026 16.4978 4.02413 14.5866 4.00443 12.6764C4.00068 12.3111 4.10384 12.2175 4.49304 12.2184C8.60168 12.2334 12.7094 12.2299 16.8171 12.2264C17.8759 12.2264 18.3017 11.5152 17.7605 10.6584C16.9728 9.41081 16.1841 8.16229 15.3766 6.92524ZM14.5185 10.3531C11.161 10.3531 7.80359 10.3487 4.44615 10.3602C4.1151 10.362 4.00068 10.3099 4.00349 9.96315C4.02319 7.71582 4.01381 5.46761 4.01381 3.2194C4.01381 3.02264 3.94723 2.82588 4.31673 2.82764C7.92363 2.84 11.5305 2.83558 15.1356 2.83558C15.1984 2.98646 15.0783 3.06235 15.0211 3.15411C14.4322 4.08675 13.846 5.02115 13.2421 5.94496C12.9579 6.38084 12.9598 6.78407 13.2449 7.21995C13.832 8.11994 14.3984 9.03052 14.9724 9.93845C15.0493 10.0593 15.1187 10.1846 15.2181 10.3531H14.5185Z" fill="#F7F9FA"/>
<path d="M15.3766 6.92524C15.2181 6.68172 15.2087 6.51054 15.3719 6.26084C16.1897 5.01321 16.9859 3.75234 17.784 2.49323C18.1226 1.95853 18.0578 1.4706 17.6208 1.15031C17.3592 0.957075 17.0506 0.937664 16.7336 0.937664C12.6728 0.939428 8.61106 0.930605 4.55025 0.950899C4.08696 0.953546 3.93128 0.835312 4.01287 0.422375C4.07758 0.0959082 3.94535 -0.0249728 3.58522 0.00590919C3.22885 0.0376735 2.86497 0.0385559 2.50859 0.00679153C2.11001 -0.0293845 1.98434 0.0720849 1.98716 0.477963C2.00873 3.46117 1.99841 6.44437 1.99841 9.42757C1.99841 12.4108 1.99185 15.424 2.00779 18.4222C2.00966 18.7539 1.92432 18.8536 1.57357 18.8272C1.15436 18.7954 0.729525 18.8342 0.309376 18.8148C0.0552237 18.8025 -0.00761105 18.8854 0.00176727 19.1104C0.0195861 19.5366 0.0233374 19.9636 0.000829438 20.3889C-0.013238 20.6483 0.0842965 20.7013 0.343138 20.6995C2.12314 20.6889 3.90408 20.6907 5.68503 20.6977C5.90917 20.6986 6.02452 20.6713 6.01139 20.4189C5.98888 19.9786 5.98795 19.5366 6.01233 19.0963C6.0264 18.8431 5.91292 18.8086 5.68878 18.8166C5.2827 18.8289 4.87474 18.7989 4.47054 18.8263C4.12166 18.8492 3.99881 18.7707 4.00349 18.4081C4.026 16.4978 4.02413 14.5866 4.00443 12.6764C4.00068 12.3111 4.10384 12.2175 4.49304 12.2184C8.60168 12.2334 12.7094 12.2299 16.8171 12.2264C17.8759 12.2264 18.3017 11.5152 17.7605 10.6584C16.9728 9.41081 16.1841 8.16229 15.3766 6.92524ZM14.5185 10.3531C11.161 10.3531 7.80359 10.3487 4.44615 10.3602C4.1151 10.362 4.00068 10.3099 4.00349 9.96315C4.02319 7.71582 4.01381 5.46761 4.01381 3.2194C4.01381 3.02264 3.94723 2.82588 4.31673 2.82764C7.92363 2.84 11.5305 2.83558 15.1356 2.83558C15.1984 2.98646 15.0783 3.06235 15.0211 3.15411C14.4322 4.08675 13.846 5.02115 13.2421 5.94496C12.9579 6.38084 12.9598 6.78407 13.2449 7.21995C13.832 8.11994 14.3984 9.03052 14.9724 9.93845C15.0493 10.0593 15.1187 10.1846 15.2181 10.3531H14.5185Z" fill="black"/>
</svg>
