<svg width="22" height="22" viewBox="0 0 22 22" fill="none" xmlns="http://www.w3.org/2000/svg">
<path d="M21.9903 5.90493C21.9826 3.60708 20.1587 1.76587 17.8664 1.70137C17.5802 1.69277 17.2244 1.79683 17.0258 1.66353C16.7809 1.49756 16.9571 1.11057 16.927 0.820759C16.8806 0.358952 16.5368 0.0123824 16.0916 0.000342781C15.6317 -0.0125568 15.2484 0.340033 15.2131 0.819899C15.1994 1.01941 15.2011 1.22065 15.2114 1.42102C15.2217 1.61022 15.1839 1.70223 14.9587 1.70137C12.3243 1.69363 9.69082 1.69449 7.05644 1.70051C6.85875 1.70051 6.76421 1.65493 6.78398 1.43994C6.79859 1.26967 6.78999 1.09681 6.7857 0.924816C6.77108 0.378732 6.41439 -0.00137717 5.92361 0.000342781C5.4294 0.00206273 5.08302 0.379592 5.06927 0.930836C5.05666 1.43765 4.82116 1.69306 4.36275 1.69707C1.81003 1.71685 0.00334639 3.53914 0.00162738 6.101C-9.1631e-05 9.93993 -0.000951136 13.778 0.00162738 17.6169C0.00420589 20.1539 1.85214 21.9933 4.39627 21.9959C6.58629 21.9985 8.77717 21.9968 10.9672 21.9968C13.2285 21.9959 15.4908 22.0054 17.753 21.9942C20.1011 21.9822 21.9835 20.1109 21.9903 17.764C22.0032 13.8115 22.0032 9.85823 21.9903 5.90493ZM20.2756 17.61C20.2748 19.1993 19.2012 20.2768 17.6103 20.2777C13.2028 20.2811 8.79436 20.2811 4.38682 20.2777C2.79502 20.2768 1.72064 19.2001 1.71978 17.6118C1.7172 14.7051 1.72493 11.7983 1.71032 8.89162C1.7086 8.55193 1.80057 8.47453 2.13062 8.47625C5.09333 8.48915 8.05604 8.48399 11.0188 8.48399C13.9815 8.48399 16.915 8.48915 19.8631 8.47625C20.1905 8.47453 20.2868 8.54763 20.2851 8.8899C20.2705 11.7966 20.2782 14.7033 20.2756 17.61ZM20.2799 6.58689C20.267 6.78898 20.1476 6.76834 20.0186 6.76748H10.9981C8.04831 6.76748 5.09849 6.7606 2.14953 6.77694C1.78424 6.77952 1.70602 6.67891 1.71032 6.32804C1.72751 4.77922 2.37988 3.81003 3.66741 3.4798C4.06279 3.37832 4.46503 3.4368 4.86384 3.41272C5.09333 3.39896 5.07013 3.54258 5.06927 3.68791C5.06755 4.13166 5.06325 4.57627 5.07099 5.02002C5.07958 5.579 5.42252 5.93761 5.93221 5.93503C6.4376 5.93159 6.77538 5.5704 6.78484 5.00798C6.79257 4.56337 6.79687 4.11962 6.78226 3.67588C6.77538 3.46948 6.83899 3.411 7.04613 3.411C9.68051 3.41788 12.3149 3.41788 14.9493 3.411C15.1556 3.411 15.22 3.46862 15.2131 3.67502C15.1994 4.11876 15.2037 4.56337 15.2106 5.00712C15.2192 5.56954 15.5561 5.93159 16.0623 5.93503C16.572 5.93761 16.915 5.57986 16.9253 5.02088C16.9321 4.60551 16.9493 4.18842 16.9193 3.77477C16.8969 3.45916 17.0155 3.40756 17.3026 3.4067C17.9567 3.40412 18.5876 3.44798 19.1488 3.83497C20.1252 4.50747 20.3521 5.48182 20.2799 6.58689ZM16.9493 16.0724C16.6648 16.0569 16.3786 16.0698 16.0933 16.0698C15.7942 16.069 15.4942 16.0569 15.1951 16.0724C14.7198 16.0965 14.3571 16.4809 14.3622 16.9332C14.3665 17.3701 14.7129 17.7597 15.1676 17.7777C15.7658 17.801 16.3666 17.8001 16.9648 17.7777C17.4212 17.7614 17.7667 17.3779 17.7753 16.9393C17.7839 16.4852 17.4246 16.0991 16.9493 16.0724ZM16.9287 11.0029C16.3589 10.9865 15.7873 10.9874 15.2174 11.002C14.7361 11.0149 14.3717 11.3881 14.3622 11.8422C14.3519 12.3083 14.7284 12.6927 15.2312 12.7142C15.5011 12.7254 15.7727 12.7159 16.0434 12.7151C16.3434 12.7151 16.6434 12.728 16.9425 12.7116C17.4203 12.6858 17.7796 12.304 17.7753 11.8499C17.771 11.3941 17.41 11.0158 16.9287 11.0029ZM11.8559 16.0716C11.5714 16.0578 11.2861 16.069 11.0007 16.069C10.7154 16.0681 10.4291 16.0587 10.1446 16.0707C9.65902 16.0913 9.29803 16.4499 9.28685 16.9066C9.27568 17.3761 9.64785 17.7691 10.1498 17.782C10.7205 17.7975 11.2912 17.7992 11.8619 17.7803C12.339 17.7648 12.7025 17.3736 12.6999 16.9229C12.6982 16.4689 12.3347 16.0939 11.8559 16.0716ZM11.8456 11.002C11.2749 10.9874 10.7042 10.9865 10.1335 11.0029C9.64957 11.0166 9.29201 11.3898 9.28685 11.8482C9.28256 12.304 9.63925 12.685 10.118 12.7116C10.4025 12.728 10.6887 12.7151 10.9741 12.7151C11.2594 12.7159 11.5448 12.7254 11.8293 12.7142C12.3321 12.6936 12.7094 12.31 12.6999 11.8431C12.6914 11.3898 12.3261 11.0149 11.8456 11.002ZM6.8089 16.0724C6.52441 16.0561 6.23819 16.0698 5.9537 16.0698C5.65373 16.069 5.35376 16.0569 5.05465 16.0724C4.57591 16.0965 4.2175 16.4749 4.22008 16.9307C4.22265 17.3684 4.56817 17.7597 5.02199 17.7777C5.62021 17.801 6.22014 17.8001 6.81836 17.7786C7.27389 17.7623 7.62371 17.3779 7.63403 16.9418C7.64348 16.4904 7.28249 16.0999 6.8089 16.0724ZM5.09075 12.7142C5.3615 12.7254 5.6331 12.7159 5.90384 12.7151C6.20381 12.7151 6.50378 12.728 6.80203 12.7116C7.27819 12.685 7.64004 12.298 7.63317 11.8465C7.62715 11.3924 7.26272 11.0158 6.78312 11.002C6.21241 10.9865 5.6417 10.9865 5.07099 11.002C4.5888 11.0149 4.22695 11.389 4.22008 11.8448C4.21234 12.3135 4.58708 12.6927 5.09075 12.7142Z" fill="#F7F9FA"/>
<path d="M21.9903 5.90493C21.9826 3.60708 20.1587 1.76587 17.8664 1.70137C17.5802 1.69277 17.2244 1.79683 17.0258 1.66353C16.7809 1.49756 16.9571 1.11057 16.927 0.820759C16.8806 0.358952 16.5368 0.0123824 16.0916 0.000342781C15.6317 -0.0125568 15.2484 0.340033 15.2131 0.819899C15.1994 1.01941 15.2011 1.22065 15.2114 1.42102C15.2217 1.61022 15.1839 1.70223 14.9587 1.70137C12.3243 1.69363 9.69082 1.69449 7.05644 1.70051C6.85875 1.70051 6.76421 1.65493 6.78398 1.43994C6.79859 1.26967 6.78999 1.09681 6.7857 0.924816C6.77108 0.378732 6.41439 -0.00137717 5.92361 0.000342781C5.4294 0.00206273 5.08302 0.379592 5.06927 0.930836C5.05666 1.43765 4.82116 1.69306 4.36275 1.69707C1.81003 1.71685 0.00334639 3.53914 0.00162738 6.101C-9.1631e-05 9.93993 -0.000951136 13.778 0.00162738 17.6169C0.00420589 20.1539 1.85214 21.9933 4.39627 21.9959C6.58629 21.9985 8.77717 21.9968 10.9672 21.9968C13.2285 21.9959 15.4908 22.0054 17.753 21.9942C20.1011 21.9822 21.9835 20.1109 21.9903 17.764C22.0032 13.8115 22.0032 9.85823 21.9903 5.90493ZM20.2756 17.61C20.2748 19.1993 19.2012 20.2768 17.6103 20.2777C13.2028 20.2811 8.79436 20.2811 4.38682 20.2777C2.79502 20.2768 1.72064 19.2001 1.71978 17.6118C1.7172 14.7051 1.72493 11.7983 1.71032 8.89162C1.7086 8.55193 1.80057 8.47453 2.13062 8.47625C5.09333 8.48915 8.05604 8.48399 11.0188 8.48399C13.9815 8.48399 16.915 8.48915 19.8631 8.47625C20.1905 8.47453 20.2868 8.54763 20.2851 8.8899C20.2705 11.7966 20.2782 14.7033 20.2756 17.61ZM20.2799 6.58689C20.267 6.78898 20.1476 6.76834 20.0186 6.76748H10.9981C8.04831 6.76748 5.09849 6.7606 2.14953 6.77694C1.78424 6.77952 1.70602 6.67891 1.71032 6.32804C1.72751 4.77922 2.37988 3.81003 3.66741 3.4798C4.06279 3.37832 4.46503 3.4368 4.86384 3.41272C5.09333 3.39896 5.07013 3.54258 5.06927 3.68791C5.06755 4.13166 5.06325 4.57627 5.07099 5.02002C5.07958 5.579 5.42252 5.93761 5.93221 5.93503C6.4376 5.93159 6.77538 5.5704 6.78484 5.00798C6.79257 4.56337 6.79687 4.11962 6.78226 3.67588C6.77538 3.46948 6.83899 3.411 7.04613 3.411C9.68051 3.41788 12.3149 3.41788 14.9493 3.411C15.1556 3.411 15.22 3.46862 15.2131 3.67502C15.1994 4.11876 15.2037 4.56337 15.2106 5.00712C15.2192 5.56954 15.5561 5.93159 16.0623 5.93503C16.572 5.93761 16.915 5.57986 16.9253 5.02088C16.9321 4.60551 16.9493 4.18842 16.9193 3.77477C16.8969 3.45916 17.0155 3.40756 17.3026 3.4067C17.9567 3.40412 18.5876 3.44798 19.1488 3.83497C20.1252 4.50747 20.3521 5.48182 20.2799 6.58689ZM16.9493 16.0724C16.6648 16.0569 16.3786 16.0698 16.0933 16.0698C15.7942 16.069 15.4942 16.0569 15.1951 16.0724C14.7198 16.0965 14.3571 16.4809 14.3622 16.9332C14.3665 17.3701 14.7129 17.7597 15.1676 17.7777C15.7658 17.801 16.3666 17.8001 16.9648 17.7777C17.4212 17.7614 17.7667 17.3779 17.7753 16.9393C17.7839 16.4852 17.4246 16.0991 16.9493 16.0724ZM16.9287 11.0029C16.3589 10.9865 15.7873 10.9874 15.2174 11.002C14.7361 11.0149 14.3717 11.3881 14.3622 11.8422C14.3519 12.3083 14.7284 12.6927 15.2312 12.7142C15.5011 12.7254 15.7727 12.7159 16.0434 12.7151C16.3434 12.7151 16.6434 12.728 16.9425 12.7116C17.4203 12.6858 17.7796 12.304 17.7753 11.8499C17.771 11.3941 17.41 11.0158 16.9287 11.0029ZM11.8559 16.0716C11.5714 16.0578 11.2861 16.069 11.0007 16.069C10.7154 16.0681 10.4291 16.0587 10.1446 16.0707C9.65902 16.0913 9.29803 16.4499 9.28685 16.9066C9.27568 17.3761 9.64785 17.7691 10.1498 17.782C10.7205 17.7975 11.2912 17.7992 11.8619 17.7803C12.339 17.7648 12.7025 17.3736 12.6999 16.9229C12.6982 16.4689 12.3347 16.0939 11.8559 16.0716ZM11.8456 11.002C11.2749 10.9874 10.7042 10.9865 10.1335 11.0029C9.64957 11.0166 9.29201 11.3898 9.28685 11.8482C9.28256 12.304 9.63925 12.685 10.118 12.7116C10.4025 12.728 10.6887 12.7151 10.9741 12.7151C11.2594 12.7159 11.5448 12.7254 11.8293 12.7142C12.3321 12.6936 12.7094 12.31 12.6999 11.8431C12.6914 11.3898 12.3261 11.0149 11.8456 11.002ZM6.8089 16.0724C6.52441 16.0561 6.23819 16.0698 5.9537 16.0698C5.65373 16.069 5.35376 16.0569 5.05465 16.0724C4.57591 16.0965 4.2175 16.4749 4.22008 16.9307C4.22265 17.3684 4.56817 17.7597 5.02199 17.7777C5.62021 17.801 6.22014 17.8001 6.81836 17.7786C7.27389 17.7623 7.62371 17.3779 7.63403 16.9418C7.64348 16.4904 7.28249 16.0999 6.8089 16.0724ZM5.09075 12.7142C5.3615 12.7254 5.6331 12.7159 5.90384 12.7151C6.20381 12.7151 6.50378 12.728 6.80203 12.7116C7.27819 12.685 7.64004 12.298 7.63317 11.8465C7.62715 11.3924 7.26272 11.0158 6.78312 11.002C6.21241 10.9865 5.6417 10.9865 5.07099 11.002C4.5888 11.0149 4.22695 11.389 4.22008 11.8448C4.21234 12.3135 4.58708 12.6927 5.09075 12.7142Z" fill="black"/>
<path d="M4.22008 11.8448C4.22695 11.389 4.5888 11.0149 5.07099 11.002C5.6417 10.9865 6.21241 10.9865 6.78312 11.002C7.26272 11.0158 7.62715 11.3924 7.63317 11.8465C7.64004 12.298 7.27819 12.685 6.80203 12.7116C6.50378 12.728 6.20381 12.7151 5.90384 12.7151C5.6331 12.7159 5.3615 12.7254 5.09075 12.7142C4.58708 12.6927 4.21234 12.3135 4.22008 11.8448Z" fill="#F7F9FA"/>
<path d="M7.63403 16.9418C7.62371 17.3779 7.27389 17.7623 6.81836 17.7786C6.22014 17.8001 5.62021 17.801 5.02199 17.7777C4.56817 17.7597 4.22265 17.3684 4.22008 16.9307C4.2175 16.4749 4.57591 16.0965 5.05465 16.0724C5.35376 16.0569 5.65373 16.069 5.9537 16.0698C6.23819 16.0698 6.52441 16.0561 6.8089 16.0724C7.28249 16.0999 7.64348 16.4904 7.63403 16.9418Z" fill="#F7F9FA"/>
<path d="M12.6999 11.8431C12.7094 12.31 12.3321 12.6936 11.8293 12.7142C11.5448 12.7254 11.2594 12.7159 10.9741 12.7151C10.6887 12.7151 10.4025 12.728 10.118 12.7116C9.63925 12.685 9.28256 12.304 9.28685 11.8482C9.29201 11.3898 9.64957 11.0166 10.1335 11.0029C10.7042 10.9865 11.2749 10.9874 11.8456 11.002C12.3261 11.0149 12.6914 11.3898 12.6999 11.8431Z" fill="#F7F9FA"/>
<path d="M12.6999 16.9229C12.7025 17.3736 12.339 17.7648 11.8619 17.7803C11.2912 17.7992 10.7205 17.7975 10.1498 17.782C9.64785 17.7691 9.27568 17.3761 9.28685 16.9066C9.29803 16.4499 9.65902 16.0913 10.1446 16.0707C10.4291 16.0587 10.7154 16.0681 11.0007 16.069C11.2861 16.069 11.5714 16.0578 11.8559 16.0716C12.3347 16.0939 12.6982 16.4689 12.6999 16.9229Z" fill="#F7F9FA"/>
<path d="M14.3622 11.8422C14.3717 11.3881 14.7361 11.0149 15.2174 11.002C15.7873 10.9874 16.3589 10.9865 16.9287 11.0029C17.41 11.0158 17.771 11.3941 17.7753 11.8499C17.7796 12.304 17.4203 12.6858 16.9425 12.7116C16.6434 12.728 16.3434 12.7151 16.0434 12.7151C15.7727 12.7159 15.5011 12.7254 15.2312 12.7142C14.7284 12.6927 14.3519 12.3083 14.3622 11.8422Z" fill="#F7F9FA"/>
<path d="M17.7753 16.9393C17.7667 17.3779 17.4212 17.7614 16.9648 17.7777C16.3666 17.8001 15.7658 17.801 15.1676 17.7777C14.7129 17.7597 14.3665 17.3701 14.3622 16.9332C14.3571 16.4809 14.7198 16.0965 15.1951 16.0724C15.4942 16.0569 15.7942 16.069 16.0933 16.0698C16.3786 16.0698 16.6648 16.0569 16.9493 16.0724C17.4246 16.0991 17.7839 16.4852 17.7753 16.9393Z" fill="#F7F9FA"/>
<path d="M12.6999 16.9229C12.7025 17.3736 12.339 17.7648 11.8619 17.7803C11.2912 17.7992 10.7205 17.7975 10.1498 17.782C9.64785 17.7691 9.27568 17.3761 9.28685 16.9066C9.29803 16.4499 9.65902 16.0913 10.1446 16.0707C10.4291 16.0587 10.7154 16.0681 11.0007 16.069C11.2861 16.069 11.5714 16.0578 11.8559 16.0716C12.3347 16.0939 12.6982 16.4689 12.6999 16.9229Z" fill="black"/>
<path d="M7.63317 11.8465C7.64004 12.298 7.27819 12.685 6.80203 12.7116C6.50378 12.728 6.20381 12.7151 5.90384 12.7151C5.6331 12.7159 5.3615 12.7254 5.09075 12.7142C4.58708 12.6927 4.21234 12.3135 4.22008 11.8448C4.22695 11.389 4.5888 11.0149 5.07099 11.002C5.6417 10.9865 6.21241 10.9865 6.78312 11.002C7.26272 11.0158 7.62715 11.3924 7.63317 11.8465Z" fill="black"/>
<path d="M12.6999 11.8431C12.7094 12.31 12.3321 12.6936 11.8293 12.7142C11.5448 12.7254 11.2594 12.7159 10.9741 12.7151C10.6887 12.7151 10.4025 12.728 10.118 12.7116C9.63925 12.685 9.28256 12.304 9.28685 11.8482C9.29201 11.3898 9.64957 11.0166 10.1335 11.0029C10.7042 10.9865 11.2749 10.9874 11.8456 11.002C12.3261 11.0149 12.6914 11.3898 12.6999 11.8431Z" fill="black"/>
<path d="M17.7753 11.8499C17.7796 12.304 17.4203 12.6858 16.9425 12.7116C16.6434 12.728 16.3434 12.7151 16.0434 12.7151C15.7727 12.7159 15.5011 12.7254 15.2312 12.7142C14.7284 12.6927 14.3519 12.3083 14.3622 11.8422C14.3717 11.3881 14.7361 11.0149 15.2174 11.002C15.7873 10.9874 16.3589 10.9865 16.9287 11.0029C17.41 11.0158 17.771 11.3941 17.7753 11.8499Z" fill="black"/>
<path d="M7.63403 16.9418C7.62371 17.3779 7.27389 17.7623 6.81836 17.7786C6.22014 17.8001 5.62021 17.801 5.02199 17.7777C4.56817 17.7597 4.22265 17.3684 4.22008 16.9307C4.2175 16.4749 4.57591 16.0965 5.05465 16.0724C5.35376 16.0569 5.65373 16.069 5.9537 16.0698C6.23819 16.0698 6.52441 16.0561 6.8089 16.0724C7.28249 16.0999 7.64348 16.4904 7.63403 16.9418Z" fill="black"/>
<path d="M17.7753 16.9393C17.7667 17.3779 17.4212 17.7614 16.9648 17.7777C16.3666 17.8001 15.7658 17.801 15.1676 17.7777C14.7129 17.7597 14.3665 17.3701 14.3622 16.9332C14.3571 16.4809 14.7198 16.0965 15.1951 16.0724C15.4942 16.0569 15.7942 16.069 16.0933 16.0698C16.3786 16.0698 16.6648 16.0569 16.9493 16.0724C17.4246 16.0991 17.7839 16.4852 17.7753 16.9393Z" fill="black"/>
</svg>
