<svg width="21" height="21" viewBox="0 0 21 21" fill="none" xmlns="http://www.w3.org/2000/svg">
<path d="M14.5582 14.6982C14.252 15.134 13.6593 15.2415 13.2702 14.8632C12.1135 13.7404 10.9823 12.5913 9.84614 11.448C9.63763 11.2387 9.62695 10.9555 9.62531 10.6814C9.62121 9.94354 9.62531 9.20567 9.62531 8.46781C9.62531 7.70204 9.61957 6.93709 9.62777 6.17214C9.6327 5.77243 9.79606 5.44987 10.1844 5.29639C10.5127 5.16671 10.8296 5.21021 11.103 5.44741C11.3361 5.65014 11.4108 5.9136 11.4092 6.2181C11.4034 7.52968 11.4133 8.84126 11.4018 10.1528C11.3993 10.404 11.465 10.5821 11.6481 10.761C12.5659 11.6597 13.4721 12.5708 14.3768 13.4827C14.7585 13.8676 14.8201 14.3272 14.559 14.6982H14.5582Z" fill="#F7F9FA"/>
<path d="M10.5242 2.40831e-05C4.73426 -0.0122873 0.00739515 4.69724 6.85414e-06 10.4861C-0.00656052 16.2757 4.70717 20.9975 10.4963 21C16.2854 21.0016 21.0033 16.2831 21 10.4934C20.9967 4.72104 16.2961 0.0123355 10.5242 2.40831e-05ZM10.4741 18.7035C5.96236 18.6945 2.28463 14.9888 2.29612 10.4639C2.30844 5.97106 6.00423 2.29487 10.5062 2.29651C15.022 2.29815 18.7096 5.99486 18.7039 10.5156C18.699 15.0298 14.9974 18.7117 10.4741 18.7035Z" fill="#F7F9FA"/>
<path d="M14.5582 14.6982C14.252 15.134 13.6593 15.2415 13.2702 14.8632C12.1135 13.7404 10.9823 12.5913 9.84614 11.448C9.63763 11.2387 9.62695 10.9555 9.62531 10.6814C9.62121 9.94354 9.62531 9.20567 9.62531 8.46781C9.62531 7.70204 9.61957 6.93709 9.62777 6.17214C9.6327 5.77243 9.79606 5.44987 10.1844 5.29639C10.5127 5.16671 10.8296 5.21021 11.103 5.44741C11.3361 5.65014 11.4108 5.9136 11.4092 6.2181C11.4034 7.52968 11.4133 8.84126 11.4018 10.1528C11.3993 10.404 11.465 10.5821 11.6481 10.761C12.5659 11.6597 13.4721 12.5708 14.3768 13.4827C14.7585 13.8676 14.8201 14.3272 14.559 14.6982H14.5582Z" fill="black"/>
<path d="M10.5242 2.40831e-05C4.73426 -0.0122873 0.00739515 4.69724 6.85414e-06 10.4861C-0.00656052 16.2757 4.70717 20.9975 10.4963 21C16.2854 21.0016 21.0033 16.2831 21 10.4934C20.9967 4.72104 16.2961 0.0123355 10.5242 2.40831e-05ZM10.4741 18.7035C5.96236 18.6945 2.28463 14.9888 2.29612 10.4639C2.30844 5.97106 6.00423 2.29487 10.5062 2.29651C15.022 2.29815 18.7096 5.99486 18.7039 10.5156C18.699 15.0298 14.9974 18.7117 10.4741 18.7035Z" fill="black"/>
<path d="M14.5582 14.6982C14.252 15.134 13.6593 15.2415 13.2702 14.8632C12.1135 13.7404 10.9823 12.5913 9.84614 11.448C9.63763 11.2387 9.62695 10.9555 9.62531 10.6814C9.62121 9.94354 9.62531 9.20567 9.62531 8.46781C9.62531 7.70204 9.61957 6.93709 9.62777 6.17214C9.6327 5.77243 9.79606 5.44987 10.1844 5.29639C10.5127 5.16671 10.8296 5.21021 11.103 5.44741C11.3361 5.65014 11.4108 5.9136 11.4092 6.2181C11.4034 7.52968 11.4133 8.84126 11.4018 10.1528C11.3993 10.404 11.465 10.5821 11.6481 10.761C12.5659 11.6597 13.4721 12.5708 14.3768 13.4827C14.7585 13.8676 14.8201 14.3272 14.559 14.6982H14.5582Z" fill="#F7F9FA"/>
<path d="M14.5582 14.6982C14.252 15.134 13.6593 15.2415 13.2702 14.8632C12.1135 13.7404 10.9823 12.5913 9.84614 11.448C9.63763 11.2387 9.62695 10.9555 9.62531 10.6814C9.62121 9.94354 9.62531 9.20567 9.62531 8.46781C9.62531 7.70204 9.61957 6.93709 9.62777 6.17214C9.6327 5.77243 9.79606 5.44987 10.1844 5.29639C10.5127 5.16671 10.8296 5.21021 11.103 5.44741C11.3361 5.65014 11.4108 5.9136 11.4092 6.2181C11.4034 7.52968 11.4133 8.84126 11.4018 10.1528C11.3993 10.404 11.465 10.5821 11.6481 10.761C12.5659 11.6597 13.4721 12.5708 14.3768 13.4827C14.7585 13.8676 14.8201 14.3272 14.559 14.6982H14.5582Z" fill="black"/>
</svg>
