<?xml version="1.0" encoding="utf-8"?>
<!-- Generator: Adobe Illustrator 25.4.0, SVG Export Plug-In . SVG Version: 6.00 Build 0)  -->
<svg version="1.1" id="Layer_1" xmlns="http://www.w3.org/2000/svg" xmlns:xlink="http://www.w3.org/1999/xlink" x="0px" y="0px"
	 viewBox="0 0 512 512" style="enable-background:new 0 0 512 512;" xml:space="preserve">
<path d="M396.1,247.1H509l-19.8-94.9c-1.4-7-7.6-11.9-14.7-11.9H300.8L396.1,247.1z"/>
<path d="M210.9,140.2H37.5c-7.1,0-13.2,5-14.7,11.9L3,247.1h111.8L210.9,140.2z"/>
<path d="M256,224.9c-8.3,0-15,6.7-15,15s6.7,15,15,15s15-6.7,15-15C271,231.7,264.3,224.9,256,224.9z"/>
<path d="M240.4,429h30v83h-30V429z"/>
<path d="M389.4,277.1c-4.3,0-8.3-1.8-11.2-5L271,151.9V75h68.2c7.8,0,12.6-8.5,8.6-15.1l-13.4-22.4l13.4-22.4
	c4-6.7-0.8-15.1-8.6-15.1h-83c-0.1,0-0.1,0-0.2,0c-8.3,0-15,6.7-15,15v136.6L132.6,272.1c-2.8,3.2-6.9,5-11.2,5H0V497
	c0,8.3,6.7,15,15,15h195.4v-98c0-8.3,6.7-15,15-15h60c8.3,0,15,6.7,15,15v98H497c8.3,0,15-6.7,15-15V277.1H389.4z M91.4,434
	c0,8.3-6.7,15-15,15c-8.3,0-15-6.7-15-15v-20c0-8.3,6.7-15,15-15c8.3,0,15,6.7,15,15V434z M91.4,354c0,8.3-6.7,15-15,15
	c-8.3,0-15-6.7-15-15v-20c0-8.3,6.7-15,15-15c8.3,0,15,6.7,15,15V354z M151.4,434c0,8.3-6.7,15-15,15c-8.3,0-15-6.7-15-15v-20
	c0-8.3,6.7-15,15-15c8.3,0,15,6.7,15,15V434z M151.4,354c0,8.3-6.7,15-15,15c-8.3,0-15-6.7-15-15v-20c0-8.3,6.7-15,15-15
	c8.3,0,15,6.7,15,15V354z M240.2,354c0,8.3-6.7,15-15,15s-15-6.7-15-15v-20c0-8.3,6.7-15,15-15s15,6.7,15,15V354z M211,239.9
	c0-24.8,20.2-45,45-45s45,20.2,45,45c0,24.8-20.2,45-45,45S211,264.8,211,239.9z M301.8,354c0,8.3-6.7,15-15,15s-15-6.7-15-15v-20
	c0-8.3,6.7-15,15-15s15,6.7,15,15V354z M386.8,434c0,8.3-6.7,15-15,15c-8.3,0-15-6.7-15-15v-20c0-8.3,6.7-15,15-15
	c8.3,0,15,6.7,15,15V434z M386.8,354c0,8.3-6.7,15-15,15c-8.3,0-15-6.7-15-15v-20c0-8.3,6.7-15,15-15c8.3,0,15,6.7,15,15V354z
	 M446.8,434c0,8.3-6.7,15-15,15c-8.3,0-15-6.7-15-15v-20c0-8.3,6.7-15,15-15c8.3,0,15,6.7,15,15V434z M446.8,354c0,8.3-6.7,15-15,15
	c-8.3,0-15-6.7-15-15v-20c0-8.3,6.7-15,15-15c8.3,0,15,6.7,15,15V354z"/>
</svg>
