<svg width="26" height="26" viewBox="0 0 26 26" fill="none" xmlns="http://www.w3.org/2000/svg">
<path d="M18.688 6.09213C18.688 5.21181 18.6738 4.33149 18.6931 3.45218C18.7043 2.97339 18.5266 2.6481 18.096 2.43565C16.5547 1.67222 15.0174 0.900672 13.4811 0.127087C13.1714 -0.0294602 12.879 -0.0477579 12.5632 0.110822C10.9985 0.901689 9.42972 1.68544 7.86095 2.46919C7.49033 2.6542 7.31771 2.94493 7.31974 3.36273C7.32584 5.1742 7.32787 6.98465 7.31771 8.79613C7.31568 9.24035 7.50251 9.52803 7.89141 9.72016C9.43175 10.4846 10.9721 11.2511 12.5053 12.0287C12.8556 12.2066 13.1684 12.2005 13.5146 12.0247C15.0489 11.248 16.5892 10.4815 18.1296 9.71609C18.5195 9.52193 18.6992 9.2251 18.6921 8.78393C18.6789 7.88734 18.688 6.98974 18.688 6.09213ZM12.1936 10.0455C11.1234 9.5138 10.105 9.00756 9.0855 8.50133C8.96163 8.43932 8.94335 8.33258 8.94436 8.20653C8.94741 7.0121 8.94436 5.81767 8.94436 4.55614C9.99732 5.08271 10.9985 5.5859 12.0027 6.08197C12.1438 6.15109 12.1956 6.24156 12.1946 6.39608C12.1906 7.59051 12.1926 8.78494 12.1926 10.0455H12.1936ZM11.625 4.09362C11.1538 3.75511 10.5822 3.55587 9.9496 3.23973C10.9772 2.72739 11.9103 2.27097 12.8333 1.79421C13.0049 1.70577 13.1196 1.76371 13.2527 1.82979C14.1543 2.28215 15.055 2.73654 16.0551 3.23973C15.4571 3.53859 14.8854 3.74393 14.4061 4.08142C13.4578 4.74929 12.5805 4.77877 11.625 4.09362ZM16.8146 8.55724C15.8348 9.03298 14.8631 9.52803 13.8172 10.0515C13.8172 8.77275 13.8182 7.55188 13.8162 6.33102C13.8162 6.23648 13.8507 6.16431 13.9319 6.12365C14.9615 5.60826 15.9922 5.09491 17.0644 4.56021C17.0644 5.79835 17.0604 6.96331 17.0685 8.12724C17.0705 8.33767 17.0167 8.45863 16.8146 8.55724Z" fill="#F7F9FA"/>
<path d="M25.1103 14.3515C24.0929 13.4082 22.6694 13.4387 21.6499 14.4338C21.1168 14.9533 20.599 15.488 20.07 16.0115C19.6719 16.4049 19.217 16.7068 18.6576 16.8552C18.7936 14.8303 17.826 13.8046 15.8084 13.8046C13.3065 13.8046 10.8035 13.7955 8.30162 13.8087C6.94101 13.8158 5.80885 14.3688 5.08792 15.5195C3.43894 18.1513 1.83462 20.8116 0.251635 23.4841C-0.436797 24.646 0.361297 25.9807 1.71684 25.9919C3.8126 26.0102 5.90937 25.9929 8.00513 26C8.40012 26.001 8.67732 25.8465 8.88852 25.5182C9.22664 24.9926 9.60436 24.4915 9.91812 23.9517C10.107 23.6264 10.3344 23.5471 10.6918 23.5491C12.7703 23.5664 14.8529 23.4902 16.9284 23.5807C18.4271 23.6467 19.6689 23.1537 20.8285 22.3008C22.5434 21.0403 23.9944 19.5074 25.3561 17.883C26.2994 16.7577 26.1968 15.3579 25.1103 14.3515ZM24.0726 16.8888C22.8369 18.3536 21.5077 19.7229 19.9887 20.9C19.08 21.6045 18.1184 21.9999 16.9131 21.9562C14.6163 21.8739 12.3134 21.943 10.0136 21.9247C9.51704 21.9206 9.18501 22.0904 8.92913 22.5113C8.59609 23.0592 8.22242 23.5837 7.86602 24.1174C7.78378 24.2404 7.72793 24.3746 7.53094 24.3746C5.58952 24.3685 3.64912 24.3705 1.60515 24.3705C2.44081 22.987 3.21758 21.7011 3.99435 20.4172C4.75589 19.1597 5.52352 17.9074 6.27897 16.6468C6.7755 15.8184 7.48931 15.4219 8.45799 15.426C10.9954 15.4382 13.5329 15.4331 16.0693 15.427C16.3892 15.427 16.6786 15.4727 16.8837 15.7431C17.0705 15.9891 17.1284 16.2595 16.9954 16.5523C16.838 16.8979 16.5659 17.0565 16.1902 17.0565C14.8874 17.0565 13.5857 17.0585 12.283 17.0545C11.8859 17.0524 11.5945 17.2059 11.4402 17.578C11.3102 17.8931 11.3854 18.1788 11.6077 18.4217C11.7895 18.62 12.0261 18.685 12.2951 18.684C14.1218 18.6789 15.9495 18.7114 17.7752 18.6698C19.0911 18.6393 20.2334 18.1147 21.1808 17.1927C21.7027 16.6855 22.2063 16.1599 22.7262 15.6506C23.1649 15.2206 23.6218 15.1932 24.0239 15.5581C24.4666 15.9587 24.4849 16.3998 24.0726 16.8888Z" fill="#F7F9FA"/>
<path d="M25.1103 14.3515C24.0929 13.4082 22.6694 13.4387 21.6499 14.4338C21.1168 14.9533 20.599 15.488 20.07 16.0115C19.6719 16.4049 19.217 16.7068 18.6576 16.8552C18.7936 14.8303 17.826 13.8046 15.8084 13.8046C13.3065 13.8046 10.8035 13.7955 8.30162 13.8087C6.94101 13.8158 5.80885 14.3688 5.08792 15.5195C3.43894 18.1513 1.83462 20.8116 0.251635 23.4841C-0.436797 24.646 0.361297 25.9807 1.71684 25.9919C3.8126 26.0102 5.90937 25.9929 8.00513 26C8.40012 26.001 8.67732 25.8465 8.88852 25.5182C9.22664 24.9926 9.60436 24.4915 9.91812 23.9517C10.107 23.6264 10.3344 23.5471 10.6918 23.5491C12.7703 23.5664 14.8529 23.4902 16.9284 23.5807C18.4271 23.6467 19.6689 23.1537 20.8285 22.3008C22.5434 21.0403 23.9944 19.5074 25.3561 17.883C26.2994 16.7577 26.1968 15.3579 25.1103 14.3515ZM24.0726 16.8888C22.8369 18.3536 21.5077 19.7229 19.9887 20.9C19.08 21.6045 18.1184 21.9999 16.9131 21.9562C14.6163 21.8739 12.3134 21.943 10.0136 21.9247C9.51704 21.9206 9.18501 22.0904 8.92913 22.5113C8.59609 23.0592 8.22242 23.5837 7.86602 24.1174C7.78378 24.2404 7.72793 24.3746 7.53094 24.3746C5.58952 24.3685 3.64912 24.3705 1.60515 24.3705C2.44081 22.987 3.21758 21.7011 3.99435 20.4172C4.75589 19.1597 5.52352 17.9074 6.27897 16.6468C6.7755 15.8184 7.48931 15.4219 8.45799 15.426C10.9954 15.4382 13.5329 15.4331 16.0693 15.427C16.3892 15.427 16.6786 15.4727 16.8837 15.7431C17.0705 15.9891 17.1284 16.2595 16.9954 16.5523C16.838 16.8979 16.5659 17.0565 16.1902 17.0565C14.8874 17.0565 13.5857 17.0585 12.283 17.0545C11.8859 17.0524 11.5945 17.2059 11.4402 17.578C11.3102 17.8931 11.3854 18.1788 11.6077 18.4217C11.7895 18.62 12.0261 18.685 12.2951 18.684C14.1218 18.6789 15.9495 18.7114 17.7752 18.6698C19.0911 18.6393 20.2334 18.1147 21.1808 17.1927C21.7027 16.6855 22.2063 16.1599 22.7262 15.6506C23.1649 15.2206 23.6218 15.1932 24.0239 15.5581C24.4666 15.9587 24.4849 16.3998 24.0726 16.8888Z" fill="black"/>
<path d="M18.688 6.09213C18.688 5.21181 18.6738 4.33149 18.6931 3.45218C18.7043 2.97339 18.5266 2.6481 18.096 2.43565C16.5547 1.67222 15.0174 0.900672 13.4811 0.127087C13.1714 -0.0294602 12.879 -0.0477579 12.5632 0.110822C10.9985 0.901689 9.42972 1.68544 7.86095 2.46919C7.49033 2.6542 7.31771 2.94493 7.31974 3.36273C7.32584 5.1742 7.32787 6.98465 7.31771 8.79613C7.31568 9.24035 7.50251 9.52803 7.89141 9.72016C9.43175 10.4846 10.9721 11.2511 12.5053 12.0287C12.8556 12.2066 13.1684 12.2005 13.5146 12.0247C15.0489 11.248 16.5892 10.4815 18.1296 9.71609C18.5195 9.52193 18.6992 9.2251 18.6921 8.78393C18.6789 7.88734 18.688 6.98974 18.688 6.09213ZM12.1936 10.0455C11.1234 9.5138 10.105 9.00756 9.0855 8.50133C8.96163 8.43932 8.94335 8.33258 8.94436 8.20653C8.94741 7.0121 8.94436 5.81767 8.94436 4.55614C9.99732 5.08271 10.9985 5.5859 12.0027 6.08197C12.1438 6.15109 12.1956 6.24156 12.1946 6.39608C12.1906 7.59051 12.1926 8.78494 12.1926 10.0455H12.1936ZM11.625 4.09362C11.1538 3.75511 10.5822 3.55587 9.9496 3.23973C10.9772 2.72739 11.9103 2.27097 12.8333 1.79421C13.0049 1.70577 13.1196 1.76371 13.2527 1.82979C14.1543 2.28215 15.055 2.73654 16.0551 3.23973C15.4571 3.53859 14.8854 3.74393 14.4061 4.08142C13.4578 4.74929 12.5805 4.77877 11.625 4.09362ZM16.8146 8.55724C15.8348 9.03298 14.8631 9.52803 13.8172 10.0515C13.8172 8.77275 13.8182 7.55188 13.8162 6.33102C13.8162 6.23648 13.8507 6.16431 13.9319 6.12365C14.9615 5.60826 15.9922 5.09491 17.0644 4.56021C17.0644 5.79835 17.0604 6.96331 17.0685 8.12724C17.0705 8.33767 17.0167 8.45863 16.8146 8.55724Z" fill="black"/>
</svg>
