<?xml version="1.0" encoding="utf-8"?>
<!-- Generator: Adobe Illustrator 25.0.1, SVG Export Plug-In . SVG Version: 6.00 Build 0)  -->
<svg version="1.1" id="Layer_1" xmlns="http://www.w3.org/2000/svg" xmlns:xlink="http://www.w3.org/1999/xlink" x="0px" y="0px"
	 viewBox="0 0 512 512" style="enable-background:new 0 0 512 512;" xml:space="preserve">
<style type="text/css">
	.st0{fill:#BABABA;}
</style>
<g>
	<path class="st0" d="M512,298.9v-85.7l-67.8-11.3c-4.1-14.1-9.7-27.7-16.8-40.5l40-56l-60.6-60.6l-56,40
		c-12.9-7.1-26.4-12.8-40.5-16.8L298.9,0h-85.7l-11.3,67.8c-14.1,4.1-27.7,9.7-40.5,16.8l-56-40l-60.6,60.6l40,56
		c-7.1,12.9-12.8,26.4-16.8,40.5L0,213.1v85.7l67.8,11.3c4.1,14.1,9.7,27.7,16.8,40.5l-40,56l60.6,60.6l56-40
		c12.9,7.1,26.4,12.8,40.5,16.8l11.3,67.8h85.7l11.3-67.8c14.1-4.1,27.7-9.7,40.5-16.8l56,40l60.6-60.6l-40-56
		c7.1-12.9,12.8-26.4,16.8-40.5L512,298.9z M428,403.4L403.4,428l-51.4-36.7c-5,2.7-25.2,18.3-58.5,26.1l-9.8,2.3l-10.4,62.2h-34.7
		l-10.4-62.2c-5.7-1.7-30.6-4.8-59.8-23l-8.5-5.3L108.6,428L84,403.4l36.7-51.4c-2.8-5.1-18.3-25.2-26.1-58.5l-2.3-9.8l-62.2-10.4
		v-34.7l62.2-10.4c1.7-5.7,4.8-30.6,23-59.8l5.3-8.5L84,108.6L108.6,84l51.4,36.7c5.1-2.8,25.2-18.3,58.5-26.1l9.8-2.3l10.4-62.2
		h34.7l10.4,62.2c5.7,1.7,30.6,4.8,59.8,23l8.5,5.3L403.4,84l24.6,24.6l-36.7,51.4c2.8,5.1,18.3,25.2,26.1,58.5l2.3,9.8l62.2,10.4
		v34.7l-62.2,10.4c-1.7,5.7-4.8,30.6-23,59.8l-5.3,8.5L428,403.4z"/>
	<path class="st0" d="M256,128c-70.6,0-128,57.4-128,128s57.4,128,128,128s128-57.4,128-128S326.6,128,256,128z M212.1,343.4
		c4.7-19.9,22.6-34.7,43.9-34.7c21.3,0,39.2,14.8,43.9,34.7C272.4,357.4,239.7,357.4,212.1,343.4L212.1,343.4z M233.4,256
		c0-12.5,10.1-22.6,22.6-22.6c12.5,0,22.6,10.1,22.6,22.6c0,12.5-10.1,22.6-22.6,22.6C243.5,278.6,233.4,268.5,233.4,256z
		 M325.5,324.9c-6-14.4-16.4-26.5-29.4-34.7c7.9-9.2,12.6-21.1,12.6-34.2c0-29.1-23.6-52.7-52.7-52.7s-52.7,23.6-52.7,52.7
		c0,13,4.8,25,12.6,34.2c-13,8.2-23.4,20.3-29.4,34.7c-17.5-17.7-28.4-42-28.4-68.9c0-54,43.9-97.9,97.9-97.9s97.9,43.9,97.9,97.9
		C353.9,282.8,343,307.2,325.5,324.9L325.5,324.9z"/>
</g>
</svg>
