<svg width="31" height="24" viewBox="0 0 31 24" fill="none" xmlns="http://www.w3.org/2000/svg">
<path d="M15.1299 3.58057C11.7438 3.57938 8.35778 3.58057 4.97172 3.58057C4.83128 3.58057 4.68843 3.57461 4.54921 3.58892C4.0117 3.64262 3.66426 3.98505 3.65579 4.45993C3.6461 4.95748 4.00565 5.31424 4.57827 5.36316C4.73807 5.37748 4.90029 5.37032 5.0613 5.37032H11.7112C12.86 5.37032 14.0089 5.3727 15.1578 5.37032C16.0403 5.36912 16.4628 5.08515 16.4749 4.49096C16.4858 3.88125 16.0451 3.58057 15.1299 3.58057ZM15.3757 7.15887C15.2946 7.15649 15.2134 7.15768 15.1335 7.15768C11.7475 7.15768 8.36141 7.15648 4.97535 7.16006C4.75502 7.16006 4.52742 7.16006 4.31678 7.21256C3.8967 7.31637 3.6691 7.61466 3.66184 8.03346C3.65458 8.4797 3.88822 8.79231 4.33736 8.89851C4.54921 8.94862 4.77681 8.94623 4.99714 8.94623C6.68957 8.94981 8.3832 8.94862 10.0756 8.94862H13.5222C14.1469 8.94862 14.7716 8.95697 15.3962 8.94504C16.0693 8.93191 16.4628 8.60379 16.4749 8.07284C16.487 7.51682 16.0827 7.18035 15.3757 7.15887ZM15.3757 7.15887C15.2946 7.15649 15.2134 7.15768 15.1335 7.15768C11.7475 7.15768 8.36141 7.15648 4.97535 7.16006C4.75502 7.16006 4.52742 7.16006 4.31678 7.21256C3.8967 7.31637 3.6691 7.61466 3.66184 8.03346C3.65458 8.4797 3.88822 8.79231 4.33736 8.89851C4.54921 8.94862 4.77681 8.94623 4.99714 8.94623C6.68957 8.94981 8.3832 8.94862 10.0756 8.94862H13.5222C14.1469 8.94862 14.7716 8.95697 15.3962 8.94504C16.0693 8.93191 16.4628 8.60379 16.4749 8.07284C16.487 7.51682 16.0827 7.18035 15.3757 7.15887ZM4.57827 5.36316C4.73807 5.37748 4.90029 5.37032 5.0613 5.37032H11.7112C12.86 5.37032 14.0089 5.3727 15.1578 5.37032C16.0403 5.36912 16.4628 5.08515 16.4749 4.49096C16.4858 3.88125 16.0451 3.58057 15.1299 3.58057C11.7438 3.57938 8.35778 3.58057 4.97172 3.58057C4.83128 3.58057 4.68843 3.57461 4.54921 3.58892C4.0117 3.64262 3.66426 3.98505 3.65579 4.45993C3.6461 4.95748 4.00565 5.31424 4.57827 5.36316ZM30.9985 11.953C30.9985 11.6953 31.0058 11.4399 30.8811 11.1965C29.9574 9.39486 29.0797 7.56813 28.1004 5.79508C27.3582 4.45158 26.1331 3.70585 24.5726 3.62591C23.3051 3.56148 22.0328 3.56864 20.7641 3.5937C20.2653 3.60324 20.0801 3.5233 20.091 2.96371C20.1249 1.0976 19.0099 0.0118179 17.0996 0.00704529C12.4024 -0.00250002 7.70648 -0.00369319 3.01053 0.00823845C1.10625 0.0130111 0.0263884 1.10595 0.0227565 2.98399C0.0191247 5.2689 0.0215459 7.55262 0.0215459 9.83753C0.0215459 12.1224 0.0844975 14.2892 0.00217624 16.5109C-0.0619859 18.2768 1.03361 19.8028 3.18244 19.674C3.53957 19.6525 3.63521 19.7539 3.68847 20.1154C3.95965 21.9696 5.45475 23.2511 7.28276 23.2499C9.11078 23.2499 10.6059 21.9684 10.8758 20.1131C10.9291 19.7503 11.0308 19.6692 11.3831 19.6716C14.1239 19.6859 16.8659 19.6859 19.6067 19.6716C19.9772 19.6692 20.0922 19.7527 20.1503 20.1429C20.4203 21.9672 21.896 23.2308 23.7071 23.2499C25.4879 23.269 27.0084 22.046 27.2965 20.2598C27.3825 19.7241 27.5883 19.6716 28.0495 19.668C29.9138 19.6561 30.9925 18.5619 30.9973 16.7209C31.001 15.1316 30.9973 13.5423 30.9985 11.953ZM1.83746 2.98638C1.83867 2.09508 2.128 1.79441 3.0178 1.79441C7.71374 1.78963 12.4097 1.78963 17.1056 1.79441C17.9991 1.79441 18.292 2.09389 18.292 2.98041C18.2944 5.97883 18.2835 8.97845 18.3041 11.9769C18.3078 12.4171 18.2085 12.5412 17.7472 12.5365C15.188 12.5126 12.6276 12.5257 10.0684 12.5257C7.50915 12.5257 4.94992 12.5138 2.3907 12.5365C1.94399 12.54 1.82051 12.441 1.82414 11.984C1.84835 8.98561 1.83624 5.98599 1.83746 2.98638ZM7.27308 21.4554C6.27917 21.4506 5.47291 20.6595 5.46927 19.6859C5.46564 18.7123 6.26827 17.9152 7.26097 17.9033C8.25488 17.8926 9.07325 18.6705 9.09383 19.6441C9.11441 20.6416 8.28999 21.4613 7.27308 21.4554ZM18.3041 14.8607C18.2654 15.7139 18.2775 16.5694 18.3005 17.4225C18.3102 17.7697 18.2448 17.9045 17.8477 17.9009C15.51 17.8818 13.1712 17.8866 10.8335 17.8985C10.5381 17.8985 10.3722 17.7983 10.1931 17.5692C8.66043 15.6184 5.91599 15.6148 4.3761 17.5478C4.1134 17.8771 2.99722 18.0465 2.42823 17.8246C1.9452 17.6349 1.82051 17.2411 1.83261 16.7627C1.84956 16.1076 1.86288 15.4514 1.82777 14.7975C1.80598 14.4002 1.9343 14.3023 2.32775 14.3047C4.92813 14.3214 7.52731 14.3131 10.1277 14.3131C12.7281 14.3131 15.2074 14.3262 17.746 14.3012C18.2061 14.2964 18.3247 14.4181 18.3041 14.8607ZM24.0884 5.36555C25.0315 5.37628 25.8995 5.65191 26.3777 6.46206C27.1803 7.82108 27.8643 9.2481 28.6451 10.736C27.0217 10.736 25.5169 10.7324 24.0121 10.7396C23.7422 10.7396 23.7361 10.5928 23.7361 10.3971C23.7397 8.82811 23.7446 7.2591 23.7325 5.69009C23.7301 5.41327 23.8414 5.36316 24.0884 5.36555ZM23.7289 21.4554C22.7107 21.4506 21.896 20.6225 21.9275 19.6262C21.9577 18.6526 22.7846 17.8818 23.7773 17.9033C24.77 17.9248 25.5641 18.7302 25.5496 19.7038C25.5363 20.6786 24.7228 21.4613 23.7289 21.4554ZM29.1826 13.3669C29.1826 13.9524 28.8941 14.2689 28.3171 14.3167C27.7372 14.3656 27.3764 14.7032 27.3716 15.2008C27.3679 15.6983 27.7287 16.0468 28.3025 16.0981C28.3231 16.0993 28.3449 16.0933 28.3631 16.1004C28.656 16.2186 29.219 15.7902 29.1947 16.5574C29.1645 17.4762 28.9659 17.8281 28.2638 17.8818C27.9236 17.9081 27.5786 17.8783 27.2372 17.895C26.9914 17.9081 26.845 17.8198 26.6888 17.6241C25.0678 15.5993 22.4008 15.5862 20.8077 17.5919C20.6624 17.7756 20.5341 17.9546 20.2762 17.8842C19.9554 17.7959 20.1176 17.5191 20.1164 17.3378C20.1031 15.4311 20.1079 13.5256 20.1079 11.6189C20.1079 9.71224 20.1188 7.80557 20.0995 5.90008C20.0958 5.50992 20.1648 5.35242 20.6115 5.35719C21.9226 5.3739 21.9226 5.35242 21.9226 6.65178C21.9226 8.18141 21.9226 9.70986 21.9226 11.2395C21.9226 12.2668 22.1853 12.5221 23.2519 12.5233C25.046 12.5257 26.8389 12.5412 28.6318 12.5126C29.087 12.5054 29.265 12.6224 29.1838 13.0686C29.1669 13.1653 29.1814 13.2679 29.1814 13.3669H29.1826ZM15.3757 7.15887C15.2946 7.15649 15.2134 7.15768 15.1335 7.15768C11.7475 7.15768 8.36141 7.15648 4.97535 7.16006C4.75502 7.16006 4.52742 7.16006 4.31678 7.21256C3.8967 7.31637 3.6691 7.61466 3.66184 8.03346C3.65458 8.4797 3.88822 8.79231 4.33736 8.89851C4.54921 8.94862 4.77681 8.94623 4.99714 8.94623C6.68957 8.94981 8.3832 8.94862 10.0756 8.94862H13.5222C14.1469 8.94862 14.7716 8.95697 15.3962 8.94504C16.0693 8.93191 16.4628 8.60379 16.4749 8.07284C16.487 7.51682 16.0827 7.18035 15.3757 7.15887ZM4.57827 5.36316C4.73807 5.37748 4.90029 5.37032 5.0613 5.37032H11.7112C12.86 5.37032 14.0089 5.3727 15.1578 5.37032C16.0403 5.36912 16.4628 5.08515 16.4749 4.49096C16.4858 3.88125 16.0451 3.58057 15.1299 3.58057C11.7438 3.57938 8.35778 3.58057 4.97172 3.58057C4.83128 3.58057 4.68843 3.57461 4.54921 3.58892C4.0117 3.64262 3.66426 3.98505 3.65579 4.45993C3.6461 4.95748 4.00565 5.31424 4.57827 5.36316ZM15.1299 3.58057C11.7438 3.57938 8.35778 3.58057 4.97172 3.58057C4.83128 3.58057 4.68843 3.57461 4.54921 3.58892C4.0117 3.64262 3.66426 3.98505 3.65579 4.45993C3.6461 4.95748 4.00565 5.31424 4.57827 5.36316C4.73807 5.37748 4.90029 5.37032 5.0613 5.37032H11.7112C12.86 5.37032 14.0089 5.3727 15.1578 5.37032C16.0403 5.36912 16.4628 5.08515 16.4749 4.49096C16.4858 3.88125 16.0451 3.58057 15.1299 3.58057ZM15.3757 7.15887C15.2946 7.15649 15.2134 7.15768 15.1335 7.15768C11.7475 7.15768 8.36141 7.15648 4.97535 7.16006C4.75502 7.16006 4.52742 7.16006 4.31678 7.21256C3.8967 7.31637 3.6691 7.61466 3.66184 8.03346C3.65458 8.4797 3.88822 8.79231 4.33736 8.89851C4.54921 8.94862 4.77681 8.94623 4.99714 8.94623C6.68957 8.94981 8.3832 8.94862 10.0756 8.94862H13.5222C14.1469 8.94862 14.7716 8.95697 15.3962 8.94504C16.0693 8.93191 16.4628 8.60379 16.4749 8.07284C16.487 7.51682 16.0827 7.18035 15.3757 7.15887ZM15.3757 7.15887C15.2946 7.15649 15.2134 7.15768 15.1335 7.15768C11.7475 7.15768 8.36141 7.15648 4.97535 7.16006C4.75502 7.16006 4.52742 7.16006 4.31678 7.21256C3.8967 7.31637 3.6691 7.61466 3.66184 8.03346C3.65458 8.4797 3.88822 8.79231 4.33736 8.89851C4.54921 8.94862 4.77681 8.94623 4.99714 8.94623C6.68957 8.94981 8.3832 8.94862 10.0756 8.94862H13.5222C14.1469 8.94862 14.7716 8.95697 15.3962 8.94504C16.0693 8.93191 16.4628 8.60379 16.4749 8.07284C16.487 7.51682 16.0827 7.18035 15.3757 7.15887ZM15.1299 3.58057C11.7438 3.57938 8.35778 3.58057 4.97172 3.58057C4.83128 3.58057 4.68843 3.57461 4.54921 3.58892C4.0117 3.64262 3.66426 3.98505 3.65579 4.45993C3.6461 4.95748 4.00565 5.31424 4.57827 5.36316C4.73807 5.37748 4.90029 5.37032 5.0613 5.37032H11.7112C12.86 5.37032 14.0089 5.3727 15.1578 5.37032C16.0403 5.36912 16.4628 5.08515 16.4749 4.49096C16.4858 3.88125 16.0451 3.58057 15.1299 3.58057Z" fill="#F7F9FA"/>
<path d="M15.1299 3.58057C11.7438 3.57938 8.35778 3.58057 4.97172 3.58057C4.83128 3.58057 4.68843 3.57461 4.54921 3.58892C4.0117 3.64262 3.66426 3.98505 3.65579 4.45993C3.6461 4.95748 4.00565 5.31424 4.57827 5.36316C4.73807 5.37748 4.90029 5.37032 5.0613 5.37032H11.7112C12.86 5.37032 14.0089 5.3727 15.1578 5.37032C16.0403 5.36912 16.4628 5.08515 16.4749 4.49096C16.4858 3.88125 16.0451 3.58057 15.1299 3.58057ZM15.3757 7.15887C15.2946 7.15649 15.2134 7.15768 15.1335 7.15768C11.7475 7.15768 8.36141 7.15648 4.97535 7.16006C4.75502 7.16006 4.52742 7.16006 4.31678 7.21256C3.8967 7.31637 3.6691 7.61466 3.66184 8.03346C3.65458 8.4797 3.88822 8.79231 4.33736 8.89851C4.54921 8.94862 4.77681 8.94623 4.99714 8.94623C6.68957 8.94981 8.3832 8.94862 10.0756 8.94862H13.5222C14.1469 8.94862 14.7716 8.95697 15.3962 8.94504C16.0693 8.93191 16.4628 8.60379 16.4749 8.07284C16.487 7.51682 16.0827 7.18035 15.3757 7.15887ZM15.3757 7.15887C15.2946 7.15649 15.2134 7.15768 15.1335 7.15768C11.7475 7.15768 8.36141 7.15648 4.97535 7.16006C4.75502 7.16006 4.52742 7.16006 4.31678 7.21256C3.8967 7.31637 3.6691 7.61466 3.66184 8.03346C3.65458 8.4797 3.88822 8.79231 4.33736 8.89851C4.54921 8.94862 4.77681 8.94623 4.99714 8.94623C6.68957 8.94981 8.3832 8.94862 10.0756 8.94862H13.5222C14.1469 8.94862 14.7716 8.95697 15.3962 8.94504C16.0693 8.93191 16.4628 8.60379 16.4749 8.07284C16.487 7.51682 16.0827 7.18035 15.3757 7.15887ZM4.57827 5.36316C4.73807 5.37748 4.90029 5.37032 5.0613 5.37032H11.7112C12.86 5.37032 14.0089 5.3727 15.1578 5.37032C16.0403 5.36912 16.4628 5.08515 16.4749 4.49096C16.4858 3.88125 16.0451 3.58057 15.1299 3.58057C11.7438 3.57938 8.35778 3.58057 4.97172 3.58057C4.83128 3.58057 4.68843 3.57461 4.54921 3.58892C4.0117 3.64262 3.66426 3.98505 3.65579 4.45993C3.6461 4.95748 4.00565 5.31424 4.57827 5.36316ZM30.9985 11.953C30.9985 11.6953 31.0058 11.4399 30.8811 11.1965C29.9574 9.39486 29.0797 7.56813 28.1004 5.79508C27.3582 4.45158 26.1331 3.70585 24.5726 3.62591C23.3051 3.56148 22.0328 3.56864 20.7641 3.5937C20.2653 3.60324 20.0801 3.5233 20.091 2.96371C20.1249 1.0976 19.0099 0.0118179 17.0996 0.00704529C12.4024 -0.00250002 7.70648 -0.00369319 3.01053 0.00823845C1.10625 0.0130111 0.0263884 1.10595 0.0227565 2.98399C0.0191247 5.2689 0.0215459 7.55262 0.0215459 9.83753C0.0215459 12.1224 0.0844975 14.2892 0.00217624 16.5109C-0.0619859 18.2768 1.03361 19.8028 3.18244 19.674C3.53957 19.6525 3.63521 19.7539 3.68847 20.1154C3.95965 21.9696 5.45475 23.2511 7.28276 23.2499C9.11078 23.2499 10.6059 21.9684 10.8758 20.1131C10.9291 19.7503 11.0308 19.6692 11.3831 19.6716C14.1239 19.6859 16.8659 19.6859 19.6067 19.6716C19.9772 19.6692 20.0922 19.7527 20.1503 20.1429C20.4203 21.9672 21.896 23.2308 23.7071 23.2499C25.4879 23.269 27.0084 22.046 27.2965 20.2598C27.3825 19.7241 27.5883 19.6716 28.0495 19.668C29.9138 19.6561 30.9925 18.5619 30.9973 16.7209C31.001 15.1316 30.9973 13.5423 30.9985 11.953ZM1.83746 2.98638C1.83867 2.09508 2.128 1.79441 3.0178 1.79441C7.71374 1.78963 12.4097 1.78963 17.1056 1.79441C17.9991 1.79441 18.292 2.09389 18.292 2.98041C18.2944 5.97883 18.2835 8.97845 18.3041 11.9769C18.3078 12.4171 18.2085 12.5412 17.7472 12.5365C15.188 12.5126 12.6276 12.5257 10.0684 12.5257C7.50915 12.5257 4.94992 12.5138 2.3907 12.5365C1.94399 12.54 1.82051 12.441 1.82414 11.984C1.84835 8.98561 1.83624 5.98599 1.83746 2.98638ZM7.27308 21.4554C6.27917 21.4506 5.47291 20.6595 5.46927 19.6859C5.46564 18.7123 6.26827 17.9152 7.26097 17.9033C8.25488 17.8926 9.07325 18.6705 9.09383 19.6441C9.11441 20.6416 8.28999 21.4613 7.27308 21.4554ZM18.3041 14.8607C18.2654 15.7139 18.2775 16.5694 18.3005 17.4225C18.3102 17.7697 18.2448 17.9045 17.8477 17.9009C15.51 17.8818 13.1712 17.8866 10.8335 17.8985C10.5381 17.8985 10.3722 17.7983 10.1931 17.5692C8.66043 15.6184 5.91599 15.6148 4.3761 17.5478C4.1134 17.8771 2.99722 18.0465 2.42823 17.8246C1.9452 17.6349 1.82051 17.2411 1.83261 16.7627C1.84956 16.1076 1.86288 15.4514 1.82777 14.7975C1.80598 14.4002 1.9343 14.3023 2.32775 14.3047C4.92813 14.3214 7.52731 14.3131 10.1277 14.3131C12.7281 14.3131 15.2074 14.3262 17.746 14.3012C18.2061 14.2964 18.3247 14.4181 18.3041 14.8607ZM24.0884 5.36555C25.0315 5.37628 25.8995 5.65191 26.3777 6.46206C27.1803 7.82108 27.8643 9.2481 28.6451 10.736C27.0217 10.736 25.5169 10.7324 24.0121 10.7396C23.7422 10.7396 23.7361 10.5928 23.7361 10.3971C23.7397 8.82811 23.7446 7.2591 23.7325 5.69009C23.7301 5.41327 23.8414 5.36316 24.0884 5.36555ZM23.7289 21.4554C22.7107 21.4506 21.896 20.6225 21.9275 19.6262C21.9577 18.6526 22.7846 17.8818 23.7773 17.9033C24.77 17.9248 25.5641 18.7302 25.5496 19.7038C25.5363 20.6786 24.7228 21.4613 23.7289 21.4554ZM29.1826 13.3669C29.1826 13.9524 28.8941 14.2689 28.3171 14.3167C27.7372 14.3656 27.3764 14.7032 27.3716 15.2008C27.3679 15.6983 27.7287 16.0468 28.3025 16.0981C28.3231 16.0993 28.3449 16.0933 28.3631 16.1004C28.656 16.2186 29.219 15.7902 29.1947 16.5574C29.1645 17.4762 28.9659 17.8281 28.2638 17.8818C27.9236 17.9081 27.5786 17.8783 27.2372 17.895C26.9914 17.9081 26.845 17.8198 26.6888 17.6241C25.0678 15.5993 22.4008 15.5862 20.8077 17.5919C20.6624 17.7756 20.5341 17.9546 20.2762 17.8842C19.9554 17.7959 20.1176 17.5191 20.1164 17.3378C20.1031 15.4311 20.1079 13.5256 20.1079 11.6189C20.1079 9.71224 20.1188 7.80557 20.0995 5.90008C20.0958 5.50992 20.1648 5.35242 20.6115 5.35719C21.9226 5.3739 21.9226 5.35242 21.9226 6.65178C21.9226 8.18141 21.9226 9.70986 21.9226 11.2395C21.9226 12.2668 22.1853 12.5221 23.2519 12.5233C25.046 12.5257 26.8389 12.5412 28.6318 12.5126C29.087 12.5054 29.265 12.6224 29.1838 13.0686C29.1669 13.1653 29.1814 13.2679 29.1814 13.3669H29.1826ZM15.3757 7.15887C15.2946 7.15649 15.2134 7.15768 15.1335 7.15768C11.7475 7.15768 8.36141 7.15648 4.97535 7.16006C4.75502 7.16006 4.52742 7.16006 4.31678 7.21256C3.8967 7.31637 3.6691 7.61466 3.66184 8.03346C3.65458 8.4797 3.88822 8.79231 4.33736 8.89851C4.54921 8.94862 4.77681 8.94623 4.99714 8.94623C6.68957 8.94981 8.3832 8.94862 10.0756 8.94862H13.5222C14.1469 8.94862 14.7716 8.95697 15.3962 8.94504C16.0693 8.93191 16.4628 8.60379 16.4749 8.07284C16.487 7.51682 16.0827 7.18035 15.3757 7.15887ZM4.57827 5.36316C4.73807 5.37748 4.90029 5.37032 5.0613 5.37032H11.7112C12.86 5.37032 14.0089 5.3727 15.1578 5.37032C16.0403 5.36912 16.4628 5.08515 16.4749 4.49096C16.4858 3.88125 16.0451 3.58057 15.1299 3.58057C11.7438 3.57938 8.35778 3.58057 4.97172 3.58057C4.83128 3.58057 4.68843 3.57461 4.54921 3.58892C4.0117 3.64262 3.66426 3.98505 3.65579 4.45993C3.6461 4.95748 4.00565 5.31424 4.57827 5.36316ZM15.1299 3.58057C11.7438 3.57938 8.35778 3.58057 4.97172 3.58057C4.83128 3.58057 4.68843 3.57461 4.54921 3.58892C4.0117 3.64262 3.66426 3.98505 3.65579 4.45993C3.6461 4.95748 4.00565 5.31424 4.57827 5.36316C4.73807 5.37748 4.90029 5.37032 5.0613 5.37032H11.7112C12.86 5.37032 14.0089 5.3727 15.1578 5.37032C16.0403 5.36912 16.4628 5.08515 16.4749 4.49096C16.4858 3.88125 16.0451 3.58057 15.1299 3.58057ZM15.3757 7.15887C15.2946 7.15649 15.2134 7.15768 15.1335 7.15768C11.7475 7.15768 8.36141 7.15648 4.97535 7.16006C4.75502 7.16006 4.52742 7.16006 4.31678 7.21256C3.8967 7.31637 3.6691 7.61466 3.66184 8.03346C3.65458 8.4797 3.88822 8.79231 4.33736 8.89851C4.54921 8.94862 4.77681 8.94623 4.99714 8.94623C6.68957 8.94981 8.3832 8.94862 10.0756 8.94862H13.5222C14.1469 8.94862 14.7716 8.95697 15.3962 8.94504C16.0693 8.93191 16.4628 8.60379 16.4749 8.07284C16.487 7.51682 16.0827 7.18035 15.3757 7.15887ZM15.3757 7.15887C15.2946 7.15649 15.2134 7.15768 15.1335 7.15768C11.7475 7.15768 8.36141 7.15648 4.97535 7.16006C4.75502 7.16006 4.52742 7.16006 4.31678 7.21256C3.8967 7.31637 3.6691 7.61466 3.66184 8.03346C3.65458 8.4797 3.88822 8.79231 4.33736 8.89851C4.54921 8.94862 4.77681 8.94623 4.99714 8.94623C6.68957 8.94981 8.3832 8.94862 10.0756 8.94862H13.5222C14.1469 8.94862 14.7716 8.95697 15.3962 8.94504C16.0693 8.93191 16.4628 8.60379 16.4749 8.07284C16.487 7.51682 16.0827 7.18035 15.3757 7.15887ZM15.1299 3.58057C11.7438 3.57938 8.35778 3.58057 4.97172 3.58057C4.83128 3.58057 4.68843 3.57461 4.54921 3.58892C4.0117 3.64262 3.66426 3.98505 3.65579 4.45993C3.6461 4.95748 4.00565 5.31424 4.57827 5.36316C4.73807 5.37748 4.90029 5.37032 5.0613 5.37032H11.7112C12.86 5.37032 14.0089 5.3727 15.1578 5.37032C16.0403 5.36912 16.4628 5.08515 16.4749 4.49096C16.4858 3.88125 16.0451 3.58057 15.1299 3.58057Z" fill="black"/>
<path d="M3.65579 4.45993C3.66426 3.98505 4.0117 3.64262 4.54921 3.58892C4.68843 3.57461 4.83128 3.58057 4.97172 3.58057C8.35778 3.58057 11.7438 3.57938 15.1299 3.58057C16.0451 3.58057 16.4858 3.88125 16.4749 4.49096C16.4628 5.08515 16.0403 5.36912 15.1578 5.37032C14.0089 5.3727 12.86 5.37032 11.7112 5.37032H5.0613C4.90029 5.37032 4.73807 5.37748 4.57827 5.36316C4.00565 5.31424 3.6461 4.95748 3.65579 4.45993Z" fill="#F7F9FA"/>
<path d="M16.4749 8.07284C16.4628 8.60379 16.0693 8.93191 15.3962 8.94504C14.7716 8.95697 14.1469 8.94862 13.5222 8.94862H10.0756C8.3832 8.94862 6.68957 8.94981 4.99714 8.94623C4.77681 8.94623 4.54921 8.94862 4.33736 8.89851C3.88822 8.79231 3.65458 8.4797 3.66184 8.03346C3.6691 7.61466 3.8967 7.31637 4.31678 7.21256C4.52742 7.16006 4.75502 7.16006 4.97535 7.16006C8.36141 7.15648 11.7475 7.15768 15.1335 7.15768C15.2134 7.15768 15.2946 7.15649 15.3757 7.15887C16.0827 7.18035 16.487 7.51682 16.4749 8.07284Z" fill="#F7F9FA"/>
<path d="M16.4749 4.49096C16.4628 5.08515 16.0403 5.36912 15.1578 5.37032C14.0089 5.3727 12.86 5.37032 11.7112 5.37032H5.0613C4.90029 5.37032 4.73807 5.37748 4.57827 5.36316C4.00565 5.31424 3.6461 4.95748 3.65579 4.45993C3.66426 3.98505 4.0117 3.64262 4.54921 3.58892C4.68843 3.57461 4.83128 3.58057 4.97172 3.58057C8.35778 3.58057 11.7438 3.57938 15.1299 3.58057C16.0451 3.58057 16.4858 3.88125 16.4749 4.49096Z" fill="#010101"/>
<path d="M16.4749 8.07284C16.4628 8.60379 16.0693 8.93191 15.3962 8.94504C14.7716 8.95697 14.1469 8.94862 13.5222 8.94862H10.0756C8.3832 8.94862 6.68957 8.94981 4.99714 8.94623C4.77681 8.94623 4.54921 8.94862 4.33736 8.89851C3.88822 8.79231 3.65458 8.4797 3.66184 8.03346C3.6691 7.61466 3.8967 7.31637 4.31678 7.21256C4.52742 7.16006 4.75502 7.16006 4.97535 7.16006C8.36141 7.15648 11.7475 7.15768 15.1335 7.15768C15.2134 7.15768 15.2946 7.15649 15.3757 7.15887C16.0827 7.18035 16.487 7.51682 16.4749 8.07284Z" fill="#010101"/>
</svg>
