<?xml version="1.0"?>
<svg xmlns="http://www.w3.org/2000/svg" xmlns:xlink="http://www.w3.org/1999/xlink" xmlns:svgjs="http://svgjs.com/svgjs" version="1.1" width="512" height="512" x="0" y="0" viewBox="0 0 64 64" style="enable-background:new 0 0 512 512" xml:space="preserve" class=""><g><g xmlns="http://www.w3.org/2000/svg" id="Icons"><g><g><path d="m12 24h40v36h-40z" fill="#212f3e" data-original="#fab400" style="" class=""/></g><g><path d="m12 24h4v36h-4z" fill="#3a526c" data-original="#dc9600" style="" class=""/></g><g><circle cx="32" cy="12" fill="#212f3e" r="8" data-original="#fa6450" style="" class=""/></g><g><path d="m25.983 12c0-4.082 3.059-7.443 7.009-7.932-.326-.041-.656-.068-.992-.068-4.418 0-8 3.582-8 8s3.582 8 8 8c.336 0 .666-.027.991-.068-3.949-.489-7.008-3.85-7.008-7.932z" fill="#2f455c" data-original="#dc4632" style="" class=""/></g><g><path d="m36.243 14.828-2.829-2.828 2.829-2.828-1.415-1.415-2.828 2.829-2.828-2.829-1.415 1.415 2.829 2.828-2.829 2.828 1.415 1.415 2.828-2.829 2.828 2.829z" fill="#f0f0f0" data-original="#f0f0f0" style=""/></g><g><path d="m38 50h8v2h-8z" fill="#3a526c" data-original="#dc9600" style="" class=""/></g><g><path d="m38 54h8v2h-8z" fill="#3a526c" data-original="#dc9600" style="" class=""/></g><g><g><path d="m60 31.33-7.438-4.959c-.543-.362-1.229-.471-1.876-.273-1.864.571-2.181 2.401-.802 3.78l2.121 2.122h-11.893c-.996 0-1.92.681-2.08 1.664-.203 1.253.759 2.336 1.973 2.336h-2c-1.215 0-2.176 1.083-1.973 2.336.16.983 1.083 1.664 2.08 1.664h1.893c-1.215 0-2.176 1.083-1.973 2.336.16.983 1.083 1.664 2.08 1.664h1.893c-1.105 0-2 .896-2 2s.895 2 2 2h17.995z" fill="#e7e7e7" data-original="#f0c8a0" style="" class=""/></g><g><path d="m38.279 35c.346.596.987 1 1.727 1h12v-1z" fill="#afa9a3" data-original="#d2aa82" style="" class=""/></g><g><path d="m52.005 39h-15.725c.372.612 1.081 1 1.833 1h1.893 12v-1z" fill="#afa9a3" data-original="#d2aa82" style="" class=""/></g><g><path d="m52.005 43h-13.725c.372.612 1.081 1 1.833 1h1.893 10v-1z" fill="#afa9a3" data-original="#d2aa82" style="" class=""/></g><g><path d="m60 47h-19.717c.346.595.984 1 1.723 1h17.994z" fill="#afa9a3" data-original="#d2aa82" style="" class=""/></g></g><g><g><path d="m4 39.33 7.438-4.959c.543-.362 1.229-.471 1.876-.273 1.864.571 2.181 2.401.802 3.78l-2.121 2.122h11.893c.996 0 1.92.681 2.08 1.664.203 1.253-.759 2.336-1.973 2.336h2c1.215 0 2.176 1.083 1.973 2.336-.161.983-1.084 1.664-2.08 1.664h-1.893c1.215 0 2.176 1.083 1.973 2.336-.161.983-1.084 1.664-2.08 1.664h-1.893c1.105 0 2 .896 2 2s-.895 2-2 2h-17.995z" fill="#e7e7e7" data-original="#f0c8a0" style="" class=""/></g><g><path d="m25.721 43c-.346.596-.987 1-1.727 1h-12v-1z" fill="#afa9a3" data-original="#d2aa82" style="" class=""/></g><g><path d="m11.995 47h15.725c-.372.612-1.081 1-1.833 1h-1.893-12v-1z" fill="#afa9a3" data-original="#d2aa82" style="" class=""/></g><g><path d="m11.995 51h13.725c-.372.612-1.081 1-1.833 1h-1.893-10v-1z" fill="#afa9a3" data-original="#d2aa82" style="" class=""/></g><g><path d="m4 55h19.717c-.346.595-.984 1-1.723 1h-17.994z" fill="#afa9a3" data-original="#d2aa82" style="" class=""/></g></g></g></g></g></svg>
