<svg id="Capa_1" enable-background="new 0 0 510 510" height="512" viewBox="0 0 510 510" width="512" xmlns="http://www.w3.org/2000/svg"><g id="XMLID_1665_"><path id="XMLID_2412_" d="m357.311 0h-357.311v120h282.311zm-267.311 75h-30v-30h30zm60 0h-30v-30h30zm60 0h-30v-30h30z"/><path id="XMLID_2415_" d="m392.689 0-75 120h192.311v-120z"/><path id="XMLID_2416_" d="m345 285c8.271 0 15-6.728 15-15v-30c0-8.271-6.729-15-15-15-8.272 0-15 6.729-15 15v30c0 8.272 6.728 15 15 15z"/><path id="XMLID_2417_" d="m165 285c8.271 0 15-6.728 15-15v-30c0-8.271-6.729-15-15-15s-15 6.729-15 15v30c0 8.272 6.729 15 15 15z"/><path id="XMLID_2461_" d="m0 510h510v-360h-510zm210-45h-30v-120h30zm210-270h30v120h-30zm-120 45c0-24.813 20.186-45 45-45 24.813 0 45 20.187 45 45v30c0 24.814-20.187 45-45 45-24.814 0-45-20.186-45-45zm-60-45h30v120h-30zm0 150h30v120h-30zm-120-105c0-24.813 20.187-45 45-45s45 20.187 45 45v30c0 24.814-20.187 45-45 45s-45-20.186-45-45zm-60-45h30v120h-30zm0 195c0-24.814 20.187-45 45-45s45 20.186 45 45v30c0 24.814-20.187 45-45 45s-45-20.186-45-45z"/><path id="XMLID_2474_" d="m105 435c8.271 0 15-6.728 15-15v-30c0-8.272-6.729-15-15-15s-15 6.728-15 15v30c0 8.272 6.729 15 15 15z"/></g></svg>