<?xml version="1.0" ?><svg height="24" id="svg3171" version="1.1" viewBox="0 0 6.3499999 6.3500002" width="24" xmlns="http://www.w3.org/2000/svg" xmlns:cc="http://creativecommons.org/ns#" xmlns:dc="http://purl.org/dc/elements/1.1/" xmlns:inkscape="http://www.inkscape.org/namespaces/inkscape" xmlns:rdf="http://www.w3.org/1999/02/22-rdf-syntax-ns#" xmlns:sodipodi="http://sodipodi.sourceforge.net/DTD/sodipodi-0.dtd" xmlns:svg="http://www.w3.org/2000/svg"><defs id="defs3165"/><g id="layer1"><path d="M 1.5856426,0.79422437 V 1.0546222 l 0.529269,0.00156 V 0.79423416 C 2.1134001,0.43862502 1.5843911,0.4429949 1.5856426,0.79422437 Z m 2.646862,0 V 1.0577221 h -2.117593 v 0.7951432 c -0.01742,0.3607516 -0.54314,0.3420379 -0.529269,0 V 1.0577221 H 0.79277256 c -0.14614799,5.821e-4 -0.264159,0.1194734 -0.263601,0.2655644 V 2.3819274 H 5.8208285 V 1.3232865 C 5.8213847,1.1763879 5.7021166,1.0571622 5.5551607,1.0577221 h -0.79287 V 0.79422437 c -0.0058,-0.35667381 -0.5346891,-0.35013181 -0.5297861,0 z m 0,0.26504773 h 0.5297861 v 0.7935932 c -0.0057,0.3544925 -0.5345311,0.3481798 -0.5297861,0 z M 0.52917156,2.908923 v 2.6458273 c -8.44e-4,0.1462924 0.11725,0.2654975 0.263601,0.2660812 1.58746274,0 3.17492544,0 4.76238814,0 0.1471588,5.556e-4 0.2665169,-0.1189811 0.2656678,-0.2660812 V 2.908923 Z M 1.5856426,3.1744874 h 0.529269 c 0.352541,-0.00294 0.35591,0.5260129 0,0.5295787 h -0.529269 c -0.348677,0.00414 -0.354268,-0.5246156 0,-0.5295787 z m 1.324723,0 h 0.529269 c 0.352751,9.525e-4 0.351563,0.5299941 0,0.5295787 h -0.529269 c -0.355189,-0.00351 -0.351885,-0.5324647 0,-0.5295787 z m 1.322139,0 h 0.5297861 c 0.3489269,-0.00667 0.3567818,0.5217682 0,0.5295787 H 4.2325046 c -0.3537979,-0.0035 -0.350519,-0.5324557 0,-0.5295787 z m -2.646862,1.0586408 h 0.529269 c 0.351162,-0.00583 0.357296,0.5228493 0,0.5290622 h -0.529269 c -0.351367,-5.027e-4 -0.35157,-0.5295765 0,-0.5290622 z m 1.324723,0 h 0.529269 c 0.355374,0.00514 0.34895,0.5337996 0,0.5290622 h -0.529269 c -0.34733,0.00961 -0.35979,-0.5179221 0,-0.5290622 z m 1.322139,0 h 0.5297861 c 0.3561349,0.00526 0.349568,0.5339075 0,0.5290622 H 4.2325046 c -0.355214,-0.00622 -0.34911,-0.5348989 0,-0.5290622 z" id="path1319" style="color:#000000;font-style:normal;font-variant:normal;font-weight:normal;font-stretch:normal;font-size:medium;line-height:normal;font-family:sans-serif;font-variant-ligatures:normal;font-variant-position:normal;font-variant-caps:normal;font-variant-numeric:normal;font-variant-alternates:normal;font-variant-east-asian:normal;font-feature-settings:normal;font-variation-settings:normal;text-indent:0;text-align:start;text-decoration:none;text-decoration-line:none;text-decoration-style:solid;text-decoration-color:#000000;letter-spacing:normal;word-spacing:normal;text-transform:none;writing-mode:lr-tb;direction:ltr;text-orientation:mixed;dominant-baseline:auto;baseline-shift:baseline;text-anchor:start;white-space:normal;shape-padding:0;shape-margin:0;inline-size:0;clip-rule:nonzero;display:inline;overflow:visible;visibility:visible;opacity:1;isolation:auto;mix-blend-mode:normal;color-interpolation:sRGB;color-interpolation-filters:linearRGB;solid-color:#000000;solid-opacity:1;vector-effect:none;fill:#000000;fill-opacity:1;fill-rule:nonzero;stroke:none;stroke-width:0.529167;stroke-linecap:round;stroke-linejoin:round;stroke-miterlimit:4;stroke-dasharray:none;stroke-dashoffset:0;stroke-opacity:1;color-rendering:auto;image-rendering:auto;shape-rendering:auto;text-rendering:auto;enable-background:accumulate;stop-color:#000000;stop-opacity:1"/></g></svg>