<svg id="Capa_1" enable-background="new 0 0 511.88 511.88" height="512" viewBox="0 0 511.88 511.88" width="512" xmlns="http://www.w3.org/2000/svg"><g><path d="m241.07 177.94-98.01-34.31c0 31.326-.265 31.104.72 34.06 1.358 4.243 4.575 7.766 8.89 9.42 106.791 41.078 99.283 38.65 103.27 38.65 3.953 0-3.648 2.473 103.26-38.65 5.728-2.201 9.62-7.699 9.62-14v-27.84l-98.65 32.89c-9.465 3.155-19.701 3.076-29.1-.22z"/><path d="m96.68 95c3.61 2.392-8.465-2.345 154.3 54.62 3.125 1.106 6.522 1.132 9.7.08 56.704-18.903 92.934-30.981 138.38-46.13v84.6c0 4.14 1.68 7.9 4.4 10.61 9.399 9.4 25.6 2.708 25.6-10.61 0-102.277-.027-104.59-.03-104.577.451-6.397-3.58-12.846-10.23-15.063-160.137-53.375-159.305-53.47-162.86-53.47-3.689 0-2.617.031-155.54 53.54-11.408 3.992-13.672 19.283-3.72 26.4z"/><path d="m90.23 331.12h30.24v30.23h-30.24z"/><path d="m496.88 82.76h-37.82v105.41c0 24.82-20.19 45-45 45-15.97 0-30.02-8.36-38.01-20.93-4.132 2.343 2.731-.515-103.95 40.52-10.22 3.934-21.725 4.071-32.32 0l-97.88-37.65c-17.38-6.691-28.84-23.363-28.84-42v-39.97l-22.57-7.91c-18.03-6.3-30.14-23.37-30.14-42.47h-45.35c-8.28 0-15 6.72-15 15v323.83c0 8.28 6.72 15 15 15h135.587v30.23h-45.237c-8.28 0-15 6.72-15 15 0 8.29 6.72 15 15 15h301.18c8.28 0 15-6.71 15-15 0-8.28-6.72-15-15-15h-45.238v-30.23h135.588c8.28 0 15-6.72 15-15v-323.83c0-8.28-6.72-15-15-15zm-346.41 293.59c0 8.29-6.72 15-15 15h-60.24c-8.28 0-15-6.71-15-15v-60.23c0-8.29 6.72-15 15-15h60.24c8.28 0 15 6.71 15 15zm286.18 15h-240.95c-8.28 0-15-6.71-15-15 0-8.28 6.72-15 15-15h240.95c8.28 0 15 6.72 15 15 0 8.29-6.72 15-15 15zm0-60.23h-240.95c-8.28 0-15-6.72-15-15 0-8.29 6.72-15 15-15h240.95c8.28 0 15 6.71 15 15 0 8.28-6.72 15-15 15z"/></g></svg>