<?xml version="1.0" encoding="utf-8"?>
<!-- Generator: Adobe Illustrator 25.1.0, SVG Export Plug-In . SVG Version: 6.00 Build 0)  -->
<svg version="1.1" id="Layer_1" xmlns="http://www.w3.org/2000/svg" xmlns:xlink="http://www.w3.org/1999/xlink" x="0px" y="0px"
	 viewBox="0 0 512 512" style="enable-background:new 0 0 512 512;" xml:space="preserve">
<style type="text/css">
	.st0{fill:#EFEFEF;}
	.st1{fill:#A4AFC1;}
	.st2{fill:#F3F3F1;}
	.st3{fill:#D5DBE1;}
	.st4{fill:#2D8427;}
	.st5{fill:#239B19;}
</style>
<g id="BG">
	<g>
		<path class="st0" d="M115.4,79.1C89.7,174.1,22.9,226,10.5,271.8s-12,149,198.5,205.9s276.4-64,290-114.4
			C562.7,127.6,160.9-89.1,115.4,79.1L115.4,79.1z"/>
	</g>
</g>
<g id="Effect">
	<g>
		<g>
			<path class="st1" d="M107.2,76.6L124.3,54l11.3,8.6l-17.2,22.7L107.2,76.6z"/>
		</g>
		<g>
			<path class="st1" d="M57.9,141.9L75,119.2l11.3,8.6l-17.2,22.7L57.9,141.9z"/>
		</g>
		<g>
			<path class="st1" d="M48.1,72.2l8.6-11.3l22.7,17.1l-8.6,11.3L48.1,72.2z"/>
		</g>
	</g>
	<g>
		<path class="st1" d="M440.9,437.3c-11.8,0-21.3-9.6-21.3-21.3s9.6-21.3,21.3-21.3s21.3,9.6,21.3,21.3S452.7,437.3,440.9,437.3z
			 M440.9,408.9c-3.9,0-7.1,3.2-7.1,7.1s3.2,7.1,7.1,7.1s7.1-3.2,7.1-7.1S444.8,408.9,440.9,408.9z"/>
	</g>
</g>
<g id="color_1_">
	<g>
		<path class="st2" d="M414.1,229.7l-40.6,158.4c-4.4,17.1-21.9,27.4-38.9,23.1L121,356.5c-1.4-0.4-2.7-0.8-3.9-1.3
			c-14-5.5-22.3-20.2-19.6-35.1c0.1-0.9,0.3-1.7,0.5-2.5l40.6-158.4c4.4-17.1,21.9-27.4,38.9-23.1L391,190.8
			C408.1,195.1,418.4,212.6,414.1,229.7L414.1,229.7z"/>
	</g>
	<g>
		<path class="st3" d="M122.3,327.2c0.1-0.9,0.3-1.7,0.5-2.5l40.6-158.4c4.4-17.1,21.9-27.4,38.9-23.1l194.9,49.9
			c-2-1-4.1-1.8-6.3-2.3l-213.6-54.7c-17.1-4.4-34.6,6-38.9,23.1L97.9,317.6c-0.2,0.8-0.4,1.6-0.5,2.5c-2.6,14.9,5.6,29.6,19.6,35.1
			c1.2,0.5,2.5,1,3.9,1.3l19.1,4.9C127.3,355.4,119.8,341.4,122.3,327.2L122.3,327.2z"/>
	</g>
	<g>
		<path class="st2" d="M426.7,145.8v163.6c0,17.6-14.4,32-32,32H174.2c-1.4,0-2.8-0.1-4.1-0.3c-14.9-1.8-26.6-14.1-27.7-29.2
			c-0.1-0.9-0.1-1.7-0.1-2.6V145.8c0-17.6,14.4-32,32-32h220.4C412.3,113.8,426.7,128.1,426.7,145.8z"/>
	</g>
	<g>
		<path class="st3" d="M181.5,311.9c-0.1-0.9-0.1-1.7-0.1-2.6V145.8c0-17.6,14.4-32,32-32h-35.6c-17.6,0-32,14.4-32,32v163.6
			c0,0.9,0,1.7,0.1,2.6c1.1,15.1,12.8,27.3,27.7,29.2c1.3,0.1,2.7,0.3,4.1,0.3h35.6c-1.4,0-2.8-0.1-4.1-0.3
			C194.3,339.2,182.6,327,181.5,311.9z"/>
	</g>
	<g>
		<circle class="st4" cx="213.3" cy="184.9" r="28.4"/>
	</g>
	<g>
		<path class="st4" d="M351.9,196.3c-9.7-9.7-25.6-9.3-35.3,0.4c0,0-26.3,31.3-54.3,64.8l-17.1-17.1c-9.7-9.7-25.6-9.7-35.3,0
			l-67.6,67.6c1.1,15.1,12.8,27.3,27.7,29.2c1.3,0.1,2.7,0.3,4.1,0.3h22.1h145.8h52.5c17.6,0,32-14.4,32-32v-25.5L351.9,196.3z"/>
	</g>
	<g>
		<g>
			<path class="st5" d="M177.9,322.6l67.6-67.6c1.8-1.8,3.9-3.2,6.1-4.3l-6.4-6.4c-9.7-9.7-25.6-9.7-35.3,0l-67.6,67.6
				c1.1,15.1,12.8,27.3,27.7,29.2c1.3,0.1,2.7,0.3,4.1,0.3H186C181.4,336.3,178.5,329.8,177.9,322.6z"/>
		</g>
		<g>
			<path class="st5" d="M258.2,282.3l17.1,17.1c28-33.5,76.8-92,76.8-92c1.7-1.7,3.6-3,5.6-4.1l-5.9-6.9c-9.7-9.7-25.6-9.3-35.3,0.4
				c0,0-42.9,51.5-66.8,80.1C252.9,277.9,255.8,279.8,258.2,282.3L258.2,282.3z"/>
		</g>
	</g>
</g>
<g id="regular_1.5">
	<g>
		<path d="M337.1,426.7c-2.7,0-5.4-0.3-8.1-1.1L109,366.7c-17-4.7-27.1-22.2-22.6-39.2l24.2-92.7l20.6,5.4L107,332.9
			c-1.5,5.7,1.9,11.6,7.6,13.2L334.4,405c5.6,1.5,11.5-1.9,13-7.5l7.5-30.3l20.7,5.1l-7.5,30.4C364.3,417.2,351.3,426.7,337.1,426.7
			L337.1,426.7z"/>
	</g>
	<g>
		<path d="M394.7,341.3H174.2c-17.6,0-32-14.4-32-32V145.8c0-17.6,14.4-32,32-32h220.4c17.6,0,32,14.4,32,32v163.6
			C426.7,327,412.3,341.3,394.7,341.3z M174.2,135.1c-5.9,0-10.7,4.8-10.7,10.7v163.6c0,5.9,4.8,10.7,10.7,10.7h220.4
			c5.9,0,10.7-4.8,10.7-10.7V145.8c0-5.9-4.8-10.7-10.7-10.7H174.2z"/>
	</g>
	<g>
		<path d="M213.3,213.3c-15.7,0-28.4-12.8-28.4-28.4s12.8-28.4,28.4-28.4c15.7,0,28.4,12.8,28.4,28.4S229,213.3,213.3,213.3z
			 M213.3,177.8c-3.9,0-7.1,3.2-7.1,7.1c0,3.9,3.2,7.1,7.1,7.1c3.9,0,7.1-3.2,7.1-7.1C220.4,181,217.3,177.8,213.3,177.8z"/>
	</g>
	<g>
		<path d="M160.7,323.7l-15.1-15.1l64.3-64.3c9.7-9.7,25.6-9.7,35.3,0l17.2,17.2l52.8-63.4c4.7-5.7,11.6-8.9,19-9
			c7.5,0.5,14.3,3.1,19.1,8.7l70.8,82.6l-16.2,13.9l-70.8-82.6c-1-1.1-1.6-0.8-2.7-1.3c-0.6,0-1.8,0.2-2.7,1.3l-60.3,72.4
			c-1.9,2.3-4.7,3.7-7.7,3.8c-3.1,0.2-5.9-1-8-3.1l-25.5-25.5c-1.8-1.8-3.3-1.8-5.1,0L160.7,323.7z"/>
	</g>
</g>
</svg>
