<?xml version="1.0" encoding="utf-8"?>
<!-- Generator: Adobe Illustrator 25.3.0, SVG Export Plug-In . SVG Version: 6.00 Build 0)  -->
<svg version="1.1" id="Layer_1" xmlns="http://www.w3.org/2000/svg" xmlns:xlink="http://www.w3.org/1999/xlink" x="0px" y="0px"
	 viewBox="0 0 64 64" style="enable-background:new 0 0 64 64;" xml:space="preserve">
<style type="text/css">
	.st0{fill:#212F3E;}
</style>
<g>
	<g id="Icon-Calendar" transform="translate(30.000000, 478.000000)">
		<path id="Fill-133" class="st0" d="M23-417.2h-46c-3.1,0-5.8-2.6-5.8-5.8v-42.2c0-3.1,2.1-5.8,4.8-5.8h2.9v3.8H-24
			c-0.4,0-0.9,0.8-0.9,2v42.2c0,1,0.9,2,2,2h46c1,0,2-0.9,2-2v-42.2c0-1.2-0.7-2-0.9-2h-2.9v-3.8h2.9c2.6,0,4.8,2.6,4.8,5.8v42.2
			C28.7-419.8,26.1-417.2,23-417.2"/>
		<path id="Fill-134" class="st0" d="M-15.3-463.2c-1,0-2-0.9-2-2v-7.7c0-1,0.9-2,2-2s2,0.9,2,2v7.7
			C-13.5-464.2-14.3-463.2-15.3-463.2"/>
		<path id="Fill-135" class="st0" d="M15.3-463.2c-1,0-2-0.9-2-2v-7.7c0-1,0.9-2,2-2s2,0.9,2,2v7.7
			C17.2-464.2,16.3-463.2,15.3-463.2"/>
		<polygon id="Fill-136" class="st0" points="-9.6,-471 9.5,-471 9.5,-467 -9.6,-467 		"/>
		<polygon id="Fill-137" class="st0" points="-25,-459.5 24.9,-459.5 24.9,-455.5 -25,-455.5 		"/>
		<polygon id="Fill-138" class="st0" points="17.2,-451.7 21,-451.7 21,-447.9 17.2,-447.9 		"/>
		<polygon id="Fill-139" class="st0" points="9.5,-451.7 13.4,-451.7 13.4,-447.9 9.5,-447.9 		"/>
		<polygon id="Fill-140" class="st0" points="1.9,-451.7 5.7,-451.7 5.7,-447.9 1.9,-447.9 		"/>
		<polygon id="Fill-141" class="st0" points="-5.8,-451.7 -2,-451.7 -2,-447.9 -5.8,-447.9 		"/>
		<polygon id="Fill-142" class="st0" points="-13.5,-451.7 -9.6,-451.7 -9.6,-447.9 -13.5,-447.9 		"/>
		<polygon id="Fill-143" class="st0" points="17.2,-444 21,-444 21,-440.2 17.2,-440.2 		"/>
		<polygon id="Fill-144" class="st0" points="9.5,-444 13.4,-444 13.4,-440.2 9.5,-440.2 		"/>
		<polygon id="Fill-145" class="st0" points="1.9,-444 5.7,-444 5.7,-440.2 1.9,-440.2 		"/>
		<polygon id="Fill-146" class="st0" points="-5.8,-444 -2,-444 -2,-440.2 -5.8,-440.2 		"/>
		<polygon id="Fill-147" class="st0" points="-13.5,-444 -9.6,-444 -9.6,-440.2 -13.5,-440.2 		"/>
		<polygon id="Fill-148" class="st0" points="-21.1,-444 -17.3,-444 -17.3,-440.2 -21.1,-440.2 		"/>
		<polygon id="Fill-149" class="st0" points="17.2,-436.4 21,-436.4 21,-432.5 17.2,-432.5 		"/>
		<polygon id="Fill-150" class="st0" points="9.5,-436.4 13.4,-436.4 13.4,-432.5 9.5,-432.5 		"/>
		<polygon id="Fill-151" class="st0" points="1.9,-436.4 5.7,-436.4 5.7,-432.5 1.9,-432.5 		"/>
		<polygon id="Fill-152" class="st0" points="-5.8,-436.4 -2,-436.4 -2,-432.5 -5.8,-432.5 		"/>
		<polygon id="Fill-153" class="st0" points="-13.5,-436.4 -9.6,-436.4 -9.6,-432.5 -13.5,-432.5 		"/>
		<polygon id="Fill-154" class="st0" points="-21.1,-436.4 -17.3,-436.4 -17.3,-432.5 -21.1,-432.5 		"/>
		<polygon id="Fill-155" class="st0" points="9.5,-428.7 13.4,-428.7 13.4,-424.9 9.5,-424.9 		"/>
		<polygon id="Fill-156" class="st0" points="1.9,-428.7 5.7,-428.7 5.7,-424.9 1.9,-424.9 		"/>
		<polygon id="Fill-157" class="st0" points="-5.8,-428.7 -2,-428.7 -2,-424.9 -5.8,-424.9 		"/>
		<polygon id="Fill-158" class="st0" points="-13.5,-428.7 -9.6,-428.7 -9.6,-424.9 -13.5,-424.9 		"/>
		<polygon id="Fill-159" class="st0" points="-21.1,-428.7 -17.3,-428.7 -17.3,-424.9 -21.1,-424.9 		"/>
	</g>
</g>
</svg>
