<?xml version="1.0"?>
<svg xmlns="http://www.w3.org/2000/svg" xmlns:xlink="http://www.w3.org/1999/xlink" xmlns:svgjs="http://svgjs.com/svgjs" version="1.1" width="512" height="512" x="0" y="0" viewBox="0 0 512 512" style="enable-background:new 0 0 512 512" xml:space="preserve" class=""><g>
<g xmlns="http://www.w3.org/2000/svg">
	<path d="M256,0C114.615,0,0,114.615,0,256s114.615,256,256,256s256-114.615,256-256S397.385,0,256,0z M256,452   c-108.075,0-196-87.925-196-196S147.925,60,256,60s196,87.925,196,196S364.075,452,256,452z" fill="#212f3e" data-original="#000000" style="" class=""/>
	<path d="M256,90c-91.533,0-166,74.467-166,166s74.467,166,166,166s166-74.467,166-166S347.533,90,256,90z M120,241h30v30h-30V241z    M145.721,336.99l-15-25.981l25.981-15l15,25.981L145.721,336.99z M156.701,215.99l-25.981-15l15-25.981l25.981,15L156.701,215.99z    M200.99,381.279l-25.981-15l15-25.98l25.981,15L200.99,381.279z M190.01,171.701l-15-25.981l25.981-15l15,25.981L190.01,171.701z    M271,392h-30v-30h30V392z M311.01,381.279l-15-25.98l25.981-15l15,25.98L311.01,381.279z M366.279,336.99l-25.981-15l15-25.981   l25.981,15L366.279,336.99z M241,271V120h30v121h121v30H241z" fill="#212f3e" data-original="#000000" style="" class=""/>
</g>















</g></svg>
