<?xml version="1.0" encoding="iso-8859-1"?>
<!-- Generator: Adobe Illustrator 19.0.0, SVG Export Plug-In . SVG Version: 6.00 Build 0)  -->
<svg version="1.1" id="Capa_1" xmlns="http://www.w3.org/2000/svg" xmlns:xlink="http://www.w3.org/1999/xlink" x="0px" y="0px"
	 viewBox="0 0 512 512" style="enable-background:new 0 0 512 512;" xml:space="preserve">
<g>
	<g>
		<path d="M331,0H61C36.186,0,16,20.186,16,45v15h360V45C376,20.186,355.814,0,331,0z"/>
	</g>
</g>
<g>
	<g>
		<path d="M16,452v15c0,24.814,20.186,45,45,45h270c24.814,0,45-20.186,45-45v-15H16z"/>
	</g>
</g>
<g>
	<g>
		<path d="M256,136h120V90H16v332h360v-46H256c-33.091,0-60-26.909-60-60V196C196,162.909,222.909,136,256,136z M151,331H91
			c-8.291,0-15-6.709-15-15c0-8.291,6.709-15,15-15h60c8.291,0,15,6.709,15,15C166,324.291,159.291,331,151,331z M151,271H91
			c-8.291,0-15-6.709-15-15c0-8.291,6.709-15,15-15h60c8.291,0,15,6.709,15,15S159.291,271,151,271z M151,211H91
			c-8.291,0-15-6.709-15-15s6.709-15,15-15h60c8.291,0,15,6.709,15,15S159.291,211,151,211z"/>
	</g>
</g>
<g>
	<g>
		<path d="M466,166H256c-2.591,0-4.909,0.859-7.31,1.479l101.704,101.704c5.859,5.859,15.352,5.859,21.211,0L473.31,167.479
			C470.909,166.858,468.591,166,466,166z"/>
	</g>
</g>
<g>
	<g>
		<path d="M494.521,188.69l-66.987,66.987l67.095,67.096C495.165,320.534,496,318.4,496,316V196
			C496,193.409,495.141,191.091,494.521,188.69z"/>
	</g>
</g>
<g>
	<g>
		<path d="M227.479,188.691c-0.62,2.4-1.479,4.718-1.479,7.309v120c0,2.401,0.835,4.534,1.371,6.773l67.095-67.095L227.479,188.691z
			"/>
	</g>
</g>
<g>
	<g>
		<path d="M406.322,276.889l-13.506,13.506c-8.774,8.774-20.288,13.154-31.816,13.154s-23.042-4.38-31.816-13.154l-13.506-13.506
			l-67.522,67.522c2.558,0.712,5.063,1.589,7.844,1.589h210c2.781,0,5.286-0.877,7.844-1.589L406.322,276.889z"/>
	</g>
</g>
<g>
</g>
<g>
</g>
<g>
</g>
<g>
</g>
<g>
</g>
<g>
</g>
<g>
</g>
<g>
</g>
<g>
</g>
<g>
</g>
<g>
</g>
<g>
</g>
<g>
</g>
<g>
</g>
<g>
</g>
</svg>
