<?xml version="1.0"?>
<svg xmlns="http://www.w3.org/2000/svg" xmlns:xlink="http://www.w3.org/1999/xlink" xmlns:svgjs="http://svgjs.com/svgjs" version="1.1" width="512" height="512" x="0" y="0" viewBox="0 0 512 512" style="enable-background:new 0 0 512 512" xml:space="preserve" class=""><g><g xmlns="http://www.w3.org/2000/svg"><path d="m380.782 444.531 20.313-50.788c5.691-14.23 8.577-29.216 8.577-44.541v-194.828c0-10.438-8.164-19.154-18.198-19.429-5.113-.137-9.944 1.742-13.6 5.298-3.658 3.559-5.672 8.328-5.672 13.43v135.319h-15c-66.134 0-119.938 53.804-119.938 119.938h-30c0-40.079 15.588-77.74 43.893-106.045 24.744-24.744 56.635-39.77 91.044-43.158v-207.258c0-10.33-8.404-18.734-18.734-18.734s-18.734 8.404-18.734 18.734v179.355h-30v-213.09c.001-10.33-8.403-18.734-18.733-18.734s-18.734 8.404-18.734 18.734v213.089h-30v-179.354c0-10.33-8.404-18.734-18.734-18.734s-18.734 8.404-18.734 18.734v179.355h-30v-78.151c0-5.102-2.014-9.871-5.672-13.43-3.656-3.556-8.499-5.435-13.6-5.298-10.034.275-18.198 8.991-18.198 19.429v290.157z" fill="#212f3e" data-original="#000000" style=""/><path d="m102.328 474.531h273.61v37.469h-273.61z" fill="#212f3e" data-original="#000000" style=""/></g></g></svg>
