<svg id="Capa_1" enable-background="new 0 0 511.588 511.588" height="512" viewBox="0 0 511.588 511.588" width="512" xmlns="http://www.w3.org/2000/svg"><g><path d="m504.088 66.63-104.397-60.273c-4.641-2.68-10.359-2.68-15 0l-104.396 60.273c-4.641 2.679-7.5 7.631-7.5 12.99v45.273h-34.004v-45.273c0-5.359-2.859-10.311-7.5-12.99l-104.399-60.274c-4.641-2.68-10.359-2.68-15 0l-104.392 60.274c-4.642 2.68-7.5 7.631-7.5 12.99v120.546c0 5.359 2.858 10.31 7.5 12.99l104.392 60.274c2.32 1.34 4.91 2.01 7.5 2.01s5.18-.67 7.5-2.01l37.245-21.503 15.679 25.766-35.92 20.738c-4.641 2.679-7.5 7.631-7.5 12.99v120.545c0 5.359 2.859 10.311 7.5 12.99l104.398 60.274c2.32 1.34 4.91 2.01 7.5 2.01s5.18-.67 7.5-2.01l104.396-60.274c4.641-2.679 7.5-7.631 7.5-12.99v-120.544c0-5.359-2.859-10.311-7.5-12.99l-35.92-20.738 15.679-25.766 37.242 21.502c2.319 1.34 4.91 2.01 7.5 2.01s5.18-.67 7.5-2.01l104.396-60.273c4.64-2.679 7.5-7.631 7.5-12.99v-120.547c.001-5.359-2.859-10.311-7.499-12.99zm-360.662 132.311c-12.457.156-21.578.227-28.312.227-17.465 0-18.877-.472-20.859-1.134-4.764-1.586-8.487-5.369-9.949-10.117-2.461-7.995 1.331-12.959 7.069-20.473 4.386-5.742 12.548-16.428 26.237-35.989 4.276-6.112 6.037-10.375 6.75-13.012l.164-1.284c-.352-3.651-3.438-6.515-7.18-6.515-3.438 0-6.413 2.438-7.073 5.797-1.597 8.129-9.487 13.424-17.609 11.828-8.13-1.597-13.425-9.481-11.828-17.61 3.416-17.392 18.771-30.015 36.511-30.015 20.52 0 37.213 16.692 37.213 37.211 0 .637.006 3.491-.819 6.746-1.76 7.595-5.538 15.463-11.55 24.055-5.775 8.253-10.599 14.974-14.589 20.438 5.058-.035 10.353-.086 15.446-.15.064-.001.128-.001.192-.001 8.196 0 14.892 6.592 14.995 14.812.105 8.281-6.525 15.081-14.809 15.186zm127.368 218.775c0 8.284-6.717 15-15 15-8.284 0-15-6.716-15-15v-73.042h-3.823c-8.284 0-15-6.716-15-15s6.716-15 15-15h18.823c8.283 0 15 6.716 15 15zm34.988-155.026-42.488-24.531c-4.641-2.68-10.359-2.679-15 0l-42.49 24.532-15.679-25.767 41.166-23.767c4.641-2.679 7.5-7.631 7.5-12.99v-45.273h34.004v45.273c0 5.359 2.859 10.311 7.5 12.99l41.167 23.768zm123.489-100.715c0 20.445-16.635 37.079-37.081 37.079-18.396 0-34.184-13.726-36.724-31.927-.236-1.694-.357-3.428-.357-5.152 0-8.284 6.715-15 15-15 8.284 0 15 6.716 15 15 0 .34.023.678.068 1.004.482 3.464 3.498 6.075 7.012 6.075 3.904 0 7.081-3.176 7.081-7.079 0-3.905-3.177-7.082-7.081-7.082-8.284 0-15-6.716-15-15s6.716-15 15-15c3.904 0 7.081-3.176 7.081-7.08s-3.177-7.08-7.081-7.08c-3.377 0-6.299 2.395-6.947 5.693-1.6 8.13-9.49 13.427-17.611 11.826-8.129-1.598-13.424-9.482-11.826-17.611 3.406-17.329 18.708-29.907 36.385-29.907 20.446 0 37.081 16.634 37.081 37.08 0 8.265-2.719 15.908-7.309 22.081 4.591 6.171 7.309 13.815 7.309 22.08z"/></g></svg>