<?xml version="1.0" standalone="no"?>
<!DOCTYPE svg PUBLIC "-//W3C//DTD SVG 20010904//EN"
 "http://www.w3.org/TR/2001/REC-SVG-20010904/DTD/svg10.dtd">
<svg version="1.0" xmlns="http://www.w3.org/2000/svg"
 width="700.000000pt" height="700.000000pt" viewBox="0 0 700.000000 700.000000"
 preserveAspectRatio="xMidYMid meet">
<metadata>
Created by potrace 1.14, written by Peter Selinger 2001-2017
</metadata>
<g transform="translate(0.000000,700.000000) scale(0.100000,-0.100000)"
fill="#000000" stroke="none">
<path d="M2259 5223 c-104 -35 -170 -122 -193 -257 -3 -16 -6 -30 -8 -31 -2
-1 -30 2 -63 8 -151 25 -255 -68 -259 -232 -1 -56 -4 -71 -16 -71 -107 -2
-160 -9 -187 -23 -48 -25 -92 -72 -113 -120 -19 -40 -19 -80 -20 -1004 0 -962
0 -963 21 -1008 24 -51 81 -105 145 -135 l42 -21 4 -132 c3 -123 5 -135 31
-179 31 -53 79 -94 134 -114 30 -10 176 -13 716 -14 l679 0 46 -41 c87 -78
115 -85 313 -84 197 1 214 5 298 81 l48 43 719 3 719 3 42 27 c91 60 114 116
116 289 l2 134 39 30 c22 16 49 48 60 70 21 40 21 45 21 1035 0 1103 5 1018
-64 1089 -47 48 -88 63 -181 69 l-86 5 1 41 c2 66 -14 148 -36 183 -27 43 -82
76 -135 78 -52 3 -215 -39 -419 -107 -364 -121 -732 -301 -994 -487 -51 -36
-108 -77 -127 -90 l-33 -23 -68 50 c-37 27 -127 88 -199 135 l-132 86 -1 98
c-3 174 -21 249 -83 332 -60 82 -120 113 -453 230 -187 65 -257 77 -326 54z
m317 -227 c248 -87 282 -103 322 -152 52 -63 54 -86 56 -717 1 -320 0 -590 -2
-599 -3 -14 -13 -7 -40 30 -20 26 -38 49 -42 52 -3 3 -34 40 -70 82 -38 46
-76 82 -94 88 -33 11 -49 5 -213 -84 l-83 -44 -1 331 c-1 803 -2 858 -24 901
-25 50 -61 76 -113 83 -23 3 -42 8 -42 12 0 17 43 73 63 81 42 17 72 10 283
-64z m-424 -283 l87 -26 1 -576 c1 -504 2 -596 9 -634 2 -13 65 -47 88 -47 13
0 63 23 113 50 50 28 92 50 95 50 2 0 27 14 55 30 28 17 56 30 63 30 7 0 33
-26 59 -58 25 -31 56 -68 68 -82 12 -14 63 -73 112 -133 91 -108 115 -125 163
-113 57 14 57 8 58 571 0 283 3 514 6 513 8 -4 199 -128 271 -177 l55 -36 1
-947 c1 -724 -2 -946 -11 -940 -6 4 -56 37 -111 73 -192 128 -378 228 -594
318 -69 29 -134 57 -145 62 -52 23 -335 112 -460 143 -115 30 -144 41 -165 63
l-25 28 1 936 c0 514 3 940 7 946 7 11 26 7 199 -44z m2942 -900 c0 -516 -4
-950 -8 -964 -7 -24 -18 -29 -134 -59 -135 -34 -421 -126 -494 -158 -23 -11
-79 -34 -123 -53 -181 -75 -460 -229 -627 -345 -43 -30 -78 -51 -79 -47 0 5
-2 429 -2 943 l-2 935 25 25 c132 129 530 361 825 480 176 70 444 160 525 175
14 3 39 9 55 13 17 5 32 5 35 1 3 -4 5 -429 4 -946z m-3363 633 c1 -6 2 -369
3 -807 l2 -796 28 -56 c51 -106 88 -126 332 -186 143 -36 317 -93 472 -155
105 -42 177 -77 129 -62 -23 7 -321 64 -372 71 -22 2 -71 9 -110 14 -38 6
-101 13 -140 16 -38 3 -86 8 -105 10 -19 3 -100 7 -180 11 -110 5 -149 10
-162 22 -17 14 -18 72 -18 954 0 606 4 946 10 958 8 15 21 18 60 17 27 0 51
-6 51 -11z m3676 -2 l23 -14 0 -945 c0 -1056 6 -975 -73 -975 -115 -2 -355
-19 -487 -35 -115 -14 -205 -27 -210 -30 -3 -1 -27 -6 -53 -9 -46 -6 -219 -40
-262 -52 -46 -12 18 18 161 75 135 53 371 133 434 145 80 16 168 40 190 52 44
23 82 66 108 123 l26 56 2 810 c1 445 2 810 3 811 0 0 27 1 58 2 37 1 66 -4
80 -14z m-3477 -2129 c241 -16 517 -59 743 -115 105 -27 419 -132 412 -138 -2
-3 -283 -5 -624 -5 -591 0 -620 1 -645 19 -14 11 -28 27 -32 38 -8 25 -8 191
0 204 3 6 16 9 29 7 12 -2 65 -6 117 -10z m3331 7 c4 -29 3 -245 -1 -252 -7
-11 -1290 -19 -1290 -8 0 11 326 114 420 133 8 2 35 8 60 15 25 7 54 14 65 16
11 2 31 6 45 9 14 3 36 7 50 10 14 3 48 9 75 15 76 15 319 48 415 55 47 4 86
8 87 9 6 5 73 3 74 -2z"/>
</g>
</svg>
