<svg height="512pt" viewBox="0 0 512 512" width="512pt" xmlns="http://www.w3.org/2000/svg"><path d="m396.109375 247.074219h112.878906l-19.773437-94.917969c-1.449219-6.957031-7.582032-11.9375-14.6875-11.9375h-173.746094zm0 0"/><path d="m210.933594 140.214844h-173.460938c-7.105468 0-13.238281 4.984375-14.6875 11.941406l-19.773437 94.917969h111.785156zm0 0"/><path d="m256 224.941406c-8.269531 0-15 6.730469-15 15 0 8.269532 6.730469 14.996094 15 14.996094s15-6.726562 15-14.996094c0-8.273437-6.730469-15-15-15zm0 0"/><path d="m240.433594 428.992188h30v82.988281h-30zm0 0"/><path d="m389.386719 277.074219c-4.273438 0-8.347657-1.824219-11.191407-5.015625l-107.195312-120.164063v-76.898437h68.199219c7.765625 0 12.566406-8.460938 8.582031-15.128906l-13.363281-22.363282 13.363281-22.363281c3.984375-6.667969-.816406-15.1289062-8.582031-15.1289062h-83.019531c-.058594-.0039063-.117188-.0117188-.179688-.0117188-8.285156 0-15 6.714844-15 15v136.648438l-108.367188 120.457031c-2.847656 3.164062-6.898437 4.96875-11.152343 4.96875h-121.480469v219.90625c0 8.285156 6.714844 15 15 15h195.433594v-97.988281c0-8.28125 6.714844-15 15-15h60c8.285156 0 15 6.71875 15 15v97.988281h196.566406c8.285156 0 15-6.714844 15-15v-219.90625zm-297.960938 156.917969c0 8.285156-6.714843 15-15 15-8.28125 0-15-6.714844-15-15v-20c0-8.28125 6.71875-15 15-15 8.285157 0 15 6.71875 15 15zm0-79.996094c0 8.285156-6.714843 15-15 15-8.28125 0-15-6.714844-15-15v-20c0-8.28125 6.71875-15 15-15 8.285157 0 15 6.71875 15 15zm60 79.996094c0 8.285156-6.714843 15-15 15-8.28125 0-15-6.714844-15-15v-20c0-8.28125 6.71875-15 15-15 8.285157 0 15 6.71875 15 15zm0-79.996094c0 8.285156-6.714843 15-15 15-8.28125 0-15-6.714844-15-15v-20c0-8.28125 6.71875-15 15-15 8.285157 0 15 6.71875 15 15zm88.824219 0c0 8.285156-6.714844 15-15 15s-15-6.714844-15-15v-20c0-8.28125 6.714844-15 15-15s15 6.71875 15 15zm-29.25-114.058594c0-24.8125 20.1875-44.996094 45-44.996094s45 20.183594 45 44.996094c0 24.816406-20.1875 45-45 45s-45-20.183594-45-45zm90.75 114.058594c0 8.285156-6.714844 15-15 15s-15-6.714844-15-15v-20c0-8.28125 6.714844-15 15-15s15 6.71875 15 15zm85.074219 79.996094c0 8.285156-6.71875 15-15 15-8.285157 0-15-6.714844-15-15v-20c0-8.28125 6.714843-15 15-15 8.28125 0 15 6.71875 15 15zm0-79.996094c0 8.285156-6.71875 15-15 15-8.285157 0-15-6.714844-15-15v-20c0-8.28125 6.714843-15 15-15 8.28125 0 15 6.71875 15 15zm60 79.996094c0 8.285156-6.71875 15-15 15-8.285157 0-15-6.714844-15-15v-20c0-8.28125 6.714843-15 15-15 8.28125 0 15 6.71875 15 15zm0-79.996094c0 8.285156-6.71875 15-15 15-8.285157 0-15-6.714844-15-15v-20c0-8.28125 6.714843-15 15-15 8.28125 0 15 6.71875 15 15zm0 0"/></svg>