<svg id="Layer_1" enable-background="new 0 0 512 512" height="512" viewBox="0 0 512 512" width="512" xmlns="http://www.w3.org/2000/svg"><g><path d="m159.6 281.167c13.877 0 25.167-11.29 25.167-25.167s-11.29-25.167-25.167-25.167-25.166 11.29-25.166 25.167 11.289 25.167 25.166 25.167z"/><path d="m159.6 311.167c-21.938 0-40.572 14.412-46.933 34.267h93.865c-6.36-19.855-24.995-34.267-46.932-34.267z"/><path d="m464.866 72.3h-417.732c-26.337 0-47.134 21.39-47.134 47.134v273.133c0 26.336 21.39 47.133 47.134 47.133h417.732c26.337 0 47.134-21.39 47.134-47.134v-273.132c0-26.338-21.39-47.134-47.134-47.134zm-241 303.134h-128.533c-8.284 0-15-6.716-15-15 0-28.655 15.284-53.805 38.127-67.731-8.715-9.759-14.026-22.62-14.026-36.702 0-30.419 24.747-55.167 55.166-55.167s55.167 24.748 55.167 55.167c0 14.083-5.311 26.944-14.027 36.703 22.843 13.926 38.127 39.077 38.127 67.731-.001 8.283-6.717 14.999-15.001 14.999zm160.667 0h-80.333c-8.284 0-15-6.716-15-15s6.716-15 15-15h80.333c8.284 0 15 6.716 15 15s-6.716 15-15 15zm32.134-64.267h-112.467c-8.284 0-15-6.716-15-15s6.716-15 15-15h112.467c8.284 0 15 6.716 15 15s-6.716 15-15 15zm0-64.267h-112.467c-8.284 0-15-6.716-15-15s6.716-15 15-15h112.467c8.284 0 15 6.716 15 15s-6.716 15-15 15zm0-80.334h-321.334c-8.284 0-15-6.716-15-15s6.716-15 15-15h321.334c8.284 0 15 6.716 15 15s-6.716 15-15 15z"/></g></svg>