<svg width="24" height="24" viewBox="0 0 24 24" fill="none" xmlns="http://www.w3.org/2000/svg">
<path d="M23.2991 12.1155C23.2991 5.77456 18.14 0.615479 11.7991 0.615479C5.45822 0.615479 0.299133 5.77456 0.299133 12.1155C0.299133 18.4564 5.45822 23.6155 11.7991 23.6155C18.14 23.6155 23.2991 18.4564 23.2991 12.1155ZM21.574 12.1155C21.574 17.5241 17.2078 21.8905 11.799 21.8905C6.38992 21.8905 2.02403 17.5242 2.02403 12.1155C2.02403 6.70673 6.39028 2.34048 11.799 2.34048C17.2081 2.34048 21.574 6.70673 21.574 12.1155ZM19.5616 12.1155C19.5536 11.9099 19.4689 11.6723 19.3279 11.5225L14.7278 6.63501C14.4162 6.35485 13.8184 6.23934 13.47 6.56322C13.1269 6.88228 13.1371 7.50077 13.4791 7.82103L16.7134 11.2532H4.89923C4.42294 11.2532 4.03668 11.6392 4.03668 12.1157C4.03668 12.592 4.42293 12.9783 4.89923 12.9783H16.7134L13.4791 16.4104C13.1847 16.7052 13.1303 17.3455 13.47 17.6682C13.8098 17.9909 14.4288 17.8878 14.7278 17.5964L19.3279 12.709C19.4854 12.5417 19.562 12.3454 19.5616 12.116V12.1155Z" fill="#37474F"/>
</svg>
