<svg width="23" height="23" viewBox="0 0 23 23" fill="none" xmlns="http://www.w3.org/2000/svg">
<path d="M23 11.5C23 5.15908 17.8409 0 11.5 0C5.15908 0 0 5.15908 0 11.5C0 17.8409 5.15908 23 11.5 23C17.8409 23 23 17.8409 23 11.5ZM21.2749 11.5C21.2749 16.9086 16.9086 21.275 11.4999 21.275C6.09079 21.275 1.7249 16.9087 1.7249 11.5C1.7249 6.09125 6.09115 1.725 11.4999 1.725C16.909 1.725 21.2749 6.09125 21.2749 11.5ZM19.2624 11.5C19.2544 11.2944 19.1698 11.0568 19.0288 10.907L14.4287 6.01953C14.1171 5.73937 13.5192 5.62386 13.1709 5.94774C12.8278 6.2668 12.838 6.8853 13.1799 7.20555L16.4143 10.6377H4.6001C4.12381 10.6377 3.73755 11.0237 3.73755 11.5002C3.73755 11.9765 4.1238 12.3628 4.6001 12.3628H16.4143L13.1799 15.7949C12.8855 16.0897 12.8312 16.7301 13.1709 17.0527C13.5106 17.3754 14.1297 17.2723 14.4287 16.9809L19.0288 12.0935C19.1862 11.9262 19.2628 11.7299 19.2624 11.5005V11.5Z" fill="white"/>
</svg>
