<svg width="477" height="442" viewBox="0 0 477 442" fill="none" xmlns="http://www.w3.org/2000/svg">
<g clip-path="url(#clip0_835_2)">
<g style="mix-blend-mode:multiply">
<path d="M321.92 126.45H19.2804C11.6479 126.45 5.46045 132.638 5.46045 140.27V374.12C5.46045 381.753 11.6479 387.94 19.2804 387.94H321.92C329.553 387.94 335.74 381.753 335.74 374.12V140.27C335.74 132.638 329.553 126.45 321.92 126.45Z" fill="#F2F5F4"/>
</g>
<path d="M337.2 109.81H34.5602C26.9277 109.81 20.7402 115.997 20.7402 123.63V357.48C20.7402 365.113 26.9277 371.3 34.5602 371.3H337.2C344.833 371.3 351.02 365.113 351.02 357.48V123.63C351.02 115.997 344.833 109.81 337.2 109.81Z" fill="white" stroke="#F2F5F4" stroke-miterlimit="10"/>
<g style="mix-blend-mode:multiply">
<path d="M34.5602 115.65H337.2C344.83 115.65 351.02 121.84 351.02 129.47V140.2H20.7402V129.47C20.7402 121.84 26.9302 115.65 34.5602 115.65Z" fill="#F2F5F4"/>
</g>
<path d="M34.5602 109.81H337.2C344.83 109.81 351.02 116 351.02 123.63V134.36H20.7402V123.63C20.7402 116 26.9302 109.81 34.5602 109.81Z" fill="white"/>
<path d="M37.72 126.27C40.0286 126.27 41.9 124.399 41.9 122.09C41.9 119.782 40.0286 117.91 37.72 117.91C35.4115 117.91 33.54 119.782 33.54 122.09C33.54 124.399 35.4115 126.27 37.72 126.27Z" fill="#D57548"/>
<path d="M58.5304 122.09C58.5304 124.4 56.6604 126.27 54.3504 126.27C52.0404 126.27 50.1704 124.4 50.1704 122.09C50.1704 119.78 52.0404 117.91 54.3504 117.91C56.6604 117.91 58.5304 119.78 58.5304 122.09Z" fill="#263238"/>
<path d="M75.1701 122.09C75.1701 124.4 73.3001 126.27 70.9901 126.27C68.6801 126.27 66.8101 124.4 66.8101 122.09C66.8101 119.78 68.6801 117.91 70.9901 117.91C73.3001 117.91 75.1701 119.78 75.1701 122.09Z" fill="#24C79D"/>
<path d="M250.411 155.49H314.091" stroke="#F2F5F4" stroke-width="5" stroke-linecap="round" stroke-linejoin="round"/>
<path d="M250.411 167.84H314.091" stroke="#F2F5F4" stroke-width="5" stroke-linecap="round" stroke-linejoin="round"/>
<path d="M250.411 180.19H314.091" stroke="#F2F5F4" stroke-width="5" stroke-linecap="round" stroke-linejoin="round"/>
<path d="M250.411 192.55H314.091" stroke="#F2F5F4" stroke-width="5" stroke-linecap="round" stroke-linejoin="round"/>
<path d="M250.411 204.9H314.091" stroke="#F2F5F4" stroke-width="5" stroke-linecap="round" stroke-linejoin="round"/>
<path d="M45.4204 229.6H314.09" stroke="#F2F5F4" stroke-width="5" stroke-linecap="round" stroke-linejoin="round"/>
<path d="M45.4204 241.95H314.09" stroke="#F2F5F4" stroke-width="5" stroke-linecap="round" stroke-linejoin="round"/>
<path d="M45.4204 254.31H314.09" stroke="#F2F5F4" stroke-width="5" stroke-linecap="round" stroke-linejoin="round"/>
<path d="M45.4204 266.66H314.09" stroke="#F2F5F4" stroke-width="5" stroke-linecap="round" stroke-linejoin="round"/>
<path d="M45.4204 279.01H314.09" stroke="#F2F5F4" stroke-width="5" stroke-linecap="round" stroke-linejoin="round"/>
<path d="M159.23 298.94H255.28" stroke="#F2F5F4" stroke-width="5" stroke-linecap="round" stroke-linejoin="round"/>
<path d="M159.23 311.29H255.28" stroke="#F2F5F4" stroke-width="5" stroke-linecap="round" stroke-linejoin="round"/>
<path d="M159.23 323.65H255.28" stroke="#F2F5F4" stroke-width="5" stroke-linecap="round" stroke-linejoin="round"/>
<path d="M159.23 336H226.38" stroke="#F2F5F4" stroke-width="5" stroke-linecap="round" stroke-linejoin="round"/>
<path d="M159.23 348.35H226.38" stroke="#F2F5F4" stroke-width="5" stroke-linecap="round" stroke-linejoin="round"/>
<path d="M239.58 189.578C243.818 171.353 232.479 153.143 214.254 148.905C196.029 144.668 177.819 156.007 173.581 174.232C169.343 192.457 180.682 210.667 198.907 214.905C217.133 219.142 235.342 207.803 239.58 189.578Z" stroke="#F2F5F4" stroke-width="5" stroke-linecap="round" stroke-linejoin="round"/>
<path d="M206.581 148.02V181.9L231.461 204.9" stroke="#F2F5F4" stroke-width="5" stroke-linecap="round" stroke-linejoin="round"/>
<path d="M111.074 332.496C115.312 314.27 103.973 296.061 85.7474 291.823C67.5222 287.585 49.3123 298.924 45.0746 317.149C40.8368 335.374 52.1758 353.584 70.401 357.822C88.6262 362.06 106.836 350.721 111.074 332.496Z" stroke="#F2F5F4" stroke-width="5" stroke-linecap="round" stroke-linejoin="round"/>
<path d="M78.0806 290.93V324.81L102.961 347.81" stroke="#F2F5F4" stroke-width="5" stroke-linecap="round" stroke-linejoin="round"/>
<path d="M326.091 295.35H265.021V349.55H326.091V295.35Z" stroke="#F2F5F4" stroke-width="5" stroke-linecap="round" stroke-linejoin="round"/>
<path d="M44.2207 154.8L99.8807 209H44.2207V154.8Z" stroke="#F2F5F4" stroke-width="5" stroke-linecap="round" stroke-linejoin="round"/>
<g style="mix-blend-mode:multiply">
<path d="M441.6 103.44H311.08C303.448 103.44 297.26 109.627 297.26 117.26V194.61C297.26 202.243 303.448 208.43 311.08 208.43H441.6C449.233 208.43 455.42 202.243 455.42 194.61V117.26C455.42 109.627 449.233 103.44 441.6 103.44Z" fill="#F2F5F4"/>
</g>
<path d="M453.89 92.79H323.37C315.738 92.79 309.55 98.9775 309.55 106.61V183.96C309.55 191.593 315.738 197.78 323.37 197.78H453.89C461.523 197.78 467.71 191.593 467.71 183.96V106.61C467.71 98.9775 461.523 92.79 453.89 92.79Z" fill="white" stroke="#F1F1F3" stroke-miterlimit="10"/>
<g style="mix-blend-mode:multiply">
<path d="M323.37 98.6201H453.89C461.52 98.6201 467.71 104.81 467.71 112.44V123.17H309.55V112.44C309.55 104.81 315.74 98.6201 323.37 98.6201Z" fill="#F2F5F4"/>
</g>
<path d="M323.37 92.79H453.89C461.52 92.79 467.71 98.98 467.71 106.61V117.34H309.55V106.61C309.55 98.98 315.74 92.79 323.37 92.79Z" fill="white" stroke="#F1F1F3" stroke-miterlimit="10"/>
<path d="M378.43 105.06H399.64" stroke="#E3E9E7" stroke-width="5" stroke-linecap="round" stroke-linejoin="round"/>
<path d="M409.61 105.06H452.71" stroke="#E3E9E7" stroke-width="5" stroke-linecap="round" stroke-linejoin="round"/>
<path d="M330.71 105.06C330.71 107.37 328.84 109.24 326.53 109.24C324.22 109.24 322.35 107.37 322.35 105.06C322.35 102.75 324.22 100.88 326.53 100.88C328.84 100.88 330.71 102.75 330.71 105.06Z" fill="#D57548"/>
<path d="M347.34 105.06C347.34 107.37 345.47 109.24 343.16 109.24C340.85 109.24 338.98 107.37 338.98 105.06C338.98 102.75 340.85 100.88 343.16 100.88C345.47 100.88 347.34 102.75 347.34 105.06Z" fill="#263238"/>
<path d="M363.98 105.06C363.98 107.37 362.11 109.24 359.8 109.24C357.49 109.24 355.62 107.37 355.62 105.06C355.62 102.75 357.49 100.88 359.8 100.88C362.11 100.88 363.98 102.75 363.98 105.06Z" fill="#24C79D"/>
<path d="M332.371 172.19C362.671 139.03 392.541 172.19 392.541 172.19C423.861 137.79 452.711 172.19 452.711 172.19" stroke="#24C79D" stroke-miterlimit="10"/>
<path d="M332.371 172.19H452.711" stroke="#450000" stroke-miterlimit="10"/>
<path d="M452.71 165.8V175.87" stroke="#450000" stroke-miterlimit="10"/>
<path d="M332.371 165.8V175.87" stroke="#450000" stroke-miterlimit="10"/>
<path d="M454.011 155.85H451.411C450.505 155.85 449.771 156.584 449.771 157.49V160.09C449.771 160.996 450.505 161.73 451.411 161.73H454.011C454.916 161.73 455.651 160.996 455.651 160.09V157.49C455.651 156.584 454.916 155.85 454.011 155.85Z" stroke="#450000" stroke-miterlimit="10"/>
<path d="M333.68 155.85H331.08C330.175 155.85 329.44 156.584 329.44 157.49V160.09C329.44 160.996 330.175 161.73 331.08 161.73H333.68C334.586 161.73 335.32 160.996 335.32 160.09V157.49C335.32 156.584 334.586 155.85 333.68 155.85Z" stroke="#450000" stroke-miterlimit="10"/>
<path d="M393.841 176.5H391.241C390.335 176.5 389.601 177.234 389.601 178.14V180.74C389.601 181.646 390.335 182.38 391.241 182.38H393.841C394.746 182.38 395.481 181.646 395.481 180.74V178.14C395.481 177.234 394.746 176.5 393.841 176.5Z" stroke="#450000" stroke-miterlimit="10"/>
<path d="M392.54 188.24C397.4 188.24 401.34 184.3 401.34 179.44C401.34 174.58 397.4 170.64 392.54 170.64C387.68 170.64 383.74 174.58 383.74 179.44C383.74 184.3 387.68 188.24 392.54 188.24Z" stroke="#263238" stroke-miterlimit="10"/>
<path d="M334.641 146.57L333.421 144.69L332.241 146.56C332.021 146.9 331.641 147.11 331.241 147.11H330.721C329.751 147.11 329.191 146.02 329.761 145.23L331.691 142.53L329.841 139.9C329.291 139.11 329.841 138.03 330.811 138.03H331.331C331.721 138.03 332.091 138.23 332.311 138.55L333.501 140.31L334.651 138.56C334.871 138.23 335.241 138.03 335.641 138.03H335.981C336.951 138.03 337.511 139.12 336.941 139.91L335.141 142.41L337.151 145.23C337.711 146.02 337.151 147.1 336.181 147.1H335.631C335.231 147.1 334.851 146.9 334.631 146.56L334.641 146.57Z" fill="#24C79D"/>
<path d="M356.611 143.81V145.92C356.611 146.58 356.081 147.11 355.421 147.11H354.731C354.081 147.11 353.541 146.58 353.541 145.92V143.77L351.191 139.82C350.721 139.03 351.291 138.03 352.211 138.03H352.671C353.091 138.03 353.481 138.25 353.691 138.61L355.201 141.16L356.721 138.6C356.931 138.24 357.321 138.02 357.741 138.02H357.941C358.861 138.02 359.431 139.02 358.961 139.81L356.601 143.8L356.611 143.81Z" fill="#24C79D"/>
<path d="M377.72 145.92C377.72 146.58 377.19 147.11 376.53 147.11H370.82C370.02 147.11 369.38 146.47 369.38 145.67C369.38 145.39 369.48 145.11 369.67 144.9L373.53 140.41H370.7C370.04 140.41 369.51 139.88 369.51 139.22C369.51 138.56 370.04 138.03 370.7 138.03H376.07C376.87 138.03 377.51 138.67 377.51 139.47C377.51 139.75 377.41 140.03 377.22 140.24L373.36 144.73H376.53C377.19 144.73 377.72 145.26 377.72 145.92Z" fill="#24C79D"/>
<path d="M342.711 139.39H347.851C348.361 139.39 348.771 139.8 348.771 140.31V141.04C348.771 141.55 348.361 141.96 347.851 141.96H342.711C342.201 141.96 341.791 141.55 341.791 141.04V140.31C341.791 139.8 342.201 139.39 342.711 139.39Z" fill="#24C79D"/>
<path d="M342.711 143.51H347.851C348.361 143.51 348.771 143.92 348.771 144.43V145.16C348.771 145.67 348.361 146.08 347.851 146.08H342.711C342.201 146.08 341.791 145.67 341.791 145.16V144.43C341.791 143.92 342.201 143.51 342.711 143.51Z" fill="#24C79D"/>
<path d="M367.272 143.664L363.645 140.037C363.285 139.677 362.703 139.677 362.344 140.037L361.834 140.546C361.475 140.905 361.475 141.488 361.834 141.847L365.462 145.474C365.821 145.834 366.404 145.834 366.763 145.474L367.272 144.965C367.631 144.606 367.631 144.024 367.272 143.664Z" fill="#24C79D"/>
<path d="M363.646 145.471L367.274 141.844C367.633 141.485 367.633 140.902 367.274 140.543L366.765 140.034C366.405 139.674 365.823 139.674 365.464 140.034L361.836 143.661C361.477 144.02 361.477 144.603 361.836 144.962L362.345 145.471C362.705 145.831 363.287 145.831 363.646 145.471Z" fill="#24C79D"/>
<path d="M388.63 138.33H452.71" stroke="#E3E9E7" stroke-width="5" stroke-linecap="round" stroke-linejoin="round"/>
<path d="M388.63 148.16H420.67" stroke="#E3E9E7" stroke-width="5" stroke-linecap="round" stroke-linejoin="round"/>
<path d="M209.71 338.54H96.1904C70.9604 335.98 75.9104 308.19 104.33 294.98C105.01 294.65 105.72 294.33 106.43 294.03L198.8 290.47C200.39 291.35 202.07 292.34 203.75 293.45C203.84 293.51 203.92 293.57 204.02 293.62C221.27 304.99 240.57 327.18 209.71 338.53V338.54Z" fill="#263238"/>
<path d="M89.5503 371.3H221.42C212.93 326.76 196.27 303.05 196.27 303.05L115.74 298.25C96.6303 317.09 91.1003 350.49 89.5603 371.3H89.5503Z" fill="black"/>
<path d="M260.22 273.12C256.6 301.92 203.35 304.71 212.44 264.25L260.22 273.12Z" fill="#263238"/>
<path d="M256.011 261.03L222.661 291.82C211.771 280.56 171.401 221.18 163.841 193.41C160.601 181.52 167.031 169.11 178.641 164.97C183.461 163.25 188.531 163.2 193.161 164.55C198.211 166.02 202.741 169.14 205.901 173.66L256.021 261.02L256.011 261.03Z" fill="#263238"/>
<path d="M291.634 185.453L283.457 191.261C281.719 192.495 281.31 194.905 282.544 196.643L287.437 203.532C288.671 205.27 291.081 205.679 292.819 204.445L300.997 198.637C302.735 197.403 303.143 194.993 301.909 193.255L297.017 186.366C295.782 184.627 293.373 184.219 291.634 185.453Z" fill="#450000"/>
<path d="M318.64 191.85C304.04 201.06 291.22 253.8 261 276.31C259.3 277.57 257.52 278.57 255.71 279.35C240.09 285.89 221.43 274.37 221.43 256.13L243.82 235.68L294.25 189.62L318.65 191.86L318.64 191.85Z" fill="#EFBFA9"/>
<path d="M255.7 279.34C240.08 285.88 221.42 274.36 221.42 256.12L243.81 235.67C229.27 262.96 237.17 283.13 255.68 279.33C255.68 279.33 255.687 279.333 255.7 279.34Z" fill="#ECB298"/>
<path d="M294.24 189.61L288.69 203.22C312.88 215.18 330.15 203.94 340.84 202.34L326.69 173.67L294.24 189.62V189.61Z" fill="#EFBFA9"/>
<path d="M335.41 186.57C334.88 186.91 334.39 187.35 334 187.9C333.9 188.05 333.8 188.19 333.72 188.35C332.79 189.94 332.82 191.87 333.69 193.4C334.02 193.99 334.47 194.52 335.03 194.95L338.54 197.67L343.51 201.5C344.22 202.05 345.03 202.37 345.85 202.48C347.01 202.65 348.18 202.4 349.18 201.77C349.71 201.43 350.19 200.98 350.58 200.43C352 198.43 351.71 195.73 350 194.05C349.91 193.95 349.8 193.86 349.7 193.78L341.43 186.94C341.35 186.87 341.27 186.81 341.18 186.75C339.44 185.47 337.15 185.47 335.43 186.57H335.41Z" fill="#EFBFA9"/>
<path d="M368.58 173.73C368.99 171.27 367.2 168.99 364.71 168.81L343.27 167.25L322.22 173.32L325.78 191.41L348.97 177.75L364.53 177.26C366.55 177.2 368.24 175.72 368.57 173.73H368.58Z" fill="#EFBFA9"/>
<path d="M322.22 173.33L326.53 172.08L342.84 174.95L345.6 179.74L324.77 191.46L322.22 173.33Z" fill="#E89076"/>
<path d="M346.391 209.19C345.351 210.62 343.591 211.44 341.711 211.2L331.071 209.77C328.341 209.4 326.371 206.91 326.651 204.16C326.731 203.37 327.011 202.65 327.401 202.01C327.471 201.88 327.541 201.78 327.621 201.68C327.681 201.6 327.751 201.5 327.831 201.42C328.951 200.05 330.751 199.31 332.621 199.64L343.191 201.41C344.691 201.68 345.951 202.6 346.651 203.85C346.751 204.03 346.841 204.22 346.931 204.41C347.251 205.1 347.391 205.9 347.311 206.71C347.221 207.65 346.891 208.48 346.391 209.17V209.19Z" fill="#EFBFA9"/>
<path d="M346.651 203.86C345.911 204.45 344.991 204.83 343.961 204.91L333.271 205.73C330.601 205.94 327.371 204.22 327.401 200.61C328.521 199.25 330.751 199.32 332.611 199.65L343.181 201.42C344.681 201.69 345.941 202.61 346.641 203.86H346.651Z" fill="#E89076"/>
<path d="M343.13 198.77C342.4 199.95 341.18 200.83 339.69 201.07L332.37 202.08C329.64 202.52 327.06 200.69 326.55 197.99C326.34 196.79 326.53 195.64 327.07 194.65C327.11 194.55 327.17 194.44 327.23 194.36C328.02 193.07 329.34 192.15 330.96 191.95L338.33 191.27C339.59 191.12 340.82 191.46 341.78 192.15C342.79 192.85 343.51 193.92 343.77 195.21C344.03 196.49 343.77 197.74 343.13 198.79V198.77Z" fill="#E89076"/>
<path d="M329.141 195.54C329.081 195.63 329.011 195.72 328.951 195.82C328.871 195.94 328.821 196.06 328.751 196.16C328.281 197.04 328.071 198.04 328.181 199.1C328.471 201.84 330.901 203.86 333.661 203.64L344.351 202.84C344.871 202.79 345.361 202.68 345.831 202.49C346.691 202.14 347.441 201.55 347.971 200.82C348.691 199.83 349.051 198.6 348.891 197.3C348.791 196.56 348.551 195.9 348.191 195.3C347.901 194.85 347.551 194.44 347.131 194.1C346.231 193.34 345.031 192.9 343.771 192.95L333.691 193.4L333.041 193.43C331.421 193.51 330.041 194.32 329.141 195.54Z" fill="#EFBFA9"/>
<path d="M333.78 193.34L333.13 193.37C331.51 193.45 330.13 194.26 329.23 195.48C329.17 195.57 329.1 195.66 329.04 195.76C328.96 195.88 328.91 196 328.84 196.1C329.91 198.06 332.21 199.14 334.49 198.6L338.62 197.61L347.56 195.47C347.81 195.41 348.06 195.34 348.28 195.23C348.99 194.95 349.58 194.52 350.08 193.99C349.99 193.89 349.88 193.8 349.78 193.72L341.51 186.88C341.43 186.81 341.34 186.75 341.26 186.69L333.82 188.28C332.89 189.87 332.92 191.8 333.79 193.33L333.78 193.34Z" fill="#E89076"/>
<path d="M334.821 179.09C334.071 179.57 333.441 180.23 333.011 181.07C331.741 183.54 332.681 186.56 335.091 187.9L338.121 189.58L344.491 193.07C345.441 193.6 346.501 193.78 347.501 193.64C348.221 193.57 348.911 193.31 349.531 192.92C350.281 192.44 350.901 191.77 351.311 190.92C352.451 188.61 351.621 185.81 349.411 184.49L346.421 182.72L343.251 180.83L340.181 179.01C338.451 177.97 336.391 178.08 334.811 179.08L334.821 179.09Z" fill="#EFBFA9"/>
<path d="M343.621 190.5C343.081 191.78 342.011 192.84 340.581 193.3L333.501 195.41C330.871 196.26 328.041 194.85 327.131 192.26C326.741 191.1 326.751 189.94 327.131 188.88C327.151 188.78 327.201 188.66 327.241 188.57C327.831 187.17 328.991 186.06 330.551 185.62L337.731 183.82C338.951 183.48 340.221 183.63 341.281 184.16C342.381 184.69 343.271 185.65 343.721 186.87C344.171 188.1 344.111 189.37 343.631 190.5H343.621Z" fill="#E89076"/>
<path d="M348.8 191.71C348.16 192.95 347.01 193.92 345.55 194.26L335.101 196.69C332.411 197.33 329.7 195.71 328.99 193.05C328.69 191.87 328.801 190.71 329.251 189.68C329.281 189.58 329.341 189.47 329.381 189.38C330.071 188.03 331.321 187.02 332.911 186.69L343.441 184.57C344.691 184.33 345.941 184.57 346.951 185.19C348.011 185.81 348.811 186.83 349.171 188.09C349.531 189.35 349.36 190.62 348.8 191.71Z" fill="#EFBFA9"/>
<path d="M300.26 192.18L324.02 178.47L340.44 181.74L334.66 189.96L327.89 190.63C327.89 190.63 317.74 210.64 300.27 192.19L300.26 192.18Z" fill="#E89076"/>
<path d="M340.43 181.74L344.51 190.55C345.4 192.46 344.58 194.74 342.68 195.65C340.99 196.46 338.96 195.95 337.87 194.43L334.65 189.96L340.43 181.74Z" fill="#E89076"/>
<path d="M294.24 189.61L322.23 173.33L341.62 177.12L334.83 186.84L326.84 187.66C326.84 187.66 314.94 211.32 294.24 189.61Z" fill="#EFBFA9"/>
<path d="M343.26 180.84L336.93 187.04L338.13 189.58L339.71 192.91C339.79 193.09 339.89 193.27 339.98 193.42C341.04 195.1 343.08 195.91 345.03 195.36C346.07 195.08 346.92 194.46 347.51 193.64C348.29 192.58 348.6 191.2 348.25 189.84L346.43 182.72L343.26 180.83V180.84Z" fill="#E89076"/>
<path d="M341.62 177.12L346.47 187.5C347.52 189.76 346.57 192.44 344.33 193.53C342.34 194.5 339.94 193.9 338.64 192.1L334.82 186.83L341.61 177.11L341.62 177.12Z" fill="#EFBFA9"/>
<path d="M293.72 189.01L307.6 209.79L303.12 216.77L286.2 195.02L293.72 189.01Z" fill="#450000"/>
<path d="M212.441 327.25L125.211 327.4L93.5205 327.46C93.5205 327.46 99.2905 313.46 104.331 294.98C108.561 279.45 112.261 260.77 111.591 244.55C111.201 234.86 109.931 224.68 109.941 214.24C109.951 207.61 104.411 161.77 109.941 157.55C122.691 147.83 159.351 146.28 157.151 148.36L185.871 164.69C187.481 170.2 203.031 191.76 205.531 204.25C205.741 205.19 205.911 206.17 206.071 207.13C206.571 210.4 206.891 213.74 206.861 217.15C206.871 218.1 206.851 219.1 206.721 220.11C206.661 221.55 206.501 223.05 206.261 224.51C204.861 233.15 200.84 241.73 192.431 249.26L192.561 249.84L192.581 249.97L198.161 271.66L203.761 293.47L203.911 294.05L212.441 327.27V327.25Z" fill="#263238"/>
<path d="M204.02 293.63L203.9 294.03L128.37 316.67L125.21 327.4L123.03 334.78L117.2 338.53H96.2002C70.9702 335.97 75.9202 308.18 104.34 294.97C108.57 279.44 112.27 260.76 111.6 244.54C111.21 234.85 109.94 224.67 109.95 214.23L138.72 184.47L138 254.66L187.56 263.16L198.16 271.62L203.76 293.43C203.85 293.49 203.93 293.55 204.03 293.6L204.02 293.63Z" fill="#263238"/>
<path d="M158.42 225.65L142.06 251.2L125.71 225.65L142.06 200.11L158.42 225.65Z" stroke="#24C79D" stroke-miterlimit="10"/>
<path d="M190.95 225.65L174.6 251.2L158.24 225.65L174.6 200.11L190.95 225.65Z" stroke="#24C79D" stroke-miterlimit="10"/>
<path d="M223.49 225.65L207.13 251.2L190.78 225.65L207.13 200.11L223.49 225.65Z" stroke="#24C79D" stroke-miterlimit="10"/>
<path d="M207.56 96.2698C218.12 96.2698 226.68 87.7095 226.68 77.1498C226.68 66.5901 218.12 58.0298 207.56 58.0298C197.001 58.0298 188.44 66.5901 188.44 77.1498C188.44 87.7095 197.001 96.2698 207.56 96.2698Z" fill="#263238"/>
<path d="M188.09 74.6399C198.65 74.6399 207.21 66.0796 207.21 55.5199C207.21 44.9602 198.65 36.3999 188.09 36.3999C177.531 36.3999 168.97 44.9602 168.97 55.5199C168.97 66.0796 177.531 74.6399 188.09 74.6399Z" fill="#263238"/>
<path d="M163.09 81.5999C173.65 81.5999 182.21 73.0395 182.21 62.4799C182.21 51.9202 173.65 43.3599 163.09 43.3599C152.531 43.3599 143.97 51.9202 143.97 62.4799C143.97 73.0395 152.531 81.5999 163.09 81.5999Z" fill="#263238"/>
<path d="M139.1 74.1498C131.38 93.9298 134.11 106.52 146.58 114.74L158.39 101.85L151.32 70.8398L139.09 74.1599L139.1 74.1498Z" fill="#450000"/>
<path d="M145.791 101.85L150.281 150.01L186.151 174.26L186.661 114.88L145.791 101.85Z" fill="#EFBFA9"/>
<path d="M139.93 115.31L148.43 130.16L153.75 118.84L139.93 115.31Z" fill="#450000"/>
<path d="M186.32 153.97C186.32 153.97 164.19 149.98 163.55 125.01L186.65 132.53L186.31 153.97H186.32Z" fill="#E89076"/>
<path d="M201.111 66.79C211.811 79.91 213.211 97.19 213.211 97.19L201.611 99.02L192.791 71.23L201.101 66.79H201.111Z" fill="#263238"/>
<path d="M149.42 82.15L152.87 95.81L154.45 102.04L158.68 118.76C160.96 127.79 167.76 134.98 176.64 137.78L190.44 142.13C202.41 145.9 214.71 137.6 215.82 125.1C216.64 115.93 216.63 105.23 213.14 93.86C209.08 80.66 198.49 70.34 185.89 66.22L185.84 66.2L183.63 65.54L183.39 65.48C182.29 65.19 181.15 64.96 180.01 64.77C177.31 64.29 174.53 64.09 171.71 64.17L162.78 64.43C153.68 64.69 147.17 73.31 149.4 82.14L149.42 82.15Z" fill="#EFBFA9"/>
<path d="M212.271 114.85C218.694 114.85 223.901 109.079 223.901 101.96C223.901 94.8409 218.694 89.0698 212.271 89.0698C205.848 89.0698 200.641 94.8409 200.641 101.96C200.641 109.079 205.848 114.85 212.271 114.85Z" stroke="white" stroke-miterlimit="10"/>
<path d="M207.901 104.67C208.221 107.94 207.261 110.71 205.771 110.86C204.281 111 202.811 108.47 202.501 105.19C202.181 101.92 203.141 99.1497 204.631 98.9997C206.121 98.8597 207.591 101.39 207.901 104.67Z" fill="black"/>
<path d="M198.441 99.7996C201.441 107.01 206.381 108.49 209.821 108.54C212.031 108.57 213.841 110.28 214.021 112.48C214.251 115.38 212.761 118.15 210.201 119.54L201.151 124.46C196.071 126.16 190.641 123.12 189.431 117.9L185.331 100.23L198.441 99.7896V99.7996Z" fill="#EFBFA9"/>
<path d="M204.49 123.31L203.94 122.3L209.92 119.05C212.28 117.77 213.66 115.22 213.44 112.54C213.29 110.63 211.72 109.16 209.81 109.13C206.08 109.08 200.99 107.45 197.9 100.03L198.97 99.5898C201.81 106.43 206.44 107.93 209.83 107.97C212.34 108.01 214.39 109.93 214.59 112.44C214.84 115.57 213.22 118.56 210.47 120.06L204.49 123.31Z" fill="#E89076"/>
<path d="M188.03 107.63C188.35 110.9 187.39 113.67 185.9 113.82C184.41 113.96 182.94 111.43 182.63 108.15C182.31 104.88 183.27 102.11 184.76 101.96C186.25 101.82 187.72 104.35 188.03 107.63Z" fill="black"/>
<path d="M179.61 94.6296C172.17 97.7296 170.12 93.9096 175.46 90.6796C181.2 87.1996 188.87 90.7696 179.61 94.6296Z" fill="#450000"/>
<path d="M201.05 91.1397C195.24 90.1997 196.86 86.5397 201.71 86.4897C206.93 86.4297 208.27 92.3197 201.05 91.1397Z" fill="#450000"/>
<path d="M201.171 125.73L187.771 124.7C187.771 124.7 189.281 132.44 193.161 133.27C197.391 134.18 201.161 125.73 201.161 125.73H201.171Z" fill="white"/>
<path d="M182.85 120.78C189.273 120.78 194.48 115.009 194.48 107.89C194.48 100.771 189.273 95 182.85 95C176.427 95 171.22 100.771 171.22 107.89C171.22 115.009 176.427 120.78 182.85 120.78Z" stroke="white" stroke-miterlimit="10"/>
<path d="M171.23 105.48L158.22 101.8" stroke="white" stroke-miterlimit="10"/>
<path d="M168.74 64.2998C175.77 80.8998 162.54 103.61 134.79 101.96C123.11 78.3598 123.61 57.2598 168.74 64.2998Z" fill="#263238"/>
<path d="M159.2 103.8C131.34 65.5199 116.87 126.14 157.82 122.96L159.2 103.8Z" fill="#EFBFA9"/>
<path d="M158.91 79.29L159.43 111.44L156.73 113.24L146.59 82.33L158.91 79.29Z" fill="#263238"/>
<path d="M160.44 67.7701C182.71 76.4901 203.01 69.2801 203.01 69.2801C203.01 69.2801 195.61 51.4701 160.44 67.7701Z" fill="#263238"/>
<path d="M132.29 71.42C132.29 60.1 119.79 65.53 128.37 72.86C113.32 70.83 124.71 89.49 131.64 82.97" fill="#263238"/>
<path d="M187.53 174.89C192.36 148.62 167.65 143.06 148.98 135.39L138.71 148.6L187.53 174.89Z" fill="white"/>
<path d="M99.6103 250.16C119.33 246.35 137.48 251.87 127.77 271.36L97.7603 273.13L99.6103 250.17V250.16Z" fill="#263238"/>
<path d="M95.2103 306.58C41.9603 320.35 50.5703 263.24 82.2703 254.68L95.2103 306.58Z" fill="#263238"/>
<path d="M97.6002 292.16L65.9002 296.83C60.2302 251.91 73.5502 202.91 103.37 163.39C110.33 154.16 123.23 151.85 132.97 158.08C141.36 163.46 145.12 173.79 142.15 183.3L97.6102 292.16H97.6002Z" fill="#263238"/>
<path d="M255.11 227.35L252.64 224.22V224.24C252.34 223.9 251.95 223.65 251.44 223.58L203.91 217.3C202.52 217.12 201.14 217.67 200.25 218.75L149.19 281.27C148.3 282.37 148.86 284.02 150.24 284.34L182.98 291.97C184.32 292.28 185.73 291.89 186.72 290.93L252 227.34H255.11V227.35Z" fill="#E5EBEA"/>
<path d="M151.61 284.33L202.67 221.81C203.56 220.72 204.94 220.18 206.33 220.36L253.86 226.64C255.44 226.85 256.09 228.79 254.94 229.9L189.14 293.99C188.15 294.95 186.74 295.34 185.4 295.03L152.66 287.4C151.28 287.08 150.72 285.43 151.61 284.33Z" fill="white"/>
<path d="M211.759 257.787C216.104 253.831 217.914 248.743 215.802 246.424C213.69 244.104 208.455 245.431 204.11 249.388C199.765 253.344 197.955 258.432 200.067 260.751C202.179 263.071 207.414 261.744 211.759 257.787Z" fill="#E5EBEA"/>
<path d="M208.02 227.02C207.38 228.09 206.1 228.94 205.18 228.92C204.25 228.9 204.02 228.02 204.67 226.94C205.31 225.87 206.59 225.02 207.51 225.04C208.44 225.06 208.67 225.94 208.02 227.02Z" fill="#E5EBEA"/>
<path d="M187.37 286.71L230.61 257.2L175.07 261.38L170.36 279.98L187.37 286.71Z" fill="#EFBFA9"/>
<path d="M179.45 263.309L171.63 262.209C169.32 261.879 167.94 259.469 168.83 257.309L169.11 256.639C170.8 252.559 175.63 250.819 179.54 252.879C182.16 254.259 183.72 257.059 183.52 260.009C183.38 262.079 181.51 263.589 179.46 263.299L179.45 263.309Z" fill="#EFBFA9"/>
<path d="M196.621 262.97L230.611 257.21L231.011 256.21C232.601 252.27 235.831 249.24 239.851 247.92C240.491 247.7 240.911 247.09 240.891 246.44C240.891 246.34 240.871 246.24 240.851 246.13C240.241 243.42 237.821 241.6 235.161 241.66C234.721 241.67 234.271 241.75 233.811 241.86L231.791 242.56L231.591 242.63C228.111 243.84 225.461 246.67 224.481 250.21L197.501 262.57L196.621 262.97Z" fill="#EFBFA9"/>
<path d="M209.24 264.39L224.74 259.04C226.93 252.41 230.65 249.86 234.67 248.54C235.31 248.32 235.73 247.71 235.71 247.06C235.71 246.96 235.69 246.86 235.67 246.75C235.21 244.67 233.67 243.12 231.8 242.55L231.6 242.62C228.12 243.83 225.47 246.66 224.49 250.2L221.56 257.39L209.25 264.38L209.24 264.39Z" fill="#E89076"/>
<path d="M221.551 257.4L221.951 256.4C223.531 252.47 226.771 249.44 230.791 248.11C231.531 247.86 231.971 247.09 231.801 246.33C231.091 243.17 227.901 241.22 224.761 242.05L222.541 242.82C219.071 244.03 216.401 246.87 215.421 250.41L187.561 263.16L221.561 257.39L221.551 257.4Z" fill="#EFBFA9"/>
<path d="M108.24 264.39L176.75 271.33L187.38 286.71C187.38 286.71 140.54 310.21 96.6403 307.29C77.6503 306.03 71.0003 281.46 86.7803 270.83L89.2603 269.16C94.8403 265.4 101.56 263.72 108.25 264.39H108.24Z" fill="#EFBFA9"/>
<path d="M92.2202 344.22L170.81 355.11L175.11 327.47L98.2202 327.46L92.2202 344.22Z" fill="white"/>
<path d="M181.2 327.47L186.18 355.11L214.66 344.22L208.66 327.47H181.2Z" fill="white"/>
<path d="M243.49 400.44V441.4H451.73C456.8 441.4 461.12 437.95 462.74 433.12C463.19 431.8 463.43 430.37 463.43 428.88V412.96C463.43 411.38 463.15 409.88 462.66 408.49C460.98 403.79 456.72 400.45 451.73 400.45H243.49V400.44Z" fill="#263238"/>
<path d="M344.9 408.49V433.13H462.73C463.18 431.81 463.42 430.38 463.42 428.89V412.97C463.42 411.39 463.14 409.89 462.65 408.5H344.9V408.49Z" fill="#263238"/>
<path d="M381.8 429.89C386.821 429.89 390.89 425.82 390.89 420.8C390.89 415.78 386.821 411.71 381.8 411.71C376.78 411.71 372.71 415.78 372.71 420.8C372.71 425.82 376.78 429.89 381.8 429.89Z" fill="#24C79D"/>
<path d="M246.88 400.44H340.93C350.33 400.44 357.96 408.07 357.96 417.47V424.37C357.96 433.77 350.33 441.4 340.93 441.4H246.88V400.44Z" fill="#263238"/>
<path d="M241.19 400.44H259.14V406.58H241.19C239.61 406.58 238.32 405.21 238.32 403.51C238.32 401.82 239.6 400.44 241.19 400.44Z" fill="#263238"/>
<path d="M240.87 435.26H259.14V441.4H240.87C239.46 441.4 238.32 440.26 238.32 438.85V437.82C238.32 436.41 239.46 435.27 240.87 435.27V435.26Z" fill="#263238"/>
<path d="M243.49 406.58H338.67C345.25 406.58 350.59 411.92 350.59 418.5V423.33C350.59 429.91 345.25 435.25 338.67 435.25H243.49V406.57V406.58Z" fill="#E9EEEC"/>
<path d="M243.49 410.35H336.24C341.56 410.35 345.88 414.67 345.88 419.99V428.79C345.88 432.36 342.98 435.26 339.41 435.26H243.49V410.35Z" fill="white"/>
<path d="M346.72 415.51H243.49" stroke="#F1F4F6" stroke-miterlimit="10"/>
<path d="M350.23 420.58H243.49" stroke="#F1F4F6" stroke-miterlimit="10"/>
<path d="M350.23 425.65H243.49" stroke="#F1F4F6" stroke-miterlimit="10"/>
<path d="M350.23 430.72H243.49" stroke="#F1F4F6" stroke-miterlimit="10"/>
<path d="M444.52 433.12H432.92C431.29 437.95 426.98 441.4 421.91 441.4H444.01C449.08 441.4 453.39 437.96 455.02 433.12H444.52Z" fill="#21AA87"/>
<path d="M444.01 400.44H421.91C426.9 400.44 431.15 403.78 432.84 408.48H454.94C453.25 403.78 449 400.44 444.01 400.44Z" fill="#21AA87"/>
<path d="M454.94 408.48H432.84C433.34 409.87 433.61 411.38 433.61 412.96V428.88C433.61 430.37 433.37 431.8 432.92 433.12H455.02C455.47 431.8 455.71 430.37 455.71 428.88V412.96C455.71 411.38 455.44 409.87 454.94 408.48Z" fill="#24C79D"/>
<path d="M320.871 415.45V433.12L326.721 429.54L332.571 433.12V415.45" fill="#DEE5E3"/>
<path d="M316.48 429.54L323.12 425.97L328.19 429.54L332.57 415.45H320.87L316.48 429.54Z" fill="#21AA87"/>
<path d="M441.97 370.86V400.54H264.41C260.08 400.54 256.4 398.04 255.02 394.54C254.64 393.58 254.43 392.55 254.43 391.47V379.93C254.43 378.79 254.67 377.69 255.09 376.69C256.52 373.29 260.16 370.86 264.41 370.86H441.97Z" fill="#21AA87"/>
<path d="M355.49 376.69V394.54H255.02C254.64 393.58 254.43 392.55 254.43 391.47V379.93C254.43 378.79 254.67 377.69 255.09 376.69H355.49Z" fill="#24C79D"/>
<path d="M329.26 382.67H266.78C265.427 382.67 264.33 383.767 264.33 385.12V386.11C264.33 387.463 265.427 388.56 266.78 388.56H329.26C330.613 388.56 331.71 387.463 331.71 386.11V385.12C331.71 383.767 330.613 382.67 329.26 382.67Z" fill="#263238"/>
<path d="M439.08 400.55H356.71C349.9 400.55 344.37 395.02 344.37 388.21V383.21C344.37 376.4 349.9 370.87 356.71 370.87H439.08V400.55Z" fill="#24C79D"/>
<path d="M443.93 370.86H428.62V375.31H443.93C445.28 375.31 446.38 374.31 446.38 373.09C446.38 371.86 445.28 370.87 443.93 370.87V370.86Z" fill="#24C79D"/>
<path d="M444.52 400.55H428.62V396.1H444.52C445.54 396.1 446.37 396.93 446.37 397.95V398.7C446.37 399.72 445.54 400.55 444.52 400.55Z" fill="#24C79D"/>
<path d="M441.96 375.31V396.09H361.03C359.25 396.09 357.58 395.64 356.12 394.85C352.86 393.1 350.64 389.65 350.64 385.69C350.64 382.82 351.81 380.23 353.69 378.35C355.57 376.46 358.17 375.3 361.04 375.3H441.97L441.96 375.31Z" fill="#E9EEEC"/>
<path d="M441.96 378.05V396.1H361.03C359.25 396.1 357.58 395.65 356.12 394.86C355.22 394.02 354.66 392.83 354.66 391.5V390C354.66 383.4 360.01 378.05 366.61 378.05H441.96Z" fill="white"/>
<path d="M353.94 381.78H441.97" stroke="#F1F4F6" stroke-miterlimit="10"/>
<path d="M350.94 385.45H441.97" stroke="#F1F4F6" stroke-miterlimit="10"/>
<path d="M350.94 389.13H441.97" stroke="#F1F4F6" stroke-miterlimit="10"/>
<path d="M350.94 392.8H441.97" stroke="#F1F4F6" stroke-miterlimit="10"/>
<path d="M452.45 330.13V370.86H257.09C250.39 370.86 244.43 367.62 240.73 362.63C238.21 359.24 236.72 355.03 236.72 350.49C236.72 345.95 238.21 341.75 240.73 338.36C241.33 337.56 241.98 336.81 242.69 336.1C246.37 332.42 251.47 330.14 257.09 330.14H452.45V330.13Z" fill="#020303"/>
<path d="M362.48 338.36V362.63H240.73C238.21 359.24 236.72 355.03 236.72 350.49C236.72 345.95 238.21 341.75 240.73 338.36H362.48Z" fill="#1E2629"/>
<path d="M448.84 370.86H347.64C338.29 370.86 330.71 363.27 330.71 353.93V347.07C330.71 337.72 338.3 330.14 347.64 330.14H448.84V370.87V370.86Z" fill="#1E2629"/>
<path d="M454.89 330.13H435.8V336.23H454.89C456.58 336.23 457.94 334.86 457.94 333.18C457.94 331.49 456.57 330.13 454.89 330.13Z" fill="#1E2629"/>
<path d="M455.41 370.85H435.8V364.75H455.41C456.81 364.75 457.95 365.89 457.95 367.29V368.32C457.95 369.72 456.81 370.86 455.41 370.86V370.85Z" fill="#1E2629"/>
<path d="M452.44 336.24V364.75H352.8C345.33 364.75 339.21 359.01 338.59 351.7C338.56 351.31 338.54 350.9 338.54 350.49C338.54 346.56 340.13 342.99 342.72 340.41C345.31 337.83 348.86 336.23 352.8 336.23H452.44V336.24Z" fill="#F2F5F4"/>
<path d="M452.44 340.85V364.75H352.8C345.33 364.75 339.21 359.01 338.59 351.7C338.86 348.84 340.12 346.28 342.04 344.35C344.2 342.19 347.19 340.85 350.49 340.85H452.44Z" fill="white"/>
<path d="M342.65 343.2H452.44" stroke="#F1F4F6" stroke-miterlimit="10"/>
<path d="M338.91 348.88H452.44" stroke="#F1F4F6" stroke-miterlimit="10"/>
<path d="M338.91 354.56H452.44" stroke="#F1F4F6" stroke-miterlimit="10"/>
<path d="M338.91 360.24H452.44" stroke="#F1F4F6" stroke-miterlimit="10"/>
<path d="M371.02 343.2V362.63L364.59 358.7L358.16 362.63V343.2" fill="#DEE5E3"/>
<path d="M375.84 358.7L368.55 354.77L362.98 358.7L358.16 343.2H371.02L375.84 358.7Z" fill="#263238"/>
<path d="M288.77 370.86H266.36C259.66 370.86 253.7 367.62 250 362.63C247.48 359.24 245.99 355.03 245.99 350.49C245.99 345.95 247.48 341.75 250 338.36C250.6 337.56 251.25 336.81 251.96 336.1C255.64 332.42 260.74 330.14 266.36 330.14H288.77C283.15 330.14 278.05 332.42 274.37 336.1C273.66 336.81 273.01 337.56 272.41 338.36C269.89 341.75 268.4 345.95 268.4 350.49C268.4 355.03 269.89 359.24 272.41 362.63C276.11 367.62 282.07 370.86 288.77 370.86Z" fill="#263238"/>
<path d="M303.78 370.86H294.11C287.41 370.86 281.45 367.62 277.75 362.63C275.23 359.24 273.74 355.03 273.74 350.49C273.74 345.95 275.23 341.75 277.75 338.36C278.35 337.56 279 336.81 279.71 336.1C283.39 332.42 288.49 330.14 294.11 330.14H303.78C298.16 330.14 293.06 332.42 289.38 336.1C288.67 336.81 288.02 337.56 287.42 338.36C284.9 341.75 283.41 345.95 283.41 350.49C283.41 355.03 284.9 359.24 287.42 362.63C291.12 367.62 297.08 370.86 303.78 370.86Z" fill="#263238"/>
<path d="M268.4 350.49C268.4 355.03 269.89 359.24 272.41 362.63H250C247.48 359.24 245.99 355.03 245.99 350.49C245.99 345.95 247.48 341.75 250 338.36H272.41C269.89 341.75 268.4 345.95 268.4 350.49Z" fill="#263238"/>
<path d="M283.41 350.49C283.41 355.03 284.9 359.24 287.42 362.63H277.75C275.23 359.24 273.74 355.03 273.74 350.49C273.74 345.95 275.23 341.75 277.75 338.36H287.42C284.9 341.75 283.41 345.95 283.41 350.49Z" fill="#263238"/>
<path d="M344.11 370.86H334.44C327.74 370.86 321.78 367.62 318.08 362.63C315.56 359.24 314.07 355.03 314.07 350.49C314.07 345.95 315.56 341.75 318.08 338.36C318.68 337.56 319.33 336.81 320.04 336.1C323.72 332.42 328.82 330.14 334.44 330.14H344.11C338.49 330.14 333.39 332.42 329.71 336.1C329 336.81 328.35 337.56 327.75 338.36C325.23 341.75 323.74 345.95 323.74 350.49C323.74 355.03 325.23 359.24 327.75 362.63C331.45 367.62 337.41 370.86 344.11 370.86Z" fill="#263238"/>
<path d="M323.74 350.49C323.74 355.03 325.23 359.24 327.75 362.63H318.08C315.56 359.24 314.07 355.03 314.07 350.49C314.07 345.95 315.56 341.75 318.08 338.36H327.75C325.23 341.75 323.74 345.95 323.74 350.49Z" fill="#263238"/>
<g style="mix-blend-mode:multiply">
<path d="M312.74 238.1H394.98C400.13 238.1 404.31 233.92 404.31 228.77C404.31 223.62 400.13 219.44 394.98 219.44H312.74C307.59 219.44 303.41 223.62 303.41 228.77C303.41 233.92 307.59 238.1 312.74 238.1Z" fill="#F2F5F4"/>
</g>
<g style="mix-blend-mode:multiply">
<path d="M395.36 245.77H313.75C308.04 245.77 303.41 250.399 303.41 256.11V316.46C303.41 322.17 308.04 326.8 313.75 326.8H395.36C401.071 326.8 405.7 322.17 405.7 316.46V256.11C405.7 250.399 401.071 245.77 395.36 245.77Z" fill="#F2F5F4"/>
</g>
<path d="M410.33 240.1H328.72C323.009 240.1 318.38 244.729 318.38 250.44V310.79C318.38 316.5 323.009 321.13 328.72 321.13H410.33C416.04 321.13 420.67 316.5 420.67 310.79V250.44C420.67 244.729 416.04 240.1 410.33 240.1Z" fill="white" stroke="#F1F1F3" stroke-miterlimit="10"/>
<path d="M327.7 232.42H409.94C415.09 232.42 419.27 228.24 419.27 223.09C419.27 217.94 415.09 213.76 409.94 213.76H327.7C322.55 213.76 318.37 217.94 318.37 223.09C318.37 228.24 322.55 232.42 327.7 232.42Z" fill="white" stroke="#F1F1F3" stroke-miterlimit="10"/>
<path d="M334.15 223.1C334.15 225.41 332.28 227.28 329.97 227.28C327.66 227.28 325.79 225.41 325.79 223.1C325.79 220.79 327.66 218.92 329.97 218.92C332.28 218.92 334.15 220.79 334.15 223.1Z" fill="#D57548"/>
<path d="M350.79 223.1C350.79 225.41 348.92 227.28 346.61 227.28C344.3 227.28 342.43 225.41 342.43 223.1C342.43 220.79 344.3 218.92 346.61 218.92C348.92 218.92 350.79 220.79 350.79 223.1Z" fill="#263238"/>
<path d="M367.43 223.1C367.43 225.41 365.56 227.28 363.25 227.28C360.94 227.28 359.07 225.41 359.07 223.1C359.07 220.79 360.94 218.92 363.25 218.92C365.56 218.92 367.43 220.79 367.43 223.1Z" fill="#24C79D"/>
<path d="M330.68 256.44H406.97" stroke="#E3E9E7" stroke-width="5" stroke-linecap="round" stroke-linejoin="round"/>
<path d="M330.68 265.7H373.46" stroke="#E3E9E7" stroke-width="5" stroke-linecap="round" stroke-linejoin="round"/>
<path d="M345 298.36H333.01V310.35H345V298.36Z" stroke="#263238" stroke-width="3" stroke-miterlimit="10"/>
<path d="M333.01 310.35V275.18L405.45 310.35H333.01Z" stroke="#24C79D" stroke-width="3" stroke-linejoin="round"/>
<path d="M293.101 126.78C292.421 126.77 291.751 126.78 291.101 126.8" stroke="#24C79D" stroke-miterlimit="10"/>
<path d="M289.02 126.96C263.65 129.63 253.42 161.46 265.15 178.95" stroke="#24C79D" stroke-miterlimit="10"/>
<path d="M265.74 179.78C266.13 180.32 266.55 180.84 266.98 181.34" stroke="#24C79D" stroke-miterlimit="10"/>
<path d="M267.97 175.75C271.05 176.36 273.05 179.35 272.43 182.43C271.82 185.51 268.83 187.51 265.75 186.89C262.67 186.27 260.67 183.29 261.29 180.21C261.9 177.13 264.89 175.13 267.97 175.75Z" fill="#24C79D"/>
<path d="M428.71 262.02C429.37 262.17 430.03 262.29 430.68 262.39" stroke="#24C79D" stroke-miterlimit="10"/>
<path d="M432.75 262.65C458.15 265.02 474.43 235.82 466.36 216.36" stroke="#24C79D" stroke-miterlimit="10"/>
<path d="M465.951 215.43C465.671 214.83 465.371 214.23 465.041 213.65" stroke="#24C79D" stroke-miterlimit="10"/>
<path d="M462.97 218.94C460.07 217.74 458.7 214.41 459.9 211.52C461.1 208.62 464.43 207.25 467.32 208.45C470.22 209.65 471.59 212.98 470.39 215.87C469.19 218.76 465.86 220.14 462.97 218.94Z" fill="#24C79D"/>
<path d="M372.65 80.6202C372.86 79.9802 373.05 79.3302 373.22 78.7002" stroke="#D7E0DD" stroke-miterlimit="10"/>
<path d="M373.68 76.6701C378.57 51.6301 351.14 32.5201 330.98 38.6101" stroke="#D7E0DD" stroke-miterlimit="10"/>
<path d="M330.01 38.9199C329.38 39.1399 328.76 39.3799 328.15 39.6499" stroke="#D7E0DD" stroke-miterlimit="10"/>
<path d="M333.2 42.2401C331.71 45.0001 328.27 46.0401 325.51 44.5501C322.75 43.0601 321.71 39.6201 323.2 36.8601C324.69 34.1001 328.13 33.0601 330.89 34.5501C333.65 36.0401 334.69 39.4801 333.2 42.2401Z" fill="#D7E0DD"/>
<path d="M70.0503 83.6699H91.8603" stroke="#D7E0DD" stroke-width="5" stroke-linecap="round" stroke-linejoin="round"/>
<path d="M70.0503 94.8501H82.2203" stroke="#D7E0DD" stroke-width="5" stroke-linecap="round" stroke-linejoin="round"/>
<path d="M264.68 77.0898H339.72" stroke="#D7E0DD" stroke-width="5" stroke-linecap="round" stroke-linejoin="round"/>
<path d="M264.68 87.8696H291.82" stroke="#D7E0DD" stroke-width="5" stroke-linecap="round" stroke-linejoin="round"/>
<path d="M444.68 288.27H467.43" stroke="#D7E0DD" stroke-width="5" stroke-linecap="round" stroke-linejoin="round"/>
<path d="M434.05 288.27H437.07" stroke="#D7E0DD" stroke-width="5" stroke-linecap="round" stroke-linejoin="round"/>
<path d="M455.65 297.26H467.43" stroke="#D7E0DD" stroke-width="5" stroke-linecap="round" stroke-linejoin="round"/>
<path d="M239.59 29.25V43.34L226.87 58.5H280.3C296.45 58.5 309.55 45.4 309.55 29.25C309.55 13.1 296.45 0 280.3 0H268.84C252.69 0 239.59 13.1 239.59 29.25Z" fill="#D7E0DD"/>
<path d="M262.13 35.8201C262.13 38.6901 259.8 41.0201 256.93 41.0201C254.06 41.0201 251.73 38.6901 251.73 35.8201C251.73 32.9501 254.06 30.6201 256.93 30.6201C259.8 30.6201 262.13 32.9501 262.13 35.8201Z" fill="#F2F5F4"/>
<path d="M279.8 35.8201C279.8 38.6901 277.47 41.0201 274.6 41.0201C271.73 41.0201 269.4 38.6901 269.4 35.8201C269.4 32.9501 271.73 30.6201 274.6 30.6201C277.47 30.6201 279.8 32.9501 279.8 35.8201Z" fill="#F2F5F4"/>
<path d="M297.47 35.8201C297.47 38.6901 295.14 41.0201 292.27 41.0201C289.4 41.0201 287.07 38.6901 287.07 35.8201C287.07 32.9501 289.4 30.6201 292.27 30.6201C295.14 30.6201 297.47 32.9501 297.47 35.8201Z" fill="#F2F5F4"/>
<path d="M220.84 415.44C225.568 415.44 229.4 411.607 229.4 406.88C229.4 402.152 225.568 398.32 220.84 398.32C216.113 398.32 212.28 402.152 212.28 406.88C212.28 411.607 216.113 415.44 220.84 415.44Z" fill="#D7E0DD"/>
<path d="M420.2 72.0799C423.288 72.0799 425.79 69.5772 425.79 66.4899C425.79 63.4026 423.288 60.8999 420.2 60.8999C417.113 60.8999 414.61 63.4026 414.61 66.4899C414.61 69.5772 417.113 72.0799 420.2 72.0799Z" fill="#D7E0DD"/>
<path d="M28.5602 86.4799C32.8791 86.4799 36.3802 82.9787 36.3802 78.6599C36.3802 74.341 32.8791 70.8398 28.5602 70.8398C24.2414 70.8398 20.7402 74.341 20.7402 78.6599C20.7402 82.9787 24.2414 86.4799 28.5602 86.4799Z" fill="#D7E0DD"/>
<path d="M79.84 401.69C79.84 398.98 77.65 396.79 74.94 396.79C72.23 396.79 70.04 398.98 70.04 401.69C70.04 404.4 72.23 406.59 74.94 406.59C77.65 406.59 79.84 404.4 79.84 401.69Z" fill="#D7E0DD"/>
<path d="M160.44 388.96C160.44 390.81 158.94 392.31 157.09 392.31C155.24 392.31 153.74 390.81 153.74 388.96C153.74 387.11 155.24 385.61 157.09 385.61C158.94 385.61 160.44 387.11 160.44 388.96Z" fill="#24C79D"/>
<path d="M212.76 18.7201C212.76 16.8701 211.26 15.3701 209.41 15.3701C207.56 15.3701 206.06 16.8701 206.06 18.7201C206.06 20.5701 207.56 22.0701 209.41 22.0701C211.26 22.0701 212.76 20.5701 212.76 18.7201Z" fill="#24C79D"/>
<path d="M395.36 48.59C395.36 46.73 393.85 45.23 392 45.23C390.15 45.23 388.64 46.74 388.64 48.59C388.64 50.44 390.15 51.95 392 51.95C393.85 51.95 395.36 50.44 395.36 48.59Z" fill="#24C79D"/>
<path d="M10.4102 218.86C10.4102 221.74 8.08023 224.07 5.20023 224.07C2.32023 224.07 -0.00976562 221.74 -0.00976562 218.86C-0.00976562 215.98 2.32023 213.65 5.20023 213.65C8.08023 213.65 10.4102 215.98 10.4102 218.86Z" fill="#24C79D"/>
<path d="M476.63 311.61C476.63 313.21 475.33 314.51 473.73 314.51C472.13 314.51 470.83 313.21 470.83 311.61C470.83 310.01 472.13 308.71 473.73 308.71C475.33 308.71 476.63 310.01 476.63 311.61Z" fill="#24C79D"/>
<path d="M97.1201 26.6401C103.344 26.6401 108.39 21.5943 108.39 15.3701C108.39 9.14585 103.344 4.1001 97.1201 4.1001C90.8959 4.1001 85.8501 9.14585 85.8501 15.3701C85.8501 21.5943 90.8959 26.6401 97.1201 26.6401Z" fill="#D7E0DD"/>
<path d="M98.3823 49.8298C99.8194 43.7738 96.0751 37.6993 90.019 36.2621C83.963 34.825 77.8885 38.5693 76.4514 44.6254C75.0142 50.6814 78.7585 56.7559 84.8146 58.1931C90.8706 59.6302 96.9451 55.8859 98.3823 49.8298Z" fill="#D7E0DD"/>
<path d="M137.076 41.3265C141.477 36.9253 141.477 29.7895 137.076 25.3883C132.675 20.9871 125.539 20.9871 121.138 25.3883C116.736 29.7895 116.736 36.9253 121.138 41.3265C125.539 45.7277 132.675 45.7277 137.076 41.3265Z" fill="#D7E0DD"/>
<path d="M87.4102 47.2301L97.1202 15.3701" stroke="#D7E0DD" stroke-width="5" stroke-linecap="round" stroke-linejoin="round"/>
<path d="M129.11 33.3501L98.6802 15.3701" stroke="#D7E0DD" stroke-width="5" stroke-linecap="round" stroke-linejoin="round"/>
<path d="M87.4102 47.2301L129.11 33.3501" stroke="#D7E0DD" stroke-width="5" stroke-linecap="round" stroke-linejoin="round"/>
</g>
<defs>
<clipPath id="clip0_835_2">
<rect width="476.63" height="441.4" fill="white"/>
</clipPath>
</defs>
</svg>
