<svg width="348" height="587" viewBox="0 0 348 587" fill="none" xmlns="http://www.w3.org/2000/svg">
<g clip-path="url(#clip0_507_701)">
<path d="M61.033 128.698C65.1906 138.898 69.4669 149.098 73.7908 159.25C78.0434 169.379 82.486 179.578 86.3823 189.493L86.6436 190.159C86.6436 190.159 86.7149 190.373 86.7624 190.491C86.8574 190.753 86.9287 191.086 87 191.442C87.1187 192.18 87.19 193.107 87.19 194.105C87.19 196.126 86.9287 198.456 86.5011 200.858C85.5983 205.637 84.2203 210.701 82.5336 215.718C80.8943 220.758 78.9937 225.798 76.9743 230.839C75.0262 235.879 72.8167 240.944 70.6786 245.865L79.5639 251.12C86.2635 241.752 92.1078 232.123 97.0969 221.59C99.5439 216.312 101.848 210.867 103.511 204.852C104.343 201.833 105.056 198.694 105.388 195.175C105.555 193.416 105.602 191.561 105.46 189.54C105.365 188.518 105.246 187.472 105.008 186.378C104.889 185.831 104.771 185.285 104.604 184.69L104.2 183.383C102.49 177.843 100.684 172.517 98.7599 167.239C96.8831 161.961 94.935 156.706 92.9156 151.499C88.9006 141.062 84.6955 130.791 80.2053 120.543L61.033 128.698Z" fill="#FFB573"/>
<path d="M71.8428 243.274L63.5277 250.216C59.1563 253.854 58.7999 260.44 62.7437 264.553C67.9941 270.021 77.1644 267.715 79.2551 260.44C80.3004 256.802 81.1082 252.903 81.2507 249.313L71.8665 243.274H71.8428Z" fill="#FFB573"/>
<path d="M70.2271 244.558C74.3847 245.984 78.8986 248.813 81.0368 250.24C81.4407 250.525 82.0109 250.454 82.3672 250.074C84.7192 247.577 87.4751 243.416 87.8314 241.562C87.9027 241.205 87.7602 240.872 87.4751 240.635C84.1253 237.972 75.4775 233.597 73.6482 235C72.1753 236.141 70.3222 241.11 69.5857 243.25C69.3956 243.797 69.6807 244.344 70.2034 244.534L70.2271 244.558Z" fill="#37474F"/>
<path d="M188.492 152.094C206.001 161.2 212.915 179.269 213.461 198.123C213.556 201.642 208.092 202.356 207.973 198.789C207.498 182.122 202.034 165.36 186.306 157.158C183.17 155.517 185.332 150.429 188.492 152.094Z" fill="#1D9F7E"/>
<g opacity="0.2">
<path opacity="0.2" d="M188.492 152.094C206.001 161.2 212.915 179.269 213.461 198.123C213.556 201.642 208.092 202.356 207.973 198.789C207.498 182.122 202.034 165.36 186.306 157.158C183.17 155.517 185.332 150.429 188.492 152.094Z" fill="black"/>
</g>
<path d="M143.947 92.2024L102.134 97.3618C84.7906 99.5016 71.7952 114.433 72.2703 131.908V132.146C73.0781 155.874 79.2075 203.116 83.864 226.393C84.0541 227.32 84.3154 228.461 84.6242 229.745C88.7105 246.341 104.604 257.254 121.543 255.162L180.058 247.958C194.336 246.198 206.144 235.642 208.947 221.543C209.066 220.948 209.161 220.401 209.209 219.926C210.468 207.729 208.282 182.455 203.222 171.281C200.395 165.075 187.851 157.158 185.023 150.952C180.652 141.347 185.071 118.261 179.868 109.083C178.134 106.04 172.883 101.808 167.752 98.1702C160.838 93.2724 152.357 91.1563 143.947 92.1787V92.2024Z" fill="#37474F"/>
<path opacity="0.5" d="M143.947 92.2024L102.134 97.3618C84.7905 99.5016 71.7952 114.433 72.2703 131.908V132.146C73.0781 155.874 79.2075 203.116 83.864 226.393C84.0541 227.32 84.3154 228.461 84.6242 229.745C88.7105 246.341 104.604 257.254 121.543 255.162L180.058 247.958C194.336 246.198 206.144 235.642 208.947 221.543C209.066 220.948 209.161 220.401 209.209 219.926C210.468 207.729 208.282 182.455 203.222 171.281C200.395 165.075 187.851 157.158 185.023 150.952C180.652 141.347 185.071 118.261 179.868 109.083C178.134 106.04 172.883 101.808 167.752 98.1702C160.838 93.2724 152.357 91.1563 143.947 92.1787V92.2024Z" fill="black"/>
<path d="M161.456 97.338C161.765 96.7436 162.383 96.1254 163.167 95.4835C164.758 96.2681 166.303 97.1478 167.752 98.1939C172.86 101.832 178.134 106.064 179.868 109.107C185.071 118.284 180.652 141.371 185.023 150.976C187.851 157.182 200.395 165.099 203.222 171.304C208.282 182.455 210.444 207.753 209.209 219.95C209.161 220.425 209.066 220.972 208.947 221.566C206.5 233.835 197.235 243.416 185.475 246.864C184.097 246.388 182.933 245.818 182.125 245.176C176.59 240.777 156.182 107.466 161.456 97.3618V97.338Z" fill="#24C79D"/>
<path opacity="0.2" d="M161.456 97.338C161.765 96.7436 162.383 96.1254 163.167 95.4835C164.758 96.2681 166.303 97.1478 167.752 98.1939C172.86 101.832 178.134 106.064 179.868 109.107C185.071 118.284 180.652 141.371 185.023 150.976C187.851 157.182 200.395 165.099 203.222 171.304C208.282 182.455 210.444 207.753 209.209 219.95C209.161 220.425 209.066 220.972 208.947 221.566C206.5 233.835 197.235 243.416 185.475 246.864C184.097 246.388 182.933 245.818 182.125 245.176C176.59 240.777 156.182 107.466 161.456 97.3618V97.338Z" fill="black"/>
<path opacity="0.2" d="M207.831 189.469C209.47 200.406 209.969 212.579 209.209 219.95C209.161 220.425 209.066 220.972 208.947 221.566C206.5 233.835 197.235 243.416 185.475 246.864C184.097 246.388 182.933 245.818 182.125 245.176C179.916 243.416 175.378 221.281 171.03 194.605C187.138 198.765 202.438 192.227 207.831 189.469Z" fill="black"/>
<path d="M59.2274 135.641C52.6229 115.836 62.8624 100.595 78.281 107.847C92.1554 114.361 109.332 185.451 106.956 197.101C103.345 214.814 89.0906 238.614 89.0906 238.614L74.5273 231.624C74.5273 231.624 86.6436 204.067 85.4082 193.487C84.1728 182.907 65.4994 154.447 59.2274 135.641Z" fill="#24C79D"/>
<path opacity="0.4" d="M59.2274 135.641C52.6229 115.836 62.8624 100.595 78.281 107.847C92.1554 114.361 109.332 185.451 106.956 197.101C103.345 214.814 89.0906 238.614 89.0906 238.614L74.5273 231.624C74.5273 231.624 86.6436 204.067 85.4082 193.487C84.1728 182.907 65.4994 154.447 59.2274 135.641Z" fill="white"/>
<path d="M70.2747 106.064C70.2747 106.064 57.3269 156.421 86.0259 243.773C111.66 240.658 158.629 234.952 171.102 233.43C170.104 220.282 154.162 157.514 159.294 94.4136C159.294 94.4136 144.351 93.2486 130.381 94.2709C119.453 95.0793 103.654 96.6247 94.2223 98.6694C81.7734 101.356 70.2985 106.064 70.2985 106.064H70.2747Z" fill="#24C79D"/>
<path d="M121.852 53.9472C120.973 65.8589 121.306 87.4948 130.381 94.2709C124.014 97.9324 118.075 102.307 112.515 107.3C106.006 113.149 95.5763 109.535 94.3885 100.881C94.2934 100.144 94.2222 99.4065 94.2222 98.6932C106.814 94.0094 105.317 84.4278 101.967 75.6545L121.876 53.9948L121.852 53.9472Z" fill="#FFB573"/>
<path opacity="0.2" d="M113.727 62.7918L101.944 75.6069C102.751 77.6754 103.44 79.8153 103.844 81.9075C108.714 80.5999 114.868 74.3231 114.749 69.0448C114.701 66.4295 114.297 63.9568 113.727 62.7918Z" fill="black"/>
<path d="M121.092 36.258C122.042 52.1403 123.397 61.389 116.412 70.4476C105.911 84.0711 85.5983 79.2209 79.9203 63.933C74.8124 50.1669 74.1234 26.51 88.7818 18.3549C103.226 10.3187 120.118 20.3521 121.068 36.2343L121.092 36.258Z" fill="#FFB573"/>
<path d="M97.7384 43.581C97.9047 44.8649 97.3346 45.9823 96.503 46.1012C95.6715 46.1963 94.8638 45.2453 94.6975 43.9614C94.5312 42.6775 95.1014 41.56 95.9329 41.4412C96.7644 41.3223 97.5721 42.2971 97.7384 43.581Z" fill="#263238"/>
<path d="M83.2226 45.3404C83.3889 46.6243 82.8187 47.7417 81.9872 47.8606C81.1557 47.9557 80.3479 47.0047 80.1816 45.7208C80.0153 44.4369 80.5855 43.3195 81.417 43.2006C82.2485 43.1055 83.0563 44.0565 83.2226 45.3404Z" fill="#263238"/>
<path d="M87.9264 45.4117C87.9264 45.4117 85.907 53.1626 83.1274 57.1332C85.6457 58.9877 89.3994 57.5374 89.3994 57.5374L87.9264 45.4117Z" fill="#ED893E"/>
<path d="M93.5096 60.6282C93.3195 60.6282 93.1532 60.4856 93.1295 60.2954C93.1057 60.0814 93.2483 59.8912 93.4621 59.8674C99.0926 59.1779 101.255 54.922 101.255 54.8745C101.35 54.6843 101.563 54.6129 101.753 54.708C101.944 54.8032 102.015 55.0171 101.92 55.2073C101.825 55.3975 99.5678 59.8674 93.5333 60.6044H93.4858L93.5096 60.6282Z" fill="#263238"/>
<path d="M101.445 38.3741C101.255 38.3741 101.041 38.3028 100.898 38.1363C98.5699 35.735 95.8853 36.1867 95.7666 36.2105C95.3627 36.2818 94.9588 36.0203 94.8875 35.5923C94.8163 35.1881 95.0776 34.784 95.4815 34.7126C95.624 34.6889 99.0688 34.0707 101.991 37.0902C102.276 37.3993 102.276 37.8748 101.991 38.1601C101.848 38.3028 101.658 38.3741 101.468 38.3741H101.445Z" fill="#263238"/>
<path d="M76.1904 41.1321C76.1904 41.1321 76.0241 41.1321 75.9528 41.0845C75.5489 40.9419 75.3351 40.5139 75.4776 40.1097C76.8556 36.1392 80.2291 35.2357 80.3717 35.2119C80.7756 35.1168 81.1794 35.3546 81.2982 35.7588C81.3932 36.1629 81.1557 36.5671 80.7518 36.686C80.633 36.7098 77.9959 37.4468 76.9268 40.609C76.8081 40.9181 76.523 41.1321 76.2141 41.1321H76.1904Z" fill="#263238"/>
<path d="M87.8552 243.559C87.8552 243.559 55.7351 344.44 52.1715 393.227C48.4653 443.989 36.1351 572.33 36.1351 572.33L48.5603 576.087C48.5603 576.087 90.8487 457.898 92.4879 407.945C93.557 375.277 152.072 235.737 152.072 235.737L87.8315 243.535L87.8552 243.559Z" fill="#FFB573"/>
<path d="M34.971 561.821L51.3399 569.311C51.9338 569.572 52.2665 570.238 52.1239 570.88L49.0829 585.169C48.7741 586.643 47.1348 587.452 45.7569 586.786C40.0788 584.076 37.4655 582.483 30.267 579.178C25.8243 577.157 10.0731 570.5 3.94367 567.718C-2.04322 564.984 -0.213886 558.493 2.54198 559.111C14.8959 561.774 27.1072 563.248 32.1676 561.655C33.0704 561.37 34.0682 561.441 34.9472 561.845L34.971 561.821Z" fill="#37474F"/>
<path d="M26.4184 558.303C26.4184 558.303 26.5134 558.065 26.5847 557.97C26.8935 557.375 27.3449 557.233 27.6775 557.233C29.6731 557.138 32.8804 561.845 33.4981 562.796C33.5931 562.939 33.5931 563.153 33.4981 563.296C33.403 563.438 33.213 563.51 33.0467 563.486C30.9798 563.082 27.3924 562.131 26.4659 560.205C26.1808 559.61 26.1808 558.968 26.4184 558.326V558.303ZM32.0964 562.345C30.6472 560.324 28.6516 558.089 27.725 558.136C27.63 558.136 27.5112 558.184 27.3924 558.398C27.1311 558.897 27.0836 559.373 27.2974 559.801C27.7725 560.799 29.5306 561.726 32.1201 562.345H32.0964Z" fill="#24C79D"/>
<path d="M31.0273 556.02C31.0748 555.901 31.1461 555.782 31.1936 555.687C31.3837 555.402 31.8588 554.974 32.7854 555.259C33.3793 555.45 33.8069 555.83 34.092 556.401C35.1611 558.588 33.5931 562.986 33.5218 563.177C33.4743 563.343 33.3318 563.438 33.1655 563.462C32.9992 563.462 32.8329 563.414 32.7378 563.296C31.6688 561.869 30.3146 557.78 31.0036 556.02H31.0273ZM32.9754 561.94C33.403 560.443 33.9019 558.017 33.2843 556.805C33.118 556.448 32.8566 556.234 32.5003 556.115C32.0726 555.973 31.9776 556.115 31.9063 556.21C31.3362 557.019 32.0251 560.133 32.9517 561.94H32.9754Z" fill="#24C79D"/>
<path d="M153.07 236.07L86.0259 243.773C86.0259 243.773 55.6638 347.15 50.152 380.65C45.2342 410.512 37.9644 518.954 36.4202 542.302C36.2539 544.941 37.8457 547.366 40.3164 548.269L53.4781 553.024C56.6616 554.189 60.1777 552.43 61.1755 549.197C68.1365 526.467 92.5354 445.225 94.1034 419.238C95.9328 388.9 153.07 236.07 153.07 236.07Z" fill="#37474F"/>
<path opacity="0.6" d="M135.869 278.414C135.251 281.79 134.61 285.167 133.992 288.519C130.904 297.173 127.673 306.422 124.394 315.885C117.528 297.958 118.265 273.635 119.714 262.96C120.902 254.139 130.072 268.333 135.845 278.414H135.869Z" fill="black"/>
<path d="M34.4958 577.442L33.5693 570.856L29.9106 569.477L30.8372 576.087L34.4958 577.442Z" fill="white"/>
<path d="M28.3665 575.16L27.1548 566.862L23.1636 565.174L24.5415 573.472L28.3665 575.16Z" fill="white"/>
<path d="M109.451 240.92C109.451 240.92 157.489 370.213 181.389 412.224C206.833 456.947 312.91 374.445 312.91 374.445L303.383 364.459C303.383 364.459 241.234 391.539 216.645 389.518C192.46 344.273 171.125 233.407 171.125 233.407L109.475 240.896L109.451 240.92Z" fill="#FFB573"/>
<path d="M107.883 241.11L171.102 233.431C171.102 233.431 199.159 342.823 211.822 372.757C218.617 388.829 243.586 386.998 286.135 369.999L298.157 387.712C298.157 387.712 229.403 436.285 196.736 427.988C164.069 419.69 107.883 241.11 107.883 241.11Z" fill="#37474F"/>
<path d="M313.979 377.987L300.224 366.385C299.725 365.957 299.582 365.243 299.891 364.673L306.638 351.739C307.351 350.407 309.133 350.074 310.273 351.073C315.001 355.21 317.115 357.469 323.173 362.557C326.903 365.695 340.303 376.347 345.458 380.674C350.495 384.906 346.978 390.66 344.484 389.352C333.294 383.456 321.938 378.748 316.616 378.914C315.666 378.938 314.716 378.605 314.003 377.987H313.979Z" fill="#37474F"/>
<path d="M321.273 383.693C321.273 383.693 321.107 383.884 321.035 383.979C320.584 384.454 320.109 384.478 319.776 384.407C317.828 383.955 316.023 378.582 315.666 377.488C315.619 377.321 315.666 377.131 315.809 377.012C315.951 376.894 316.141 376.87 316.308 376.941C318.184 377.892 321.392 379.77 321.748 381.863C321.867 382.505 321.701 383.123 321.273 383.67V383.693ZM316.902 378.273C317.757 380.603 319.063 383.313 319.99 383.503C320.085 383.503 320.204 383.503 320.394 383.337C320.798 382.933 320.94 382.481 320.869 382.005C320.679 380.935 319.23 379.556 316.902 378.249V378.273Z" fill="#24C79D"/>
<path d="M316.236 384.644C316.236 384.644 316.07 384.835 315.975 384.93C315.714 385.144 315.12 385.453 314.336 384.93C313.813 384.597 313.504 384.098 313.385 383.479C312.934 381.078 315.642 377.274 315.761 377.107C315.856 376.965 316.022 376.894 316.189 376.917C316.355 376.917 316.498 377.036 316.545 377.203C317.187 378.867 317.4 383.17 316.26 384.668L316.236 384.644ZM315.951 378.415C315.12 379.747 314.027 381.934 314.264 383.289C314.336 383.67 314.526 383.955 314.835 384.169C315.215 384.407 315.357 384.288 315.429 384.24C316.189 383.622 316.355 380.436 315.975 378.439L315.951 378.415Z" fill="#24C79D"/>
<path d="M181.721 317.668C172.147 283.597 162.596 248.053 159.08 234.905L162.763 234.453C166.374 247.981 175.806 283.051 185.261 316.669L186.306 320.379C195.786 354.14 205.574 389.043 217.548 393.013C240.402 400.574 275.183 384.906 290.744 376.822L292.859 379.913C280.077 386.642 253.992 398.696 231.446 398.696C226.172 398.696 221.087 398.03 216.407 396.485C202.557 391.896 193.386 359.204 182.767 321.353L181.721 317.644V317.668Z" fill="#24C79D"/>
<path d="M315.096 360.417L314.027 366.979L317.115 369.38L318.16 362.794L315.096 360.417Z" fill="white"/>
<path d="M320.251 364.411L318.968 372.709L322.294 375.491L323.411 367.169L320.251 364.411Z" fill="white"/>
<path d="M153.426 93.0821C153.426 93.0821 90.1123 112.055 85.337 120.71L80.3242 116.097C80.3242 116.097 96.598 105.731 135.94 93.0821C135.94 93.0821 153.426 89.1591 153.426 93.0821Z" fill="#37474F"/>
<path d="M89.3994 143.011C89.3994 143.011 118.455 184.429 174.76 214.957C178.656 217.073 181.579 220.615 182.885 224.847L183.17 225.751C183.812 227.843 181.697 229.745 179.702 228.842C166.493 222.898 128.908 202.57 83.4838 148.052L89.3994 142.987V143.011Z" fill="#37474F"/>
<path d="M150.528 110.367C143.97 117.738 137.176 125.275 130.357 132.479C126.96 136.116 123.491 139.635 120.023 143.059C116.554 146.483 112.967 149.74 109.498 152.522C108.619 153.211 107.788 153.829 106.956 154.447L105.768 155.232L105.246 155.541L104.984 155.708C104.984 155.708 104.771 155.826 104.842 155.803C104.937 155.803 105.412 155.755 105.697 155.826C105.982 155.898 105.935 156.04 105.602 155.922C104.913 155.755 103.464 154.733 102.11 153.354C100.732 151.999 99.3063 150.31 97.9759 148.48C95.2676 144.818 92.7493 140.681 90.3498 136.425C89.1619 134.286 87.9502 132.122 86.8099 129.935L83.4601 123.349L73.6482 126.535C75.9052 137.067 78.9699 147.029 84.2678 157.087C85.6458 159.583 87.1425 162.103 89.0906 164.6C91.11 167.072 93.367 169.664 97.1919 171.899C99.0925 172.993 101.516 173.967 104.367 174.205C107.194 174.514 110.235 173.92 112.658 172.85C114.511 172.018 115.794 171.304 117.196 170.496C118.502 169.711 119.762 168.903 120.949 168.071C125.701 164.79 129.787 161.295 133.778 157.776C137.77 154.257 141.547 150.572 145.253 146.91C152.642 139.469 159.603 131.908 166.374 123.848L150.528 110.32V110.367Z" fill="#FFB573"/>
<path d="M83.6263 129.507L89.138 119.568C91.8701 114.671 89.6844 108.465 84.4815 106.373C77.4493 103.543 69.8707 109.178 70.6072 116.739C70.8447 119.093 71.2011 121.518 71.7238 123.8C72.2227 125.916 73.9332 127.509 76.0476 127.937L83.6263 129.507Z" fill="#FFB573"/>
<path d="M172.432 108.275C168.75 92.25 150.266 85.9732 140.336 104.185C127.435 127.819 105.341 152.379 105.341 152.379L87.8314 129.507L72.2228 135.807C72.2228 135.807 84.0778 183.382 109.427 176.012C134.776 168.642 176.162 124.609 172.432 108.275Z" fill="#24C79D"/>
<path opacity="0.4" d="M172.432 108.275C168.75 92.25 150.266 85.9732 140.336 104.185C127.435 127.819 105.341 152.379 105.341 152.379L87.8314 129.507L72.2228 135.807C72.2228 135.807 84.0778 183.382 109.427 176.012C134.776 168.642 176.162 124.609 172.432 108.275Z" fill="white"/>
<path d="M76.0004 31.7644C71.1326 31.7644 67.1864 27.8152 67.1864 22.9436C67.1864 18.072 71.1326 14.1228 76.0004 14.1228C80.8683 14.1228 84.8145 18.072 84.8145 22.9436C84.8145 27.8152 80.8683 31.7644 76.0004 31.7644Z" fill="#263238"/>
<path d="M88.758 20.8751C83.8901 20.8751 79.944 16.9259 79.944 12.0543C79.944 7.18272 83.8901 3.23351 88.758 3.23351C93.6258 3.23351 97.572 7.18272 97.572 12.0543C97.572 16.9259 93.6258 20.8751 88.758 20.8751Z" fill="#263238"/>
<path d="M105.032 17.6416C100.164 17.6416 96.2179 13.6924 96.2179 8.82081C96.2179 3.94921 100.164 0 105.032 0C109.9 0 113.846 3.94921 113.846 8.82081C113.846 13.6924 109.9 17.6416 105.032 17.6416Z" fill="#263238"/>
<path d="M120.047 24.6317C115.179 24.6317 111.233 20.6825 111.233 15.8109C111.233 10.9393 115.179 6.99008 120.047 6.99008C124.915 6.99008 128.861 10.9393 128.861 15.8109C128.861 20.6825 124.915 24.6317 120.047 24.6317Z" fill="#263238"/>
<path d="M117.671 30.3854C117.671 35.2595 121.615 39.2062 126.485 39.2062C131.355 39.2062 135.299 35.2595 135.299 30.3854C135.299 25.5114 131.355 21.5646 126.485 21.5646C121.615 21.5646 117.671 25.5114 117.671 30.3854Z" fill="#263238"/>
<path d="M120.308 50.4997C123.492 51.9263 127.435 50.048 129.075 46.3152C130.714 42.5824 129.502 38.4216 126.319 36.9951C123.135 35.5686 119.192 37.4468 117.552 41.1796C115.889 44.9124 117.125 49.0732 120.308 50.4997Z" fill="#263238"/>
<path d="M126.509 41.1321C126.509 41.1321 128.956 17.4514 111.256 11.0557C93.5571 4.66005 77.9009 20.8751 77.9009 20.8751L76.6655 27.0093L86.2873 28.5547L102.229 30.3854L112.302 33.5476L122.494 44.746L126.509 41.1321Z" fill="#263238"/>
<path d="M122.494 44.7222C122.494 44.7222 109.593 32.1448 86.2635 31.7169C82.8424 31.6456 80.4666 32.6441 78.9699 33.5714C78.3997 33.928 77.687 33.3574 77.9246 32.7155L80.728 24.703C81.1081 23.6331 82.0346 22.8485 83.1512 22.6821C88.069 21.8975 102.395 21.1604 120.641 33.7378C121.425 34.2847 121.9 35.1644 121.971 36.0916L122.494 44.6984V44.7222Z" fill="#24C79D"/>
<path d="M122.09 38.0412L122.232 40.3237C113.822 35.093 93.4621 23.9898 79.3264 28.7687L80.0866 26.6289C94.3411 22.7772 113.181 32.6204 122.09 38.065V38.0412Z" fill="white"/>
<path d="M130.334 52.7822C128.528 56.6814 125.107 59.3919 121.781 60.5569C116.768 62.3163 113.941 57.9178 115.034 53.02C116.032 48.5977 119.833 42.3684 124.988 42.7488C130.072 43.1055 132.377 48.3599 130.334 52.806V52.7822Z" fill="#FFB573"/>
<path d="M96.8594 27.3897C98.2373 31.0987 101.516 33.3336 104.153 32.335C106.79 31.3602 107.812 27.5323 106.434 23.8233C105.056 20.1143 101.777 17.8794 99.1401 18.878C96.503 19.8528 95.4815 23.6807 96.8594 27.3897Z" fill="#263238"/>
<path d="M102.846 24.1324C104.224 27.8414 107.503 30.0763 110.14 29.0778C112.777 28.103 113.798 24.2751 112.42 20.566C111.043 16.857 107.764 14.6221 105.127 15.6207C102.49 16.5955 101.468 20.4234 102.846 24.1324Z" fill="#263238"/>
</g>
<defs>
<clipPath id="clip0_507_701">
<rect width="348" height="587" fill="white" transform="matrix(-1 0 0 1 348 0)"/>
</clipPath>
</defs>
</svg>
