<svg width="649" height="603" viewBox="0 0 649 603" fill="none" xmlns="http://www.w3.org/2000/svg">
<path d="M128.927 510.219L115.809 594.717H125.633L145.903 510.219H128.927Z" fill="#37474F"/>
<path d="M64.2325 510.219L51.1144 594.717H60.9385L81.208 510.219H64.2325Z" fill="#37474F"/>
<path d="M173.324 510.219L186.442 594.717H176.632L156.348 510.219H173.324Z" fill="#37474F"/>
<path d="M238.019 510.219L251.151 594.717H241.327L221.043 510.219H238.019Z" fill="#37474F"/>
<path d="M207.939 408.642H169.452L150.093 514.196H164.525H231.72L251.079 438.418V408.642H207.939Z" fill="#B77100"/>
<path d="M251.079 408.642H289.567C289.567 408.642 266.494 493.834 246.153 514.196H231.72L251.079 408.642Z" fill="#24C79D"/>
<path d="M61.5742 322.74H58.5403C41.3191 322.74 28.3744 338.503 31.7262 355.409L57.6445 486.56L108.817 479.098L61.5742 322.74V322.74Z" fill="#05B587"/>
<path d="M81.7282 481.773L61.5598 322.74L156.363 320.629C172.919 320.253 186.948 332.791 188.45 349.291L200.297 478.635L81.7137 481.773H81.7282Z" fill="#24C79D"/>
<path d="M232.009 474.34H155.828L154.557 514.196H233.294C233.294 514.196 252.943 490.305 252.943 480.891C252.943 475.222 241.284 474.239 232.009 474.354V474.34Z" fill="#04B587"/>
<path d="M142.06 474.976C142.06 474.976 174.205 471.477 174.205 480.891C174.205 490.305 154.557 514.196 154.557 514.196L142.06 474.976V474.976Z" fill="#24C79D"/>
<path d="M233.294 514.196C237.094 511.043 240.792 497.695 244.101 494.094C245.762 492.316 247.352 490.465 248.71 488.483C250.053 486.531 251.252 484.405 251.671 482.251C251.758 481.73 251.816 481.151 251.758 480.718C251.7 480.515 251.729 480.284 251.628 480.096C251.527 479.908 251.469 479.705 251.353 479.532C250.906 478.794 249.966 478.216 248.984 477.767C246.961 476.871 244.578 476.437 242.208 476.177C237.441 475.598 232.572 475.772 227.631 475.786C217.778 475.757 207.925 475.699 198.072 475.468C188.219 475.28 178.366 474.904 168.513 474.355C178.366 473.791 188.219 473.429 198.057 473.241C207.911 473.01 217.749 472.952 227.602 472.923C232.5 472.981 237.513 472.807 242.541 473.501C245.04 473.863 247.568 474.355 250.039 475.511C251.238 476.133 252.538 476.871 253.376 478.274C253.578 478.606 253.708 479.011 253.867 479.387C254.012 479.763 253.997 480.183 254.055 480.573C254.098 481.354 253.983 482.019 253.838 482.699C253.174 485.374 251.758 487.601 250.212 489.582C248.652 491.578 246.904 493.371 245.083 495.078C241.385 498.404 237.47 511.564 233.294 514.196V514.196Z" fill="#FFB43B"/>
<path d="M45.3066 408.642H6.81909C6.81909 408.642 29.8914 493.834 50.2331 514.196H140.124L128.855 408.642H45.3066Z" fill="#14BF93"/>
<path d="M135.197 408.642H96.71C96.71 408.642 119.782 493.834 140.124 514.196H154.557L135.197 408.642V408.642Z" fill="#07AA80"/>
<path d="M148.07 472.098C147.333 469.495 146.669 466.878 146.018 464.26C145.354 461.643 144.675 459.025 144.054 456.393C142.782 451.144 141.583 445.88 140.413 440.616C139.243 435.352 138.13 430.073 137.032 424.78C135.92 419.502 134.908 414.195 133.883 408.902L135.212 409.986C128.797 409.899 122.383 409.784 115.968 409.567C112.761 409.451 109.554 409.35 106.346 409.176C103.139 409.017 99.9317 408.873 96.7244 408.641C99.9317 408.395 103.139 408.265 106.346 408.106C109.554 407.933 112.761 407.831 115.968 407.716C122.383 407.513 128.797 407.383 135.212 407.296H136.31L136.541 408.381C137.653 413.659 138.78 418.938 139.821 424.231C140.875 429.524 141.915 434.817 142.883 440.124C143.866 445.431 144.805 450.753 145.672 456.075C146.134 458.736 146.524 461.411 146.929 464.087C147.333 466.762 147.752 469.423 148.084 472.113L148.07 472.098Z" fill="#24C79D"/>
<path d="M321.571 28H526.477C537.11 28 545.735 36.7021 545.735 47.4303V574.57C545.735 585.298 537.11 594 526.477 594H321.571C310.938 594 302.313 585.298 302.313 574.57V47.4303C302.313 36.7021 310.938 28 321.571 28Z" fill="#24C79D" fill-opacity="0.15"/>
<path d="M545.749 182.116V574.57C545.749 585.313 537.124 594 526.491 594H321.571C310.923 594 302.313 585.313 302.313 574.57V465.553C313.062 460.641 323.579 455.233 333.808 449.315C343.459 443.733 352.864 437.713 361.98 431.27C379.114 419.157 395.18 405.63 410.176 390.966C434.375 367.396 455.873 340.911 474.986 312.822C480.202 305.155 485.258 297.357 490.127 289.471C506.308 263.277 520.64 236.02 533.801 208.179C537.89 199.55 541.863 190.862 545.735 182.116H545.749Z" fill="#24C79D" fill-opacity="0.15"/>
<path d="M545.749 47.4303V51.1618H302.327V47.4303C302.327 36.7021 310.938 28 321.585 28H526.491C537.124 28 545.749 36.7021 545.749 47.4303V47.4303Z" fill="#04B587"/>
<path d="M499.706 39.574C499.706 42.154 497.625 44.253 495.068 44.253C492.511 44.253 490.431 42.154 490.431 39.574C490.431 36.994 492.511 34.895 495.068 34.895C497.625 34.895 499.706 36.994 499.706 39.574Z" fill="white"/>
<path d="M514.471 39.574C514.471 42.154 512.39 44.253 509.833 44.253C507.276 44.253 505.196 42.154 505.196 39.574C505.196 36.994 507.276 34.895 509.833 34.895C512.39 34.895 514.471 36.994 514.471 39.574Z" fill="white"/>
<path d="M529.25 39.574C529.25 42.154 527.17 44.253 524.613 44.253C522.056 44.253 519.975 42.154 519.975 39.574C519.975 36.994 522.056 34.895 524.613 34.895C527.17 34.895 529.25 36.994 529.25 39.574Z" fill="white"/>
<path d="M545.85 511.266C546.934 508.157 547.136 504.816 547.7 501.577C549.404 491.772 554.591 482.618 562.089 476.096C565.253 473.348 568.937 470.904 570.021 466.566C570.526 464.555 570.136 462.343 568.706 460.853C564.733 456.746 558.795 462.242 554.822 459.219C552.987 457.816 552.597 455.242 553.536 453.145C554.967 449.993 558.376 448.648 561.641 448.301C564.458 448.012 567.305 448.315 570.122 448.113C575.771 447.693 581.102 444.917 584.988 440.81C589.134 436.428 585.349 429.197 579.354 429.848L572.549 430.571C570.916 430.745 568.995 430.831 568.157 429.081C567.55 427.809 567.94 426.276 568.923 425.278C573.43 420.679 580.004 419.653 586.23 418.93C592.414 418.206 598.93 417.498 603.784 413.391C606.485 411.106 608.277 407.823 608.219 404.295C608.118 397.584 601.833 394.692 596.329 395.198C592.269 395.574 588.528 397.454 584.945 399.392C581.81 401.084 578.573 402.892 574.86 402.443C572.766 402.183 570.786 400.997 569.891 399.074C567.984 394.952 571.884 390.918 575.106 387.895C579.281 383.976 583.009 379.406 584.887 373.998C586.765 368.589 586.563 362.241 583.327 357.526C579.57 352.031 572.101 349.659 565.643 351.279C559.185 352.884 553.926 358.061 551.427 364.236C548.942 370.411 549.043 377.44 550.921 383.832C551.875 387.071 553.276 390.267 552.713 393.723C552.467 395.213 551.788 396.644 550.647 397.628C547.223 400.592 542.802 397.874 541.227 394.374C539.913 391.453 539.985 388.141 539.725 384.945C539.436 381.272 538.526 377.309 535.159 375.372C531.446 373.231 526.78 374.605 524.093 377.96C520.597 382.328 521.088 388.575 523.443 393.521C525.61 398.076 529.149 401.793 532.458 405.611C535.766 409.414 538.973 413.55 540.23 418.423C540.88 420.954 540.794 424.15 537.991 425.235C536.72 425.726 535.275 425.481 534.134 424.743C531.389 423.008 530.594 419.913 529.626 417.05C528.629 414.085 527.199 410.947 523.688 410.267C521.319 409.804 518.863 410.759 517.245 412.552C513.907 416.283 514.586 421.706 516.985 425.741C518.993 429.125 522.041 431.728 525.003 434.302C527.979 436.876 530.984 439.537 532.877 442.993C534.148 445.293 534.87 448.098 533.585 450.557C532.963 451.743 531.836 452.654 530.507 452.856C526.419 453.492 525.003 447.621 520.452 449.038C518.978 449.487 517.779 450.615 517.115 452.003C515.641 455.127 516.494 458.525 517.331 461.721C521.131 476.038 524.945 490.34 528.73 504.657C529.727 508.432 529.641 514.129 532.776 516.819C538.02 521.317 544.001 516.602 545.836 511.324L545.85 511.266Z" fill="#127969"/>
<path d="M594.451 405.003C581.521 410.065 567.825 412.971 553.955 413.622C555.53 407.823 557.206 402.039 559.012 396.297C562.234 386.001 565.816 375.82 569.732 365.784C570.093 364.858 568.663 364.265 568.301 365.191C561.945 381.518 556.498 398.192 551.962 415.126C543.062 407.375 536.171 397.483 531.981 386.449C531.634 385.509 530.204 386.131 530.551 387.056C534.914 398.553 542.166 408.835 551.499 416.818C551.21 417.888 550.921 418.958 550.647 420.029C548.581 428.098 546.732 436.226 545.085 444.396C536.691 438.641 529.987 430.629 525.826 421.33C525.422 420.419 523.992 421.026 524.396 421.938C528.716 431.583 535.694 439.913 544.434 445.842C544.536 445.915 544.651 445.958 544.752 445.973C542.744 456.168 541.039 466.421 539.696 476.732C538.294 487.434 537.269 498.164 536.604 508.938C536.546 509.936 538.078 510.138 538.135 509.14C539.32 489.979 541.661 470.89 545.157 452.003C545.749 448.821 546.37 445.654 547.035 442.487C547.165 442.56 547.309 442.617 547.483 442.617C557.336 442.27 567.146 441.229 576.84 439.494C577.822 439.32 577.605 437.787 576.623 437.961C566.943 439.696 557.148 440.737 547.324 441.085C549.144 432.393 551.196 423.76 553.493 415.199C553.551 415.199 553.608 415.227 553.681 415.227C567.839 414.606 581.838 411.641 595.029 406.464C595.953 406.102 595.347 404.671 594.422 405.032L594.451 405.003Z" fill="#254B44"/>
<path d="M526.997 594.188C535.073 595.533 543.698 593.263 550.069 588.129C556.455 582.981 560.5 575.056 560.919 566.856C566.134 569.112 572.896 568.215 578.386 566.755C583.876 565.294 588.86 561.954 592.269 557.413C600.374 562.648 610.588 563.92 619.849 561.187C629.11 558.454 637.027 551.512 640.986 542.691C629.37 529.965 614.229 520.955 597.311 517.673C580.394 514.39 562.176 517.369 547.685 526.668C533.18 535.981 522.749 551.715 520.741 568.837C519.73 577.514 522.995 586.422 526.997 594.174V594.188Z" fill="#127969"/>
<path d="M633.386 540.507C624.039 536.848 614.374 533.132 604.477 530.962C606.139 528.952 608.364 527.405 610.849 526.624C611.253 526.494 611.542 526.132 611.441 525.699C611.354 525.323 610.921 524.975 610.516 525.106C607.497 526.06 604.853 527.897 602.903 530.399C602.859 530.456 602.83 530.529 602.816 530.601C594.986 529.025 586.996 528.475 578.935 529.748C576.652 530.109 574.413 530.659 572.217 531.339C572.78 528.027 574.311 524.889 576.609 522.43C577.288 521.707 576.262 520.536 575.583 521.273C572.838 524.209 571.09 527.897 570.555 531.888C565.6 533.623 560.948 536.169 556.744 539.408C553.435 541.968 550.43 544.903 547.743 548.114C546.862 545.106 546.428 541.982 546.544 538.844C546.573 537.846 545.027 537.774 544.998 538.772C544.868 542.445 545.403 546.104 546.573 549.589C544.449 552.279 542.542 555.128 540.852 558.092C535.477 567.55 532.227 578.035 530.06 588.664C529.857 589.633 531.331 590.124 531.533 589.141C534.813 573.016 540.852 556.776 552.698 545.048C557.943 550.355 564.155 554.578 571.018 557.499C571.942 557.89 572.419 556.415 571.494 556.024C564.877 553.219 558.867 549.112 553.811 543.992C554.331 543.515 554.837 543.023 555.371 542.561C561.482 537.253 568.735 533.45 576.666 531.772C577.866 531.512 579.079 531.324 580.293 531.151C583.095 538.396 587.357 545.034 592.775 550.587C593.469 551.295 594.639 550.269 593.931 549.56C588.715 544.224 584.627 537.89 581.882 530.962C588.47 530.254 595.188 530.717 601.675 531.946C603.018 532.206 604.347 532.481 605.676 532.799C605.662 532.929 605.676 533.059 605.72 533.19C608.248 539.466 612.033 545.207 616.815 550.008C617.523 550.717 618.679 549.69 617.971 548.982C613.478 544.455 609.91 539.119 607.425 533.247C616.122 535.46 624.53 538.728 632.866 541.997C633.791 542.358 634.268 540.883 633.343 540.522L633.386 540.507Z" fill="#254B44"/>
<path d="M525.379 540.478C523.992 543.544 524.006 547.492 526.332 549.921C528.398 552.091 531.822 552.524 534.654 551.556C537.485 550.587 539.768 548.446 541.574 546.06C545.186 541.288 547.136 535.518 549.578 530.066C552.019 524.599 555.198 519.147 560.327 516.067C566.496 512.35 574.687 512.611 580.22 507.983C588.874 500.738 586.736 485.336 595.737 478.511C599.074 475.98 603.365 475.17 607.497 474.505C611.629 473.84 615.92 473.203 619.445 470.947C622.97 468.691 625.527 464.309 624.27 460.304C623.028 456.312 618.65 454.23 614.576 453.348C606.514 451.612 597.846 452.885 590.622 456.862C583.399 460.839 577.678 467.477 574.817 475.213C572.087 482.618 571.711 491.208 566.553 497.18C562.956 501.331 557.639 503.457 552.915 506.262C546.269 510.21 540.606 515.778 536.445 522.3C534.423 525.467 533.281 528.996 531.446 532.235C529.756 535.229 526.852 537.253 525.407 540.464L525.379 540.478Z" fill="#0C6050"/>
<path d="M609.043 458.699C601.342 458.916 593.859 462.285 588.484 467.809C582.821 473.637 580.683 481.447 577.909 488.851C576.522 492.567 574.904 496.27 572.448 499.408C569.919 502.618 566.539 504.831 562.985 506.74C559.503 508.605 555.877 510.254 552.641 512.539C549.505 514.751 547.021 517.658 545.012 520.926C540.548 528.2 538.208 537.109 531.634 542.922C530.883 543.588 531.851 544.802 532.602 544.137C538.367 539.061 541.011 531.7 544.463 525.062C546.212 521.693 548.263 518.396 551.066 515.807C553.999 513.103 557.567 511.295 561.078 509.487C564.516 507.723 568.027 505.915 570.931 503.298C573.835 500.695 575.915 497.383 577.533 493.869C580.842 486.667 582.315 478.54 586.996 472.003C592.11 464.874 600.548 460.477 609.288 460.232C610.285 460.203 610.04 458.67 609.043 458.699V458.699Z" fill="#254B44"/>
<path d="M317.656 593.853C314.651 592.508 312.094 590.353 309.349 588.546C301.056 583.05 290.856 580.52 280.96 581.488C276.799 581.893 272.479 582.906 268.593 580.708C266.787 579.695 265.443 577.888 265.357 575.82C265.097 570.107 273.173 569.572 273.722 564.597C273.967 562.298 272.378 560.245 270.197 559.493C266.931 558.365 263.609 559.926 261.109 562.067C258.957 563.903 257.237 566.188 255.142 568.097C250.953 571.915 245.275 573.882 239.626 573.882C233.587 573.882 230.958 566.159 235.552 562.24L240.767 557.786C242.024 556.716 243.397 555.385 242.703 553.563C242.198 552.247 240.811 551.481 239.409 551.51C232.98 551.626 227.707 555.704 222.896 559.724C218.114 563.715 213.13 567.967 206.802 568.676C203.291 569.066 199.679 568.112 197.151 565.639C192.355 560.953 194.58 554.402 198.726 550.743C201.789 548.054 205.733 546.622 209.605 545.349C212.985 544.236 216.525 543.122 218.75 540.114C220.007 538.408 220.498 536.166 219.718 534.199C218.042 529.977 212.436 530.035 208.03 530.309C202.323 530.656 196.429 530.223 191.213 527.865C185.998 525.508 181.534 520.996 180.335 515.4C178.933 508.892 182.343 501.835 187.948 498.248C193.554 494.662 200.922 494.387 207.12 496.817C213.318 499.246 218.345 504.163 221.683 509.919C223.373 512.84 224.731 516.05 227.62 518.017C228.863 518.87 230.365 519.348 231.868 519.203C236.375 518.755 237.445 513.679 235.985 510.121C234.772 507.156 232.316 504.929 230.178 502.543C227.722 499.81 225.468 496.412 226.378 492.637C227.375 488.472 231.593 486.014 235.855 486.375C241.432 486.838 245.636 491.495 247.601 496.6C249.407 501.314 249.681 506.433 250.173 511.466C250.664 516.484 251.444 521.647 254.117 525.928C255.504 528.14 257.887 530.28 260.604 528.979C261.832 528.386 262.641 527.171 262.901 525.841C263.522 522.645 261.832 519.94 260.416 517.28C258.942 514.517 257.656 511.321 259.578 508.299C260.864 506.26 263.247 505.132 265.66 505.19C270.659 505.32 274.126 509.557 275.412 514.069C276.481 517.844 276.293 521.864 276.105 525.783C275.918 529.702 275.802 533.737 277.001 537.468C277.81 539.97 279.327 542.428 282 543.18C283.286 543.542 284.73 543.354 285.785 542.529C289.05 539.998 285.771 534.937 289.931 532.594C291.275 531.842 292.908 531.727 294.381 532.204C297.661 533.274 299.539 536.239 301.273 539.044C309.045 551.64 316.789 564.25 324.576 576.846C326.628 580.172 330.817 584.019 330.615 588.141C330.283 595.039 322.741 596.152 317.641 593.853H317.656Z" fill="#127969"/>
<path d="M207.163 556.123C219.732 550.208 231.247 542.24 241.259 532.608C235.956 529.76 230.625 527.012 225.222 524.38C215.542 519.651 205.689 515.255 195.706 511.191C194.782 510.815 195.331 509.369 196.255 509.745C212.48 516.339 228.314 523.845 243.715 532.189C244.206 520.389 241.764 508.573 236.635 497.944C236.202 497.048 237.618 496.426 238.066 497.337C243.411 508.414 245.882 520.75 245.246 533.028C246.214 533.563 247.182 534.084 248.15 534.619C255.431 538.668 262.597 542.905 269.647 547.33C271.237 537.265 270.038 526.896 266.166 517.482C265.79 516.556 267.206 515.949 267.596 516.874C271.627 526.636 272.869 537.453 271.15 547.88C271.136 548.01 271.078 548.111 271.02 548.198C279.804 553.737 288.4 559.565 296.808 565.667C305.52 572.002 314.029 578.639 322.293 585.566C323.059 586.203 322.149 587.461 321.383 586.825C306.661 574.503 291.203 563.093 275.109 552.638C272.392 550.873 269.662 549.152 266.917 547.46C266.888 547.605 266.83 547.75 266.7 547.88C259.679 554.807 252.181 561.213 244.249 567.07C243.455 567.663 242.472 566.448 243.281 565.855C251.198 560.013 258.682 553.607 265.689 546.708C258.133 542.052 250.462 537.612 242.66 533.389C242.631 533.447 242.602 533.491 242.559 533.548C232.388 543.411 220.599 551.539 207.784 557.583C206.889 558.003 206.267 556.586 207.178 556.152L207.163 556.123Z" fill="#254B44"/>
<path d="M307.023 559.681C299.568 556.282 293.673 549.601 291.246 541.763C288.819 533.925 289.874 525.089 294.092 518.046C288.501 517.005 283.401 512.478 279.645 508.212C275.889 503.932 273.635 498.378 273.332 492.71C263.681 492.536 254.492 487.894 248.338 480.446C242.183 472.999 239.467 462.818 241.1 453.302C257.83 449.209 275.412 450.193 291.289 456.917C307.167 463.642 320.617 476.267 327.48 492.088C334.342 507.908 334.227 526.795 326.353 542.139C322.366 549.905 314.68 555.472 307.037 559.681H307.023Z" fill="#0C6050"/>
<path d="M248.598 455.732C258.393 457.915 268.477 460.229 277.911 463.946C277.651 461.357 276.669 458.826 275.036 456.787C274.776 456.455 274.733 456.006 275.051 455.688C275.325 455.414 275.889 455.385 276.149 455.703C278.128 458.176 279.298 461.184 279.515 464.351C279.515 464.423 279.501 464.495 279.472 464.568C286.854 467.633 293.789 471.625 299.77 477.192C301.46 478.769 303.021 480.475 304.451 482.254C305.838 479.188 306.3 475.732 305.766 472.406C305.607 471.422 307.109 471.032 307.268 472.015C307.918 475.992 307.311 480.027 305.52 483.628C308.655 487.836 311.111 492.536 312.787 497.583C314.116 501.56 314.969 505.667 315.402 509.832C317.815 507.822 319.909 505.479 321.571 502.804C322.091 501.965 323.42 502.76 322.9 503.614C320.964 506.723 318.479 509.471 315.561 511.712C315.821 515.125 315.835 518.552 315.575 521.965C314.766 532.811 311.631 543.339 307.499 553.361C307.124 554.272 305.636 553.867 306.011 552.942C312.267 537.714 316.312 520.866 313.004 504.525C305.693 506 298.181 506.043 290.856 504.626C289.874 504.438 290.307 502.948 291.275 503.136C298.34 504.496 305.607 504.452 312.657 503.021C312.498 502.327 312.354 501.647 312.166 500.953C310.042 493.143 306.156 485.942 300.507 480.114C299.654 479.232 298.759 478.393 297.834 477.569C291.477 482.023 284.239 485.146 276.64 486.737C275.672 486.94 275.267 485.436 276.25 485.233C283.56 483.715 290.466 480.736 296.621 476.527C291.55 472.261 285.713 468.892 279.645 466.303C278.388 465.768 277.131 465.262 275.845 464.785C275.788 464.9 275.715 465.001 275.585 465.088C269.98 468.892 263.637 471.538 257.006 472.854C256.024 473.042 255.634 471.553 256.616 471.35C262.872 470.106 268.81 467.662 274.141 464.177C265.689 461.155 256.891 459.174 248.15 457.236C247.182 457.019 247.601 455.529 248.569 455.746L248.598 455.732Z" fill="#254B44"/>
<path d="M319.433 488.27C319.476 491.625 317.887 495.24 314.795 496.542C312.036 497.699 308.713 496.73 306.517 494.719C304.307 492.709 303.078 489.832 302.371 486.925C300.969 481.111 301.475 475.037 301.417 469.05C301.359 463.063 300.622 456.787 297.155 451.913C292.98 446.042 285.366 442.991 282.144 436.555C277.102 426.447 285.207 413.186 279.688 403.337C277.637 399.679 274.039 397.22 270.514 394.95C266.989 392.694 263.32 390.394 260.979 386.909C258.653 383.438 258.061 378.391 260.806 375.224C263.536 372.072 268.376 371.898 272.465 372.737C280.541 374.371 287.981 379.013 293.023 385.535C298.065 392.072 300.651 400.445 300.189 408.688C299.741 416.57 296.635 424.596 298.99 432.13C300.622 437.38 304.653 441.443 307.861 445.912C312.383 452.188 315.344 459.564 316.543 467.214C317.121 470.93 316.774 474.618 317.15 478.32C317.497 481.748 319.361 484.77 319.404 488.27H319.433Z" fill="#127969"/>
<path d="M275.398 379.838C282.376 383.12 287.894 389.209 290.61 396.41C293.471 404.017 292.33 412.029 291.911 419.925C291.694 423.887 291.694 427.922 292.705 431.798C293.731 435.746 295.956 439.13 298.455 442.311C300.897 445.42 303.57 448.371 305.621 451.769C307.615 455.066 308.742 458.71 309.262 462.499C310.447 470.959 309.031 480.056 312.744 488.009C313.163 488.906 311.805 489.644 311.371 488.733C308.121 481.777 308.626 473.982 308.106 466.505C307.846 462.716 307.297 458.87 305.751 455.384C304.148 451.74 301.59 448.645 299.091 445.579C296.635 442.586 294.15 439.52 292.532 435.963C290.914 432.419 290.322 428.544 290.249 424.668C290.09 416.743 291.997 408.703 290.307 400.85C288.472 392.274 282.491 384.856 274.574 381.139C273.678 380.72 274.516 379.404 275.412 379.823L275.398 379.838Z" fill="#254B44"/>
<path d="M463.573 324.484L384.185 325.742C384.185 325.742 373.812 427.421 388.462 575.738C394.587 579.454 400.727 579.209 406.853 575.29C406.853 575.29 411.967 452.078 420.679 363.66C422.239 363.602 442.711 489.461 461.146 575.29C467.199 579.05 473.339 579.628 479.537 575.738C479.537 575.738 468.384 485.035 463.573 324.47V324.484Z" fill="#1E1A29"/>
<path d="M406.853 575.304L406.203 594.003H395.107V589.404C395.107 589.404 389.097 594.075 379.793 594.075C370.489 594.075 360.217 594.986 360.217 589.954C360.217 584.921 382.524 585.471 386.439 581.364C388.78 578.905 388.462 575.752 388.462 575.752L406.853 575.304V575.304Z" fill="#1E1A29"/>
<path d="M461.146 575.304L461.796 594.003H472.891V589.404C472.891 589.404 478.902 594.075 488.206 594.075C497.51 594.075 507.782 594.986 507.782 589.954C507.782 584.921 485.475 585.471 481.56 581.364C479.219 578.905 479.537 575.752 479.537 575.752L461.146 575.304V575.304Z" fill="#1E1A29"/>
<path d="M386.988 201.707C386.988 201.707 354.222 240.29 352.589 353.841H365.924C365.924 353.841 368.438 284.368 390.976 242.069L387.003 201.707H386.988Z" fill="#E7AC8D"/>
<path d="M364.942 351.123C364.696 350.674 364.234 350.674 363.901 350.891C363.844 350.848 363.771 350.79 363.685 350.761C360.607 349.662 356.938 348.708 354.222 351.181C352.026 353.176 350.711 356.473 349.989 359.293C348.443 365.309 349.411 371.918 352.806 377.139C352.979 377.414 353.254 377.5 353.514 377.471C354.048 378.628 354.785 379.641 355.898 380.32C356.273 380.552 356.62 380.407 356.837 380.132C356.996 380.335 357.169 380.523 357.371 380.667C358.094 381.231 359.004 381.318 359.741 380.986C360.376 381.347 361.113 381.405 361.807 380.913C363.15 379.944 362.789 378.252 362.529 376.864C362.197 375.056 362.067 373.205 362.11 371.354C362.182 368.505 362.731 365.685 363.67 363.01L363.844 364.384C364.017 365.743 364.046 367.233 364.393 368.563C364.653 369.532 365.592 370.4 366.632 369.937C367.658 369.489 367.701 368.043 367.831 367.103C368.568 361.607 367.528 355.982 364.942 351.094V351.123Z" fill="#E7AC8D"/>
<path d="M352.604 322.532L351.852 339.611C351.852 339.611 358.382 345.034 368.077 341.578L370.229 324.485L352.604 322.532V322.532Z" fill="white"/>
<path d="M394.096 191.598C394.096 191.598 357.256 218.395 351.029 324.485L371.79 326.798C371.79 326.798 374.982 284.441 389.083 254.882L394.096 191.598V191.598Z" fill="#37474F"/>
<path d="M461.984 201.707C461.984 201.707 494.75 240.29 496.383 353.841H483.048C483.048 353.841 480.534 284.368 457.996 242.069L461.969 201.707H461.984Z" fill="#E7AC8D"/>
<path d="M481.141 367.131C481.271 368.071 481.314 369.503 482.34 369.966C483.38 370.429 484.319 369.575 484.579 368.592C484.926 367.261 484.955 365.772 485.128 364.413L485.302 363.039C486.255 365.714 486.79 368.534 486.862 371.383C486.905 373.22 486.775 375.071 486.443 376.893C486.183 378.281 485.822 379.973 487.165 380.942C487.844 381.434 488.596 381.376 489.231 381.014C489.968 381.347 490.893 381.26 491.601 380.696C491.803 380.537 491.976 380.349 492.135 380.161C492.338 380.421 492.699 380.566 493.06 380.349C494.172 379.669 494.924 378.657 495.444 377.5C495.704 377.529 495.964 377.442 496.152 377.168C499.547 371.947 500.515 365.338 498.969 359.322C498.247 356.502 496.932 353.219 494.736 351.209C492.034 348.736 488.365 349.705 485.287 350.79C485.201 350.819 485.143 350.862 485.071 350.92C484.738 350.689 484.262 350.689 484.03 351.151C481.444 356.039 480.39 361.665 481.141 367.16V367.131Z" fill="#E7AC8D"/>
<path d="M496.383 322.532L497.134 339.611C497.134 339.611 490.604 345.034 480.91 341.578L478.757 324.485L496.383 322.532V322.532Z" fill="white"/>
<path d="M454.876 191.598C454.876 191.598 491.716 218.395 497.943 324.485L477.182 326.798C477.182 326.798 473.99 284.441 459.889 254.882L454.876 191.598V191.598Z" fill="#37474F"/>
<path d="M415.001 184.266L396.509 190.311C396.509 190.311 387.003 269.69 382.481 330.905C440.732 343.227 465.596 330.775 465.596 330.775C462.128 258.699 451.567 190.311 451.567 190.311L433.19 184.266H415.016H415.001Z" fill="#69BCB6"/>
<path d="M474.062 473.929C414.669 495.607 376.629 473.929 376.629 473.929C371.703 381.651 389.516 195.257 394.096 191.613C394.977 190.889 396.321 190.195 397.91 189.487C404.426 186.667 414.987 184.266 414.987 184.266H433.176C439.908 186.03 446.54 188.171 452.998 190.832C453.648 191.092 454.284 191.352 454.919 191.613C463.515 229.878 474.062 473.929 474.062 473.929V473.929Z" fill="#37474F"/>
<path d="M452.998 190.817C449.371 194.129 428.986 212.524 422.716 212.524C415.839 212.524 397.925 189.487 397.925 189.487C404.441 186.667 415.001 184.266 415.001 184.266H433.191C439.923 186.03 446.554 188.171 453.012 190.832L452.998 190.817Z" fill="white"/>
<path d="M422.384 191.67C422.297 192.003 416.995 209.762 416.995 209.762L422.716 212.524L429.434 209.689L424.927 191.67H422.398H422.384Z" fill="#1E1A29"/>
<path d="M451.351 189.53C446.468 193.594 441.584 197.672 436.701 201.736C434.346 203.688 432.006 205.669 429.651 207.607C427.628 209.27 425.071 211.396 422.254 210.658C419.74 209.993 417.515 207.838 415.536 206.248C413.499 204.613 411.491 202.907 409.584 201.114C405.553 197.354 401.912 193.218 398.965 188.561C397.983 187.014 395.526 188.446 396.509 189.993C399.702 195.025 403.646 199.509 408.023 203.529C410.248 205.582 412.574 207.506 414.958 209.371C417.096 211.034 419.321 212.987 422.066 213.507C424.797 214.028 427.368 212.871 429.535 211.295C432.165 209.386 434.606 207.173 437.106 205.091C442.538 200.564 447.956 196.052 453.388 191.526C454.804 190.354 452.781 188.344 451.38 189.516L451.351 189.53Z" fill="#24C79D"/>
<path d="M435.517 121.619C427.31 106.564 398.43 111.698 396.191 123.672C391.568 148.3 395.079 158.409 401.912 164.237C409.829 170.976 414.987 170.108 414.987 184.266C417.978 191.8 429.463 192.827 433.162 184.266C432.93 165.524 439.359 151.323 439.359 151.323C439.359 151.323 438.883 127.837 435.502 121.633L435.517 121.619Z" fill="#E7AC8D"/>
<path d="M417.876 144.844C417.876 145.871 417.053 146.695 416.027 146.695C415.001 146.695 414.178 145.871 414.178 144.844C414.178 143.817 415.001 142.993 416.027 142.993C417.053 142.993 417.876 143.817 417.876 144.844Z" fill="#1B1B28"/>
<path d="M416.027 144.337C416.027 144.713 415.724 145.017 415.348 145.017C414.973 145.017 414.669 144.713 414.669 144.337C414.669 143.961 414.973 143.658 415.348 143.658C415.724 143.658 416.027 143.961 416.027 144.337Z" fill="white"/>
<path d="M403.559 144.844C403.559 145.871 402.736 146.695 401.71 146.695C400.684 146.695 399.861 145.871 399.861 144.844C399.861 143.817 400.684 142.993 401.71 142.993C402.736 142.993 403.559 143.817 403.559 144.844Z" fill="#1B1B28"/>
<path d="M401.71 144.337C401.71 144.713 401.407 145.017 401.031 145.017C400.655 145.017 400.352 144.713 400.352 144.337C400.352 143.961 400.655 143.658 401.031 143.658C401.407 143.658 401.71 143.961 401.71 144.337Z" fill="white"/>
<path d="M404.802 137.584C402.476 135.965 399.456 136.051 397.26 137.96C396.856 138.322 396.784 139.03 397.087 139.493C397.405 139.97 398.011 140.043 398.416 139.681C399.312 138.9 400.468 138.553 401.58 138.64C402.143 138.683 402.707 138.828 403.227 139.088C403.689 139.32 404.137 139.71 404.657 139.421C404.787 139.349 404.888 139.247 404.975 139.117C405.264 138.683 405.25 137.888 404.802 137.584V137.584Z" fill="#1B1B28"/>
<path d="M412.011 137.584C414.684 135.965 418.137 136.051 420.65 137.96C421.127 138.322 421.199 139.03 420.853 139.493C420.491 139.97 419.798 140.043 419.321 139.681C418.295 138.9 416.981 138.568 415.695 138.654C415.045 138.698 414.409 138.842 413.802 139.103C413.268 139.32 412.762 139.725 412.17 139.421C412.025 139.349 411.91 139.247 411.809 139.117C411.476 138.683 411.505 137.888 412.011 137.584V137.584Z" fill="#1B1B28"/>
<path d="M408.153 155.372C407.142 155.372 406.087 155.155 405.076 154.62C404.599 154.374 404.426 153.781 404.672 153.318C404.917 152.841 405.51 152.668 405.972 152.914C408.428 154.201 411.158 152.885 411.939 151.8C412.256 151.366 412.863 151.279 413.297 151.583C413.73 151.901 413.817 152.509 413.513 152.942C412.589 154.201 410.494 155.372 408.168 155.372H408.153Z" fill="#C16B5B"/>
<path d="M405.856 149.862C405.755 149.862 405.654 149.79 405.625 149.689C405.163 148.112 405.697 147.577 406.232 147.404C406.767 147.23 407.417 147.375 408.153 147.823C408.269 147.895 408.298 148.04 408.226 148.156C408.153 148.272 408.009 148.3 407.893 148.228C407.287 147.852 406.781 147.722 406.376 147.852C405.9 148.011 405.799 148.575 406.088 149.544C406.131 149.674 406.044 149.804 405.929 149.848C405.914 149.848 405.885 149.848 405.856 149.848V149.862Z" fill="#C16B5B"/>
<path d="M432.439 124.959C427.484 132.118 417.501 130.469 417.501 130.469L423.251 125.509C423.251 125.509 409.006 133.954 394.298 131.033C394.298 131.033 392.146 125.625 398.748 116.615C402.981 110.845 415.276 109.428 425.765 111.366C436.253 113.304 440.804 117.873 441.151 125.393C441.498 132.928 442.263 142.328 442.263 142.328L438.189 145.437C431.804 141.171 432.439 124.974 432.439 124.974V124.959Z" fill="#1B1B28"/>
<path d="M440.01 154.721C440.01 154.721 436.73 163.76 435.3 164.41C433.87 165.076 437.062 152.046 437.062 152.046L440.01 154.707V154.721Z" fill="#1B1B28"/>
<path d="M445.702 151.858C443.231 154.808 439.316 155.618 436.976 153.651C434.635 151.684 434.736 147.693 437.221 144.743C439.692 141.793 443.607 140.983 445.947 142.949C448.288 144.916 448.187 148.908 445.702 151.858Z" fill="#E7AC8D"/>
<path d="M444.329 144.396C443.275 143.832 441.873 143.861 440.573 144.468C439.923 144.772 439.461 145.133 439.143 145.581C438.724 146.174 438.608 146.926 438.839 147.534C439.042 148.083 439.489 148.43 439.865 148.749C440.14 148.98 440.414 149.197 440.559 149.443C440.79 149.833 440.732 150.383 440.429 150.73C440.125 151.062 439.576 151.178 439.172 150.99C438.926 150.874 438.637 150.99 438.536 151.221C438.42 151.467 438.536 151.757 438.767 151.858C439.027 151.973 439.316 152.046 439.605 152.046C440.183 152.046 440.761 151.814 441.151 151.381C441.743 150.73 441.844 149.717 441.411 148.965C441.18 148.561 440.819 148.257 440.501 148.011C440.183 147.751 439.88 147.505 439.764 147.201C439.648 146.897 439.721 146.478 439.952 146.145C440.053 146.015 440.168 145.885 440.313 145.769C440.79 145.769 441.396 145.914 441.7 146.247C442.047 146.623 442.206 147.158 442.119 147.664C442.076 147.924 442.249 148.17 442.523 148.213C442.552 148.213 442.581 148.213 442.596 148.213C442.827 148.213 443.029 148.04 443.072 147.809C443.202 147.013 442.957 146.174 442.408 145.581C442.206 145.365 441.946 145.205 441.685 145.09C442.48 144.873 443.275 144.916 443.881 145.234C444.633 145.639 445.211 146.666 444.82 147.505C444.705 147.751 444.82 148.04 445.052 148.141C445.297 148.257 445.586 148.141 445.687 147.91C446.251 146.681 445.63 145.061 444.329 144.367V144.396Z" fill="#C16B5B"/>
<path d="M466.145 105.48L417.313 89.9916C416.981 89.8904 416.605 89.8904 416.273 90.0205L369.073 107.374C367.629 107.909 367.701 109.992 369.175 110.411L396.451 118.307C397.578 115.473 400.106 113.246 404.036 113.217C413.369 113.13 422.803 112.132 431.789 115.27C433.581 115.892 434.91 116.904 435.863 118.134L466.13 108.531C467.618 108.054 467.618 105.943 466.13 105.48H466.145Z" fill="#1E1A29"/>
<path d="M378.782 129.558C378.782 129.197 378.623 128.806 378.363 128.546C378.305 128.488 378.219 128.459 378.146 128.401C377.973 120.318 378.146 112.219 378.681 104.15C378.739 103.239 377.323 103.239 377.251 104.15C376.716 112.19 376.543 120.245 376.716 128.315C376.254 128.546 375.922 128.994 375.922 129.558L375.95 132.566C375.95 132.928 376.109 133.318 376.369 133.579C376.615 133.825 377.02 134.013 377.381 133.998C378.146 133.969 378.811 133.376 378.811 132.566L378.782 129.558V129.558Z" fill="#24C79D"/>
<path d="M394.096 127.982C394.096 127.982 417.486 116.673 441.281 127.982L439.923 108.098C439.923 108.098 419.119 96.6006 394.082 108.098V127.982H394.096Z" fill="#37474F"/>
<path d="M161.477 578.26C167.675 581.933 173.815 581.398 179.868 577.826C198.303 496.466 218.789 377.159 220.335 377.216C229.047 461.021 234.161 577.826 234.161 577.826C240.301 581.543 246.427 581.774 252.553 578.26C267.202 437.651 256.829 341.265 256.829 341.265L177.441 340.065C172.63 492.272 161.477 578.26 161.477 578.26V578.26Z" fill="#9E6C52"/>
<path d="M234.161 577.826L234.811 595.556L240.793 595.686V590.046C240.793 590.046 251.917 595.628 261.221 595.628C270.525 595.628 280.797 596.481 280.797 591.709C280.797 586.937 258.49 587.457 254.575 583.567C252.235 581.239 252.553 578.245 252.553 578.245L234.161 577.812V577.826Z" fill="#1E1A29"/>
<path d="M179.868 577.826L179.218 595.556L172.731 595.686V590.003C172.731 590.003 162.098 595.628 152.809 595.628C143.519 595.628 133.233 596.481 133.233 591.709C133.233 586.937 155.539 587.457 159.454 583.567C161.795 581.239 161.477 578.245 161.477 578.245L179.868 577.812V577.826Z" fill="#1E1A29"/>
<path d="M250.675 205.414C251.931 204.575 253.174 203.129 253.578 201.727C253.94 200.512 253.521 199.138 252.769 197.996C252.018 196.868 250.978 195.942 249.952 195.031C251.729 193.758 252.755 191.676 252.495 189.579C252.249 187.496 250.819 185.486 248.811 184.358C250.559 183.52 251.657 181.538 251.469 179.745C251.281 177.966 249.88 176.274 248.002 175.522C249.562 174.018 250.082 172.023 249.62 169.969C249.158 167.93 248.103 166.036 247.236 164.112C244.925 158.964 244.058 153.584 244.679 148.552L199.878 151.907C199.661 154.973 197.942 158.053 195.154 160.28C193.81 161.365 192.25 162.232 190.834 163.288C189.418 164.344 188.132 165.631 187.641 167.178C187.15 168.726 187.684 170.562 189.259 171.329C187.93 172.587 186.355 174.091 185.676 175.696C184.983 177.316 185.127 179.297 186.543 180.381C184.954 181.741 183.321 183.346 182.585 185.212C181.747 187.337 182.382 189.796 184.159 191.256C182.483 191.965 180.678 192.905 179.406 194.163C178.034 195.523 177.34 197.446 177.571 199.21C177.803 201.004 178.987 202.594 180.678 203.433C177.181 205.024 175.693 209.449 176.719 212.876C177.759 216.347 180.663 218.921 183.726 221.076C192.438 227.222 203.157 231.069 214.34 232.023C225.565 232.978 236.935 230.968 246.803 226.326C249.981 224.836 253.102 222.956 254.821 220.035C257.566 215.349 255.543 208.509 250.66 205.443L250.675 205.414Z" fill="#1B1B28"/>
<path d="M205.498 144.43C213.704 129.376 242.584 134.51 244.823 146.484C249.447 171.112 245.936 181.22 239.102 187.048C231.185 193.787 226.028 192.92 226.028 207.077C223.051 215.566 211.566 216.608 207.853 207.077C208.084 188.335 201.655 174.134 201.655 174.134C201.655 174.134 202.132 150.649 205.512 144.445L205.498 144.43Z" fill="#9E6C52"/>
<path d="M223.138 167.655C223.138 168.682 223.962 169.506 224.987 169.506C226.013 169.506 226.837 168.682 226.837 167.655C226.837 166.629 226.013 165.804 224.987 165.804C223.962 165.804 223.138 166.629 223.138 167.655Z" fill="#1B1B28"/>
<path d="M224.987 167.149C224.987 167.525 225.291 167.829 225.666 167.829C226.042 167.829 226.345 167.525 226.345 167.149C226.345 166.773 226.042 166.469 225.666 166.469C225.291 166.469 224.987 166.773 224.987 167.149Z" fill="white"/>
<path d="M237.455 167.655C237.455 168.682 238.279 169.506 239.305 169.506C240.33 169.506 241.154 168.682 241.154 167.655C241.154 166.629 240.33 165.804 239.305 165.804C238.279 165.804 237.455 166.629 237.455 167.655Z" fill="#1B1B28"/>
<path d="M239.984 167.829C240.359 167.829 240.663 167.524 240.663 167.149C240.663 166.774 240.359 166.469 239.984 166.469C239.609 166.469 239.305 166.774 239.305 167.149C239.305 167.524 239.609 167.829 239.984 167.829Z" fill="white"/>
<path d="M236.213 160.396C238.539 158.776 241.558 158.863 243.754 160.772C244.159 161.133 244.231 161.842 243.928 162.305C243.61 162.782 243.003 162.854 242.599 162.493C241.703 161.712 240.547 161.365 239.435 161.451C238.871 161.495 238.308 161.639 237.788 161.9C237.325 162.131 236.877 162.522 236.357 162.232C236.227 162.16 236.126 162.059 236.039 161.929C235.751 161.495 235.765 160.699 236.213 160.396V160.396Z" fill="#1B1B28"/>
<path d="M229.004 160.396C226.331 158.776 222.878 158.863 220.364 160.772C219.887 161.133 219.815 161.842 220.176 162.305C220.538 162.782 221.231 162.854 221.708 162.493C222.734 161.712 224.048 161.379 225.334 161.466C225.984 161.509 226.62 161.654 227.227 161.914C227.761 162.131 228.267 162.536 228.859 162.232C229.004 162.16 229.119 162.059 229.22 161.929C229.553 161.495 229.524 160.699 229.018 160.396H229.004Z" fill="#1B1B28"/>
<path d="M235.158 172.674C235.259 172.674 235.36 172.601 235.389 172.5C235.852 170.924 235.317 170.389 234.782 170.215C234.248 170.042 233.598 170.186 232.861 170.635C232.745 170.707 232.717 170.852 232.789 170.967C232.861 171.083 233.005 171.112 233.121 171.04C233.728 170.664 234.234 170.533 234.638 170.664C235.115 170.823 235.216 171.387 234.927 172.356C234.884 172.486 234.97 172.616 235.086 172.659C235.115 172.659 235.129 172.659 235.158 172.659V172.674Z" fill="#8C5944"/>
<path d="M236.646 178.906C236.473 179.572 235.346 180.208 233.872 180.439C232.904 180.627 231.763 180.598 230.665 180.28C229.452 179.933 228.484 179.297 227.819 178.574C226.938 177.677 226.548 176.665 226.707 176.057C226.822 175.681 227.111 175.493 227.559 175.45C228.44 175.363 229.914 175.797 231.734 176.303C233.93 176.94 235.953 177.518 236.516 178.299C236.661 178.487 236.69 178.689 236.646 178.906Z" fill="#894545"/>
<path d="M236.531 178.299C233.786 178.892 230.752 178.328 228.469 176.636C228.036 176.318 227.718 175.898 227.573 175.45C228.455 175.363 229.928 175.797 231.749 176.303C233.945 176.94 235.967 177.518 236.531 178.299V178.299Z" fill="white"/>
<path d="M233.872 180.439C232.904 180.627 231.763 180.599 230.665 180.28C229.452 179.933 228.484 179.297 227.819 178.574C229.119 178.212 230.492 178.314 231.72 178.849C232.558 179.225 233.28 179.745 233.872 180.439V180.439Z" fill="#9B5353"/>
<path d="M246.716 153.83C246.716 153.83 248.869 148.422 242.266 139.412C238.033 133.642 225.739 132.225 215.25 134.163C204.761 136.1 200.21 140.67 199.864 148.19C199.517 155.725 198.751 165.125 198.751 165.125L202.825 168.234C209.211 163.968 208.575 147.771 208.575 147.771C209.298 149.072 210.656 149.94 212.115 150.186C213.574 150.446 215.149 150.012 216.276 149.043C216.911 150.49 218.356 151.56 219.902 151.863C221.448 152.153 223.138 151.646 224.251 150.533C225.06 151.704 226.403 152.442 227.819 152.543C229.235 152.659 230.694 152.095 231.662 151.054C232.211 152.644 233.872 153.83 235.548 153.975C237.224 154.119 238.958 153.194 239.767 151.719C240.301 152.89 241.501 153.816 242.743 154.163C243.985 154.495 245.647 154.582 246.702 153.83H246.716Z" fill="#1B1B28"/>
<path d="M195.313 174.669C197.783 177.619 201.698 178.429 204.039 176.463C206.379 174.496 206.278 170.504 203.793 167.554C201.323 164.604 197.407 163.794 195.067 165.761C192.727 167.728 192.828 171.719 195.313 174.669Z" fill="#9E6C52"/>
<path d="M196.685 167.207C197.74 166.643 199.141 166.672 200.441 167.279C201.091 167.583 201.554 167.945 201.872 168.393C202.291 168.986 202.406 169.738 202.175 170.345C201.973 170.895 201.525 171.242 201.149 171.56C200.875 171.791 200.6 172.008 200.456 172.254C200.225 172.645 200.282 173.194 200.586 173.541C200.889 173.874 201.438 173.99 201.843 173.802C202.088 173.686 202.377 173.802 202.478 174.033C202.594 174.279 202.478 174.568 202.247 174.669C201.987 174.785 201.698 174.857 201.409 174.857C200.831 174.857 200.254 174.626 199.863 174.192C199.271 173.541 199.17 172.529 199.603 171.777C199.835 171.372 200.196 171.068 200.514 170.823C200.831 170.562 201.135 170.316 201.25 170.013C201.366 169.709 201.294 169.29 201.063 168.957C200.961 168.827 200.846 168.697 200.701 168.581C200.225 168.581 199.618 168.726 199.314 169.058C198.968 169.434 198.809 169.969 198.895 170.475C198.939 170.736 198.765 170.982 198.491 171.025C198.462 171.025 198.433 171.025 198.419 171.025C198.188 171.025 197.985 170.851 197.942 170.62C197.812 169.825 198.058 168.986 198.607 168.393C198.809 168.176 199.069 168.017 199.329 167.901C198.534 167.684 197.74 167.728 197.133 168.046C196.382 168.451 195.804 169.478 196.194 170.316C196.309 170.562 196.194 170.851 195.963 170.953C195.717 171.068 195.428 170.953 195.327 170.721C194.764 169.492 195.385 167.872 196.685 167.178V167.207Z" fill="#8C5944"/>
<path d="M174.87 128.291L223.701 112.803C224.034 112.702 224.409 112.702 224.742 112.832L271.941 130.186C273.386 130.721 273.313 132.803 271.84 133.223L244.563 141.119C243.436 138.284 240.908 136.057 236.978 136.028C227.646 135.941 218.211 134.944 209.225 138.082C207.434 138.704 206.105 139.716 205.151 140.945L174.884 131.343C173.396 130.865 173.396 128.754 174.884 128.291H174.87Z" fill="#1E1A29"/>
<path d="M262.232 152.355C262.232 151.994 262.391 151.603 262.651 151.343C262.709 151.285 262.796 151.256 262.868 151.198C263.041 143.114 262.868 135.016 262.333 126.946C262.276 126.035 263.691 126.035 263.764 126.946C264.298 134.987 264.472 143.042 264.298 151.112C264.761 151.343 265.093 151.791 265.093 152.355L265.064 155.363C265.064 155.725 264.905 156.115 264.645 156.376C264.399 156.621 263.995 156.809 263.634 156.795C262.868 156.766 262.203 156.173 262.203 155.363L262.232 152.355V152.355Z" fill="#24C79D"/>
<path d="M246.918 150.794C246.918 150.794 223.528 139.485 199.733 150.794L201.091 130.909C201.091 130.909 221.895 119.412 246.933 130.909V150.794H246.918Z" fill="#37474F"/>
<path d="M246.918 214.091C246.918 214.091 270.438 241.525 282.025 259.905C282.025 259.905 292.528 238.531 299.087 210.577L310.891 213.817C310.891 213.817 300.171 282.885 282.675 282.885C265.18 282.885 246.918 252.891 246.918 252.891V214.077V214.091Z" fill="#9E6C52"/>
<path d="M316.366 191.372C314.734 192.544 311.57 194.004 309.851 195.06C310.92 193.252 313 191.127 313.795 189.189C314.069 188.509 314.358 187.685 313.737 187.222C313.202 186.832 312.278 186.803 311.83 187.381C310.154 189.55 307.727 192.052 305.935 194.135C306.658 191.141 307.351 187.931 307.264 184.836C307.25 184.098 306.918 183.26 306.195 183.173C305.444 183.086 305.126 183.563 304.881 184.257L301.269 194.785C301.095 194.004 300.937 193.209 300.778 192.428L299.275 185.168C299.131 184.46 298.351 184.026 297.671 184.127C296.964 184.228 296.415 184.836 296.415 185.573C296.415 191.965 297.253 198.328 298.249 204.634C298.322 205.067 298.379 205.487 298.452 205.921C297.007 205.125 295.447 204.547 293.742 204.619C292.514 204.677 291.112 205.039 290.217 205.935C289.726 206.412 289.379 207.092 289.379 207.786C289.379 208.683 290.014 209.464 290.881 209.681C291.199 209.767 291.503 209.753 291.82 209.724L292.052 209.695C292.052 209.695 292.052 209.695 292.109 209.695C292.21 209.695 292.312 209.681 292.413 209.681C292.528 209.681 292.658 209.681 292.774 209.681H292.889C293.15 209.767 293.41 209.825 293.655 209.912C293.698 209.912 293.742 209.941 293.756 209.955C293.857 209.999 293.944 210.042 294.045 210.086C294.276 210.201 294.493 210.317 294.71 210.447C295.158 210.707 295.577 210.982 295.996 211.286C298.018 212.689 300.07 214.019 302.439 214.771C305.025 215.595 307.871 215.538 310.313 214.308C310.515 214.207 310.674 214.048 310.79 213.86C313.159 212.139 314.112 209.015 314.026 206.152C313.939 203.274 313.101 200.411 311.7 197.895C313.809 196.651 315.846 195.32 317.84 193.889C318.461 193.44 318.808 192.587 318.346 191.893C317.941 191.286 317.016 190.91 316.352 191.387L316.366 191.372Z" fill="#9E6C52"/>
<path d="M294.276 226.528L296.573 216.781C296.573 216.781 305.328 214.959 310.457 220.527L307.828 232.226L294.262 226.528H294.276Z" fill="#FBF8E9"/>
<path d="M246.918 214.091C246.918 214.091 272.288 241.742 281.808 257.837C281.808 257.837 290.506 237.476 293.944 225.66L308.709 231.243C308.709 231.243 299.853 281.973 284.264 283.781C268.676 285.589 244.751 252.255 244.751 252.255L246.918 214.091V214.091Z" fill="#37474F"/>
<path d="M179.03 223.665C179.03 223.665 146.264 260.238 144.631 367.889H157.966C157.966 367.889 160.48 302.032 183.018 261.93L179.045 223.665H179.03Z" fill="#9E6C52"/>
<path d="M156.984 365.301C156.738 364.867 156.276 364.867 155.944 365.084C155.886 365.041 155.814 364.997 155.727 364.968C152.65 363.927 148.98 363.016 146.279 365.359C144.083 367.253 142.768 370.377 142.045 373.038C140.5 378.736 141.468 385.012 144.863 389.958C145.036 390.218 145.311 390.305 145.571 390.276C146.105 391.375 146.842 392.344 147.954 392.98C148.33 393.197 148.677 393.052 148.893 392.807C149.052 392.995 149.226 393.168 149.428 393.327C150.15 393.862 151.061 393.949 151.797 393.631C152.433 393.978 153.17 394.021 153.863 393.559C155.207 392.648 154.846 391.028 154.586 389.726C154.253 388.005 154.123 386.256 154.167 384.506C154.239 381.801 154.788 379.141 155.727 376.595L155.9 377.897C156.074 379.184 156.103 380.601 156.449 381.859C156.709 382.785 157.649 383.595 158.689 383.161C159.714 382.727 159.758 381.368 159.888 380.471C160.625 375.265 159.584 369.929 156.998 365.286L156.984 365.301Z" fill="#9E6C52"/>
<path d="M144.632 338.214L143.88 354.397C143.88 354.397 150.41 359.53 160.105 356.262L162.257 340.051L144.632 338.2V338.214Z" fill="#FBF8E9"/>
<path d="M186.138 214.091C186.138 214.091 149.298 239.5 143.071 340.065L163.832 342.263C163.832 342.263 167.025 302.104 181.125 274.092L186.138 214.091V214.091Z" fill="#37474F"/>
<path d="M226.013 207.135L244.505 212.862C244.505 212.862 254.012 288.119 258.534 346.139C200.282 357.824 175.419 346.009 175.419 346.009C178.886 277.693 189.447 212.862 189.447 212.862L207.824 207.135C213.646 215.812 219.699 216.304 225.998 207.135H226.013Z" fill="#69BCB6"/>
<path d="M166.953 481.73C226.345 502.279 264.385 481.73 264.385 481.73C269.311 394.252 251.498 217.548 246.918 214.106C246.037 213.426 244.693 212.761 243.104 212.096C236.588 209.42 226.027 207.135 226.027 207.135C219.974 216.232 213.906 215.899 207.838 207.135C201.106 208.798 194.475 210.837 188.017 213.354C187.367 213.6 186.731 213.845 186.095 214.106C177.499 250.375 166.953 481.73 166.953 481.73Z" fill="#37474F"/>
<path d="M188.017 213.354C191.643 216.492 212.028 233.932 218.298 233.932C225.175 233.932 243.09 212.096 243.09 212.096C236.574 209.42 226.013 207.135 226.013 207.135C219.656 216.347 213.603 215.798 207.824 207.135C201.091 208.798 194.46 210.837 188.002 213.354H188.017Z" fill="#FBF8E9"/>
<path d="M218.63 214.164C218.717 214.482 224.019 231.315 224.019 231.315L218.298 233.932L211.58 231.243L216.088 214.164H218.616H218.63Z" fill="#1E1A29"/>
<path d="M189.664 212.124C194.547 215.986 199.43 219.832 204.313 223.694C206.668 225.545 209.009 227.425 211.363 229.261C213.386 230.838 215.943 232.848 218.76 232.154C221.274 231.532 223.499 229.478 225.478 227.974C227.516 226.412 229.524 224.807 231.431 223.115C235.462 219.558 239.102 215.639 242.049 211.213C243.032 209.753 245.488 211.098 244.506 212.573C241.313 217.345 237.369 221.597 232.991 225.4C230.766 227.338 228.44 229.175 226.056 230.939C223.918 232.515 221.693 234.366 218.948 234.858C216.218 235.35 213.646 234.251 211.479 232.761C208.85 230.953 206.408 228.842 203.909 226.875C198.477 222.595 193.059 218.3 187.627 214.019C186.211 212.905 188.233 210.996 189.635 212.11L189.664 212.124Z" fill="#24C79D"/>
</svg>
