<svg width="76" height="76" viewBox="0 0 76 76" fill="none" xmlns="http://www.w3.org/2000/svg">
<rect width="76" height="76" rx="38" fill="#F6F9FB"/>
<path d="M38.0235 49.6309C37.6236 49.6309 37.1074 49.4859 36.8565 49.6729C36.6202 49.8476 36.6566 50.3718 36.5857 50.7422C35.8949 54.3799 32.6757 57.3362 28.7965 57.8918C23.5668 58.6414 18.7425 55.1294 18.0717 50.0852C17.4755 45.6053 20.662 41.2897 25.2119 40.2466C29.4946 39.2647 33.8645 41.2897 35.7568 44.9921C36.2149 45.8884 36.4057 46.9193 36.6566 47.9029C36.7438 48.2436 36.8111 48.4201 37.2164 48.3939C37.7618 48.3607 38.3107 48.3712 38.8561 48.3904C39.1724 48.4026 39.3123 48.3118 39.3487 47.992C39.6559 45.221 41.0701 43.0876 43.4368 41.5168C47.1124 39.0777 52.313 39.6526 55.3978 42.7574C58.5098 45.8884 58.9333 50.8051 56.1103 54.4533C53.2891 58.098 47.8104 59.0939 43.7804 56.6897C41.2046 55.1539 39.7104 52.9297 39.3505 50.0258C39.3105 49.6973 39.1978 49.5576 38.8433 49.5925C38.5725 49.6187 38.2962 49.5977 38.0235 49.5977V49.6274V49.6309ZM46.3562 49.9751C44.3112 48.0445 44.9874 45.9897 46.0563 44.8645C47.2142 43.645 49.3646 43.4807 50.7679 44.4959C51.5132 45.0357 52.0058 45.7504 52.1639 46.6432C52.3948 47.9571 51.9622 49.0631 50.917 49.9594C52.882 50.8557 54.0962 52.2622 54.5416 54.2663C56.3993 52.5698 57.3864 49.3828 56.3212 46.4807C55.1142 43.1942 51.984 41.108 48.4593 41.1936C44.9329 41.2792 41.9299 43.486 40.8756 46.7183C39.9649 49.5139 40.972 52.7585 42.7352 54.2593C43.2133 52.2745 44.373 50.826 46.358 49.9769L46.3562 49.9751ZM25.0901 49.9664C23.1324 48.207 23.6941 45.8849 24.9011 44.7859C26.2808 43.5279 28.4457 43.5069 29.8454 44.744C31.4014 46.1208 31.3487 47.9449 29.6782 49.9839C30.6179 50.3613 31.4723 50.8837 32.0322 51.6909C32.5775 52.4789 32.9792 53.3613 33.43 54.179C36.4075 51.2856 36.1694 46.0858 32.8574 43.2239C29.3782 40.2187 24.0485 40.6048 21.1274 44.0381C18.208 47.4714 19.0806 52.084 21.4909 54.2593C21.9363 52.2553 23.1542 50.8505 25.0919 49.9664H25.0901ZM48.5884 56.7963C50.2189 56.805 51.7895 56.3542 53.0528 55.5488C53.3019 55.3898 53.3928 55.222 53.36 54.9442C53.2619 54.1178 53.011 53.3525 52.4911 52.6728C51.3023 51.1143 49.4173 50.4347 47.485 50.8837C45.6363 51.3153 44.1985 52.8738 43.9149 54.7241C43.8477 55.1609 43.9695 55.4335 44.3766 55.6623C45.6818 56.3927 47.0742 56.7998 48.5884 56.798V56.7963ZM27.3841 56.798C28.9856 56.798 30.458 56.3874 31.8031 55.5418C32.0485 55.3863 32.154 55.2203 32.1194 54.939C31.9031 53.211 31.0069 51.946 29.38 51.1667C26.4898 49.7829 22.7997 51.8796 22.6652 54.9774C22.6543 55.2448 22.7397 55.3968 22.9688 55.54C24.3121 56.3874 25.7845 56.798 27.386 56.798H27.3841ZM29.7236 47.2582C29.7145 46.0089 28.6729 45.0148 27.3841 45.027C26.1062 45.0392 25.0447 46.0579 25.0447 47.2739C25.0447 48.497 26.1608 49.5593 27.4259 49.5418C28.702 49.5244 29.7309 48.5005 29.7218 47.2582H29.7236ZM46.3053 47.2582C46.2962 48.5005 47.3251 49.5244 48.6011 49.5436C49.8681 49.561 50.9824 48.5005 50.9824 47.2774C50.9824 46.0614 49.9226 45.041 48.6448 45.0288C47.356 45.0165 46.3126 46.0089 46.3053 47.2582Z" fill="#24C79D"/>
<path d="M47.9995 28.7188C48.0411 32.3187 45.209 36.1525 41.3986 37.4649C41.0249 37.5936 40.7885 37.8093 40.5971 38.1501C39.969 39.2649 39.3156 40.367 38.6657 41.4691C38.2488 42.1761 37.7506 42.1779 37.3445 41.4691C36.6928 40.3308 36.0647 39.1779 35.4004 38.045C35.2849 37.8474 35.0665 37.6552 34.8535 37.5755C30.9131 36.1 28.6244 33.2758 28.0756 29.0994C27.5052 24.7526 30.2164 20.2898 34.3481 18.7436C38.2289 17.2953 41.7884 17.9624 44.8462 20.7466C46.9797 22.6898 47.9869 25.2185 47.9977 28.7188H47.9995ZM38.0123 40.1295C38.5556 39.1942 39.0863 38.3586 39.5376 37.4812C39.8535 36.8667 40.3029 36.535 40.9491 36.3102C43.0411 35.5834 44.6332 34.2057 45.6891 32.2607C47.6006 28.7405 46.8985 24.4626 44.005 21.6711C40.5321 18.3177 34.8373 18.5044 31.572 22.0771C27.2002 26.8626 29.285 34.5646 35.469 36.4589C35.8643 36.5803 36.1297 36.7888 36.3282 37.1513C36.8553 38.1211 37.413 39.0746 38.0105 40.1295H38.0123Z" fill="#24C79D"/>
<path d="M37.4376 30.203C37.471 29.0452 37.9049 28.1486 38.5742 27.3561C38.8696 27.0084 39.1633 26.6571 39.432 26.2847C39.9344 25.5911 39.9561 24.8163 39.5238 24.105C39.1383 23.4714 38.3672 23.1431 37.6329 23.2966C36.8451 23.4625 36.3394 24.0167 36.2025 24.871C36.1908 24.9487 36.1708 25.0245 36.1625 25.1004C36.1241 25.5134 35.9438 25.787 35.5199 25.7658C35.1627 25.7482 34.9524 25.4164 35.0092 24.9345C35.1594 23.6532 35.7719 22.7089 36.9235 22.2377C38.0768 21.7664 39.1567 22.0011 40.0412 22.896C40.9208 23.7855 41.2412 24.9081 40.809 26.1453C40.6354 26.6413 40.2832 27.0737 39.9811 27.5096C39.634 28.0109 39.2 28.4521 38.9063 28.9834C38.7077 29.3417 38.6576 29.8059 38.5925 30.2312C38.5074 30.789 38.3322 31.029 37.945 30.9972C37.5628 30.9672 37.4075 30.6989 37.4359 30.2012L37.4376 30.203Z" fill="#24C79D"/>
<path d="M37.9714 33.0002C38.5252 32.9923 38.992 33.2151 38.9999 33.4929C39.0078 33.7667 38.541 34.0026 37.9925 34C37.4677 33.9987 37.022 33.7838 37.0009 33.5217C36.9772 33.2426 37.4123 33.0094 37.9714 33.0002V33.0002Z" fill="#24C79D"/>
</svg>
