<svg width="76" height="76" viewBox="0 0 76 76" fill="none" xmlns="http://www.w3.org/2000/svg">
<rect width="76" height="76" rx="38" fill="#F6F9FB"/>
<path d="M26.784 51.2576V50.4516C26.784 39.9678 26.784 29.4821 26.784 18.9983C26.784 18.0252 26.7995 18.0097 27.7725 18.0097C34.3196 18.0097 40.8646 18.0136 47.4117 18C47.8836 18 48.2099 18.1457 48.5304 18.4855C50.8163 20.9035 53.1177 23.3079 55.425 25.7046C55.7047 25.9939 55.8348 26.2833 55.8348 26.6951C55.8232 35.5164 55.829 44.3357 55.8251 53.157C55.8251 55.5342 54.6656 57.1948 52.5429 57.8085C52.0709 57.9464 51.5562 57.9872 51.059 57.9872C42.9738 57.9969 34.8886 57.96 26.8034 58.0105C23.292 58.0318 20.975 54.8914 21.0002 51.7781C21.0041 51.345 21.2702 51.2537 21.6431 51.2556C23.1463 51.2634 24.6476 51.2576 26.1508 51.2576C26.3431 51.2576 26.5354 51.2576 26.784 51.2576V51.2576ZM27.7104 51.2576H28.3979C34.4613 51.2576 40.5248 51.2576 46.5882 51.2576C47.3767 51.2576 47.466 51.3217 47.4291 52.1199C47.3787 53.2289 47.6098 54.2621 48.2216 55.1808C48.8819 56.1732 49.7073 57.0297 50.9852 57.0763C53.3935 57.1618 54.9414 55.6022 54.9414 53.1551C54.9473 44.5494 54.9434 35.9436 54.9434 27.3399V26.7844C54.6734 26.7844 54.4792 26.7844 54.283 26.7844C52.2807 26.7844 50.2764 26.7844 48.274 26.7844C47.5224 26.7844 47.4311 26.6931 47.4291 25.959C47.4291 23.8129 47.4291 21.6649 47.4291 19.5188C47.4291 19.3304 47.4136 19.142 47.4039 18.9517H27.7104V51.2576ZM46.4989 52.1723H21.9247C22.0509 54.5903 23.8435 57.1307 26.8617 57.1093C33.9272 57.0588 40.9928 57.0938 48.0584 57.0918C48.2274 57.0918 48.3963 57.0763 48.6644 57.0646C47.1611 55.7226 46.4911 54.1067 46.5008 52.1743L46.4989 52.1723ZM54.3083 25.823C52.2787 23.7216 50.3424 21.7173 48.3536 19.6567V25.823H54.3083Z" fill="#24C79D"/>
<path d="M43.772 31.5796C41.2317 31.5796 38.6913 31.5796 36.1529 31.5796C35.9917 31.5796 35.8072 31.6204 35.6771 31.5563C35.5081 31.4709 35.2479 31.2805 35.2654 31.1718C35.2926 30.995 35.4907 30.8183 35.6596 30.6979C35.7587 30.628 35.9374 30.6649 36.0791 30.6649C41.2297 30.6649 46.3823 30.6649 51.5329 30.6649C51.6747 30.6649 51.8514 30.6357 51.9524 30.7057C52.1097 30.8144 52.3175 30.9989 52.3156 31.1465C52.3117 31.2903 52.0884 31.467 51.9233 31.5544C51.797 31.6224 51.6087 31.5796 51.4475 31.5796C48.8896 31.5796 46.3318 31.5796 43.774 31.5796H43.772Z" fill="#24C79D"/>
<path d="M31.6452 34.586C31.0024 34.586 30.3595 34.5802 29.7167 34.586C29.2525 34.5919 29.0311 34.386 29.035 33.9082C29.0466 32.7837 29.0447 31.6573 29.035 30.5328C29.0311 30.0686 29.2175 29.8433 29.7031 29.8491C31.0237 29.8608 32.3464 29.8588 33.667 29.8491C34.1137 29.8472 34.3157 30.0336 34.3099 30.492C34.2963 31.634 34.2924 32.7779 34.3099 33.9199C34.3177 34.419 34.0749 34.586 33.6243 34.5841C32.964 34.5783 32.3036 34.5841 31.6433 34.5841L31.6452 34.586ZM29.9789 30.7775V33.6363H33.366V30.7775H29.9789Z" fill="#24C79D"/>
<path d="M31.6627 41.9585C31.0004 41.9585 30.3381 41.943 29.6778 41.9644C29.2466 41.978 29.0408 41.7993 29.0408 41.3739C29.0408 40.1931 29.0408 39.0123 29.0408 37.8314C29.0408 37.4411 29.233 37.2294 29.6312 37.2294C30.9907 37.2294 32.3502 37.2294 33.7078 37.2294C34.1312 37.2294 34.3137 37.443 34.3099 37.8664C34.3001 39.0298 34.3001 40.1912 34.3099 41.3545C34.3137 41.7837 34.1389 41.9741 33.702 41.9624C33.0222 41.9449 32.3424 41.9585 31.6627 41.9585V41.9585ZM29.9769 38.1597V41.0457H33.3563V38.1597H29.9769Z" fill="#24C79D"/>
<path d="M31.6646 49.3485C31.0043 49.3485 30.342 49.3349 29.6817 49.3543C29.2525 49.3679 29.0427 49.1853 29.0427 48.7639C29.0388 47.585 29.0408 46.4061 29.0427 45.2272C29.0427 44.7999 29.2661 44.6309 29.6856 44.6348C31.0062 44.6465 32.3288 44.6465 33.6495 44.6348C34.0923 44.6309 34.3137 44.7941 34.3099 45.2602C34.3001 46.4216 34.3021 47.583 34.3099 48.7444C34.3118 49.1678 34.1389 49.3659 33.7 49.3562C33.0222 49.3407 32.3424 49.3523 31.6646 49.3523V49.3485ZM33.3582 48.4395V45.569H29.9905V48.4395H33.3582Z" fill="#24C79D"/>
<path d="M43.7817 46.3498C41.2064 46.3498 38.633 46.3498 36.0577 46.3498C35.8965 46.3498 35.7062 46.3905 35.5839 46.3187C35.4362 46.2313 35.2576 46.0448 35.2576 45.9031C35.2576 45.7632 35.446 45.5826 35.5955 45.4991C35.7198 45.4292 35.9101 45.47 36.0694 45.47C41.2181 45.47 46.3687 45.47 51.5173 45.47C51.6611 45.47 51.8359 45.4233 51.9388 45.4894C52.0981 45.5904 52.3098 45.771 52.3078 45.9167C52.3059 46.0623 52.0883 46.2371 51.9291 46.3342C51.8242 46.3983 51.6494 46.3517 51.5076 46.3517C48.9323 46.3517 46.359 46.3517 43.7837 46.3517L43.7817 46.3498Z" fill="#24C79D"/>
<path d="M43.7663 38.956C41.2084 38.956 38.6526 38.956 36.0947 38.956C35.9335 38.956 35.749 38.9948 35.6189 38.9307C35.4655 38.853 35.2674 38.688 35.2596 38.5501C35.2518 38.4064 35.4208 38.216 35.5606 38.1111C35.6558 38.0393 35.8364 38.0723 35.9782 38.0723C41.1812 38.0723 46.3862 38.0723 51.5893 38.0723C51.6961 38.0723 51.8379 38.0315 51.9039 38.084C52.0671 38.2121 52.2749 38.3675 52.3098 38.5442C52.3312 38.6491 52.0807 38.8511 51.9136 38.9366C51.7855 39.0026 51.599 38.9579 51.4378 38.9579C48.88 38.9579 46.3241 38.9579 43.7663 38.9579V38.956Z" fill="#24C79D"/>
<path d="M41.1443 48.1598C39.4118 48.1598 37.6794 48.1598 35.947 48.1598C35.6052 48.1598 35.242 48.1093 35.244 47.6879C35.2459 47.2587 35.6169 47.2354 35.9567 47.2373C39.4216 47.2373 42.8864 47.2373 46.3512 47.2373C46.4231 47.2373 46.5143 47.2101 46.5609 47.2451C46.7454 47.3771 46.9144 47.5267 47.0892 47.6704C46.9105 47.8316 46.7454 48.1113 46.5512 48.1326C46.0055 48.1948 45.4461 48.1482 44.8926 48.1482C43.6419 48.1482 42.3931 48.1482 41.1423 48.1482V48.1598H41.1443Z" fill="#24C79D"/>
<path d="M41.1521 33.3567C39.4003 33.3567 37.6465 33.3528 35.8947 33.3586C35.582 33.3586 35.2751 33.3159 35.2479 32.9566C35.2169 32.5565 35.5179 32.4711 35.8617 32.4711C37.2037 32.4749 38.5438 32.4711 39.8858 32.4711C42.0669 32.4711 44.2499 32.473 46.4309 32.4691C46.7397 32.4691 47.0485 32.5002 47.0757 32.8692C47.1048 33.2673 46.8116 33.3567 46.4659 33.3567C44.6946 33.3509 42.9253 33.3547 41.1541 33.3547L41.1521 33.3567Z" fill="#24C79D"/>
<path d="M41.119 39.8668C42.834 39.8668 44.547 39.8668 46.2619 39.8668C46.4231 39.8668 46.6037 39.8357 46.7377 39.8998C46.8776 39.9659 47.064 40.131 47.064 40.2514C47.064 40.4067 46.9242 40.5951 46.7921 40.7058C46.7008 40.7816 46.5202 40.7583 46.3784 40.7583C42.8961 40.7602 39.4158 40.7583 35.9335 40.7583C35.8267 40.7583 35.6849 40.7893 35.6208 40.733C35.4732 40.6068 35.2615 40.432 35.2654 40.2844C35.2693 40.1445 35.4984 39.9736 35.6655 39.8882C35.7936 39.8222 35.9801 39.8668 36.1413 39.8668C37.8018 39.8668 39.4624 39.8668 41.1229 39.8668H41.119Z" fill="#24C79D"/>
<path d="M33.0124 25.6483C31.8879 25.6483 30.7615 25.6483 29.6369 25.6483C29.3223 25.6483 28.9786 25.6444 28.9727 25.2191C28.9669 24.7607 29.3281 24.7568 29.6622 24.7568C31.8957 24.7568 34.1272 24.7568 36.3607 24.7568C36.4326 24.7568 36.5277 24.7296 36.5705 24.7646C36.7414 24.9044 36.8987 25.0637 37.0599 25.2171C36.8909 25.3609 36.7239 25.6211 36.5491 25.6269C35.3722 25.6638 34.1913 25.6463 33.0124 25.6463V25.6483Z" fill="#24C79D"/>
<path d="M32.0608 22.9797C32.8843 22.9797 33.7058 22.9778 34.5293 22.9797C34.8634 22.9797 35.2304 23.0011 35.2071 23.4575C35.1877 23.8576 34.8537 23.8925 34.5293 23.8906C32.9018 23.8886 31.2743 23.8867 29.6467 23.8867C29.3301 23.8867 28.9922 23.877 28.9708 23.4594C28.9475 22.9933 29.3127 22.9836 29.6448 22.9797C30.4488 22.9758 31.2548 22.9797 32.0589 22.9797H32.0608Z" fill="#24C79D"/>
<path d="M38.1417 24.5762C38.3379 24.8772 38.5496 25.0578 38.5302 25.2093C38.5108 25.3666 38.2622 25.6094 38.1223 25.6036C37.9747 25.5977 37.7319 25.3511 37.7203 25.1977C37.7086 25.0423 37.93 24.8675 38.1417 24.5762V24.5762Z" fill="#24C79D"/>
</svg>
