<svg width="76" height="76" viewBox="0 0 76 76" fill="none" xmlns="http://www.w3.org/2000/svg">
<rect width="76" height="76" rx="38" fill="#F6F9FB"/>
<path d="M52.9918 41.2007C52.9918 46.0843 52.9938 50.9678 52.9918 55.8533C52.9918 57.4423 52.1747 58.5262 50.6925 58.9167C50.4593 58.9788 50.2059 58.9963 49.9626 58.9963C41.6555 59.0002 33.3485 59.0021 25.0414 58.9963C23.4416 58.9963 22.1825 57.8755 22.0446 56.3506C22.0223 56.1155 22.0101 55.8785 22.0101 55.6416C22.0061 43.8834 22.0122 32.1213 22 20.3573C22 19.0383 22.3832 17.9447 23.6809 17.3367C24.1067 17.1366 24.6237 17.02 25.1002 17.0181C31.1505 16.9967 37.1989 16.9928 43.2492 17.0142C44.6543 17.02 45.9277 17.4998 46.9496 18.4245C48.4115 19.7454 49.8308 21.113 51.2379 22.4883C52.4727 23.6927 53.008 25.1612 52.9999 26.8551C52.9776 31.6376 52.9918 36.4202 52.9918 41.2027V41.2007ZM42.2962 18.2283H41.7062C36.2743 18.2283 30.8403 18.2283 25.4084 18.2283C23.9566 18.2283 23.2875 18.8519 23.2875 20.2272C23.2855 32.0747 23.2875 43.9222 23.2875 55.7698C23.2875 57.147 23.9546 57.7764 25.3983 57.7764C33.46 57.7764 41.5197 57.7764 49.5814 57.7764C51.0595 57.7764 51.7144 57.1529 51.7144 55.7426C51.7144 46.4301 51.7144 37.1175 51.7144 27.805V27.2553C49.5287 27.2553 47.4301 27.2728 45.3315 27.2436C44.851 27.2378 44.334 27.1543 43.9021 26.9658C42.7484 26.4608 42.2983 25.505 42.2942 24.3318C42.2881 22.3212 42.2942 20.3126 42.2942 18.2302L42.2962 18.2283ZM51.6374 26.0315C51.5299 24.8757 50.9764 23.986 50.1998 23.2187C48.9954 22.0298 47.7748 20.8585 46.5339 19.7066C45.7229 18.9529 44.78 18.4148 43.5898 18.2924C43.5898 20.4428 43.5594 22.5699 43.6061 24.695C43.6223 25.4759 44.2772 26.012 45.1389 26.0218C47.2882 26.049 49.4395 26.0315 51.6394 26.0315H51.6374Z" fill="#24C79D"/>
<path d="M26.0019 40.9978C26.0019 40.2823 25.9976 39.5668 26.0019 38.8535C26.0083 38.271 26.2165 38.0198 26.7796 38.0135C28.2565 37.9966 29.7334 37.9945 31.2081 38.0135C31.7564 38.0198 31.9901 38.2942 31.9944 38.8619C32.0008 40.2907 32.0029 41.7217 31.9944 43.1505C31.9901 43.7225 31.7734 43.9757 31.1996 43.9842C29.7228 44.0053 28.248 44.0053 26.7711 43.9842C26.1953 43.9757 26.0083 43.7351 26.004 43.1421C25.9976 42.4266 26.004 41.7132 26.004 40.9978H26.0019ZM27.3683 42.6018H30.5749V39.4085H27.3683V42.6018Z" fill="#24C79D"/>
<path d="M28.9448 35.9972C28.2251 35.9972 27.5074 36.0035 26.7877 35.9972C26.2378 35.9908 26.0106 35.7741 26.0064 35.2322C25.9979 33.7555 25.9979 32.2809 26.0064 30.8042C26.0085 30.2603 26.2357 30.0138 26.7707 30.0096C28.2442 29.9968 29.7197 29.9968 31.1953 30.0096C31.7473 30.0138 31.9894 30.2752 31.9936 30.8425C32.0021 32.2809 32.0021 33.7215 31.9936 35.16C31.9894 35.7698 31.7601 35.9929 31.1571 35.9972C30.4204 36.0035 29.6815 35.9972 28.9448 35.9972V35.9972ZM30.5902 31.3949H27.3758V34.6182H30.5902V31.3949Z" fill="#24C79D"/>
<path d="M40.9664 34.0157C43.2849 34.0157 45.6033 34.0157 47.9217 34.0157C48.0758 34.0157 48.2318 34.0035 48.3858 34.0279C48.765 34.092 49.002 34.455 49 35.0164C49 35.5381 48.7709 35.892 48.4154 35.9592C48.2456 35.9897 48.0738 35.9897 47.902 35.9897C43.2987 35.9897 38.6974 35.9897 34.0941 35.9897C33.8729 35.9897 33.6083 36.0476 33.4404 35.889C33.239 35.6968 32.9961 35.291 33 34.9859C33.006 34.6717 33.2587 34.3116 33.4582 34.0798C33.5708 33.9486 33.79 34.0187 33.9618 34.0187C36.298 34.0187 38.6322 34.0187 40.9684 34.0187L40.9664 34.0157Z" fill="#24C79D"/>
<path d="M41.5662 38.0031C44.0773 38.0031 46.5884 38.0031 49.0974 38.0093C49.2754 38.0093 49.5078 38 49.6167 38.1518C49.7969 38.3997 50 38.7746 50 39.0968C50 39.3726 49.7592 39.7289 49.5644 39.8931C49.3947 40.0387 49.1413 39.9922 48.9235 39.9953C43.9935 39.9984 39.0636 39.9984 34.1315 39.9953C33.3335 39.9953 33.0173 39.7258 33.0005 39.0379C32.9838 38.3346 33.3545 38.0031 34.1398 38.0062C36.6132 38.0062 39.0887 38.0062 41.5621 38.0062V38L41.5662 38.0031Z" fill="#24C79D"/>
<path d="M41.494 30.0196C43.9902 30.0196 46.4864 30.0196 48.9826 30.0196C49.1629 30.0196 49.4042 29.9459 49.5154 30.0842C49.7272 30.3453 49.9915 30.7294 49.9999 31.0735C50.0062 31.3562 49.6999 31.7126 49.4839 31.9277C49.3559 32.0536 49.1294 31.9768 48.949 31.9768C43.9923 31.9768 39.0355 31.9768 34.0788 31.9768C34.0599 31.9768 34.0432 31.9768 34.0243 31.9768C33.3006 31.9707 32.9839 31.6634 33.0006 30.9752C33.0174 30.3177 33.3279 30.0196 34.0075 30.0166C36.5037 30.0166 38.9999 30.0166 41.4961 30.0166L41.494 30.0196Z" fill="#24C79D"/>
<path d="M41.0341 42.0016C43.4558 42.0016 45.8756 42.0032 48.2974 42C48.643 42 48.9532 42.0761 48.9966 42.3631C49.0223 42.5328 48.8979 42.7612 48.7458 42.8912C48.6332 42.988 48.3645 42.9959 48.167 42.9959C43.3926 43.0006 38.6202 43.0006 33.8458 42.9991C33.3066 42.9991 33.0142 42.8183 33.0004 42.5011C32.9885 42.1665 33.2434 42.0048 33.8202 42.0032C36.2241 42 38.6281 42.0032 41.0321 42.0032L41.0341 42.0016Z" fill="#24C79D"/>
<path d="M30.5152 51C32.0561 51 33.5991 51 35.14 51C35.4886 51 35.8208 51.0222 35.9614 51.336C36.0878 51.6149 35.8942 51.9097 35.5191 51.9715C35.3316 52.0016 35.1319 52 34.9382 52C31.997 52 29.0558 52 26.1145 52C26.0269 52 25.9372 52 25.8496 52C25.2951 51.9857 24.9609 51.794 25.0037 51.4849C25.0546 51.1062 25.3991 51 25.8373 51C27.3966 51.0032 28.9559 51 30.5152 51V51Z" fill="#24C79D"/>
<path d="M44.4874 51.9984C42.9619 51.9984 41.4364 52.0047 39.9109 51.9922C39.6744 51.9906 39.399 51.9529 39.2134 51.8526C38.8484 51.6549 38.9769 51.1702 39.4072 51.0573C39.5867 51.0103 39.7906 51.0087 39.9844 51.0087C43.0007 51.0056 46.015 51.0071 49.0313 51.0087C49.172 51.0087 49.3576 50.9773 49.4474 51.0338C49.6595 51.1624 49.9409 51.3177 49.9878 51.4949C50.0572 51.7537 49.8247 51.9686 49.4351 51.9796C48.8151 51.9969 48.1952 51.9953 47.5731 51.9969C46.5452 52 45.5153 51.9969 44.4874 51.9969V51.9984Z" fill="#24C79D"/>
<path d="M44.5373 55.9971C43.0021 55.9971 41.4648 55.9971 39.9296 55.9971C39.5617 55.9971 39.2041 55.9784 39.0459 55.6623C38.9082 55.3868 39.089 55.1066 39.4754 55.0349C39.6624 55.0007 39.8638 55.0007 40.0591 55.0007C43.0062 54.9991 45.9534 55.0007 48.9005 55.0007C49.0074 55.0007 49.1142 55.0007 49.2211 55.0022C49.6465 55.0085 49.961 55.1346 49.998 55.4849C50.0288 55.7807 49.7041 55.9924 49.1985 55.9955C47.6448 56.0033 46.0911 55.9986 44.5373 55.9986V55.9971Z" fill="#24C79D"/>
<path d="M31.0187 55.0049C32.3724 55.0049 33.7261 55.0049 35.0799 55.0049C35.2582 55.0049 35.4704 54.9786 35.6056 55.0482C35.7783 55.1349 35.9942 55.3037 35.9999 55.4415C36.0055 55.601 35.8421 55.807 35.6788 55.9169C35.5511 56.0036 35.3089 55.9928 35.1174 55.9928C32.3931 55.9974 29.6706 55.9959 26.9463 55.9959C26.8487 55.9959 26.7492 56.0052 26.6534 55.9959C26.3004 55.9603 26.0038 55.8503 26 55.5128C25.9963 55.1613 26.2685 55.0126 26.6647 55.008C27.365 55.0018 28.0672 55.0049 28.7694 55.0049C29.5204 55.0049 30.2696 55.0049 31.0206 55.0049H31.0187Z" fill="#24C79D"/>
</svg>
