<svg width="76" height="76" viewBox="0 0 76 76" fill="none" xmlns="http://www.w3.org/2000/svg">
<rect width="76" height="76" rx="38" fill="#F6F9FB"/>
<path d="M38.3468 30.9667C38.3468 30.6976 38.2901 30.4284 38.3645 30.2053C38.4265 30.0229 38.646 29.8937 38.7965 29.7414C38.9435 29.8972 39.1542 30.03 39.218 30.2142C39.2923 30.4249 39.2357 30.6799 39.2357 30.9596H41.3073C41.3233 30.7223 41.2808 30.4532 41.3711 30.239C41.4543 30.0424 41.681 29.9061 41.8439 29.7432C41.9891 29.9185 42.1891 30.0743 42.2653 30.2761C42.3379 30.4656 42.2812 30.7046 42.2812 31.0021C42.5946 31.0021 42.8779 31.0021 43.1612 31.0021C44.4556 31.0092 45.1178 31.659 45.1214 32.9445C45.1267 35.3296 45.1214 37.7147 45.1214 40.0998C45.1214 41.2277 45.1267 42.3574 45.1214 43.4853C45.1143 44.7159 44.4627 45.3906 43.2338 45.3941C39.2835 45.4047 35.3331 45.403 31.3828 45.3941C30.099 45.3906 29.474 44.7496 29.4722 43.4712C29.4687 39.9582 29.4687 36.4434 29.4722 32.9304C29.4722 31.6396 30.1203 31.0074 31.4252 31.0003C31.6785 31.0003 31.9299 31.0003 32.2362 31.0003C32.2539 30.717 32.2097 30.4461 32.3 30.2319C32.3832 30.0353 32.6116 29.9025 32.7763 29.7414C32.9197 29.9185 33.118 30.0761 33.1924 30.2779C33.2632 30.4691 33.2083 30.7064 33.2083 30.9614H35.3012C35.3012 30.7188 35.2428 30.4674 35.3172 30.2655C35.3933 30.0637 35.6023 29.9114 35.7545 29.7361C35.9174 29.899 36.1458 30.0353 36.2273 30.2336C36.3087 30.4355 36.245 30.6958 36.245 30.9649H38.345L38.3468 30.9667ZM30.3876 35.6377V36.1866C30.3876 38.5717 30.3876 40.955 30.3876 43.3401C30.3876 44.2343 30.632 44.4804 31.5156 44.4804C35.3561 44.4804 39.1967 44.4804 43.0373 44.4804C43.9704 44.4804 44.1847 44.2644 44.1847 43.3153C44.1865 40.9497 44.1847 38.5823 44.1847 36.2167C44.1847 36.0255 44.1652 35.836 44.1528 35.6377H30.3876V35.6377ZM30.4018 34.6426H44.1528C44.1528 33.9237 44.2077 33.2314 44.1227 32.5568C44.0926 32.3266 43.7402 32.0326 43.4817 31.96C43.117 31.8573 42.7026 31.9335 42.1714 31.9335C42.3007 32.3213 42.3715 32.6276 42.5025 32.9038C42.6867 33.2898 42.6336 33.6174 42.3237 33.8883C42.0068 34.1663 41.6544 34.1521 41.3304 33.8918C40.9957 33.6227 40.9922 33.288 41.1515 32.9109C41.2755 32.6187 41.3534 32.3071 41.4685 31.9547H39.1967C39.3065 32.3177 39.3809 32.617 39.4871 32.9038C39.627 33.2774 39.6429 33.6156 39.3012 33.8883C38.9736 34.1504 38.6319 34.161 38.3043 33.8972C37.9679 33.628 37.9714 33.288 38.1201 32.9109C38.237 32.6152 38.3131 32.3053 38.4212 31.9583H36.1582C36.2751 32.3266 36.3495 32.6276 36.4646 32.9144C36.6168 33.2934 36.5974 33.6333 36.2733 33.9007C35.9475 34.1698 35.5987 34.1433 35.2764 33.8848C34.9383 33.6138 34.9453 33.2827 35.0941 32.9038C35.2092 32.6116 35.2694 32.2965 35.365 31.9459H33.1304C33.2331 32.2965 33.2791 32.6081 33.4137 32.8737C33.6209 33.281 33.5713 33.6192 33.2384 33.8989C32.9161 34.1716 32.562 34.1468 32.2451 33.8777C31.9193 33.6015 31.9228 33.2703 32.0892 32.8932C32.2167 32.6063 32.2822 32.2912 32.3938 31.9246C31.875 31.9246 31.512 31.9016 31.1526 31.9299C30.7205 31.9636 30.4248 32.2044 30.4071 32.6541C30.3823 33.304 30.4 33.9556 30.4 34.6426H30.4018Z" fill="#24C79D"/>
<path d="M57.1602 50.4547C57.1814 53.9588 54.4227 56.9335 50.9611 57.1389C47.3418 57.355 44.3565 54.8017 43.8607 51.2019C43.7793 50.614 43.7846 50.1324 43.882 49.5516C44.36 46.7168 46.6513 44.4521 49.4596 43.866C50.2351 43.7049 50.8708 43.8182 51.5649 43.9315C54.7662 44.4556 57.1407 47.2321 57.1584 50.4529L57.1602 50.4547ZM55.2833 53.5764C56.891 51.4037 56.4059 48.0926 54.2457 46.1643C52.0801 44.229 48.7513 44.3246 46.5468 46.3857C44.5601 48.2413 44.1883 51.5596 45.7429 53.5817C45.8385 53.4046 45.9253 53.224 46.0298 53.054C46.7611 51.8535 48.1546 51.4215 49.4224 51.9828C50.2192 52.3351 51.0071 52.2926 51.7898 51.896C52.0217 51.7791 52.305 51.703 52.5635 51.7083C53.8402 51.7313 54.7025 52.4059 55.2815 53.5799L55.2833 53.5764ZM50.4848 56.2394C51.8269 56.2501 53.2913 55.7153 54.2333 54.853C54.3555 54.7415 54.4953 54.5732 54.506 54.4227C54.5839 53.27 53.0894 52.2909 52.0359 52.792C51.0585 53.2559 50.0687 53.27 49.0824 52.8451C48.0324 52.3918 47.0178 52.8398 46.6052 53.9376C46.4512 54.3484 46.5025 54.6476 46.8638 54.9327C47.9297 55.7738 49.1249 56.2217 50.483 56.2394H50.4848Z" fill="#24C79D"/>
<path d="M24.6578 57.1602C21.5697 57.1602 18.8606 55.0283 18.1878 52.0642C17.4795 48.9549 18.9438 45.8279 21.784 44.5158C22.448 44.2077 23.2058 44.1015 23.9212 43.9032C24.0735 43.8607 24.2718 43.8624 24.3692 43.7633C24.633 43.4995 24.8543 43.5172 25.127 43.742C25.2421 43.8377 25.4156 43.8855 25.5679 43.9085C28.5515 44.3653 30.8144 46.6247 31.2464 49.5888C31.8201 50.2758 31.3102 50.9593 31.2004 51.6233C30.6692 54.8335 27.891 57.1602 24.6578 57.1619V57.1602ZM29.4209 53.6241C31.0393 51.3063 30.5683 47.9722 28.3904 46.1484C26.0283 44.1688 22.7526 44.3228 20.5286 46.5184C18.7013 48.321 18.3719 51.7419 19.8593 53.5214C20.0682 53.2293 20.2559 52.9212 20.4879 52.6503C21.274 51.7331 22.4728 51.494 23.5741 51.9845C24.3479 52.328 25.1111 52.2749 25.8919 51.9225C26.2496 51.7614 26.6976 51.687 27.0854 51.7348C28.2239 51.8747 28.9853 52.5582 29.4209 53.6259V53.6241ZM24.5817 56.2376C25.984 56.2376 27.2146 55.8056 28.277 54.9274C28.4329 54.7981 28.6188 54.598 28.6276 54.4227C28.656 53.7888 28.3213 53.3019 27.8096 52.969C27.328 52.6556 26.8127 52.4697 26.2213 52.7671C25.2368 53.2647 24.2187 53.2629 23.2129 52.8362C22.2426 52.4236 21.1501 52.8681 20.7641 53.8543C20.5835 54.3147 20.6401 54.6706 21.0651 54.9911C22.1187 55.7826 23.2873 56.2146 24.5817 56.2394V56.2376Z" fill="#24C79D"/>
<path d="M24.6259 18.0284C28.0238 17.9877 30.9189 20.5835 31.2571 23.946C31.2588 23.9637 31.2553 23.9849 31.2624 24.0009C31.8042 25.1589 31.0889 26.1522 30.7754 27.1633C30.4266 28.2894 29.6422 29.1836 28.7162 29.9255C27.799 30.6603 26.7383 31.0605 25.5892 31.2535C25.4227 31.2819 25.2456 31.3527 25.1111 31.4554C24.8508 31.6537 24.6383 31.6608 24.3869 31.4394C24.2771 31.3438 24.1071 31.2854 23.9584 31.2695C20.5888 30.8888 18.016 28.0805 18.0001 24.7552C17.9841 21.336 20.5038 18.4427 23.8645 18.0319C24.116 18.0018 24.3727 18.0284 24.6277 18.0284H24.6259ZM29.4315 27.7759C31.0658 25.3112 30.5311 21.9805 28.2452 20.1851C25.8388 18.2958 22.5436 18.533 20.4401 20.7729C18.4888 22.8499 18.5702 26.0973 19.9 27.7033C20.0027 27.5245 20.0965 27.3527 20.1975 27.1845C20.9164 25.9999 22.3276 25.5803 23.5865 26.1381C24.3603 26.4816 25.1341 26.4302 25.9079 26.0619C26.1876 25.9291 26.5294 25.8441 26.8357 25.8636C28.0769 25.9415 28.9357 26.5896 29.4333 27.7759H29.4315ZM24.4789 30.3788C26.0407 30.3894 27.3952 29.9096 28.3461 29.0048C28.5019 28.856 28.6329 28.571 28.6135 28.3638C28.5019 27.2199 27.1792 26.4816 26.1398 26.9543C25.1766 27.3935 24.2151 27.42 23.2448 26.9827C22.2461 26.5329 21.1731 26.9915 20.7623 28.0167C20.5729 28.4877 20.649 28.8419 21.0704 29.1464C22.1275 29.9131 23.2767 30.3983 24.4807 30.377L24.4789 30.3788Z" fill="#24C79D"/>
<path d="M50.4582 18.0001C53.4595 18.0142 56.1509 20.0133 56.9088 22.795C57.7126 25.7432 56.5068 28.8507 53.8703 30.3682C53.1319 30.7931 52.243 30.9578 51.425 31.2447C51.1647 31.335 50.9097 31.4465 50.6459 31.5244C50.5149 31.5634 50.3573 31.5882 50.2316 31.551C49.8261 31.4324 49.4383 31.2447 49.0275 31.1491C46.4317 30.5453 44.4291 28.4275 43.9669 25.8034C43.9174 25.5201 43.7385 25.2616 43.6358 24.9854C43.5933 24.872 43.5561 24.7321 43.5862 24.6224C43.7208 24.1301 43.905 23.6503 44.0236 23.1545C44.7425 20.1479 47.4339 17.9859 50.4582 18.0001ZM55.2886 27.7405C56.8308 25.4723 56.4147 22.239 54.4086 20.4542C52.1226 18.4215 48.9549 18.4038 46.6548 20.4117C44.5973 22.2072 44.1865 25.4634 45.6809 27.6821C46.0138 27.2872 46.3025 26.8021 46.7186 26.478C47.5136 25.8565 48.3936 25.5927 49.3976 26.1097C50.1696 26.5064 50.9735 26.4302 51.7685 26.069C52.066 25.9344 52.4237 25.8548 52.7495 25.8725C53.957 25.9344 54.7485 26.6303 55.2904 27.7405H55.2886ZM50.529 30.3806C51.8942 30.393 53.0983 29.9397 54.1394 29.0774C54.3271 28.9215 54.5006 28.5834 54.4688 28.3585C54.2988 27.1633 53.0292 26.4922 51.9332 26.9791C50.9823 27.4005 50.035 27.4112 49.0877 26.9844C48.0625 26.5223 46.9045 27.0482 46.5734 28.1283C46.4547 28.5143 46.5185 28.8082 46.8602 29.0791C47.9385 29.9397 49.1461 30.3983 50.529 30.3824V30.3806Z" fill="#24C79D"/>
<path d="M50.8619 41.6473C50.853 41.9484 50.8725 42.3609 50.3838 42.3521C49.95 42.3432 49.9234 41.9731 49.9252 41.6279C49.9252 41.2684 49.934 40.8718 50.4103 40.8753C50.8548 40.8789 50.8619 41.2613 50.8636 41.6473H50.8619Z" fill="#24C79D"/>
<path d="M24.293 36.1689C24.3054 35.8909 24.2966 35.5031 24.7516 35.5067C25.235 35.5102 25.2209 35.9086 25.2262 36.2628C25.2315 36.6116 25.1961 36.9781 24.764 36.9799C24.2842 36.9816 24.293 36.5762 24.2913 36.1707L24.293 36.1689Z" fill="#24C79D"/>
<path d="M49.8437 36.2716C49.9305 35.8821 49.9447 35.5173 50.3909 35.5067C50.8477 35.4961 50.8831 35.8714 50.8566 36.2043C50.8371 36.4398 50.7645 36.6895 50.6441 36.8914C50.5998 36.9657 50.2793 36.9905 50.2156 36.9215C50.0527 36.7408 49.9624 36.493 49.842 36.2716H49.8437Z" fill="#24C79D"/>
<path d="M38.7983 50.9717C38.5894 50.7982 38.3787 50.6247 38.1697 50.4494C38.3397 50.2758 38.4867 49.9908 38.6815 49.9553C39.025 49.8916 39.4818 49.7907 39.6447 50.2935C39.7616 50.653 39.4623 50.8672 38.7983 50.9717V50.9717Z" fill="#24C79D"/>
<path d="M25.2262 38.9382C25.2173 39.2675 25.235 39.65 24.7782 39.6571C24.2824 39.6659 24.3019 39.2622 24.2948 38.9134C24.2895 38.5752 24.3037 38.1927 24.7428 38.1874C25.2138 38.1821 25.2368 38.5717 25.2262 38.9364V38.9382Z" fill="#24C79D"/>
<path d="M50.8637 39.0161C50.8513 39.2587 50.8796 39.6659 50.3821 39.6571C49.9252 39.6482 49.9394 39.2693 49.9323 38.9364C49.9252 38.5734 49.9447 38.1821 50.4157 38.1874C50.8548 38.191 50.869 38.5717 50.8637 39.0161Z" fill="#24C79D"/>
<path d="M24.185 41.5181C24.3532 41.3003 24.5214 41.0825 24.6896 40.8647C24.8667 41.0099 25.1677 41.1356 25.1925 41.3038C25.2474 41.6668 25.3855 42.1378 24.8773 42.3397C24.5232 42.4795 24.2912 42.1732 24.185 41.5163V41.5181Z" fill="#24C79D"/>
<path d="M50.9752 33.6598C50.8035 33.8723 50.6317 34.0866 50.4617 34.2991C50.2882 34.1503 49.9907 34.0211 49.9659 33.8511C49.9146 33.4899 49.7676 33.0153 50.2918 32.8259C50.653 32.6948 50.8725 32.9923 50.9752 33.6581V33.6598Z" fill="#24C79D"/>
<path d="M25.235 33.5466C25.2226 33.6794 25.258 33.8653 25.1819 33.9556C25.0579 34.1026 24.8472 34.2956 24.6967 34.2779C24.2594 34.2247 24.3001 33.8387 24.2948 33.5129C24.2895 33.1924 24.3125 32.8418 24.718 32.8206C24.8738 32.8117 25.065 33.0154 25.1943 33.1641C25.2616 33.242 25.2244 33.4067 25.2368 33.5466H25.235Z" fill="#24C79D"/>
<path d="M41.6066 25.2315C41.0347 25.2315 40.7035 24.9269 40.9125 24.5763C41.1728 24.1407 41.6207 24.2771 41.9926 24.3479C42.1395 24.3762 42.3538 24.6471 42.3432 24.7923C42.3113 25.2191 41.9501 25.2439 41.6066 25.2315V25.2315Z" fill="#24C79D"/>
<path d="M38.9896 24.2966C39.2481 24.3089 39.6589 24.2735 39.6589 24.7693C39.6589 25.2262 39.2817 25.2208 38.9471 25.2262C38.5876 25.2315 38.1928 25.2262 38.1892 24.7534C38.1874 24.3125 38.5628 24.2912 38.9896 24.2966Z" fill="#24C79D"/>
<path d="M36.3265 25.2279C35.9086 25.2244 35.5067 25.2439 35.5014 24.7569C35.4978 24.3036 35.8785 24.2983 36.2114 24.2966C36.562 24.293 36.9693 24.2824 36.9693 24.764C36.9693 25.1978 36.6045 25.2385 36.3247 25.2279H36.3265Z" fill="#24C79D"/>
<path d="M33.5873 25.2386C33.4173 25.2244 33.2296 25.2634 33.1393 25.1872C32.9923 25.0633 32.8082 24.8579 32.8188 24.6985C32.8436 24.3285 33.1694 24.2913 33.4739 24.2966C33.798 24.3001 34.1858 24.247 34.2707 24.6667C34.3008 24.8136 34.1185 25.0385 33.9786 25.1713C33.8936 25.251 33.7041 25.2227 33.5855 25.2386H33.5873Z" fill="#24C79D"/>
<path d="M41.6119 50.8637C41.2808 50.8566 40.8895 50.8725 40.8753 50.4245C40.8594 49.9465 41.2507 49.9305 41.6119 49.9252C41.9802 49.9199 42.3627 49.9606 42.3503 50.4245C42.3379 50.8672 41.9448 50.8566 41.6119 50.8637Z" fill="#24C79D"/>
<path d="M36.2291 50.8654C35.9015 50.8513 35.512 50.8832 35.4996 50.4228C35.4854 49.9323 35.8803 49.9323 36.2344 49.927C36.5744 49.9217 36.9444 49.9341 36.9621 50.375C36.9834 50.8761 36.5761 50.8531 36.2291 50.8637V50.8654Z" fill="#24C79D"/>
<path d="M33.5342 50.8637C33.196 50.8654 32.81 50.8601 32.8011 50.421C32.7923 49.9553 33.18 49.9234 33.5448 49.927C33.8848 49.9288 34.2637 49.9412 34.2761 50.3767C34.292 50.8619 33.8865 50.8601 33.5324 50.8654L33.5342 50.8637Z" fill="#24C79D"/>
<path d="M35.1384 42.391C35.7085 41.3552 35.1791 40.5229 34.2406 39.7757C33.8847 39.4924 34.0388 39.0887 34.4956 38.9789C34.8303 38.8975 35.1773 38.8125 35.5155 38.8231C36.0573 38.839 36.2875 38.5469 36.4522 38.1007C36.5584 37.812 36.7054 37.5376 36.8594 37.2702C37.1091 36.8364 37.488 36.8258 37.7395 37.2578C37.9502 37.6173 38.0812 38.0245 38.3061 38.3716C38.4247 38.5522 38.6531 38.7098 38.8638 38.77C39.2445 38.878 39.6536 38.8868 40.0431 38.9701C40.5725 39.0816 40.7478 39.5066 40.3353 39.8058C39.3649 40.5123 39.0639 41.3445 39.4234 42.5061C39.5898 43.0479 39.156 43.3489 38.6956 43.0284C37.7377 42.3609 36.863 42.306 35.8997 43.0213C35.4677 43.3418 35.1029 43.0816 35.1366 42.3945L35.1384 42.391ZM38.3645 41.7854C37.9909 40.8948 38.3627 40.3016 39.009 39.7421C38.0617 39.8218 37.5783 39.3295 37.2738 38.5185C37.0471 39.418 36.4416 39.7456 35.5704 39.7899C36.307 40.2981 36.5 40.939 36.2468 41.7783C36.9639 41.2755 37.6332 41.2489 38.3627 41.7854H38.3645Z" fill="#24C79D"/>
<path d="M48.0483 48.583C48.0537 46.8778 49.2471 45.7393 50.6247 45.8332C52.0872 45.9341 53.1656 47.2125 52.9584 48.6344C52.8221 49.5604 52.4449 50.382 51.6959 50.9823C50.9115 51.6108 50.0173 51.6002 49.2577 50.9362C48.4627 50.2421 48.0784 49.3408 48.0483 48.583ZM52.0501 48.3829C52.0377 47.5064 51.448 46.8477 50.6583 46.7663C49.8739 46.6866 49.1515 47.2214 48.9797 48.0075C48.815 48.7583 49.3657 49.9889 50.0439 50.3678C50.4405 50.5909 50.8177 50.529 51.1488 50.2368C51.7225 49.7304 51.9952 49.0752 52.0518 48.3829H52.0501Z" fill="#24C79D"/>
<path d="M27.1066 48.6096C27.0499 49.3975 26.6657 50.2775 25.8831 50.9557C25.2279 51.5241 24.4187 51.5825 23.7069 51.1576C22.7295 50.575 22.0124 49.0133 22.2125 47.9013C22.4391 46.6282 23.5847 45.7305 24.8331 45.8456C26.1947 45.9713 27.1279 47.0053 27.1084 48.6096H27.1066ZM26.2089 48.4307C26.2213 47.5135 25.5679 46.8088 24.7392 46.7645C23.9141 46.7203 23.2111 47.3011 23.1385 48.1403C23.0624 49.0168 23.4183 49.7357 24.0841 50.2882C24.4701 50.6069 24.895 50.575 25.2757 50.2545C25.8636 49.7605 26.1292 49.1018 26.2089 48.4307Z" fill="#24C79D"/>
<path d="M27.1066 22.7561C27.0446 23.5865 26.6445 24.4949 25.7981 25.1695C25.1695 25.6706 24.3727 25.7096 23.7034 25.3112C22.7313 24.7339 22.0106 23.1616 22.2107 22.0514C22.4427 20.7623 23.6042 19.8664 24.888 19.9886C26.1859 20.1125 27.1261 21.1802 27.1084 22.7543L27.1066 22.7561ZM23.1102 22.5472C23.1633 23.2236 23.4289 23.8468 23.9566 24.3391C24.4258 24.7764 24.8791 24.7782 25.3572 24.3355C25.8848 23.8451 26.1717 23.2183 26.2036 22.5047C26.2425 21.637 25.5413 20.9305 24.6808 20.9199C23.7777 20.9093 23.0978 21.5963 23.1102 22.5472V22.5472Z" fill="#24C79D"/>
<path d="M50.375 19.9797C51.8535 20.0009 52.9637 21.0686 52.9708 22.3754C52.9761 23.4679 52.5529 24.401 51.7189 25.1146C50.9682 25.7574 50.0386 25.7343 49.2772 25.104C47.9952 24.0434 47.6552 22.1045 48.5547 20.9429C49.0558 20.2949 49.734 19.9974 50.3768 19.9797H50.375ZM52.0483 22.5578C52.0607 21.6105 51.3754 20.911 50.483 20.9199C49.6242 20.9288 48.9195 21.6299 48.9567 22.4993C48.9868 23.2342 49.2807 23.8751 49.8385 24.3674C50.2988 24.7746 50.7397 24.7658 51.1966 24.3444C51.7278 23.8557 51.9916 23.2306 52.0483 22.5578V22.5578Z" fill="#24C79D"/>
</svg>
