<svg width="239" height="522" viewBox="0 0 239 522" fill="none" xmlns="http://www.w3.org/2000/svg">
<g clip-path="url(#clip0_507_770)">
<path d="M150.827 142.396C153.263 120.455 154.358 108.837 146.247 96.3058C138.113 83.7742 136.058 11.818 83.5696 23.6807C72.0844 26.2672 55.728 28.6085 62.275 65.5789C68.822 102.549 47.7732 96.8186 59.9958 115.906C72.2184 134.971 39.8408 156.89 56.1078 177.761C72.3748 198.61 42.5222 213.304 53.3371 223.651C53.3371 223.651 58.2753 221.265 66.163 218.7C65.1128 216.85 64.4201 213.594 66.5205 208.109C70.4085 197.963 76.9108 185.677 69.1125 174.104C69.1125 174.104 79.7039 177.672 74.8328 200.973C73.2463 208.599 73.358 213.349 74.2295 216.314C78.0504 215.311 82.2512 214.397 86.6979 213.706C85.4689 211.543 84.5528 208.8 84.7762 205.567C85.3572 197.116 89.0217 193.637 88.5972 186.836C88.5972 186.836 92.4852 196.67 90.5412 202.713C89.5803 205.723 89.7144 209.737 91.8372 213.014C102.875 211.788 115.031 212.1 126.606 215.913C160.637 227.107 170.2 197.807 170.2 197.807C170.2 197.807 148.414 164.337 150.85 142.396H150.827Z" fill="#324148"/>
<path d="M149.956 121.124L149.777 122.372L149.598 124.045C149.487 125.182 149.442 126.364 149.42 127.545C149.375 129.909 149.554 132.273 149.844 134.592C150.537 139.23 151.922 143.689 154.09 147.815C155.162 149.888 156.481 151.828 157.933 153.724C158.648 154.682 159.453 155.574 160.257 156.489L161.508 157.804L162.626 159.053C164.056 160.725 165.508 162.018 166.625 162.91C167.206 163.334 167.698 163.713 168.212 163.981C168.48 164.137 168.748 164.226 169.061 164.337L169.53 164.449C169.53 164.449 169.686 164.494 169.753 164.516C169.776 164.516 169.821 164.538 169.821 164.56C169.821 164.605 169.91 164.56 169.731 164.761C171.541 162.866 174.558 162.777 176.479 164.605C178.379 166.411 178.468 169.421 176.636 171.339L175.809 172.32C175.585 172.565 175.362 172.811 175.139 173.034C174.669 173.457 174.2 173.859 173.686 174.216C172.681 174.929 171.541 175.464 170.379 175.888C168.033 176.691 165.553 176.847 163.296 176.579C158.76 176.066 155.118 174.216 152.012 172.276C151.23 171.763 150.492 171.25 149.8 170.692L147.878 169.02C146.627 167.861 145.398 166.679 144.236 165.408C141.912 162.866 139.811 160.079 137.979 157.113C134.315 151.159 131.857 144.447 130.717 137.602C130.136 134.19 129.89 130.734 129.935 127.256C129.935 125.516 130.069 123.799 130.27 122.06C130.36 121.191 130.494 120.321 130.65 119.407L130.896 118.046L131.052 117.311L131.276 116.374C132.505 111.223 137.689 108.057 142.828 109.283C147.699 110.443 150.805 115.103 150.09 119.964L149.911 121.124H149.956Z" fill="#B55B52"/>
<path d="M184.546 160.881L183.898 164.962C183.652 166.5 182.691 167.816 181.283 168.507L174.759 171.74C172.144 173.034 169.083 172.989 166.513 171.629L164.927 170.782C165.53 163.936 171.251 157.001 171.251 157.001L172.658 154.838C173.91 152.921 176.323 152.341 178.2 153.523L182.535 156.266C184.032 157.202 184.814 159.053 184.523 160.881H184.546Z" fill="#B55B52"/>
<path d="M135.454 102.884C148.526 103.865 154.782 113.297 160.95 134.815C156.302 142.106 137.666 147.525 137.666 147.525C137.666 147.525 125.466 115.683 135.454 102.861V102.884Z" fill="#407BFF"/>
<path opacity="0.7" d="M135.454 102.884C148.526 103.865 154.782 113.297 160.95 134.815C156.302 142.106 137.666 147.525 137.666 147.525C137.666 147.525 125.466 115.683 135.454 102.861V102.884Z" fill="white"/>
<path d="M235.782 513.66C224.431 516.715 222.867 516.938 216.432 518.455C210.913 519.726 209.795 520.774 205.371 521.844C201.684 522.758 200.857 519.213 200.902 514.865C200.902 512.679 200.634 508.175 200.522 504.697L216.834 499.011C220.387 502.846 227.381 507.774 234.017 506.926C240.341 506.101 240.274 512.456 235.76 513.66H235.782Z" fill="#324148"/>
<path d="M121.109 219.146C112.305 253.441 106.674 251.858 151.319 357.529C140.839 410.71 199.874 503.916 199.874 503.916C205.55 504.139 215.493 502.623 217.728 500.348C207.516 469.845 187.875 393.518 182.378 344.128C177.127 297.101 168.658 236.026 163.921 200.037C163.452 196.447 162.089 185.654 162.089 185.654L123.097 195.934C123.097 195.934 122.516 213.505 121.086 219.146H121.109Z" fill="#37474F"/>
<g opacity="0.3">
<path opacity="0.3" d="M121.109 219.146C112.305 253.441 106.674 251.858 151.319 357.529C140.839 410.71 199.874 503.916 199.874 503.916C205.55 504.139 215.493 502.623 217.728 500.348C207.516 469.845 187.875 393.518 182.378 344.128C177.127 297.101 168.658 236.026 163.921 200.037C163.452 196.447 162.089 185.654 162.089 185.654L123.097 195.934C123.097 195.934 122.516 213.505 121.086 219.146H121.109Z" fill="black"/>
</g>
<path opacity="0.2" d="M117.98 269.808C121.935 285.149 130.27 307.246 145.621 343.994C152.749 283.588 139.677 245.257 139.677 245.257H121.667L117.98 269.83V269.808Z" fill="black"/>
<path d="M214.89 487.036C215.962 489.712 217.906 494.35 219.716 497.784C220.364 499.011 220.253 500.438 219.493 500.951C213.102 505.366 201.93 506.681 198.355 507.016C197.662 507.083 196.902 506.503 196.455 505.566L191.517 495.688C190.847 494.328 191.07 492.812 192.009 492.477L212.611 485.386C213.415 485.119 214.421 485.832 214.89 487.036V487.036Z" fill="#24C79D"/>
<path d="M14.4124 486.702C8.82615 476.601 6.5023 467.459 4.62533 461.238C3.01651 455.908 2.07802 456.778 0.245751 451.449C-0.960868 447.903 2.34616 444.559 5.74257 444.715C8.37926 444.826 11.7086 445.45 14.9263 445.004L23.3279 456.912C19.5517 461.483 17.2948 477.136 21.0264 485.119C23.6631 490.827 16.6692 490.738 14.4124 486.702V486.702Z" fill="#324148"/>
<path d="M141.912 229.114C141.912 229.114 143.476 331.306 136.437 366.203C129.577 400.319 21.6074 459.119 21.6074 459.119C19.1941 459.944 14.524 447.413 14.9486 444.67C47.4156 413.118 78.5419 360.762 103.009 353.537C78.8994 267.333 83.7482 251.01 99.412 221.822C102.987 215.177 101.289 200.059 101.289 200.059L142.068 195.956L141.912 229.136V229.114Z" fill="#37474F"/>
<g opacity="0.3">
<path opacity="0.3" d="M141.912 229.114C141.912 229.114 143.476 331.306 136.437 366.203C129.577 400.319 21.6074 459.119 21.6074 459.119C19.1941 459.944 14.524 447.413 14.9486 444.67C47.4156 413.118 78.5419 360.762 103.009 353.537C78.8994 267.333 83.7482 251.01 99.412 221.822C102.987 215.177 101.289 200.059 101.289 200.059L142.068 195.956L141.912 229.136V229.114Z" fill="black"/>
</g>
<path d="M34.6791 452.564C32.1765 454.325 27.7075 457.491 24.4452 459.9C23.3726 460.702 22.099 460.903 21.5404 460.368C17.3395 456.421 13.4962 448.171 12.2896 445.428C12.0438 444.893 12.4237 444.068 13.2057 443.399L21.6521 436.197C22.814 435.216 24.3558 434.948 24.8921 435.639L35.7963 450.155C36.2432 450.757 35.7516 451.805 34.6791 452.564V452.564Z" fill="#24C79D"/>
<path d="M155.274 124.558C156.436 130.69 157.955 135.238 159.43 150.067C160.927 162.576 162 174.951 163.43 195.622L100.686 205.544C99.1439 187.706 93.8928 167.927 76.3298 130.021C72.2631 121.235 76.6873 111.469 85.8264 109.06C88.262 108.414 90.8763 107.789 93.5577 107.232C103.993 105.069 112.573 103.352 122.047 102.728C125.198 102.527 128.46 102.393 131.589 102.349C142.895 102.126 153.151 113.565 155.229 124.535L155.274 124.558Z" fill="#24C79D"/>
<path d="M90.5188 74.9218C94.4515 83.685 100.149 99.9627 95.1665 107.009C95.1665 107.009 103.635 104.333 123.88 112.806C128.013 104.333 123.656 102.505 123.656 102.505C112.864 101.702 111.367 94.1874 111.478 86.8959L90.5188 74.9441V74.9218Z" fill="#B55B52"/>
<path d="M119.634 111.112C113.69 112.94 113.243 122.395 113.243 122.395C113.243 122.395 97.0211 114.412 91.2561 107.879C93.2448 106.407 96.0379 103.664 96.0379 103.664C96.0379 103.664 115.523 108.191 119.612 111.134L119.634 111.112Z" fill="#BDEEE1"/>
<path d="M125.265 109.239C125.265 109.239 130.739 109.818 133.801 116.887C133.063 103.33 126.472 102.036 126.472 102.036C126.472 102.036 124.349 100.988 120.863 102.103C126.069 103.887 125.265 109.239 125.265 109.239V109.239Z" fill="#BDEEE1"/>
<path opacity="0.2" d="M99.0545 79.8051L111.456 86.8736C111.411 88.6129 111.478 90.3522 111.746 92.0022C107.702 92.0691 101.356 88.6798 99.9706 84.7107C99.2779 82.7262 98.9204 80.7862 99.0321 79.8051H99.0545Z" fill="black"/>
<path d="M80.5754 57.9083C85.6029 72.0008 87.4352 78.0436 96.8424 83.7073C110.987 92.2029 127.276 83.9526 126.561 68.9013C125.913 55.344 117.802 34.5845 102.049 32.154C86.5414 29.768 75.5478 43.8159 80.5754 57.9083Z" fill="#B55B52"/>
<path d="M111.344 56.5481C111.344 56.5481 114.964 61.2531 117.958 63.2153C116.841 65.066 113.958 65.0214 113.958 65.0214L111.344 56.5481Z" fill="#A02724"/>
<path d="M109.691 72.0677C110.339 72.0008 111.009 71.8893 111.724 71.6886C111.925 71.644 112.014 71.4433 111.947 71.2426C111.88 71.0419 111.679 70.9304 111.478 70.9973C106.317 72.469 102.585 69.5257 102.563 69.4811C102.406 69.3473 102.16 69.3696 102.049 69.5034C101.937 69.6595 101.959 69.8824 102.116 70.0162C102.25 70.1277 105.266 72.5136 109.691 72.0677Z" fill="#263238"/>
<path d="M100.663 58.2651C101.088 59.4469 102.049 60.2273 102.831 60.0044C103.59 59.7814 103.881 58.6442 103.456 57.4624C103.032 56.2806 102.071 55.5001 101.289 55.7231C100.529 55.9461 100.239 57.0833 100.663 58.2651Z" fill="#263238"/>
<path d="M115.523 53.5602C115.947 54.742 116.908 55.5224 117.69 55.2994C118.45 55.0765 118.74 53.9393 118.316 52.7575C117.891 51.5756 116.93 50.7952 116.148 51.0182C115.389 51.2412 115.098 52.3784 115.523 53.5602Z" fill="#263238"/>
<path d="M115.835 51.1966L118.36 49.5688C118.36 49.5688 117.712 52.2 115.835 51.1966Z" fill="#263238"/>
<path d="M96.4178 51.9547C96.5966 51.8655 96.7306 51.7317 96.7753 51.5311C97.6468 48.5208 100.239 47.8296 100.283 47.8296C100.663 47.7181 100.887 47.339 100.753 46.9599C100.619 46.5809 100.194 46.3579 99.8142 46.4471C99.6801 46.4917 96.4178 47.3613 95.3229 51.0851C95.2112 51.4642 95.457 51.8655 95.8592 51.977C96.0603 52.0439 96.239 52.0216 96.4178 51.9547V51.9547Z" fill="#263238"/>
<path d="M118.941 45.6889C119.12 45.6889 119.299 45.5997 119.411 45.4659C119.656 45.1761 119.612 44.7078 119.299 44.4402C116.126 41.7199 112.886 42.478 112.752 42.5226C112.372 42.6118 112.148 43.0132 112.283 43.3922C112.417 43.7713 112.819 44.0166 113.199 43.9274C113.333 43.9051 115.858 43.3476 118.36 45.5105C118.517 45.6443 118.718 45.7112 118.919 45.7112L118.941 45.6889Z" fill="#263238"/>
<path d="M100.976 55.8792L103.501 54.2514C103.501 54.2514 102.853 56.8826 100.976 55.8792Z" fill="#263238"/>
<path d="M96.7977 34.1162C96.7977 34.1162 100.954 36.5467 102.853 40.7387C104.239 40.1144 105.78 39.7353 107.478 39.6015C106.406 37.6393 104.149 34.8966 99.5014 33.3803C99.5014 33.3803 106.562 33.4695 110.629 39.6907C113.042 40.0029 115.701 40.8279 118.673 42.4111C118.673 42.4111 104.44 19.2879 84.9103 29.6343C65.3809 39.9806 80.5754 67.831 80.5754 67.831H84.4634C84.4634 67.831 93.4683 67.4296 83.5472 49.2566C83.5472 49.2566 90.3847 51.7094 90.7869 56.9272C90.7869 56.9272 93.3119 47.1829 100.149 42.2773C99.9483 40.382 99.2109 37.4832 96.7753 34.0939L96.7977 34.1162Z" fill="#324148"/>
<path d="M80.2402 65.5789C80.2402 65.5789 56.9793 45.7781 84.441 26.9585C84.441 26.9585 63.4592 26.5348 63.8838 7.75976L88.7536 22.7441L104.909 0C104.909 0 113.891 12.3086 93.5354 25.0408C93.5354 25.0408 103.725 20.715 111.568 31.3289C111.568 31.3289 99.3003 23.6806 87.748 30.7269C66.5205 43.6598 80.2625 65.6012 80.2625 65.6012L80.2402 65.5789Z" fill="#24C79D"/>
<path d="M78.4079 71.4656C80.9105 74.0299 84.2399 75.1894 86.9883 75.1894C91.1221 75.1671 91.7924 70.9081 89.4686 67.3627C87.3682 64.1741 82.6757 60.3165 79.1006 62.0558C75.5701 63.7727 75.5477 68.5445 78.4302 71.4879L78.4079 71.4656Z" fill="#B55B52"/>
<path d="M139.655 134.569L127.298 116.285C127.298 116.285 135.789 124.335 137.51 120.321C138.962 116.932 128.795 114.256 125.533 113.498C124.907 113.342 124.259 113.542 123.835 114.011C120.975 117.021 110.83 128.482 117.199 132.696C124.55 137.58 123.835 115.884 123.835 115.884L126.606 139.475L129.622 140.055L125.667 116.731L138.113 137.312L139.677 134.569H139.655ZM135.99 119.674C135.208 121.124 129.22 115.884 129.22 115.884C129.22 115.884 136.795 118.247 135.99 119.674ZM117.891 130.4C114.785 126.877 122.293 117.734 122.293 117.734C122.293 117.734 120.997 133.923 117.891 130.4Z" fill="#263238"/>
<path d="M213.817 134.993H140.795V150.178H213.84C213.192 145.139 213.169 140.032 213.817 134.993V134.993Z" fill="#24C79D"/>
<path opacity="0.7" d="M213.817 134.993H140.795V150.178H213.84C213.192 145.139 213.169 140.032 213.817 134.993V134.993Z" fill="white"/>
<path d="M154.09 150.981H131.142L130.918 150.736C128.706 148.528 127.499 145.607 127.499 142.485C127.499 139.364 128.706 136.442 130.918 134.235L131.142 133.99H154.09L152.727 135.35C150.827 137.245 149.777 139.787 149.777 142.485C149.777 145.183 150.827 147.703 152.727 149.621L154.09 150.981Z" fill="#24C79D"/>
<g opacity="0.3">
<path opacity="0.3" d="M154.09 150.981H131.142L130.918 150.736C128.706 148.528 127.499 145.607 127.499 142.485C127.499 139.364 128.706 136.442 130.918 134.235L131.142 133.99H154.09L152.727 135.35C150.827 137.245 149.777 139.787 149.777 142.485C149.777 145.183 150.827 147.703 152.727 149.621L154.09 150.981Z" fill="black"/>
</g>
<path d="M214.555 150.981H152.57L152.503 150.914C150.358 148.773 149.017 145.919 148.906 142.909C148.794 139.631 150.023 136.532 152.324 134.235L152.57 133.99H214.555C215.002 133.99 215.359 134.346 215.359 134.792C215.359 135.238 215.002 135.595 214.555 135.595H153.241C151.475 137.468 150.515 139.899 150.515 142.485C150.515 145.072 151.475 147.502 153.241 149.375H214.555C215.002 149.375 215.359 149.732 215.359 150.178C215.359 150.624 215.002 150.981 214.555 150.981Z" fill="#24C79D"/>
<path d="M208.857 104.311H143.141V117.98H208.879C208.276 113.431 208.276 108.837 208.857 104.311Z" fill="#24C79D"/>
<path opacity="0.8" d="M208.857 104.311H143.141V117.98H208.879C208.276 113.431 208.276 108.837 208.857 104.311Z" fill="white"/>
<path d="M155.118 118.715H134.471L134.27 118.515C132.281 116.53 131.186 113.899 131.186 111.089C131.186 108.28 132.281 105.649 134.27 103.664L134.471 103.463H155.118L153.889 104.69C152.168 106.407 151.23 108.681 151.23 111.112C151.23 113.542 152.168 115.817 153.889 117.534L155.118 118.76V118.715Z" fill="#324148"/>
<path d="M209.527 118.715H153.732L153.665 118.649C151.743 116.731 150.537 114.167 150.425 111.446C150.313 108.503 151.431 105.716 153.509 103.642L153.71 103.441H209.505C209.907 103.441 210.22 103.753 210.22 104.155C210.22 104.556 209.907 104.868 209.505 104.868H154.313C152.727 106.563 151.855 108.748 151.855 111.067C151.855 113.386 152.727 115.594 154.313 117.266H209.505C209.907 117.266 210.22 117.578 210.22 117.98C210.22 118.381 209.907 118.693 209.505 118.693L209.527 118.715Z" fill="#24C79D"/>
<g opacity="0.4">
<path opacity="0.4" d="M209.527 118.715H153.732L153.665 118.649C151.743 116.731 150.537 114.167 150.425 111.446C150.313 108.503 151.431 105.716 153.509 103.642L153.71 103.441H209.505C209.907 103.441 210.22 103.753 210.22 104.155C210.22 104.556 209.907 104.868 209.505 104.868H154.313C152.727 106.563 151.855 108.748 151.855 111.067C151.855 113.386 152.727 115.594 154.313 117.266H209.505C209.907 117.266 210.22 117.578 210.22 117.98C210.22 118.381 209.907 118.693 209.505 118.693L209.527 118.715Z" fill="white"/>
</g>
<path d="M208.857 89.0143H143.141V102.683H208.879C208.276 98.1342 208.276 93.5408 208.857 89.0143Z" fill="#24C79D"/>
<path opacity="0.8" d="M208.857 89.0143H143.141V102.683H208.879C208.276 98.1342 208.276 93.5408 208.857 89.0143Z" fill="white"/>
<path d="M155.118 103.419H134.471L134.27 103.218C132.281 101.234 131.186 98.6025 131.186 95.7929C131.186 92.9833 132.281 90.3522 134.27 88.3676L134.471 88.1669H155.118L153.889 89.3933C152.168 91.1103 151.23 93.3847 151.23 95.8152C151.23 98.2457 152.168 100.52 153.889 102.237L155.118 103.463V103.419Z" fill="#24C79D"/>
<g opacity="0.4">
<path opacity="0.4" d="M155.118 103.419H134.471L134.27 103.218C132.281 101.234 131.186 98.6025 131.186 95.7929C131.186 92.9833 132.281 90.3522 134.27 88.3676L134.471 88.1669H155.118L153.889 89.3933C152.168 91.1103 151.23 93.3847 151.23 95.8152C151.23 98.2457 152.168 100.52 153.889 102.237L155.118 103.463V103.419Z" fill="white"/>
</g>
<path d="M209.527 103.419H153.732L153.665 103.352C151.743 101.434 150.537 98.87 150.425 96.1497C150.313 93.2063 151.431 90.419 153.509 88.3453L153.71 88.1446H209.505C209.907 88.1446 210.22 88.4568 210.22 88.8582C210.22 89.2595 209.907 89.5717 209.505 89.5717H154.313C152.727 91.2664 151.855 93.4516 151.855 95.7706C151.855 98.0896 152.727 100.297 154.313 101.969H209.505C209.907 101.969 210.22 102.282 210.22 102.683C210.22 103.084 209.907 103.397 209.505 103.397L209.527 103.419Z" fill="#24C79D"/>
<g opacity="0.5">
<path opacity="0.5" d="M209.527 103.419H153.732L153.665 103.352C151.743 101.434 150.537 98.87 150.425 96.1497C150.313 93.2063 151.431 90.419 153.509 88.3453L153.71 88.1446H209.505C209.907 88.1446 210.22 88.4568 210.22 88.8582C210.22 89.2595 209.907 89.5717 209.505 89.5717H154.313C152.727 91.2664 151.855 93.4516 151.855 95.7706C151.855 98.0896 152.727 100.297 154.313 101.969H209.505C209.907 101.969 210.22 102.282 210.22 102.683C210.22 103.084 209.907 103.397 209.505 103.397L209.527 103.419Z" fill="white"/>
</g>
<path d="M208.857 151.962H143.141V165.631H208.879C208.276 161.082 208.276 156.489 208.857 151.962Z" fill="#24C79D"/>
<path opacity="0.8" d="M208.857 151.962H143.141V165.631H208.879C208.276 161.082 208.276 156.489 208.857 151.962Z" fill="white"/>
<path d="M155.118 166.367H134.471L134.27 166.166C132.281 164.181 131.186 161.55 131.186 158.741C131.186 155.931 132.281 153.3 134.27 151.315L134.471 151.115H155.118L153.889 152.341C152.168 154.058 151.23 156.332 151.23 158.763C151.23 161.193 152.168 163.468 153.889 165.185L155.118 166.411V166.367Z" fill="#324148"/>
<path d="M209.527 166.367H153.732L153.665 166.3C151.743 164.382 150.537 161.818 150.425 159.097C150.313 156.154 151.431 153.367 153.509 151.293L153.71 151.092H209.505C209.907 151.092 210.22 151.405 210.22 151.806C210.22 152.207 209.907 152.519 209.505 152.519H154.313C152.727 154.214 151.855 156.399 151.855 158.718C151.855 161.037 152.727 163.245 154.313 164.917H209.505C209.907 164.917 210.22 165.229 210.22 165.631C210.22 166.032 209.907 166.344 209.505 166.344L209.527 166.367Z" fill="#24C79D"/>
<path d="M208.857 119.607H143.141V133.276H208.879C208.276 128.727 208.276 124.134 208.857 119.607Z" fill="#24C79D"/>
<path opacity="0.7" d="M208.857 119.607H143.141V133.276H208.879C208.276 128.727 208.276 124.134 208.857 119.607Z" fill="white"/>
<path d="M155.118 133.99H134.471L134.27 133.789C132.281 131.804 131.186 129.173 131.186 126.364C131.186 123.554 132.281 120.923 134.27 118.938L134.471 118.738H155.118L153.889 119.964C152.168 121.681 151.23 123.955 151.23 126.386C151.23 128.816 152.168 131.091 153.889 132.808L155.118 134.034V133.99Z" fill="#24C79D"/>
<g opacity="0.6">
<path opacity="0.6" d="M155.118 133.99H134.471L134.27 133.789C132.281 131.804 131.186 129.173 131.186 126.364C131.186 123.554 132.281 120.923 134.27 118.938L134.471 118.738H155.118L153.889 119.964C152.168 121.681 151.23 123.955 151.23 126.386C151.23 128.816 152.168 131.091 153.889 132.808L155.118 134.034V133.99Z" fill="white"/>
</g>
<path d="M209.527 133.99H153.732L153.665 133.923C151.743 132.005 150.537 129.441 150.425 126.72C150.313 123.777 151.431 120.99 153.509 118.916L153.71 118.715H209.505C209.907 118.715 210.22 119.028 210.22 119.429C210.22 119.83 209.907 120.142 209.505 120.142H154.313C152.727 121.837 151.855 124.022 151.855 126.341C151.855 128.66 152.727 130.868 154.313 132.54H209.505C209.907 132.54 210.22 132.852 210.22 133.254C210.22 133.655 209.907 133.967 209.505 133.967L209.527 133.99Z" fill="#24C79D"/>
<g opacity="0.3">
<path opacity="0.3" d="M209.527 133.99H153.732L153.665 133.923C151.743 132.005 150.537 129.441 150.425 126.72C150.313 123.777 151.431 120.99 153.509 118.916L153.71 118.715H209.505C209.907 118.715 210.22 119.028 210.22 119.429C210.22 119.83 209.907 120.142 209.505 120.142H154.313C152.727 121.837 151.855 124.022 151.855 126.341C151.855 128.66 152.727 130.868 154.313 132.54H209.505C209.907 132.54 210.22 132.852 210.22 133.254C210.22 133.655 209.907 133.967 209.505 133.967L209.527 133.99Z" fill="white"/>
</g>
<path d="M163.653 152.586L159.028 151.561C157.285 151.182 155.475 151.65 154.134 152.832L147.945 158.384C145.465 160.614 144.236 163.891 144.616 167.192L144.861 169.243C152.414 171.473 162.223 168.329 162.223 168.329L165.128 167.749C167.698 167.214 169.329 164.895 168.86 162.398L167.765 156.645C167.385 154.66 165.754 153.055 163.676 152.586H163.653Z" fill="#B55B52"/>
<path d="M155.632 160.458C154.224 158.228 151.252 157.559 149.018 158.964L148.906 159.03C145.241 161.327 141.465 163.758 137.689 165.965C133.935 168.217 130.158 170.403 126.36 172.365C122.606 174.349 118.763 176.133 115.232 177.337C113.735 177.85 112.305 178.207 111.188 178.318C109.557 175.732 108.015 173.078 106.585 170.269C104.864 166.768 103.211 163.178 101.736 159.476C100.283 155.775 98.8758 152.007 97.6021 148.194C96.9541 146.298 96.3284 144.381 95.7475 142.463C95.1889 140.59 94.5855 138.538 94.1163 136.888L94.0269 136.576C92.6416 131.671 87.614 128.66 82.5864 129.82C77.4024 131.024 74.1847 136.175 75.3914 141.348C75.9723 143.801 76.5086 145.852 77.1789 148.038C77.8269 150.2 78.5196 152.319 79.2347 154.437C80.7094 158.674 82.3629 162.843 84.2176 166.969C86.0498 171.094 88.1726 175.13 90.4964 179.099C92.8203 183.068 95.524 186.926 98.4735 190.649L98.7193 190.961C99.0098 191.318 99.345 191.675 99.7249 191.987C102.093 193.949 104.954 194.908 107.188 195.176C109.49 195.466 111.367 195.287 113.02 194.975C116.327 194.351 118.897 193.325 121.31 192.232C126.092 190.025 130.114 187.371 134.002 184.651C137.845 181.886 141.487 178.965 144.973 175.91C148.437 172.811 151.788 169.734 155.028 166.3C156.503 164.739 156.793 162.353 155.609 160.458H155.632Z" fill="#B55B52"/>
<path d="M80.9999 111.312C70.2968 118.872 69.7828 130.154 75.5702 151.784C83.3015 155.641 102.093 150.758 102.093 150.758C102.093 150.758 96.1721 117.177 80.9999 111.312Z" fill="#24C79D"/>
<path opacity="0.7" d="M80.9999 111.312C70.2968 118.872 69.7828 130.154 75.5702 151.784C83.3015 155.641 102.093 150.758 102.093 150.758C102.093 150.758 96.1721 117.177 80.9999 111.312Z" fill="white"/>
</g>
<defs>
<clipPath id="clip0_507_770">
<rect width="239" height="522" fill="white"/>
</clipPath>
</defs>
</svg>
