<svg width="76" height="76" viewBox="0 0 76 76" fill="none" xmlns="http://www.w3.org/2000/svg">
<rect width="76" height="76" rx="38" fill="#F6F9FB"/>
<g clip-path="url(#clip0_16_384)">
<path d="M51.0243 32.1567C50.4325 32.1567 50.4325 32.1567 50.4325 32.7599C50.4325 33.4017 50.4325 33.4017 51.0856 33.4017C51.6774 33.4017 51.6774 33.4017 51.6774 32.7985C51.6774 32.1567 51.6774 32.1567 51.0243 32.1567ZM51.0243 32.1567C50.4325 32.1567 50.4325 32.1567 50.4325 32.7599C50.4325 33.4017 50.4325 33.4017 51.0856 33.4017C51.6774 33.4017 51.6774 33.4017 51.6774 32.7985C51.6774 32.1567 51.6774 32.1567 51.0243 32.1567ZM51.0243 32.1567C50.4325 32.1567 50.4325 32.1567 50.4325 32.7599C50.4325 33.4017 50.4325 33.4017 51.0856 33.4017C51.6774 33.4017 51.6774 33.4017 51.6774 32.7985C51.6774 32.1567 51.6774 32.1567 51.0243 32.1567ZM51.0243 32.1567C50.4325 32.1567 50.4325 32.1567 50.4325 32.7599C50.4325 33.4017 50.4325 33.4017 51.0856 33.4017C51.6774 33.4017 51.6774 33.4017 51.6774 32.7985C51.6774 32.1567 51.6774 32.1567 51.0243 32.1567ZM51.0243 32.1567C50.4325 32.1567 50.4325 32.1567 50.4325 32.7599C50.4325 33.4017 50.4325 33.4017 51.0856 33.4017C51.6774 33.4017 51.6774 33.4017 51.6774 32.7985C51.6774 32.1567 51.6774 32.1567 51.0243 32.1567ZM51.0243 32.1567C50.4325 32.1567 50.4325 32.1567 50.4325 32.7599C50.4325 33.4017 50.4325 33.4017 51.0856 33.4017C51.6774 33.4017 51.6774 33.4017 51.6774 32.7985C51.6774 32.1567 51.6774 32.1567 51.0243 32.1567ZM55.9434 34.8439C55.7988 32.298 54.5245 30.4146 52.2779 29.213C51.1236 28.5959 49.8667 28.4193 48.5718 28.4719C48.5318 28.4593 48.4925 28.4473 48.4525 28.4373L48.4211 28.4293H48.4165C48.1183 28.3546 47.8063 28.3546 47.5081 28.4293H47.5034C47.4926 28.432 47.4819 28.4353 47.4715 28.4393C47.4315 28.4493 47.3908 28.4613 47.3508 28.4746C46.929 28.4826 46.5038 28.4566 46.0846 28.5026C42.6097 28.8871 40.0492 31.6575 39.9725 35.1411C39.9365 36.7832 39.9619 38.426 39.9659 40.0682C39.9659 40.544 40.2078 40.7833 40.6836 40.7979C40.9942 40.8073 41.3048 40.7979 41.6167 40.7979H55.131C55.7375 40.7979 55.984 40.5867 55.9834 40.0355C55.9814 38.3027 56.042 36.568 55.9434 34.8439ZM47.0676 39.5583C46.0466 39.5457 45.0249 39.543 44.0019 39.5583C43.7353 39.563 43.648 39.509 43.6507 39.2211C43.6667 37.6003 43.6507 35.9788 43.6647 34.356C43.6647 34.0961 43.6287 33.9641 43.3315 34.0048C43.0342 34.0454 42.6437 33.8828 42.4744 34.0714C42.3284 34.232 42.4277 34.6186 42.4271 34.9052C42.4271 36.3594 42.4204 37.8142 42.4324 39.2684C42.4324 39.5037 42.3724 39.5776 42.1398 39.5563C41.9071 39.5397 41.6735 39.5397 41.4407 39.5563C41.2661 39.565 41.1868 39.5283 41.1901 39.3257C41.2161 37.8389 41.1155 36.3474 41.2355 34.8645C41.4181 32.6226 42.5824 31.0511 44.639 30.1327C44.7797 30.0701 44.8256 30.1067 44.9003 30.2094C45.6867 31.297 46.4764 32.3824 47.2695 33.4656C47.3575 33.5856 47.3568 33.7096 47.3568 33.8422V36.5406C47.3568 37.451 47.3475 38.3614 47.3628 39.2731C47.3682 39.515 47.2928 39.561 47.0676 39.5583ZM46.0766 29.7468C47.3415 29.6661 48.6102 29.6644 49.8753 29.7415L47.9746 32.3453L46.0766 29.7468ZM54.7578 39.2971C54.7578 39.497 54.7218 39.577 54.5065 39.5577C54.2739 39.537 54.04 39.537 53.8074 39.5577C53.5735 39.5783 53.5142 39.4983 53.5155 39.2657C53.5262 37.6449 53.5115 36.0241 53.5288 34.404C53.5322 34.0908 53.4695 33.9601 53.1376 34.0081C52.8664 34.0468 52.5052 33.8955 52.3379 34.0621C52.1706 34.2287 52.2906 34.5879 52.2899 34.8618C52.2852 36.316 52.2779 37.7702 52.2952 39.2244C52.2992 39.5123 52.2146 39.5637 51.9473 39.5577C50.937 39.541 49.9267 39.543 48.917 39.5577C48.6691 39.561 48.5764 39.513 48.5838 39.2384C48.6038 38.3394 48.5918 37.439 48.5918 36.5406C48.5918 35.6529 48.5971 34.7645 48.5871 33.8748C48.5824 33.6873 48.6427 33.5039 48.7577 33.3557C49.5061 32.3367 50.2532 31.317 50.987 30.29C51.1136 30.1114 51.2089 30.0741 51.4088 30.1694C53.5695 31.2004 54.6798 32.9225 54.7471 35.301C54.7838 36.6319 54.7491 37.9648 54.7578 39.2971ZM51.0256 32.1567C50.4338 32.1567 50.4338 32.1567 50.4338 32.7599C50.4338 33.4017 50.4338 33.4017 51.087 33.4017C51.6788 33.4017 51.6788 33.4017 51.6788 32.7985C51.6774 32.1567 51.6774 32.1567 51.0243 32.1567H51.0256ZM51.0256 32.1567C50.4338 32.1567 50.4338 32.1567 50.4338 32.7599C50.4338 33.4017 50.4338 33.4017 51.087 33.4017C51.6788 33.4017 51.6788 33.4017 51.6788 32.7985C51.6774 32.1567 51.6774 32.1567 51.0243 32.1567H51.0256ZM51.0256 32.1567C50.4338 32.1567 50.4338 32.1567 50.4338 32.7599C50.4338 33.4017 50.4338 33.4017 51.087 33.4017C51.6788 33.4017 51.6788 33.4017 51.6788 32.7985C51.6774 32.1567 51.6774 32.1567 51.0243 32.1567H51.0256ZM51.0256 32.1567C50.4338 32.1567 50.4338 32.1567 50.4338 32.7599C50.4338 33.4017 50.4338 33.4017 51.087 33.4017C51.6788 33.4017 51.6788 33.4017 51.6788 32.7985C51.6774 32.1567 51.6774 32.1567 51.0243 32.1567H51.0256ZM51.0256 32.1567C50.4338 32.1567 50.4338 32.1567 50.4338 32.7599C50.4338 33.4017 50.4338 33.4017 51.087 33.4017C51.6788 33.4017 51.6788 33.4017 51.6788 32.7985C51.6774 32.1567 51.6774 32.1567 51.0243 32.1567H51.0256Z" fill="#24C79D"/>
<path d="M30.7129 47.0099C30.7129 47.5698 30.7129 47.5698 30.1684 47.5698C29.4919 47.5698 29.4919 47.5698 29.4919 46.9086C29.4919 46.3375 29.4919 46.3375 30.0531 46.3375C30.7129 46.3375 30.7129 46.3375 30.7129 47.0099Z" fill="#24C79D"/>
<path d="M34.8189 47.7664C34.0585 44.834 31.5179 42.7566 28.5776 42.6627C28.2666 42.6294 27.9555 42.6071 27.6445 42.596H27.5332C27.192 42.584 26.851 42.584 26.5102 42.596H26.4289C26.1179 42.6089 25.8091 42.6311 25.5026 42.6627C24.2989 42.6989 23.1291 43.0702 22.125 43.735C20.2183 44.9933 19.1633 46.7753 19.054 49.0486C18.972 50.7647 19.0193 52.4882 19.0187 54.2083C19.0187 54.7494 19.2459 54.9647 19.8004 54.9647C24.6175 54.9674 29.4344 54.9674 34.2511 54.9647C34.8122 54.9647 35.0375 54.7321 35.0381 54.1743C35.0381 52.6095 35.0381 51.0446 35.0381 49.4798C35.0385 48.9016 34.9648 48.3258 34.8189 47.7664V47.7664ZM26.139 53.7391C25.0847 53.7249 24.0299 53.7249 22.9747 53.7391C22.7581 53.7391 22.7008 53.6851 22.7021 53.4672C22.7115 51.8237 22.7021 50.1809 22.7135 48.5354C22.7135 48.2762 22.6795 48.1456 22.3802 48.1869C22.081 48.2282 21.6905 48.0636 21.5205 48.2535C21.3746 48.4155 21.4739 48.802 21.4739 49.0893C21.4739 50.5321 21.4679 51.9757 21.4779 53.4212C21.4779 53.6538 21.4459 53.7718 21.1766 53.7378C20.8727 53.6984 20.4629 53.8651 20.2876 53.6711C20.137 53.5032 20.2363 53.102 20.2416 52.8047C20.2669 51.4618 20.1603 50.1163 20.3009 48.7774C20.4675 47.1899 21.2459 45.939 22.5002 44.9733C22.8477 44.7164 23.2245 44.5017 23.6225 44.3335C23.7845 44.2615 23.8704 44.2722 23.9764 44.4208C24.7464 45.4933 25.5219 46.5614 26.303 47.6251C26.3786 47.7335 26.4148 47.8645 26.4056 47.9963C26.4056 48.9067 26.4056 49.817 26.4056 50.7287C26.4056 51.6404 26.4003 52.5501 26.4096 53.4612C26.4116 53.6651 26.3696 53.7418 26.139 53.7391ZM25.1253 43.9243C26.4043 43.831 27.6305 43.871 28.9381 43.8989C28.265 44.8186 27.6525 45.6564 27.0221 46.5194L25.1253 43.9243ZM33.8052 53.4612C33.8052 53.6751 33.7552 53.7551 33.5306 53.7371C33.2234 53.7131 32.8182 53.8377 32.6303 53.6838C32.4423 53.5298 32.5716 53.1033 32.5703 52.7967C32.5636 51.3652 32.5636 49.9337 32.5703 48.5021C32.5703 48.2722 32.5436 48.1516 32.2737 48.1876C31.9691 48.2275 31.5586 48.0589 31.382 48.2542C31.2307 48.4228 31.3347 48.8234 31.334 49.1206C31.334 50.5521 31.3253 51.9863 31.34 53.4152C31.34 53.6858 31.2587 53.7391 31.0068 53.7358C29.9858 53.7218 28.9648 53.7184 27.9411 53.7358C27.6645 53.7411 27.6232 53.6471 27.6265 53.4025C27.6399 52.5035 27.6319 51.6031 27.6319 50.7061C27.6319 49.809 27.6359 48.93 27.6319 48.0403C27.6247 47.8645 27.6787 47.6916 27.7845 47.5511C28.5402 46.5241 29.294 45.4958 30.0291 44.4541C30.1724 44.2542 30.281 44.2542 30.4776 44.3461C32.6596 45.4091 33.7526 47.1599 33.7992 49.5658C33.8192 50.864 33.7952 52.1629 33.8052 53.4612Z" fill="#24C79D"/>
<path d="M52.8937 22.7811C52.8724 21.7523 52.5255 20.7568 51.9028 19.9376C51.2801 19.1184 50.4137 18.5177 49.4281 18.2219C46.2705 17.2576 43.1455 19.5095 43.0455 22.8491C43.0369 23.1383 43.1615 23.3889 43.4454 23.4709C43.6547 23.5302 43.66 23.6435 43.6587 23.8081C43.654 24.3533 43.6773 24.8958 43.8546 25.4183C44.4271 27.1051 45.6074 28.0841 47.3435 28.4233C47.3841 28.4273 47.4234 28.4306 47.4641 28.4333C47.7907 28.456 48.1185 28.456 48.4451 28.4333V28.4333C48.4844 28.4333 48.5244 28.4286 48.5637 28.4253C48.6717 28.4006 48.7783 28.374 48.8863 28.3507C50.0193 28.1121 50.893 27.4896 51.5408 26.5512C52.1006 25.7382 52.3185 24.8225 52.2865 23.8401C52.2825 23.7155 52.2072 23.5522 52.4318 23.4949C52.797 23.4016 52.9037 23.1357 52.8937 22.7811ZM49.834 26.5979C48.901 27.2957 47.8466 27.4183 46.781 26.9804C45.748 26.5559 45.1315 25.7482 44.9502 24.6299C44.9114 24.3444 44.8904 24.0569 44.8876 23.7688C44.8803 23.5689 44.9502 23.5169 45.1328 23.5382C45.2437 23.5483 45.3552 23.5483 45.4661 23.5382C45.7806 23.5156 46.0126 23.3829 46.1112 23.0604C46.1918 22.7938 46.2878 22.5359 46.4238 22.1367C46.7836 22.5312 47.1002 22.8698 47.4088 23.2177C47.624 23.4596 47.888 23.5469 48.2085 23.5435C49.0749 23.5335 49.9413 23.5469 50.803 23.5349C51.0069 23.5349 51.0596 23.5869 51.0629 23.7921C51.0796 24.9184 50.765 25.9028 49.834 26.5979ZM48.3565 22.2999C48.2112 22.2999 48.1372 22.2146 48.0519 22.13C47.5721 21.6522 47.0942 21.1716 46.613 20.6958C46.2085 20.2959 45.714 20.4059 45.5174 20.9437C45.3808 21.3176 45.2641 21.6995 45.1362 22.0767C45.0755 22.2573 44.523 22.4052 44.3831 22.2766C44.3218 22.2213 44.3664 22.154 44.3784 22.094C44.6657 20.6605 46.0172 19.4695 47.4714 19.2676C49.3741 19.001 51.2855 20.3339 51.6034 22.296C50.5078 22.2973 49.4321 22.294 48.3565 22.2999V22.2999Z" fill="#24C79D"/>
<path d="M31.9465 37.0305C31.9232 36.5993 31.8878 36.1641 31.7632 35.7489C31.0061 33.2218 28.5782 31.7656 25.9871 32.2834C23.7878 32.7206 22.1003 34.7819 22.099 37.0239C22.099 37.3078 22.1936 37.557 22.4589 37.635C22.7108 37.707 22.7195 37.8456 22.7088 38.0409C22.7015 38.1628 22.7088 38.2854 22.7088 38.4074C22.7694 40.4694 24.2416 42.2062 26.2277 42.5521C26.2943 42.5694 26.361 42.5847 26.4223 42.598C26.8238 42.682 27.2383 42.682 27.6399 42.598V42.598C27.7065 42.584 27.7732 42.5674 27.8398 42.5487C28.8108 42.3614 29.6339 41.9016 30.273 41.1532C31.0401 40.2548 31.376 39.1951 31.3333 38.0149C31.328 37.8589 31.2894 37.713 31.5399 37.653C31.8265 37.581 31.9631 37.3218 31.9465 37.0305ZM28.9081 40.7473C27.9658 41.4671 26.9088 41.5937 25.8305 41.1538C24.7521 40.714 24.145 39.8609 23.9784 38.704C23.9667 38.6156 23.96 38.5266 23.9584 38.4374C23.9524 38.2161 23.8758 37.9555 23.9657 37.7829C24.065 37.5923 24.3469 37.7303 24.5475 37.7096C24.8601 37.677 25.062 37.527 25.1607 37.2331C25.2486 36.9712 25.3353 36.7093 25.4572 36.3461C25.6459 36.5593 25.7758 36.7273 25.9238 36.8732C26.9368 37.8496 26.5349 37.6956 27.9771 37.7076C28.5989 37.713 29.2207 37.717 29.8432 37.7043C30.0431 37.6996 30.1031 37.7496 30.1057 37.9595C30.1237 39.0725 29.8238 40.0475 28.9081 40.7473ZM27.3813 36.482C27.248 36.482 27.1814 36.3947 27.1087 36.3194C26.6295 35.8422 26.1557 35.3597 25.6738 34.8852C25.2466 34.464 24.7688 34.5693 24.5635 35.1311C24.4382 35.473 24.3129 35.8169 24.2176 36.1681C24.151 36.4081 24.0444 36.5267 23.7838 36.4827C23.6532 36.4717 23.522 36.4706 23.3912 36.4794C23.7491 34.606 25.312 33.3471 27.1574 33.4137C28.8901 33.477 30.4423 34.8359 30.6376 36.4794C29.5499 36.4767 28.4676 36.4747 27.3813 36.4794V36.482Z" fill="#24C79D"/>
<path d="M27.6492 28.8411L29.2134 27.257C29.4606 27.5102 29.6959 27.7622 29.9465 27.9988C30.0544 28.1021 30.0438 28.1607 29.9465 28.26C29.1267 29.0731 28.3163 29.8955 27.4932 30.7052C27.1873 31.0064 26.8635 31.0084 26.5536 30.7052C25.7285 29.8975 24.9188 29.0737 24.099 28.2613C23.9924 28.156 24.0024 28.0927 24.109 28.0014C24.3676 27.7795 24.5642 27.3516 24.8568 27.3496C25.0854 27.3496 25.3193 27.7495 25.5472 27.9741C25.8138 28.2407 26.0804 28.5073 26.3416 28.7738C26.4576 28.6985 26.4083 28.6012 26.4083 28.5239C26.4123 27.1364 26.4083 25.7482 26.4083 24.3606C26.4116 23.0277 26.9414 22.0007 28.1577 21.3856C28.6122 21.1563 29.1047 21.079 29.6092 21.0783C33.1725 21.0783 36.7363 21.0768 40.3004 21.0737C40.5064 21.0737 40.601 21.109 40.581 21.3402C40.5543 21.6468 40.6763 22.054 40.521 22.2386C40.3657 22.4232 39.9385 22.2959 39.632 22.2966C36.3122 22.3006 32.9926 22.3017 29.6732 22.2999C28.6375 22.2999 27.8845 22.8598 27.6825 23.7661C27.6653 23.8315 27.6555 23.8985 27.6532 23.9661C27.6485 25.5595 27.6492 27.155 27.6492 28.8411Z" fill="#24C79D"/>
<path d="M47.946 44.1482C47.4688 44.626 47.0183 45.0639 46.5857 45.5184C46.4424 45.669 46.3605 45.6697 46.2285 45.5137C46.0713 45.3263 45.8978 45.1533 45.71 44.9966C45.5387 44.8559 45.5821 44.774 45.7187 44.64C46.5018 43.8683 47.2742 43.0859 48.0513 42.3121C48.4331 41.9329 48.7364 41.9282 49.1116 42.3001C49.9007 43.0812 50.6777 43.8743 51.4728 44.6493C51.6334 44.806 51.5981 44.8853 51.4548 45.0059C51.2122 45.2098 51.025 45.6244 50.7617 45.6124C50.5298 45.6017 50.3105 45.2278 50.0953 45.0079C49.8227 44.7333 49.5568 44.4527 49.2769 44.1628C49.1802 44.2788 49.2149 44.3808 49.2149 44.4721C49.2149 45.8596 49.2202 47.2478 49.2102 48.6361C49.2029 49.6877 48.8463 50.5868 47.9906 51.2479C47.4486 51.6636 46.7822 51.8844 46.0992 51.8743C42.9003 51.8823 39.7013 51.8743 36.5063 51.8817C36.3231 51.8817 36.2504 51.8384 36.2624 51.6444C36.2784 51.3778 36.2724 51.1113 36.2624 50.8447C36.2577 50.7014 36.3051 50.6447 36.451 50.6541C36.6276 50.6641 36.8062 50.6541 36.9842 50.6541C39.9712 50.6541 42.958 50.6541 45.9446 50.6541C46.9623 50.6541 47.6674 50.1422 47.9173 49.2452C47.9543 49.0944 47.9704 48.9392 47.9653 48.784C47.9702 47.2965 47.9702 45.8081 47.9653 44.3188C47.9617 44.2616 47.9553 44.2047 47.946 44.1482V44.1482Z" fill="#24C79D"/>
<path d="M26.2283 42.5493C26.7621 42.6471 27.3093 42.6455 27.8425 42.5447C28.0691 42.7 28.347 42.5347 28.5756 42.6626H25.4946C25.7272 42.536 26.0017 42.6933 26.2283 42.5493Z" fill="#6F6F6F"/>
<path d="M47.3475 28.426H48.5691C48.57 28.4402 48.57 28.4544 48.5691 28.4686H47.3468C47.3488 28.4545 47.349 28.4402 47.3475 28.426V28.426Z" fill="#5D5D5E"/>
<path d="M51.6774 32.7985C51.6774 33.4017 51.6774 33.4017 51.0856 33.4017C50.4324 33.4017 50.4324 33.4017 50.4324 32.7599C50.4324 32.1567 50.4324 32.1567 51.0243 32.1567C51.6774 32.1567 51.6774 32.1567 51.6774 32.7985Z" fill="#F3F3F5"/>
<path d="M30.7129 47.0099C30.7129 47.5698 30.7129 47.5698 30.1684 47.5698C29.4919 47.5698 29.4919 47.5698 29.4919 46.9086C29.4919 46.3375 29.4919 46.3375 30.0531 46.3375C30.7129 46.3375 30.7129 46.3375 30.7129 47.0099Z" fill="#F3F3F5"/>
<path d="M51.6774 32.7985C51.6774 33.4017 51.6774 33.4017 51.0856 33.4017C50.4324 33.4017 50.4324 33.4017 50.4324 32.7599C50.4324 32.1567 50.4324 32.1567 51.0243 32.1567C51.6774 32.1567 51.6774 32.1567 51.6774 32.7985Z" fill="#24C79D"/>
<path d="M30.7129 47.0099C30.7129 47.5698 30.7129 47.5698 30.1684 47.5698C29.4919 47.5698 29.4919 47.5698 29.4919 46.9086C29.4919 46.3375 29.4919 46.3375 30.0531 46.3375C30.7129 46.3375 30.7129 46.3375 30.7129 47.0099Z" fill="#24C79D"/>
</g>
<defs>
<clipPath id="clip0_16_384">
<rect width="37" height="36.9653" fill="white" transform="translate(19 18)"/>
</clipPath>
</defs>
</svg>
