<svg width="76" height="76" viewBox="0 0 76 76" fill="none" xmlns="http://www.w3.org/2000/svg">
<rect width="76" height="76" rx="38" fill="#F6F9FB"/>
<g clip-path="url(#clip0_16_361)">
<path d="M55.428 35.9435C55.428 34.2004 55.4312 32.4573 55.428 30.7142C55.428 29.4947 54.6972 28.7665 53.4854 28.7639C51.5917 28.7613 49.698 28.7613 47.8043 28.7639C46.6248 28.7639 45.8804 29.4857 45.8772 30.66C45.869 34.1651 45.869 37.6704 45.8772 41.176C45.8804 42.3471 46.6306 43.085 47.7978 43.0882C49.7016 43.0947 51.6068 43.0915 53.508 43.0882C53.8308 43.0882 54.1536 43.0501 54.4422 42.8849C55.1201 42.4975 55.4338 41.9165 55.4293 41.1327C55.4203 39.4058 55.428 37.6743 55.428 35.9435ZM49.3918 30.0041C49.424 29.9182 49.4976 29.9511 49.5532 29.9511C50.3356 29.9511 51.1174 29.9511 51.9179 29.9511C51.7933 30.5561 51.7933 30.5561 51.2362 30.5561H49.7888C49.577 30.5502 49.3207 30.1945 49.3918 30.0034V30.0041ZM54.2337 41.094C54.2337 41.6834 54.029 41.8894 53.4415 41.8894C51.5818 41.8894 49.7221 41.8894 47.8624 41.8894C47.2749 41.8894 47.0702 41.6834 47.0702 41.094C47.0702 37.6431 47.0702 34.1924 47.0702 30.742C47.0702 30.2785 47.2032 30.0744 47.5576 29.9808C48.0057 29.8627 48.1064 29.9163 48.2362 30.3604C48.2788 30.5044 48.3207 30.6484 48.3653 30.7923C48.5544 31.4115 48.9741 31.7368 49.6209 31.7446C50.3096 31.7528 50.9982 31.7528 51.6868 31.7446C52.3324 31.7368 52.7527 31.4115 52.9425 30.7923C52.9864 30.6484 53.02 30.5012 53.0716 30.3611C53.1362 30.1823 53.0832 29.9214 53.4299 29.9427C53.8644 29.9692 54.1078 30.0777 54.1956 30.3947C54.2257 30.5195 54.2387 30.6479 54.2343 30.7762C54.2369 32.4978 54.2369 34.2176 54.2343 35.9357C54.2317 37.6539 54.2315 39.3731 54.2337 41.0934V41.094Z" fill="#24C79D"/>
<path d="M28.5605 37.2644C28.5805 35.6433 27.463 34.3108 25.8904 34.1714C25.8097 34.1643 25.7012 34.1797 25.6379 34.0881C27.0873 32.8537 27.0757 30.8763 25.964 29.6981C24.8523 28.5199 22.9529 28.4327 21.7799 29.5173C20.5681 30.64 20.3344 32.6555 21.9542 34.1223C21.5178 34.1952 21.1085 34.2327 20.7366 34.416C19.5507 35.0048 19.0213 35.9951 19.0084 37.2812C18.9929 38.9364 19.0039 40.5924 19.0045 42.2483C19.0045 42.8823 19.2189 43.094 19.8586 43.094H27.536C27.6431 43.094 27.751 43.0973 27.8588 43.094C28.3288 43.0766 28.547 42.859 28.556 42.3936C28.5618 42.1037 28.556 41.8125 28.556 41.5227C28.5567 40.105 28.5424 38.6847 28.5605 37.2644ZM23.7386 29.9544C24.6876 29.9111 25.5463 30.722 25.5747 31.691C25.5819 31.9276 25.5422 32.1633 25.4578 32.3844C25.3734 32.6056 25.2461 32.8078 25.0831 32.9795C24.9202 33.1512 24.7248 33.2889 24.5083 33.3846C24.2918 33.4804 24.0586 33.5323 23.8219 33.5374C22.8658 33.5722 22.0349 32.7743 22.0026 31.7943C21.9716 30.8278 22.7554 29.9989 23.7386 29.9544ZM27.1234 41.8913C26.0053 41.8874 24.8871 41.8913 23.7664 41.8913C22.6811 41.8913 21.5953 41.8855 20.5094 41.8958C20.2879 41.8958 20.1963 41.87 20.1989 41.6092C20.2144 40.1366 20.1989 38.6634 20.2092 37.1908C20.2156 36.1275 20.8903 35.3831 21.9523 35.3463C23.1789 35.305 24.4055 35.3069 25.6276 35.3463C26.6502 35.3799 27.3475 36.1068 27.3649 37.1333C27.3907 38.6485 27.3649 40.1676 27.3778 41.6802C27.3797 41.892 27.2777 41.892 27.1234 41.8913V41.8913Z" fill="#24C79D"/>
<path d="M42.054 48.2626C41.5892 47.0715 40.5691 46.4266 39.298 46.5344C38.6446 46.5905 38.1217 46.9217 37.684 47.384C37.5368 47.5376 37.478 47.5131 37.3438 47.373C36.8273 46.8275 36.2024 46.5085 35.4341 46.5176C33.9835 46.5221 32.7872 47.7829 32.751 49.313C32.7284 50.3098 33.17 51.1109 33.7491 51.8663C34.5425 52.8992 35.5426 53.7114 36.5826 54.4803C37.5232 55.1749 37.5103 55.1698 38.4497 54.4874C39.726 53.5597 40.9216 52.5558 41.7583 51.1878C42.3271 50.2588 42.4562 49.2878 42.054 48.2626ZM40.3438 51.1271C39.6156 52.1368 38.624 52.8586 37.6446 53.5978C37.6112 53.6311 37.5659 53.6498 37.5187 53.6498C37.4715 53.6498 37.4262 53.6311 37.3928 53.5978C36.1778 52.7185 35.0267 51.7785 34.2385 50.4673C33.7866 49.7197 33.8408 48.8533 34.4005 48.1955C34.9305 47.5718 35.8066 47.5331 36.3863 48.1135C36.5987 48.3259 36.7976 48.5518 37.0068 48.7681C37.3296 49.1006 37.6891 49.1077 38.0171 48.781C38.1998 48.5996 38.3696 48.4046 38.5426 48.2142C39.205 47.4853 40.2502 47.5686 40.7951 48.3911C40.9797 48.67 41.0959 49.0535 41.1004 49.5222C41.1327 50.0954 40.7183 50.6061 40.3438 51.1271Z" fill="#24C79D"/>
<path d="M41.7015 25.7652C41.0559 25.1196 40.4142 24.4688 39.7602 23.8284C39.6253 23.6993 39.6079 23.6057 39.7202 23.4565C39.8691 23.2457 39.9805 23.0107 40.0494 22.7619C40.4788 21.3836 40.2399 20.1318 39.2386 19.0949C38.3154 18.1382 37.154 17.8096 35.8454 18.0994C35.0037 18.2921 34.2609 18.7845 33.7556 19.4847C33.2504 20.1849 33.0172 21.045 33.0997 21.9045C33.2785 23.8103 34.8195 25.1757 36.7001 25.1706C37.3487 25.1848 37.9863 25.0023 38.5291 24.647C38.7124 24.5302 38.8093 24.5553 38.9545 24.7051C39.5607 25.3294 40.1811 25.9401 40.797 26.5547C40.9681 26.7252 41.1534 26.8711 41.4187 26.8207C41.5261 26.8067 41.6273 26.7631 41.7112 26.6946C41.795 26.6262 41.8581 26.5357 41.8932 26.4333C41.9843 26.1751 41.8907 25.9537 41.7015 25.7652ZM36.6962 23.9872C36.3831 23.9872 36.073 23.9255 35.7836 23.8057C35.4943 23.6858 35.2314 23.5102 35.0099 23.2887C34.7885 23.0673 34.6128 22.8044 34.493 22.515C34.3731 22.2257 34.3114 21.9156 34.3114 21.6024C34.3114 21.2892 34.3731 20.9791 34.493 20.6898C34.6128 20.4004 34.7885 20.1376 35.0099 19.9161C35.2314 19.6947 35.4943 19.519 35.7836 19.3991C36.073 19.2793 36.3831 19.2176 36.6962 19.2176C37.3287 19.2176 37.9353 19.4689 38.3826 19.9161C38.8298 20.3633 39.0811 20.9699 39.0811 21.6024C39.0811 22.2349 38.8298 22.8415 38.3826 23.2887C37.9353 23.736 37.3287 23.9872 36.6962 23.9872V23.9872Z" fill="#24C79D"/>
<path d="M50.0496 24.4694C50.0496 23.4978 50.0496 22.6224 50.0496 21.747C50.0496 21.5107 49.8708 21.6069 49.7701 21.6069C48.3291 21.6004 46.8888 21.6024 45.4485 21.6024C44.4917 21.6024 43.535 21.5959 42.5782 21.6075C42.3619 21.6075 42.267 21.5707 42.2883 21.3319C42.3148 21.0343 42.1947 20.6424 42.3439 20.4597C42.493 20.277 42.9075 20.4016 43.2044 20.4009C45.5905 20.3958 47.977 20.3958 50.364 20.4009C51.0554 20.4009 51.2536 20.5946 51.2536 21.2757C51.2536 22.2867 51.2536 23.2981 51.2536 24.31C51.2591 24.3534 51.2669 24.3965 51.2769 24.4391L52.2517 23.0627C52.5287 23.2519 52.7882 23.4423 53.0613 23.6114C53.2098 23.7038 53.2091 23.7735 53.1123 23.9097C52.4583 24.8277 51.8211 25.7561 51.1626 26.6735C50.8624 27.0931 50.4286 27.0873 50.1297 26.6683C49.4841 25.7567 48.8514 24.8361 48.2 23.9297C48.076 23.758 48.1057 23.685 48.2678 23.5869C48.4787 23.4584 48.6824 23.3183 48.8779 23.1673C49.0102 23.0646 49.0819 23.0846 49.1729 23.2202C49.4421 23.6102 49.7197 23.9975 50.0496 24.4694Z" fill="#24C79D"/>
<path d="M23.7806 47.3814C23.452 47.8494 23.1724 48.2368 22.9065 48.6338C22.8167 48.7675 22.7554 48.801 22.6153 48.6893C22.3648 48.4899 21.9562 48.3569 21.8767 48.1083C21.8044 47.8862 22.1698 47.606 22.3442 47.3536C22.8339 46.6473 23.3276 45.9439 23.8251 45.2432C24.1641 44.7648 24.5998 44.7642 24.942 45.2432C25.576 46.1367 26.2016 47.0366 26.8375 47.9288C26.9388 48.0709 26.9517 48.1483 26.7826 48.2452C26.5591 48.3737 26.3466 48.5206 26.1473 48.6842C26.0027 48.8036 25.9459 48.7526 25.8594 48.6241C25.5941 48.2278 25.3158 47.8397 24.9853 47.3659C24.9853 48.3414 24.9885 49.2181 24.9853 50.0942C24.9853 50.2917 25.1144 50.2523 25.2241 50.2523C26.1602 50.2523 27.0959 50.2523 28.0311 50.2523C28.913 50.2523 29.7955 50.2575 30.6781 50.2485C30.8717 50.2485 30.9731 50.2743 30.9524 50.5067C30.9266 50.8037 31.0461 51.1962 30.8969 51.3776C30.7478 51.559 30.3333 51.4344 30.0363 51.435C28.2287 51.4409 26.4211 51.4383 24.6134 51.435C23.9885 51.435 23.7825 51.231 23.7819 50.61C23.7819 49.6631 23.7819 48.7162 23.7819 47.7694L23.7806 47.3814Z" fill="#24C79D"/>
<path d="M27.6638 21.6024C26.6748 21.6024 25.6857 21.6108 24.6973 21.5972C24.452 21.5933 24.3745 21.6488 24.3745 21.909C24.3881 23.4888 24.3745 25.0692 24.3887 26.6489C24.3887 26.9265 24.3106 27.0008 24.0491 26.9749C23.7741 26.9472 23.4087 27.0602 23.2415 26.9207C23.0743 26.7813 23.1905 26.3978 23.1892 26.1221C23.1841 24.4881 23.1892 22.8542 23.1892 21.2208C23.1892 20.614 23.399 20.3983 23.9969 20.3983C26.2112 20.3983 28.4256 20.4029 30.64 20.3912C30.9053 20.3912 30.9705 20.4732 30.9486 20.714C30.9304 20.9288 30.9304 21.1448 30.9486 21.3596C30.966 21.5643 30.8905 21.6095 30.6955 21.6075C29.6851 21.5972 28.6741 21.6024 27.6638 21.6024Z" fill="#24C79D"/>
<path d="M47.75 51.4409C46.6215 51.4409 45.4905 51.4338 44.3652 51.4467C44.1354 51.4467 44.0689 51.386 44.0869 51.162C44.1108 50.8747 43.992 50.4893 44.1373 50.3227C44.3058 50.129 44.7009 50.2627 44.9966 50.262C46.7803 50.2556 48.5641 50.2523 50.3479 50.262C50.6106 50.262 50.6604 50.1846 50.6591 49.9392C50.6481 48.3601 50.6591 46.7804 50.6494 45.2013C50.6494 44.9695 50.6765 44.8417 50.9547 44.8708C51.233 44.8998 51.6242 44.7804 51.794 44.9256C51.9638 45.0709 51.8457 45.4711 51.8463 45.7591C51.851 47.3816 51.851 49.004 51.8463 50.6261C51.8463 51.2401 51.6526 51.4363 51.0374 51.437C49.9407 51.4409 48.8449 51.4422 47.75 51.4409Z" fill="#24C79D"/>
</g>
<defs>
<clipPath id="clip0_16_361">
<rect width="36.4312" height="37" fill="white" transform="translate(19 18)"/>
</clipPath>
</defs>
</svg>
