<svg width="76" height="76" viewBox="0 0 76 76" fill="none" xmlns="http://www.w3.org/2000/svg">
<rect width="76" height="76" rx="38" fill="#F6F9FB"/>
<g clip-path="url(#clip0_16_338)">
<path d="M55.9918 26.5864C55.994 26.4857 55.9897 26.3849 55.9789 26.2846C55.6466 23.784 53.6034 22.0054 51.0451 22.0034C45.3602 21.9994 39.6751 21.9994 33.9898 22.0034C31.2826 22.0034 29.183 23.9662 29.0281 26.6416C29.0131 26.895 28.954 26.9716 28.6882 26.9696C27.0237 26.9582 25.3578 26.9696 23.6946 26.9696C23.0463 26.9698 22.4074 27.1228 21.8309 27.4159C20.0542 28.3052 19.0652 29.7283 19.017 31.7133C18.9776 33.4032 19.0088 35.0951 19.0088 36.7857C19.0088 38.4877 18.9912 40.1897 19.0136 41.8944C19.0415 44.0454 20.5769 45.935 22.6907 46.4653C23.4594 46.6576 24.2417 46.6173 25.0213 46.6058C25.2932 46.6018 25.3809 46.6576 25.3782 46.948C25.3632 48.8402 25.37 50.7325 25.3714 52.6254C25.3689 52.7707 25.3771 52.9161 25.3958 53.0603C25.4461 53.3964 25.6487 53.598 25.9729 53.6895C26.3637 53.7963 26.6444 53.6108 26.9061 53.3534C29.0983 51.1813 31.2907 49.0101 33.4834 46.8398C33.5537 46.7631 33.6402 46.7028 33.7368 46.6631C33.8334 46.6233 33.9376 46.6052 34.0421 46.6099C36.4434 46.6159 38.8441 46.626 41.2468 46.6011C42.4987 46.5884 43.5822 46.1118 44.4685 45.2345C44.6676 45.0376 44.7668 45.0752 44.9442 45.252C45.9746 46.2919 47.0159 47.321 48.0558 48.3515C48.1572 48.4565 48.269 48.5511 48.3896 48.6339C48.4989 48.7107 48.6264 48.7584 48.7598 48.7722C48.8932 48.7861 49.028 48.7656 49.1511 48.7128C49.2741 48.66 49.3813 48.5766 49.4622 48.4708C49.5432 48.365 49.5951 48.2403 49.613 48.1089C49.6316 47.9752 49.6395 47.8404 49.6368 47.7055C49.6368 45.8126 49.6463 43.9204 49.6286 42.0275C49.6286 41.7062 49.7272 41.6457 50.0215 41.6558C50.5075 41.6719 50.9955 41.6558 51.4808 41.6322C53.8896 41.5059 55.9667 39.4173 55.9898 37.0398C56.0136 33.5517 55.9918 30.0691 55.9918 26.5864ZM43.3782 44.0905C42.7099 44.7087 41.8231 45.0432 40.9083 45.0221C38.5083 45.0073 36.1077 45.0221 33.7077 45.012C33.5 45.0037 33.293 45.0397 33.1007 45.1175C32.9083 45.1953 32.7352 45.3132 32.593 45.4631C30.8333 47.2222 29.0586 48.9666 27.2915 50.7163C27.2058 50.801 27.1161 50.881 26.9843 51.0047C26.9843 49.2866 26.9843 47.6437 26.9843 45.9948C26.9843 45.2984 26.7022 45.0208 25.996 45.0181C25.3394 45.0181 24.6822 45.0053 24.0249 45.0181C23.5743 45.0317 23.1256 44.9542 22.7064 44.7903C22.2871 44.6263 21.9061 44.3795 21.5867 44.0648C21.2673 43.7501 21.0163 43.3743 20.8489 42.9603C20.6816 42.5463 20.6015 42.1028 20.6136 41.6571C20.6448 40.3483 20.6176 39.0355 20.619 37.7274C20.6217 35.7014 20.6256 33.6752 20.6306 31.6488C20.634 30.1504 21.9294 28.5822 23.8373 28.5405C25.4896 28.5042 27.1433 28.5365 28.799 28.5244C29.0709 28.5244 29.0138 28.6817 29.0138 28.8282C29.0138 31.4148 29.0192 34.0008 29.0138 36.5874C29.009 38.0864 29.5072 39.3696 30.6369 40.3893C31.6204 41.2773 32.7942 41.6598 34.1141 41.6571C36.4013 41.6524 38.6884 41.6571 40.9749 41.6504C41.0798 41.646 41.1844 41.6647 41.2812 41.7052C41.3779 41.7456 41.4643 41.8068 41.5343 41.8843C42.1446 42.5 42.7643 43.1064 43.3932 43.7033C43.5536 43.8646 43.5346 43.95 43.3782 44.0905ZM54.4041 36.8227C54.3898 38.6578 52.9401 40.0344 51.0736 40.0653C50.3831 40.0761 49.6925 40.0653 49.002 40.0653C48.3114 40.0653 48.0266 40.349 48.0259 41.0212C48.0259 42.6755 48.0259 44.3298 48.0259 46.0526L43.5536 41.6349C43.1614 41.2471 42.7591 40.8686 42.3771 40.4714C42.2515 40.3355 42.0975 40.2285 41.9257 40.1578C41.7539 40.0871 41.5686 40.0544 41.3827 40.062C38.9358 40.0718 36.4903 40.0732 34.0462 40.066C32.625 40.0627 31.5748 39.4362 30.9305 38.1839C30.7215 37.759 30.6176 37.291 30.6274 36.8186C30.6274 33.4939 30.6178 30.1686 30.6328 26.8439C30.641 25.0585 31.9663 23.7081 33.7682 23.5965C33.8919 23.5884 34.017 23.5844 34.1413 23.5844C39.7229 23.5844 45.3042 23.5844 50.8854 23.5844C51.7547 23.5844 52.5404 23.7941 53.2106 24.3574C53.9773 25.0027 54.3987 25.8309 54.4041 26.8197C54.4224 30.1504 54.4286 33.4872 54.4041 36.8227Z" fill="#24C79D"/>
</g>
<defs>
<clipPath id="clip0_16_338">
<rect width="37" height="31.7143" fill="white" transform="translate(19 22)"/>
</clipPath>
</defs>
</svg>
