<svg xmlns:cc="http://creativecommons.org/ns#" xmlns:dc="http://purl.org/dc/elements/1.1/" xmlns:rdf="http://www.w3.org/1999/02/22-rdf-syntax-ns#" xmlns="http://www.w3.org/2000/svg" xmlns:xlink="http://www.w3.org/1999/xlink" version="1.1" x="0px" y="0px" xml:space="preserve" viewBox="177.53 321.96 668.93 124.08">

 
 <g id="logo-group" transform="translate(-.0034950 .071985) scale(1)">
  <path id="path12" style="font-variant-ligatures:normal" d="m377.53 424.32v-80.419h26.359c5.4575 0 10.75 1.0397 15.734 3.0995 4.8402 1.997 9.1847 4.8702 12.902 8.5255 3.7384 3.6762 6.6822 7.9802 8.7322 12.779 2.1213 4.9736 3.2021 10.276 3.2021 15.754 0 5.4777-1.0809 10.781-3.2021 15.764-2.05 4.8095-4.9841 9.1135-8.7224 12.809-3.7272 3.6769-8.0619 6.5607-12.902 8.5688-4.9827 2.0696-10.287 3.1197-15.744 3.1197h-26.359zm26.359-16.167c6.5593 0 12.697-2.4913 17.3-7.0327 4.5819-4.5204 7.1039-10.585 7.1039-17.062 0-6.4664-2.522-12.501-7.0942-17-4.5916-4.5106-10.739-6.9922-17.309-6.9922h-10.194v48.087z" class="c1" stroke-miterlimit="2" stroke-width="0" fill="#24c79d"/>
  <path id="path15" style="font-variant-ligatures:normal" d="m473.54 421.43c-4.8402-2.0494-9.1847-4.9736-12.913-8.7008-3.7272-3.7279-6.6514-8.0731-8.7008-12.913-2.1213-5.0148-3.1924-10.338-3.1924-15.816 0-5.4777 1.0711-10.802 3.1924-15.816 2.0494-4.8395 4.9736-9.1854 8.7008-12.913 3.7279-3.7272 8.0724-6.6515 12.913-8.7008 5.0148-2.1213 10.338-3.1924 15.815-3.1924 5.4784 0 10.802 1.0711 15.817 3.1924 4.8402 2.0493 9.1847 4.9736 12.912 8.7008 3.7286 3.7272 6.6528 8.0731 8.7015 12.913 2.1213 5.0141 3.1924 10.338 3.1924 15.816 0 5.4777-1.0711 10.801-3.1924 15.816-2.0486 4.8395-4.9729 9.1847-8.7015 12.913-3.7272 3.7272-8.0717 6.6515-12.912 8.7008-5.0148 2.1213-10.338 3.1917-15.817 3.1917-5.477 0-10.8-1.0704-15.815-3.1917zm-1.4831-54.718c-4.6238 4.6231-7.1668 10.76-7.1668 17.299 0 6.5383 2.543 12.675 7.1668 17.298 4.6238 4.6238 10.76 7.1668 17.298 7.1668 6.5397 0 12.676-2.543 17.3-7.1668 4.6224-4.6231 7.1668-10.76 7.1668-17.298 0-6.539-2.5444-12.676-7.1668-17.299-4.6238-4.6231-10.771-7.1668-17.3-7.1668-6.5272 0-12.674 2.5437-17.298 7.1668z" class="c1" stroke-miterlimit="2" stroke-width="0" fill="#24c79d"/>
  <path id="path18" style="font-variant-ligatures:normal" d="m599.84 424.21h-19.533l-19.121-27.565v-15.682h3.089c4.8695 0 8.5144-1.0711 10.821-3.1924 1.9774-1.8224 2.9759-4.4485 2.9759-7.8259 0-3.5212-1.0292-6.1983-3.0583-7.9488-2.0794-1.8022-5.3751-2.7594-9.5045-2.7594h-12.149v64.974h-16.166v-80.316h29.552c4.5204 0 8.5982 0.64866 12.14 1.925 3.4912 1.2666 6.4769 3.1616 8.876 5.6222 4.438 4.5616 6.7855 11.028 6.7855 18.709 0 6.8888-1.9048 12.583-5.6627 16.928-2.6156 3.0171-6.0649 5.3234-10.296 6.8784z" class="c1" stroke-miterlimit="2" stroke-width="0" fill="#24c79d"/>
  <path id="path21" style="font-variant-ligatures:normal" d="m622.15 421.43c-4.8402-2.0494-9.1847-4.9736-12.913-8.7008-3.7272-3.7279-6.6514-8.0731-8.7008-12.913-2.1213-5.0148-3.1924-10.338-3.1924-15.816 0-5.4777 1.0711-10.802 3.1924-15.816 2.0494-4.8395 4.9736-9.1854 8.7008-12.913 3.7279-3.7272 8.0724-6.6515 12.913-8.7008 5.0148-2.1213 10.338-3.1924 15.815-3.1924 5.4784 0 10.802 1.0711 15.817 3.1924 4.8402 2.0493 9.1847 4.9736 12.912 8.7008 3.7286 3.7272 6.6528 8.0731 8.7015 12.913 2.1213 5.0141 3.1924 10.338 3.1924 15.816 0 5.4777-1.0711 10.801-3.1924 15.816-2.0486 4.8395-4.9729 9.1847-8.7015 12.913-3.7272 3.7272-8.0717 6.6515-12.912 8.7008-5.0148 2.1213-10.338 3.1917-15.817 3.1917-5.477 0-10.8-1.0704-15.815-3.1917zm-1.4831-54.718c-4.6238 4.6231-7.1668 10.76-7.1668 17.299 0 6.5383 2.543 12.675 7.1668 17.298 4.6238 4.6238 10.76 7.1668 17.298 7.1668 6.5397 0 12.676-2.543 17.3-7.1668 4.6224-4.6231 7.1668-10.76 7.1668-17.298 0-6.539-2.5444-12.676-7.1668-17.299-4.6238-4.6231-10.771-7.1668-17.3-7.1668-6.5272 0-12.674 2.5437-17.298 7.1668z" class="c1" stroke-miterlimit="2" stroke-width="0" fill="#24c79d"/>
  <path id="path24" style="font-variant-ligatures:normal" d="m707.01 421.43c-4.8402-2.0494-9.1847-4.9736-12.913-8.7008-3.7272-3.7279-6.6514-8.0731-8.7008-12.913-2.1213-5.0148-3.1924-10.338-3.1924-15.816 0-5.4777 1.0711-10.802 3.1924-15.816 2.0494-4.8395 4.9736-9.1854 8.7008-12.913 3.7279-3.7272 8.0724-6.6515 12.913-8.7008 5.0148-2.1213 10.338-3.1924 15.815-3.1924 5.4784 0 10.802 1.0711 15.817 3.1924 4.8402 2.0493 9.1847 4.9736 12.912 8.7008 3.7286 3.7272 6.6528 8.0731 8.7015 12.913 2.1213 5.0141 3.1924 10.338 3.1924 15.816 0 5.4777-1.0711 10.801-3.1924 15.816-2.0486 4.8395-4.9729 9.1847-8.7015 12.913-3.7272 3.7272-8.0717 6.6515-12.912 8.7008-5.0148 2.1213-10.338 3.1917-15.817 3.1917-5.477 0-10.8-1.0704-15.815-3.1917zm-1.4831-54.718c-4.6238 4.6231-7.1668 10.76-7.1668 17.299 0 6.5383 2.543 12.675 7.1668 17.298 4.6238 4.6238 10.76 7.1668 17.298 7.1668 6.5397 0 12.676-2.543 17.3-7.1668 4.6224-4.6231 7.1668-10.76 7.1668-17.298 0-6.539-2.5444-12.676-7.1668-17.299-4.6238-4.6231-10.771-7.1668-17.3-7.1668-6.5272 0-12.674 2.5437-17.298 7.1668z" class="c1" stroke-miterlimit="2" stroke-width="0" fill="#24c79d"/>
  <path id="path27" style="font-variant-ligatures:normal" d="m766.27 412.36-2.1729-2.3279 10.637-12.726 2.7483 3.4493c2.152 2.698 4.9631 4.9114 8.115 6.3945 2.9647 1.4 6.1669 2.131 9.2559 2.131 3.6462 0 6.7548-0.80298 8.7532-2.2546 1.8015-1.3078 2.6771-3.0583 2.6771-5.3646 0-2.513-0.77226-4.0673-2.7385-5.5398-2.2665-1.689-5.9323-3.0688-10.185-4.6747-0.36029-0.13399-0.73036-0.27791-1.1116-0.42244-5.8387-2.1722-11.45-4.4066-15.951-7.99-2.6149-2.0801-4.5504-4.3766-5.9204-7.0124-1.5236-2.9242-2.2958-6.25-2.2958-9.885 0-6.3324 2.7392-12.191 7.7023-16.496 4.8193-4.1699 11.295-6.4657 18.246-6.4657 8.978 0 17.741 3.2329 25.329 9.339l2.7399 2.2141-9.8759 12.85-2.8824-2.3684c-5.0762-4.1908-10.658-6.59-15.311-6.59-4.3249 0-9.3914 1.8741-9.4738 7.1563-0.0307 2.358 1.1018 3.6448 2.8209 4.85 2.462 1.7296 6.3736 3.2224 10.514 4.8081l0.0405 0.0104c0.64936 0.25766 1.2973 0.5153 1.9467 0.76178 5.8582 2.2965 11.398 4.459 15.599 7.9188 4.9631 4.098 7.3832 9.4933 7.3832 16.506 0 3.7998-0.81275 7.3315-2.4201 10.502-1.5138 2.9661-3.6755 5.551-6.456 7.6821-5.065 3.871-11.892 6.0133-19.234 6.0133-10.854-0.00001-20.965-4.4269-28.481-12.469z" class="c1" stroke-miterlimit="2" stroke-width="0" fill="#24c79d"/>
  <path id="path30" style="font-variant-ligatures:normal" d="m830.3 349.05 16.166-5.1481v80.316h-16.166z" class="c1" stroke-miterlimit="2" stroke-width="0" fill="#24c79d"/>
  <path id="icon" stroke-width=".75" fill="#9de5d0" d="m210.96 321.9c-0.32443 0.003-0.7481 0.0221-0.942 0.0425-0.19391 0.02-0.58172 0.083-0.86198 0.1397-0.28022 0.0571-0.74392 0.18014-1.0304 0.27355-0.28648 0.0938-0.7806 0.29774-1.0979 0.45328-0.31734 0.15596-0.77392 0.41408-1.015 0.57337-0.24061 0.15972-0.60674 0.43243-0.81315 0.60591-0.20642 0.17347-0.5371 0.48205-0.73434 0.68513-0.19766 0.20308-0.46079 0.49164-0.58505 0.64052-0.12427 0.14928-0.34986 0.44952-0.50124 0.66719-0.15137 0.2181-0.3999 0.61425-0.5521 0.88028-0.15221 0.26646-0.38656 0.73558-0.52125 1.0425-0.13469 0.30733-0.32943 0.82193-0.43326 1.1443-0.10383 0.32235-0.23644 0.80063-0.29524 1.0634-0.0588 0.26271-0.13636 0.67388-0.17222 0.9141-0.0359 0.2402-0.0851 0.73767-0.10925 1.105-0.0242 0.3678-0.05 0.67471-0.0576 0.68222-0.007 0.008-0.37656-0.0717-0.82028-0.17597-0.44327-0.10467-1.0216-0.23644-1.2856-0.29273-0.26355-0.0563-0.73184-0.1226-1.0404-0.14721-0.30858-0.0242-0.81525-0.0438-1.1259-0.0434-0.31067 0.00041-0.75683 0.0279-0.9912 0.0613-0.23436 0.0334-0.57546 0.0988-0.7581 0.14512-0.18265 0.0467-0.49749 0.14303-0.69973 0.21434-0.20225 0.0709-0.56754 0.23101-0.8115 0.35528-0.24437 0.12468-0.6009 0.33151-0.7923 0.45953-0.19182 0.12844-0.49248 0.3532-0.66845 0.49998-0.17556 0.14678-0.45453 0.41117-0.61967 0.58797-0.16471 0.17639-0.37947 0.42492-0.47704 0.5517-0.0976 0.12676-0.2844 0.39448-0.41492 0.59505-0.13052 0.20058-0.3286 0.55712-0.44035 0.7923-0.11134 0.23519-0.25854 0.58881-0.32735 0.78563-0.0688 0.19682-0.17263 0.57212-0.23101 0.834-0.0584 0.26187-0.12552 0.67053-0.14929 0.90825-0.0242 0.23727-0.0438 1.3144-0.0438 2.3932v1.9616l-0.71933-0.0267c-0.39573-0.0146-1.2448-0.0384-1.8869-0.0525-0.76853-0.0175-1.349-0.01-1.698 0.0221-0.2919 0.0267-0.67679 0.0763-0.85485 0.11008-0.17848 0.0342-0.50165 0.10967-0.71807 0.16847-0.21601 0.0588-0.58214 0.18181-0.81315 0.27313-0.23061 0.0913-0.61216 0.26771-0.84735 0.39156-0.23519 0.12427-0.56379 0.31775-0.72975 0.42993-0.16597 0.11259-0.4145 0.2919-0.55211 0.39865-0.13761 0.10634-0.43534 0.37572-0.66178 0.59798-0.22601 0.22226-0.51916 0.53627-0.65094 0.69722-0.13135 0.16138-0.36404 0.48372-0.51666 0.71641-0.1522 0.23269-0.38906 0.65469-0.52584 0.93825-0.13677 0.28314-0.32234 0.74018-0.41241 1.0154-0.0901 0.27522-0.20266 0.69723-0.2502 0.93825-0.0479 0.24061-0.10716 0.64427-0.13177 0.89656-0.0313 0.32359-0.0409 10.325-0.0317 33.923l0.0133 33.464 0.088 0.3753c0.0484 0.20642 0.14762 0.55336 0.22059 0.77145 0.073 0.21768 0.22769 0.59006 0.34361 0.82696 0.11634 0.23685 0.33693 0.62174 0.4908 0.85485 0.15387 0.2331 0.43077 0.61173 0.6155 0.84105 0.18473 0.22935 0.55878 0.63258 0.83107 0.89654 0.27231 0.26355 0.65469 0.60757 0.84945 0.76441 0.19516 0.15678 0.61716 0.45995 0.93825 0.67386 0.32109 0.21393 0.7998 0.50208 1.0634 0.6401 0.26355 0.13845 0.68597 0.33568 0.93825 0.43827 0.25229 0.10258 0.60423 0.22852 0.78188 0.28022l0.32317 0.0934v3.7897c0 2.3756 0.0163 3.9411 0.0442 4.195 0.0242 0.22268 0.0913 0.61841 0.14929 0.87945 0.0575 0.26104 0.17013 0.66469 0.24978 0.89655 0.0792 0.23226 0.26437 0.66595 0.41074 0.96412 0.14637 0.29816 0.37655 0.71099 0.51125 0.9174 0.1351 0.20642 0.39657 0.56295 0.58129 0.7923 0.18515 0.22935 0.53751 0.61091 0.78398 0.84818 0.24603 0.23728 0.64301 0.5763 0.88192 0.75352 0.23852 0.17723 0.57921 0.40866 0.75645 0.51375 0.17723 0.10508 0.49665 0.27855 0.71015 0.38489 0.21309 0.10675 0.55795 0.25978 0.7656 0.34027 0.20767 0.0801 0.63176 0.211 0.94245 0.29023 0.31025 0.0796 0.80063 0.17264 1.0896 0.20642 0.45704 0.0534 3.6325 0.0613 24.357 0.0625l23.832 0.00075 0.417 0.46412c0.22935 0.2552 0.67388 0.70222 0.9879 0.99375 0.31401 0.29106 0.7456 0.67095 0.9591 0.84397 0.21351 0.17264 0.53835 0.42159 0.72183 0.55253 0.18348 0.13135 0.5567 0.37071 0.8298 0.53251 0.27272 0.16137 0.72767 0.39406 1.0112 0.51666 0.28314 0.1226 0.70723 0.27689 0.94245 0.34278 0.23518 0.0659 0.56837 0.14553 0.74017 0.1768 0.25521 0.0471 1.3277 0.0575 5.838 0.0575h5.5252l0.43785-0.0959c0.24102-0.053 0.63509-0.1618 0.8757-0.2427 0.24102-0.0809 0.6843-0.2673 0.98535-0.4145 0.30065-0.1472 0.82605-0.45369 1.1676-0.68054 0.3411-0.22685 0.85612-0.60923 1.1451-0.84983 0.28857-0.24018 0.76725-0.67345 1.0634-0.96202 0.29607-0.28856 0.67929-0.68388 0.8511-0.8778l0.31275-0.3532 24.713-0.003c16.863-0.002 24.85-0.0171 25.145-0.0471 0.2377-0.0238 0.64635-0.0909 0.90825-0.14929 0.26188-0.0583 0.63718-0.16221 0.83401-0.2306 0.19682-0.0688 0.57045-0.22642 0.83069-0.35028 0.26022-0.12385 0.65428-0.34444 0.8757-0.48997 0.22144-0.14553 0.54461-0.37905 0.71766-0.51875 0.17348-0.1397 0.49957-0.44619 0.72475-0.68096 0.2256-0.23477 0.55419-0.62175 0.731-0.85943 0.17639-0.23811 0.43326-0.63384 0.57004-0.87945 0.13719-0.24603 0.32026-0.60423 0.40658-0.79687 0.0867-0.19224 0.23018-0.56754 0.319-0.834 0.0888-0.26605 0.20892-0.71892 0.26646-1.0054 0.0575-0.28689 0.12427-0.72766 0.14762-0.97995 0.0263-0.27688 0.0442-2.0708 0.0459-4.5244l0.003-4.0658 0.36196-0.1743c0.19932-0.0959 0.56879-0.31067 0.8211-0.47664 0.33527-0.22101 0.60549-0.4491 1.0033-0.84735 0.40115-0.40115 0.62883-0.67137 0.8628-1.0246 0.17514-0.26396 0.43076-0.71432 0.56837-1.0008 0.13719-0.2869 0.31525-0.71849 0.3949-0.9591 0.0796-0.24103 0.19432-0.67262 0.25479-0.9591 0.0609-0.2869 0.13719-0.77475 0.17013-1.0842 0.0517-0.48455 0.0601-5.2216 0.0605-33.95 0.00042-22.514-0.0134-33.528-0.0425-33.819-0.0233-0.23769-0.0817-0.62925-0.12927-0.86985-0.0476-0.24103-0.16012-0.66303-0.2502-0.93825-0.0901-0.27522-0.2748-0.731-0.41115-1.0129-0.13595-0.28147-0.35362-0.67554-0.48372-0.8757-0.12969-0.19974-0.35362-0.51333-0.49749-0.69681-0.14386-0.18348-0.42742-0.50082-0.6305-0.70515s-0.50999-0.48414-0.68221-0.62175c-0.17181-0.13803-0.48164-0.36237-0.68805-0.49873-0.20642-0.13636-0.61925-0.36613-0.9174-0.51125-0.29816-0.14511-0.74352-0.33026-0.98993-0.41199-0.24645-0.0817-0.67804-0.19474-0.9591-0.25104s-0.7456-0.12426-1.0325-0.15054c-0.33777-0.0313-0.9249-0.0392-1.668-0.0225-0.63051 0.0142-1.4782 0.0375-1.8836 0.0517l-0.73684 0.0259-0.0179-2.3098c-0.015-1.9078-0.0305-2.3819-0.0884-2.7263-0.0384-0.22935-0.10926-0.58589-0.15763-0.7923-0.0479-0.20642-0.16137-0.59131-0.25187-0.85485-0.0905-0.26397-0.26646-0.6843-0.39114-0.9345-0.12469-0.2502-0.33319-0.61299-0.46287-0.80603-0.12969-0.19307-0.37238-0.50665-0.53877-0.69722-0.16638-0.19016-0.42742-0.45203-0.58046-0.58214-0.15304-0.12969-0.41283-0.32651-0.57671-0.43743-0.1643-0.1105-0.44828-0.27647-0.63176-0.36862-0.18306-0.0922-0.49831-0.22601-0.70014-0.2969-0.20182-0.0713-0.54919-0.16847-0.77145-0.21601-0.25771-0.0546-0.63926-0.0947-1.0508-0.10925-0.49665-0.0179-0.73809-0.008-1.0425 0.045-0.21768 0.038-0.7806 0.15471-1.251 0.25938-0.46996 0.10508-1.4366 0.33777-2.1476 0.51708-0.71099 0.17931-1.8744 0.48622-2.5854 0.68137-0.71099 0.19557-1.7147 0.47997-2.231 0.63176-0.51583 0.15178-1.5479 0.46412-2.2935 0.69388-0.74518 0.22977-2.1622 0.68597-3.1484 1.0137-0.98618 0.32777-2.356 0.79733-3.0441 1.043-0.68805 0.24561-1.9265 0.70056-2.7522 1.0108-0.82568 0.31024-2.105 0.80565-2.8431 1.1005-0.73809 0.29482-1.864 0.75435-2.502 1.0204-0.63801 0.26646-1.6947 0.71932-2.3486 1.0066-0.65386 0.28731-1.7326 0.7719-2.3978 1.0762-0.66512 0.30441-1.8006 0.8382-2.5228 1.1855-0.72225 0.34736-1.9048 0.93323-2.6271 1.3018-0.72225 0.36863-1.7543 0.90533-2.2935 1.1922-0.53919 0.28731-1.3365 0.71933-1.7722 0.95993-0.43577 0.24102-1.1864 0.66303-1.668 0.9378-0.48164 0.27522-1.1947 0.68805-1.5846 0.91822-0.3899 0.22977-1.0934 0.65261-1.5638 0.93908-0.46996 0.28647-1.2393 0.76522-1.7097 1.0638-0.46996 0.29857-1.2352 0.79275-1.7001 1.0976-0.46496 0.30483-1.2344 0.82147-1.7097 1.1476-0.47538 0.32609-1.324 0.9207-1.8861 1.3215-0.5617 0.40074-1.5188 1.1042-2.1267 1.5633-0.60757 0.45912-1.3724 1.0471-1.6988 1.3064l-0.59422 0.47204-0.66554-0.52083c-0.3585-0.297-1.095-0.8565-1.6298-1.2548-0.53475-0.3975-1.4032-1.0282-1.9305-1.4018-0.52725-0.37275-1.7378-1.1978-2.6895-1.833-0.95175-0.63525-2.3685-1.5592-3.1485-2.0535-0.78-0.49425-1.9148-1.2082-2.523-1.5855-0.6075-0.37725-1.239-0.76875-1.4025-0.87l-0.29774-0.18306-0.0213-3.1088c-0.0157-2.3062-0.0382-3.312-0.087-3.9-0.0367-0.43575-0.0945-1.0178-0.1305-1.293-0.0353-0.27525-0.11175-0.7725-0.1695-1.1048-0.0578-0.333-0.16875-0.86025-0.2475-1.1722-0.078-0.312-0.20175-0.753-0.27375-0.9795-0.0728-0.22725-0.21675-0.62925-0.3195-0.8925-0.10425-0.264-0.30975-0.7215-0.4575-1.0162-0.14761-0.29524-0.39198-0.73601-0.54252-0.97995-0.15095-0.24395-0.40115-0.61424-0.55627-0.82358-0.15512-0.20892-0.45411-0.57963-0.66512-0.82402-0.21058-0.24395-0.58296-0.6305-0.82777-0.8586-0.24437-0.2281-0.60632-0.54461-0.80438-0.70307-0.19765-0.15846-0.55419-0.42617-0.7923-0.59464-0.23769-0.16889-0.67637-0.45453-0.97455-0.63509-0.29815-0.18015-0.9549-0.53126-1.4595-0.78023-0.50457-0.24853-1.2268-0.57337-1.6054-0.72224-0.37821-0.14846-2.2739-0.82403-4.2117-1.5012-1.9378-0.67679-4.1241-1.4399-4.858-1.6955-0.73392-0.25562-2.3006-0.80272-3.482-1.216-1.181-0.41325-2.429-0.82275-2.773-0.91028-0.34402-0.0876-0.80355-0.18848-1.0216-0.22434-0.21767-0.0359-0.59047-0.0842-0.82815-0.108-0.23727-0.0238-0.69722-0.0404-1.0216-0.0375zm0.2445 5.8912c0.5275 0.0133 0.70056 0.0354 1.105 0.14095 0.26396 0.0688 3.4916 1.1852 7.1724 2.4807 3.6813 1.2956 6.8805 2.4261 7.1098 2.512 0.22935 0.0859 0.61299 0.23978 0.85237 0.34152 0.23936 0.10217 0.60507 0.27105 0.81315 0.37572 0.20767 0.10425 0.56546 0.30275 0.79478 0.44077 0.22935 0.13803 0.59548 0.38155 0.81315 0.54168 0.21767 0.15971 0.61216 0.50874 0.8757 0.7752 0.26479 0.26771 0.59339 0.65302 0.73392 0.86025 0.13969 0.20641 0.32109 0.49706 0.40366 0.64635 0.0821 0.14887 0.23477 0.47997 0.33902 0.73517 0.10383 0.2552 0.24561 0.66803 0.31441 0.9174s0.17223 0.71015 0.22977 1.0246c0.0571 0.314 0.13261 0.84862 0.16764 1.1884 0.035 0.33943 0.0817 0.99247 0.10467 1.4512 0.0258 0.52334 0.0413 8.4022 0.0417 21.154l0.00041 20.32-3.6517-4.4331c-2.0083-2.4382-3.7893-4.5662-3.9573-4.7288-0.20175-0.192-0.423-0.35475-0.636-0.465-0.17925-0.093-0.4485-0.2025-0.59775-0.24225-0.17681-0.0475-0.42368-0.073-0.7089-0.0726-0.24103 0-0.55961 0.0229-0.7089 0.0509-0.14887 0.0279-0.39281 0.0867-0.5421 0.13094-0.17139 0.0509-1.8182 0.90487-4.4828 2.3252l-4.212 2.2448-0.024-20.582c-0.0135-11.32-0.036-20.638-0.0503-20.707-0.0146-0.0688-0.0467-0.28481-0.0713-0.47955-0.025-0.19516-0.0834-0.55169-0.13052-0.7923-0.0471-0.24103-0.15888-0.66469-0.24854-0.942-0.0897-0.27731-0.25645-0.68722-0.36988-0.91073-0.11384-0.22309-0.31483-0.55627-0.44702-0.73934-0.132-0.18375-0.37425-0.46125-0.5385-0.61725s-0.4125-0.3615-0.55275-0.456c-0.14025-0.0953-0.4035-0.2475-0.58575-0.33825-0.1815-0.0908-0.47625-0.21225-0.65475-0.27075s-0.513-0.14625-0.744-0.19575c-0.342-0.0735-0.56625-0.0908-1.2158-0.0937l-0.7965-0.003 0.0822-0.2919c0.045-0.16055 0.11885-0.38573 0.16388-0.5004 0.045-0.11468 0.15638-0.35654 0.2477-0.53751 0.0909-0.18098 0.24311-0.44369 0.33735-0.5838 0.0947-0.14012 0.314-0.40199 0.48747-0.58172 0.17389-0.17973 0.44953-0.41616 0.61216-0.525 0.16305-0.10925 0.43493-0.25603 0.60465-0.32692 0.16971-0.0705 0.43993-0.15763 0.60048-0.19307 0.216-0.0484 0.45453-0.0613 0.9174-0.0496zm-14.068 10.825c0.0275 0 0.35194 0.0675 0.72058 0.1497 0.36904 0.0826 1.1559 0.27022 1.7489 0.41783 0.59256 0.14721 1.618 0.41742 2.2785 0.60048 0.66053 0.18348 1.6363 0.46496 2.1688 0.62592 0.53251 0.16097 1.4587 0.4512 2.0583 0.64469 0.59965 0.19307 1.1651 0.3778 1.2568 0.40949l0.1668 0.0584 0.0208 21.179c0.0175 17.716 0.0304 21.206 0.078 21.346 0.0308 0.0917 0.10342 0.26062 0.16055 0.3753 0.0571 0.11467 0.20724 0.34486 0.3336 0.51124 0.12593 0.16638 0.36362 0.41825 0.52708 0.55962 0.16388 0.14136 0.39949 0.32192 0.52376 0.40157 0.12426 0.0796 0.34027 0.19599 0.47955 0.25895 0.13927 0.063 0.39323 0.14554 0.56378 0.1839 0.19265 0.0433 0.48622 0.0697 0.7719 0.0688 0.31692-0.002 0.56128-0.0271 0.77977-0.083 0.17514-0.045 0.43785-0.14136 0.58338-0.21433 0.14595-0.0734 2.5491-1.3803 5.3405-2.9044 2.7918-1.5245 5.0949-2.7597 5.1182-2.7451 0.0234 0.0142 2.5474 3.0066 5.6091 6.649 3.0616 3.6425 5.677 6.725 5.8118 6.8497 0.13511 0.1251 0.39741 0.30608 0.58338 0.40282 0.18599 0.0967 0.48247 0.21309 0.65886 0.25813 0.20475 0.0525 0.45954 0.0821 0.7039 0.0821 0.24437 0 0.49915-0.0296 0.7039-0.0821 0.17639-0.0451 0.46829-0.15888 0.64843-0.25229 0.17973-0.0938 0.44536-0.27731 0.58964-0.40783 0.14428-0.13093 0.35194-0.37446 0.4612-0.54168s0.23853-0.41116 0.28773-0.5421 0.11593-0.37572 0.14846-0.54418c0.05-0.26063 0.0588-3.0141 0.0588-18.567 0-10.043 0.009-18.261 0.02-18.261 0.0113 0 0.17556 0.11884 0.36487 0.26437 0.18974 0.14512 0.60757 0.45161 0.92865 0.68096 0.32109 0.22936 0.9591 0.66887 1.4178 0.97748 0.4587 0.30816 1.2093 0.80272 1.668 1.0988 0.4587 0.29607 1.9978 1.2731 3.4202 2.1709 1.4228 0.8982 2.9474 1.8661 3.3881 2.1505l0.801 0.51826v67.876l-0.11467-0.0746c-0.063-0.0409-0.34903-0.24603-0.63593-0.45578-0.28647-0.20975-0.81187-0.58755-1.1676-0.83985-0.35528-0.25186-1.0592-0.74058-1.5638-1.0858-0.50457-0.34527-1.3528-0.91117-1.8853-1.2577-0.5321-0.34694-1.417-0.91155-1.9661-1.2552-0.54877-0.3436-1.427-0.8811-1.9511-1.1947-0.52417-0.31317-1.4032-0.82733-1.9537-1.1426-0.55044-0.31524-1.3574-0.77017-1.7931-1.0116-0.43576-0.24144-1.2239-0.66887-1.7514-0.95032-0.5275-0.28148-1.7097-0.89032-2.6271-1.3528-0.9174-0.46288-1.9682-0.98415-2.3352-1.1588-0.36696-0.17472-0.89235-0.42367-1.1676-0.55336-0.27522-0.12968-0.90367-0.41992-1.397-0.64467-0.49289-0.22518-1.2906-0.58214-1.7722-0.79358-0.48163-0.21142-1.2039-0.52417-1.6054-0.69514-0.40115-0.17097-1.0959-0.46203-1.5429-0.64677-0.44702-0.18473-1.3574-0.55127-2.0224-0.81397-0.66511-0.26313-1.7064-0.66595-2.3144-0.89445-0.60756-0.22894-1.6584-0.61425-2.3352-0.85568-0.67637-0.24186-1.643-0.58005-2.1476-0.75142-0.50457-0.17138-1.4616-0.48914-2.1267-0.70598-0.66511-0.21726-1.7626-0.5642-2.4394-0.771-0.67637-0.20682-1.7835-0.53501-2.4603-0.72891-0.67637-0.19391-1.8306-0.51333-2.5646-0.70974-0.73392-0.1964-1.8223-0.47621-2.4186-0.62174-0.59631-0.14595-1.4686-0.35195-1.939-0.45787-0.46995-0.10592-1.1238-0.24728-1.4524-0.314-0.41867-0.0855-0.67054-0.16054-0.8415-0.25186-0.13386-0.0713-0.36738-0.23186-0.51833-0.35654-0.15138-0.12427-0.38823-0.36904-0.52668-0.54294-0.13844-0.1743-0.30941-0.43159-0.3803-0.57212-0.0709-0.14011-0.16846-0.3582-0.21684-0.48456l-0.088-0.22935-0.0108-33.673c-0.006-18.52-0.002-33.696 0.009-33.724 0.0108-0.0288 0.0425-0.0521 0.0696-0.0521zm112.41 0.003 0.0942-0.003-0.0109 33.83-0.0104 33.83-0.11342 0.41158c-0.0626 0.22643-0.19015 0.56962-0.28356 0.76267-0.1201 0.24812-0.24603 0.42826-0.42868 0.61382-0.22893 0.23227-0.28981 0.27022-0.52959 0.3311-0.14886 0.038-0.74934 0.17389-1.3344 0.30274-0.58463 0.12844-1.7201 0.39865-2.5228 0.6009-0.80273 0.20224-1.8815 0.48372-2.3978 0.62508-0.51583 0.14178-1.4541 0.40783-2.085 0.59131-0.6305 0.18348-1.6626 0.49289-2.2935 0.68763-0.6305 0.19474-1.7752 0.5617-2.5437 0.81525-0.76815 0.25354-1.894 0.63509-2.502 0.84818-0.60756 0.21267-1.4145 0.49915-1.7931 0.63634-0.37821 0.13761-1.1384 0.41867-1.6888 0.62508-0.55044 0.20642-1.5916 0.60924-2.3144 0.89573-0.72224 0.28647-1.7731 0.71265-2.3352 0.94702-0.56169 0.23435-1.4999 0.63342-2.085 0.8865-0.58463 0.25313-1.5888 0.6989-2.231 0.99038-0.64218 0.2919-1.6367 0.7527-2.2101 1.0241-0.57337 0.27147-1.8494 0.89948-2.8356 1.3961-0.98617 0.49664-2.2247 1.1334-2.7522 1.4157s-1.3156 0.71015-1.7514 0.95115c-0.43576 0.24061-1.2518 0.70014-1.8139 1.0212-0.5617 0.32109-1.575 0.91575-2.2518 1.3219-0.67638 0.40658-1.6993 1.035-2.2726 1.3965-0.57338 0.36196-1.643 1.0571-2.3769 1.545-0.73392 0.48748-1.7564 1.1822-2.2726 1.5437-0.51582 0.36154-1.2814 0.90742-1.7009 1.2139-0.41951 0.30608-0.77145 0.5567-0.78188 0.5567-0.0104 0-0.0192-15.272-0.0192-33.937v-33.94l1.0946-0.87653c0.60214-0.48205 1.517-1.1956 2.0329-1.585 0.51625-0.38989 1.2197-0.9141 1.5638-1.1651 0.34403-0.25104 1.0292-0.73935 1.522-1.0846 0.4929-0.34569 1.4312-0.98325 2.085-1.417 0.65386-0.4341 1.5262-1.0029 1.939-1.2652 0.41283-0.26188 1.2293-0.76605 1.814-1.1209 0.58506-0.35487 1.4482-0.86947 1.9182-1.1443 0.47038-0.27439 1.3523-0.77565 1.9599-1.1134 0.60757-0.33819 1.5178-0.83647 2.0225-1.1075 0.50456-0.27105 1.7243-0.8982 2.7105-1.394 0.98618-0.4954 2.3277-1.1522 2.9816-1.4587 0.65386-0.30692 1.517-0.7064 1.9182-0.88823 0.40158-0.18181 1.1088-0.49706 1.5721-0.70056 0.46287-0.2035 1.2606-0.54752 1.7722-0.76395 0.51124-0.21642 1.3052-0.54627 1.7639-0.73309 0.4587-0.18681 1.3031-0.52458 1.8765-0.75015 0.57338-0.2256 1.5963-0.61716 2.2727-0.86985 0.67679-0.25228 1.6571-0.6109 2.1793-0.79605 0.52208-0.18556 1.4791-0.51666 2.1267-0.736 0.64759-0.21893 1.7877-0.59297 2.5328-0.8307 0.74559-0.23769 1.8244-0.57296 2.3978-0.7456 0.57337-0.17263 1.4741-0.43618 2.0016-0.58505s1.2781-0.35779 1.668-0.4637c0.38989-0.10592 1.2343-0.32484 1.8765-0.48623 0.64218-0.16138 1.5241-0.37488 1.9599-0.47371 0.43576-0.0992 0.83444-0.18182 0.88612-0.18348zm-122.98 11.05c0.18348-0.001 0.84022 0.0163 1.4595 0.0388 0.61924 0.0225 1.2147 0.0521 1.3235 0.0659l0.19766 0.0254 0.0125 28.362 0.0121 28.363 0.0905 0.4587c0.05 0.25228 0.1472 0.65886 0.21642 0.90322 0.0692 0.24436 0.20266 0.63843 0.29649 0.87571 0.0942 0.23726 0.28398 0.64676 0.42159 0.91027 0.13803 0.26355 0.36779 0.65762 0.51082 0.8757 0.14304 0.21809 0.41158 0.58422 0.59631 0.8136 0.18474 0.22935 0.57755 0.65177 0.87278 0.9387 0.29524 0.28689 0.71682 0.65677 0.9366 0.82147 0.21976 0.16472 0.55753 0.39782 0.7506 0.5175 0.19307 0.11967 0.57588 0.32651 0.8511 0.45912 0.27522 0.13302 0.70556 0.30983 0.95617 0.39323 0.25062 0.0834 0.92618 0.25144 1.5012 0.37363 0.57504 0.12176 1.3832 0.2994 1.796 0.39406 0.41283 0.0947 1.3794 0.32943 2.1476 0.52125 0.76815 0.19182 2.0446 0.52793 2.8356 0.74685 0.79147 0.21851 2.0066 0.56712 2.7009 0.77475 0.69388 0.20725 1.9099 0.5838 2.7022 0.8373 0.79185 0.25313 1.9879 0.64886 2.6576 0.8799 0.66971 0.2306 1.7606 0.61633 2.4244 0.85733 0.66345 0.2406 1.6864 0.62133 2.2726 0.84652 0.58631 0.22476 1.4411 0.55878 1.8998 0.74226s1.2189 0.49373 1.6888 0.68931c0.47038 0.19598 1.2393 0.5225 1.7097 0.72599 0.47038 0.20349 1.2706 0.55628 1.7789 0.78435 0.50791 0.22809 0.91823 0.42075 0.91155 0.42784-0.007 0.007-0.41325-0.0813-0.90322-0.19641-0.48998-0.11509-1.2344-0.28522-1.6543-0.37821-0.4195-0.093-1.2452-0.27106-1.8348-0.39532-0.58922-0.12427-1.6997-0.34903-2.4682-0.49874-0.76815-0.15012-1.8661-0.35695-2.4394-0.45994-0.57337-0.10259-1.5491-0.27147-2.1684-0.37489-0.61924-0.103-1.7356-0.28148-2.4812-0.39573-0.74517-0.11468-1.9745-0.29357-2.7313-0.39698-0.75683-0.10342-1.9078-0.25437-2.5579-0.33486-0.64969-0.0809-1.8694-0.22101-2.7105-0.31191-0.84068-0.0913-2.0354-0.21267-2.6546-0.27063-0.61924-0.058-1.698-0.1518-2.3978-0.20892-0.6993-0.0575-1.8348-0.14178-2.5228-0.18765-0.68805-0.0455-1.7952-0.11134-2.4603-0.14595-0.66512-0.0342-1.7627-0.083-2.4395-0.10759-0.67679-0.0246-1.9057-0.0596-2.7314-0.0776l-1.5012-0.0326-0.22143-0.0872c-0.12218-0.0479-0.32151-0.16263-0.44327-0.25478-0.12176-0.0917-0.29857-0.28273-0.39323-0.42408-0.0942-0.14137-0.20433-0.35362-0.24478-0.47163l-0.072-0.21751-0.0113-33.27c-0.008-22.272 0.002-33.366 0.0309-33.548 0.0233-0.14886 0.0609-0.33693 0.0834-0.41742 0.0229-0.0809 0.10258-0.24894 0.17764-0.37363 0.0751-0.1251 0.21476-0.28231 0.31025-0.34945 0.0959-0.0667 0.26479-0.14595 0.3753-0.17597 0.11092-0.0296 0.35153-0.055 0.53501-0.0567zm132.46 0.004c0.42325-0.004 0.74351 0.015 0.92828 0.0542 0.1547 0.0325 0.40865 0.12635 0.56378 0.20767 0.15512 0.0817 0.37779 0.23226 0.49498 0.33443 0.11675 0.10258 0.27313 0.28064 0.34736 0.39615 0.0743 0.11551 0.17014 0.32401 0.21392 0.4637l0.0788 0.25395-0.00042 33.137c-0.00075 29.09-0.008 33.17-0.0626 33.399-0.0337 0.14387-0.11009 0.35737-0.16972 0.47455-0.0592 0.11718-0.19099 0.30232-0.29273 0.41075-0.10133 0.10842-0.29232 0.25437-0.42368 0.32359-0.13176 0.0692-0.3386 0.14678-0.46036 0.17222-0.12135 0.0254-0.53418 0.0463-0.9174 0.0467-0.38281 0.00041-1.3156 0.0188-2.0725 0.0417-0.75683 0.0225-1.9954 0.0696-2.7522 0.10425-0.75683 0.035-1.9766 0.10175-2.7105 0.14804-0.73391 0.0463-1.9348 0.13093-2.6688 0.18806-0.73391 0.0571-1.9348 0.15971-2.6688 0.2281-0.73392 0.0684-1.7848 0.17181-2.3352 0.22976-0.55044 0.0575-1.4791 0.16097-2.0642 0.22936-0.58464 0.0684-1.5792 0.19056-2.2101 0.27147-0.63051 0.0809-1.7376 0.23143-2.4603 0.33443-0.72225 0.103-1.7356 0.25312-2.2518 0.33318-0.51583 0.0805-1.4449 0.2306-2.0642 0.33402-0.61925 0.10299-1.698 0.29065-2.3978 0.41658-0.69931 0.12593-2.1067 0.39615-3.1275 0.60048-1.0204 0.20392-2.447 0.5029-3.1692 0.66345-0.72225 0.16096-1.6396 0.36904-2.0387 0.46245-0.39865 0.0938-0.731 0.16471-0.73768 0.15763-0.007-0.007 0.44119-0.21726 0.99578-0.46662 0.55503-0.24979 1.6192-0.716 2.3644-1.0358 0.7456-0.31984 1.984-0.83527 2.7522-1.1455 0.76853-0.30983 1.8848-0.75014 2.4812-0.97867 0.59631-0.22852 1.57-0.59297 2.1642-0.81022 0.59381-0.21684 1.5416-0.55461 2.1058-0.75015 0.56421-0.19516 1.3357-0.45829 1.7139-0.5838 0.37864-0.12594 1.1759-0.38532 1.7722-0.57714 0.59631-0.1914 1.5817-0.49789 2.1892-0.68096 0.60799-0.18348 1.6776-0.49372 2.3769-0.68971 0.69973-0.19599 1.741-0.47705 2.3144-0.62425 0.57338-0.14763 1.4366-0.36279 1.9182-0.47872 0.48164-0.11593 1.3232-0.30733 1.8698-0.42492 0.54669-0.1176 1.1568-0.27022 1.3552-0.33902 0.19849-0.0688 0.56754-0.22602 0.81982-0.34903 0.25229-0.12344 0.618-0.3311 0.8127-0.46163 0.19475-0.13093 0.4854-0.34527 0.64635-0.47662 0.16055-0.13178 0.47121-0.42576 0.69014-0.65386 0.21851-0.22768 0.53793-0.6009 0.70932-0.82897 0.1718-0.2281 0.42075-0.59757 0.55377-0.82065 0.13302-0.22351 0.33193-0.59881 0.44202-0.834 0.11051-0.23561 0.27022-0.61591 0.35571-0.84525 0.0851-0.22935 0.22017-0.67054 0.30024-0.97995 0.0796-0.30984 0.18514-0.7977 0.23393-1.0842l0.0888-0.52125 0.0129-28.426 0.0129-28.426 0.21851-0.0263c0.12009-0.0146 0.73476-0.0413 1.3652-0.0592 0.63092-0.0179 1.4378-0.035 1.7931-0.0384zm-3.4953 76.185 0.11217-0.007 0.0259 4.0553c0.0146 2.2305 0.0283 4.243 0.0308 4.4723 0.003 0.24144-0.0179 0.48706-0.0492 0.5838-0.0296 0.0917-0.0993 0.22726-0.15429 0.30107-0.0596 0.0797-0.16305 0.15221-0.25562 0.1789-0.10967 0.0317-6.9455 0.0413-23.403 0.0326l-23.248-0.0121 0.834-0.30816c0.4587-0.16972 1.3502-0.49081 1.9808-0.7139 0.63092-0.2231 1.8035-0.62217 2.6062-0.88741 0.80272-0.26521 1.9474-0.63217 2.5437-0.81562 0.59631-0.18348 1.4691-0.44661 1.939-0.58463 0.47038-0.13845 1.2865-0.37281 1.814-0.52167 0.5275-0.14845 1.4612-0.40366 2.0746-0.56629 0.61383-0.16304 1.796-0.4637 2.6271-0.66844 0.83153-0.20476 1.9244-0.46788 2.429-0.58464 0.50457-0.11635 1.565-0.35112 2.356-0.52084 0.79147-0.16971 1.9641-0.41157 2.6062-0.53792 0.64218-0.12636 1.515-0.29482 1.939-0.37531 0.42451-0.0801 1.2031-0.221 1.7306-0.31317 0.5275-0.0917 1.2969-0.2235 1.7097-0.29231 0.41283-0.0688 1.3044-0.20975 1.9808-0.31317 0.67679-0.10341 1.6993-0.25354 2.2726-0.3336 0.57337-0.0801 1.4929-0.20182 2.0433-0.27105 0.55044-0.0692 1.4136-0.17263 1.9182-0.23018 0.50457-0.0571 1.3774-0.15137 1.939-0.2085 0.56211-0.0575 1.444-0.1422 1.9599-0.18765 0.51624-0.0459 1.4637-0.12051 2.1058-0.16597 0.64218-0.045 1.5804-0.10258 2.085-0.12718 0.50457-0.0246 1.0112-0.0505 1.1259-0.0571 0.11467-0.007 0.25896-0.0154 0.32025-0.0196zm-123.95 0.0975c0.29232 0.0142 1.1042 0.0542 1.8035 0.0888 0.69972 0.0342 1.8348 0.0997 2.5228 0.14554 0.68805 0.0459 1.8327 0.13094 2.5437 0.18932 0.71098 0.058 1.9495 0.17097 2.7522 0.25062 0.80272 0.0796 1.8628 0.19182 2.356 0.24894 0.49331 0.0571 1.422 0.17055 2.0642 0.25187 0.64218 0.0809 1.7493 0.23143 2.4603 0.33402 0.71098 0.10216 1.8182 0.27105 2.4603 0.37488 0.64218 0.10342 1.6838 0.28023 2.3144 0.3924 0.63092 0.11259 1.5971 0.29065 2.1476 0.39615 0.55044 0.1055 1.5788 0.31317 2.2852 0.46162 0.70598 0.14845 1.738 0.37404 2.2935 0.50082 0.55503 0.12676 1.5346 0.35903 2.1767 0.51666 0.64218 0.15721 1.6742 0.41991 2.2935 0.58338 0.61924 0.16388 1.6864 0.45703 2.3719 0.65219 0.68513 0.19516 1.736 0.50499 2.3352 0.68888 0.59882 0.18431 1.6334 0.51374 2.2985 0.73267 0.66511 0.21893 1.7159 0.57588 2.3352 0.79312 0.61924 0.21726 1.6421 0.58922 2.2726 0.8265 0.63092 0.23728 1.522 0.58172 1.9808 0.76523l0.834 0.33401-22.396 0.002-22.396 0.002-0.22644-0.0668c-0.12468-0.0363-0.34819-0.13052-0.49748-0.2085-0.14887-0.0784-0.39573-0.23602-0.54835-0.3507-0.15263-0.11467-0.41909-0.35903-0.59172-0.54251-0.17264-0.1839-0.38239-0.44661-0.46621-0.58422-0.0834-0.13761-0.18765-0.35237-0.23186-0.47788l-0.0803-0.225v-7.1002z"/>
 </g>

</svg>