<svg width="1472" height="1096" viewBox="0 0 1472 1096" fill="none" xmlns="http://www.w3.org/2000/svg">
<path d="M1103.97 944.175L1021.3 926.854V498.658H994.925V926.825L912.257 944.146C902.601 946.179 895.682 954.692 895.682 964.59H1120.55C1120.55 954.721 1113.63 946.179 1103.97 944.146V944.175Z" fill="#E0E0E0"/>
<path d="M1006.14 242.731H1053.36C1097.14 242.731 1132.67 278.286 1132.67 322.09V430.877C1132.67 474.68 1097.14 510.235 1053.36 510.235H1006.14V242.731Z" fill="#E6E6E6"/>
<path d="M1053.39 477.891H1006.17V510.206H1053.39C1097.2 510.206 1132.7 474.68 1132.7 430.847V398.532C1132.7 442.365 1097.2 477.891 1053.39 477.891Z" fill="#E0E0E0"/>
<path d="M1011.74 242.731H940.814C916.458 242.731 896.713 262.487 896.713 286.858V466.078C896.713 490.449 916.458 510.206 940.814 510.206H1011.74C1036.09 510.206 1055.84 490.449 1055.84 466.078V286.858C1055.84 262.487 1036.09 242.731 1011.74 242.731Z" fill="#F0F0F0"/>
<path d="M976.289 364.302C1005.41 364.302 1029.02 340.682 1029.02 311.544C1029.02 282.406 1005.41 258.785 976.289 258.785C947.169 258.785 923.562 282.406 923.562 311.544C923.562 340.682 947.169 364.302 976.289 364.302Z" fill="#15B58B"/>
<path d="M976.289 490.499C1005.41 490.499 1029.02 466.878 1029.02 437.74C1029.02 408.602 1005.41 384.982 976.289 384.982C947.169 384.982 923.562 408.602 923.562 437.74C923.562 466.878 947.169 490.499 976.289 490.499Z" fill="#15B58C"/>
<path d="M976.289 355.524C1000.56 355.524 1020.24 335.833 1020.24 311.544C1020.24 287.254 1000.56 267.564 976.289 267.564C952.014 267.564 932.335 287.254 932.335 311.544C932.335 335.833 952.014 355.524 976.289 355.524Z" fill="#24C79D"/>
<path d="M993.865 311.544C993.865 321.265 986.005 329.13 976.289 329.13C966.574 329.13 958.714 321.265 958.714 311.544C958.714 301.823 966.574 293.958 976.289 293.958C986.005 293.958 993.865 301.823 993.865 311.544Z" fill="#E0E0E0"/>
<path d="M976.289 481.72C1000.56 481.72 1020.24 462.03 1020.24 437.74C1020.24 413.451 1000.56 393.76 976.289 393.76C952.014 393.76 932.335 413.451 932.335 437.74C932.335 462.03 952.014 481.72 976.289 481.72Z" fill="#24C79D"/>
<path d="M993.865 437.74C993.865 447.461 986.005 455.326 976.289 455.326C966.574 455.326 958.714 447.461 958.714 437.74C958.714 428.019 966.574 420.154 976.289 420.154C986.005 420.154 993.865 428.019 993.865 437.74Z" fill="#E0E0E0"/>
<path opacity="0.3" d="M1252.52 722.654C1290.18 722.654 1317 750.757 1315.03 788.138L1310.73 869.913C1310.05 882.521 1299.63 892.418 1287 892.418H1135.68L1166.94 788.138C1178.16 750.727 1214.87 722.654 1252.52 722.654V722.654Z" fill="white"/>
<path d="M477.458 1028.1H129.183V1062.01H477.458V1028.1Z" fill="#37474F"/>
<path opacity="0.3" d="M477.458 1028.1H129.183V1062.01H477.458V1028.1Z" fill="white"/>
<path d="M1012.74 1028.1H448.077V1062.01H1012.74V1028.1Z" fill="#37474F"/>
<path opacity="0.7" d="M1012.74 1028.1H448.077V1062.01H1012.74V1028.1Z" fill="white"/>
<path d="M256.599 1027.39C254.98 1027.25 253.773 1025.83 253.92 1024.21L313.153 314.077H319.041V319.969H318.57L259.779 1024.71C259.631 1026.33 258.218 1027.54 256.599 1027.39V1027.39Z" fill="#263238"/>
<path d="M519.822 1027.39C521.441 1027.25 522.648 1025.83 522.501 1024.21L463.268 314.077H457.38V319.969H457.851L495.74 774.087H305.204L266.844 314.077H260.956V319.969H261.427L320.219 1024.71C320.366 1026.33 321.779 1027.54 323.398 1027.39C325.018 1027.25 326.225 1025.83 326.077 1024.21L305.705 779.979H496.27L516.672 1024.71C516.819 1026.33 518.232 1027.54 519.852 1027.39H519.822Z" fill="#263238"/>
<path d="M533.453 680.265H252.036L216.502 254.278H497.919L533.453 680.265Z" fill="#37474F"/>
<path opacity="0.8" d="M533.453 680.265H252.036L216.502 254.278H497.919L533.453 680.265Z" fill="white"/>
<path d="M497.683 264.294H216.06C210.908 264.294 206.728 260.111 206.728 254.956C206.728 249.801 210.908 245.618 216.06 245.618H497.683C502.835 245.618 507.016 249.801 507.016 254.956C507.016 260.111 502.835 264.294 497.683 264.294Z" fill="#37474F"/>
<path opacity="0.5" d="M497.683 264.294H216.06C210.908 264.294 206.728 260.111 206.728 254.956C206.728 249.801 210.908 245.618 216.06 245.618H497.683C502.835 245.618 507.016 249.801 507.016 254.956C507.016 260.111 502.835 264.294 497.683 264.294Z" fill="white"/>
<path d="M381.866 519.839L377.715 469.967C377.568 468.347 378.775 466.933 380.394 466.785C382.013 466.638 383.427 467.846 383.574 469.466L387.725 519.338C387.872 520.958 386.665 522.372 385.046 522.519C383.427 522.666 382.013 521.459 381.866 519.839Z" fill="#37474F"/>
<path d="M334.674 471.145C298.08 471.145 265.696 441.363 262.487 404.748C259.278 368.132 286.451 338.35 323.045 338.35C359.639 338.35 392.023 368.132 395.232 404.748C398.441 441.363 371.268 471.145 334.674 471.145V471.145ZM323.31 341.266C288.335 341.266 262.369 369.723 265.431 404.718C268.493 439.714 299.434 468.17 334.409 468.17C369.384 468.17 395.35 439.714 392.288 404.718C389.226 369.723 358.285 341.266 323.31 341.266V341.266Z" fill="#37474F"/>
<path d="M426.909 471.145C390.316 471.145 357.932 441.363 354.723 404.748C351.514 368.132 378.687 338.35 415.281 338.35C451.875 338.35 484.259 368.132 487.468 404.748C490.676 441.363 463.503 471.145 426.909 471.145V471.145ZM415.546 341.266C380.571 341.266 354.605 369.723 357.667 404.718C360.728 439.714 391.67 468.17 426.644 468.17C461.619 468.17 487.585 439.714 484.524 404.718C481.462 369.723 450.52 341.266 415.546 341.266Z" fill="#37474F"/>
<path d="M356.342 405.985L384.192 375.437C383.662 374.524 383.073 373.611 382.514 372.727L356.047 401.772C356.077 402.745 356.136 403.746 356.224 404.748C356.253 405.16 356.312 405.572 356.371 405.985H356.342Z" fill="#37474F"/>
<path d="M387.695 382.065C387.224 381.064 386.753 380.062 386.253 379.09L357.078 411.081C357.313 412.318 357.578 413.555 357.873 414.793L387.695 382.095V382.065Z" fill="#37474F"/>
<path d="M390.551 389.371C390.198 388.281 389.786 387.161 389.373 386.101L359.109 419.27C359.462 420.39 359.845 421.48 360.257 422.569L390.551 389.341V389.371Z" fill="#37474F"/>
<path d="M380.188 369.398C379.57 368.574 378.922 367.749 378.275 366.924L356.518 390.785C356.312 392.464 356.136 394.143 356.047 395.851L380.188 369.398V369.398Z" fill="#37474F"/>
<path d="M375.684 363.86C375.007 363.095 374.3 362.358 373.564 361.622L360.346 376.115C359.404 378.442 358.609 380.828 357.961 383.302L375.654 363.89L375.684 363.86Z" fill="#37474F"/>
<path d="M390.345 431.466C391.14 429.256 391.817 426.988 392.376 424.661L373.8 445.046C374.477 445.812 375.183 446.577 375.89 447.314L390.374 431.436L390.345 431.466Z" fill="#37474F"/>
<path d="M382.985 445.399L378.687 450.112C378.687 450.112 378.893 450.289 378.981 450.407C380.424 448.816 381.748 447.137 382.985 445.399Z" fill="#37474F"/>
<path d="M392.7 397.501C392.465 396.264 392.17 395.056 391.876 393.848L361.935 426.694C362.377 427.695 362.848 428.697 363.348 429.698L392.7 397.501Z" fill="#37474F"/>
<path d="M393.613 417.414C393.789 415.794 393.907 414.145 393.937 412.495L369.295 439.508C369.914 440.362 370.532 441.187 371.18 442.012L393.583 417.444L393.613 417.414Z" fill="#37474F"/>
<path d="M393.878 406.662C393.848 406.014 393.819 405.396 393.76 404.748C393.701 404.011 393.613 403.245 393.495 402.509L365.35 433.38C365.88 434.294 366.44 435.207 367.028 436.12L393.878 406.692V406.662Z" fill="#37474F"/>
<path d="M480.579 549.532H295.342C290.013 549.532 285.332 545.202 284.861 539.87C284.39 534.538 288.335 530.208 293.664 530.208H478.9C484.229 530.208 488.91 534.538 489.381 539.87C489.852 545.202 485.907 549.532 480.579 549.532Z" fill="#37474F"/>
<path d="M460.972 588.593H331.671C326.342 588.593 321.661 584.262 321.19 578.931C320.719 573.599 324.664 569.268 329.993 569.268H459.293C464.622 569.268 469.303 573.599 469.774 578.931C470.245 584.262 466.3 588.593 460.972 588.593V588.593Z" fill="#37474F"/>
<path d="M480.579 549.532H295.342C290.013 549.532 285.332 545.202 284.861 539.87C284.39 534.538 288.335 530.208 293.664 530.208H478.9C484.229 530.208 488.91 534.538 489.381 539.87C489.852 545.202 485.907 549.532 480.579 549.532Z" fill="#24C79D"/>
<path d="M460.972 588.593H331.671C326.342 588.593 321.661 584.262 321.19 578.931C320.719 573.599 324.664 569.268 329.993 569.268H459.293C464.622 569.268 469.303 573.599 469.774 578.931C470.245 584.262 466.3 588.593 460.972 588.593V588.593Z" fill="#24C79D"/>
<path d="M690.721 999.733L709.092 993.9L701.673 951.717L683.273 957.52L690.721 999.733Z" fill="#CE7A63"/>
<path d="M709.592 991.543L688.925 998.083C688.16 998.319 687.718 998.996 687.866 999.733L690.633 1015.96C690.927 1017.64 692.87 1018.7 694.607 1018.14C701.761 1015.76 705.117 1014.26 714.214 1011.4C719.808 1009.63 743.713 1002.68 751.427 1000.26C758.993 997.877 757.167 990.453 753.723 990.836C738.326 992.456 719.16 994.047 713.037 991.72C711.918 991.308 710.711 991.278 709.622 991.632L709.592 991.543Z" fill="#263238"/>
<path opacity="0.2" d="M683.273 957.52L701.673 951.717L705.5 973.486L687.1 979.289L683.273 957.52Z" fill="black"/>
<path d="M677.032 530.237C677.032 530.237 689.043 683.417 691.899 736.853C695.02 795.385 712.448 966.504 712.448 966.504L678.445 975.695C678.445 975.695 645.531 809.849 637.052 752.966C627.867 691.223 609.82 530.237 609.82 530.237H677.032V530.237Z" fill="#263238"/>
<path d="M677.532 976.343L713.979 966.534L714.538 952.041L673.293 965.886L677.532 976.343Z" fill="#263238"/>
<path d="M716.835 992.604C715.127 993.134 713.184 993.399 711.771 993.517C711.594 993.517 711.447 993.458 711.359 993.281C711.3 993.134 711.329 992.957 711.447 992.81C711.948 992.221 716.334 987.125 718.778 987.272C719.337 987.301 719.779 987.596 720.044 988.126C720.485 989.01 720.485 989.835 720.044 990.571C719.484 991.514 718.248 992.162 716.805 992.604H716.835ZM712.831 992.545C716.275 992.132 718.66 991.278 719.337 990.188C719.602 989.717 719.602 989.216 719.278 988.598C719.131 988.303 718.954 988.185 718.66 988.156C717.335 988.067 714.627 990.542 712.831 992.545Z" fill="#37474F"/>
<path d="M711.889 993.488C711.889 993.488 711.741 993.488 711.683 993.488C711.535 993.488 711.418 993.37 711.359 993.222C711.3 993.016 709.651 987.979 711.094 985.652C711.476 985.033 712.036 984.65 712.772 984.503C713.655 984.326 714.303 984.621 714.627 985.269C715.51 987.095 713.655 991.691 712.065 993.34C712.006 993.399 711.948 993.429 711.859 993.458L711.889 993.488ZM712.684 985.446C712.33 985.563 712.065 985.77 711.859 986.094C711.005 987.478 711.535 990.483 712.006 992.162C713.302 990.336 714.45 986.918 713.861 985.74C713.743 985.505 713.537 985.269 712.89 985.387C712.831 985.387 712.742 985.416 712.684 985.446Z" fill="#37474F"/>
<path opacity="0.6" d="M634.815 577.752C627.808 550.386 620.654 556.926 615.561 568.768C616.091 577.163 616.68 586 617.268 595.132C621.449 631.041 626.748 675.493 631.4 711.46C640.026 675.699 644.648 615.929 634.844 577.752H634.815Z" fill="black"/>
<path d="M552.088 1007.95H570.9L577.142 964.383H558.359L552.088 1007.95Z" fill="#CE7A63"/>
<path d="M572.078 1005.77H550.94C550.175 1005.77 549.557 1006.3 549.439 1007.07L546.966 1023.8C546.701 1025.54 548.202 1027.19 549.969 1027.16C557.329 1027.04 560.891 1026.6 570.194 1026.6C575.905 1026.6 600.164 1027.19 608.054 1027.19C615.944 1027.19 616.415 1019.38 613.117 1018.67C598.397 1015.49 580.174 1011.13 575.228 1006.95C574.345 1006.18 573.226 1005.8 572.078 1005.8V1005.77Z" fill="#263238"/>
<path opacity="0.2" d="M558.33 964.383H577.171L573.933 986.86H555.121L558.33 964.383Z" fill="black"/>
<path d="M643.323 529.265C643.323 529.265 632.548 673.077 624.776 726.955C616.268 785.959 582.47 981.41 582.47 981.41H548.026C548.026 981.41 565.719 790.701 568.751 732.287C572.049 668.894 578.408 529.236 578.408 529.236H643.323V529.265Z" fill="#263238"/>
<path d="M546.642 981.439H583.854L587.063 968.36L545.788 970.393L546.642 981.439Z" fill="#263238"/>
<path d="M578.467 1009.04C576.73 1009.04 574.845 1008.69 573.521 1008.36C573.344 1008.33 573.226 1008.19 573.226 1008.01C573.226 1007.83 573.285 1007.66 573.432 1007.57C574.08 1007.16 579.703 1003.5 581.94 1004.42C582.441 1004.62 582.765 1005.06 582.853 1005.65C583 1006.66 582.735 1007.45 582.088 1008.04C581.263 1008.78 579.939 1009.04 578.467 1009.04ZM574.787 1007.74C578.084 1008.42 580.586 1008.3 581.528 1007.45C581.911 1007.1 582.058 1006.57 581.97 1005.89C581.94 1005.57 581.793 1005.39 581.528 1005.27C580.321 1004.8 577.053 1006.36 574.757 1007.77L574.787 1007.74Z" fill="#37474F"/>
<path d="M573.609 1008.39C573.609 1008.39 573.462 1008.39 573.403 1008.33C573.285 1008.28 573.197 1008.13 573.197 1007.98C573.197 1007.75 573.256 1002.32 575.316 1000.5C575.876 999.998 576.524 999.791 577.23 999.88C578.084 999.998 578.614 1000.47 578.702 1001.21C578.967 1003.27 575.817 1007.19 573.844 1008.3C573.786 1008.33 573.697 1008.36 573.609 1008.36V1008.39ZM576.847 1000.76C576.494 1000.76 576.17 1000.88 575.876 1001.15C574.639 1002.24 574.227 1005.33 574.109 1007.13C575.876 1005.74 577.996 1002.77 577.819 1001.41C577.789 1001.15 577.672 1000.85 577.024 1000.76C576.965 1000.76 576.877 1000.76 576.818 1000.76H576.847Z" fill="#37474F"/>
<path d="M684.892 376.174C689.485 386.808 694.696 397.884 700.201 408.135C702.939 413.32 705.883 418.298 708.915 422.952C711.918 427.548 715.333 431.908 718.365 434.647C719.101 435.325 719.808 435.855 720.338 436.238C720.868 436.621 721.221 436.768 721.221 436.798C721.162 436.798 720.868 436.945 721.133 436.974C721.309 436.974 721.81 436.974 722.516 436.709C723.9 436.208 725.814 435.03 727.668 433.528C729.553 431.996 731.525 430.199 733.439 428.196C741.034 420.183 748.218 410.168 754.842 400.358L766.735 405.896C762.525 418.328 757.344 429.904 749.484 441.246C747.482 444.044 745.303 446.872 742.683 449.582C740.033 452.263 737.06 454.973 732.909 457.3C730.848 458.449 728.404 459.509 725.549 460.128C722.752 460.776 719.337 460.894 716.246 460.275C710.152 459.009 706.177 456.298 702.851 453.824C696.315 448.698 691.987 443.19 687.866 437.74C683.832 432.261 680.358 426.635 677.061 421.008C673.852 415.352 670.82 409.667 668.082 403.834C665.315 397.972 662.694 392.316 660.28 386.071L684.863 376.174H684.892Z" fill="#CE7A63"/>
<path d="M716.01 421.273L686.276 443.455C686.276 443.455 685.128 442.188 683.244 440.038C681.86 438.418 680.093 436.326 678.033 433.822C666.492 419.742 649.594 394.055 649.476 381.476C649.27 362.712 668.73 359.943 690.574 379.149C699.995 387.427 704.911 401.183 709.71 409.697C711.3 412.495 712.625 414.969 713.655 416.884C715.127 419.653 715.981 421.303 715.981 421.303L716.01 421.273Z" fill="#37474F"/>
<path opacity="0.6" d="M716.01 421.273L686.276 443.455C686.276 443.455 685.128 442.188 683.244 440.038C681.86 438.418 680.093 436.326 678.033 433.822C666.492 419.742 649.594 394.055 649.476 381.476C649.27 362.712 668.73 359.943 690.574 379.149C699.995 387.427 704.911 401.183 709.71 409.697C711.3 412.495 712.625 414.969 713.655 416.884C715.127 419.653 715.981 421.303 715.981 421.303L716.01 421.273Z" fill="white"/>
<path opacity="0.3" d="M649.299 383.656C656.012 379.208 660.928 390.726 674.205 400.417C680.123 404.748 693.076 432.997 692.017 439.213L686.276 443.484C686.276 443.484 649.152 402.332 649.299 383.656V383.656Z" fill="black"/>
<path d="M753.458 401.154L759.935 380.445L776.745 392.758C776.745 392.758 767.56 411.199 761.348 409.52L753.487 401.124L753.458 401.154Z" fill="#CE7A63"/>
<path d="M716.01 418.386L683.538 442.689L687.571 446.931L718.483 424.101L716.01 418.386Z" fill="#37474F"/>
<path opacity="0.8" d="M716.01 418.386L683.538 442.689L687.571 446.931L718.483 424.101L716.01 418.386Z" fill="white"/>
<path d="M678.916 530.237H578.319C577.613 521.252 579.703 492.001 578.143 454.767C577.112 429.757 574.404 401.154 568.133 372.668C567.662 370.636 567.22 368.633 566.749 366.6C566.749 366.6 571.843 365.569 579.144 364.479C585.208 363.595 592.804 362.682 600.282 362.329C613.117 361.71 631.724 361.327 643.028 362.329C649.594 362.947 656.012 364.037 661.134 365.009C667.67 366.335 671.526 367.454 671.526 367.454C671.526 367.454 696.315 424.366 678.886 530.208L678.916 530.237Z" fill="#37474F"/>
<path opacity="0.6" d="M678.916 530.237H578.319C577.613 521.252 579.703 492.001 578.143 454.767C577.112 429.757 574.404 401.154 568.133 372.668C567.662 370.636 567.22 368.633 566.749 366.6C566.749 366.6 571.843 365.569 579.144 364.479C585.208 363.595 592.804 362.682 600.282 362.329C613.117 361.71 631.724 361.327 643.028 362.329C649.594 362.947 656.012 364.037 661.134 365.009C667.67 366.335 671.526 367.454 671.526 367.454C671.526 367.454 696.315 424.366 678.886 530.208L678.916 530.237Z" fill="white"/>
<path d="M777.628 372.521L787.078 384.127L776.715 392.758L759.935 380.445L777.628 372.521Z" fill="#CE7A63"/>
<path d="M581.705 386.248C580.704 392.641 579.438 398.503 578.025 404.571C576.641 410.61 574.993 416.56 573.167 422.569C571.283 428.549 569.164 434.529 566.602 440.509C563.953 446.489 561.038 452.498 556.475 458.655C554.09 461.689 551.352 464.9 546.995 467.787C544.817 469.201 542.138 470.526 538.958 471.204C535.837 471.911 532.275 471.852 529.213 471.086C523.002 469.437 519.204 465.99 516.378 463.015C513.551 459.951 511.579 456.858 509.871 453.795C506.515 447.697 504.278 441.629 502.482 435.56C501.569 432.526 500.804 429.492 500.156 426.399C499.479 423.306 498.92 420.36 498.478 417.061L511.137 413.585C515.965 423.748 521.382 434.441 527.506 442.394C529.037 444.309 530.656 446.018 532.04 447.137C533.423 448.315 534.63 448.522 534.277 448.198C534.13 448.05 533.629 447.991 533.364 447.991C533.1 447.991 533.129 447.991 533.394 447.726C533.953 447.255 535.19 445.87 536.308 444.132C538.664 440.598 540.842 435.737 542.697 430.759C544.611 425.751 546.289 420.419 547.79 414.999C550.822 404.217 553.443 392.758 555.562 381.859L581.705 386.278V386.248Z" fill="#CE7A63"/>
<path d="M512.639 414.822L506.162 394.113L489.352 406.427C489.352 406.427 498.537 424.867 504.749 423.188L512.609 414.793L512.639 414.822Z" fill="#CE7A63"/>
<path d="M488.468 386.189L479.018 397.796L489.381 406.427L506.162 394.113L488.468 386.189Z" fill="#CE7A63"/>
<path opacity="0.3" d="M578.143 454.767C577.112 429.757 574.404 401.154 568.133 372.668C574.845 372.079 586.356 372.757 588.241 383.597C590.301 395.262 587.711 422.746 578.113 454.737L578.143 454.767Z" fill="black"/>
<path d="M590.743 398.915C587.063 411.258 580.822 426.104 576.2 436.503C574.993 439.242 573.874 441.717 572.961 443.691C571.371 447.167 570.341 449.288 570.341 449.288L532.687 430.081C532.687 430.081 533.1 428.52 533.836 425.869C534.395 423.866 535.16 421.273 536.073 418.239C541.608 400.476 553.119 368.75 565.366 366.512C583.707 363.183 597.426 376.527 590.714 398.886L590.743 398.915Z" fill="#37474F"/>
<path opacity="0.6" d="M590.743 398.915C587.063 411.258 580.822 426.104 576.2 436.503C574.993 439.242 573.874 441.717 572.961 443.691C571.371 447.167 570.341 449.288 570.341 449.288L532.687 430.081C532.687 430.081 533.1 428.52 533.836 425.869C534.395 423.866 535.16 421.273 536.073 418.239C541.608 400.476 553.119 368.75 565.366 366.512C583.707 363.183 597.426 376.527 590.714 398.886L590.743 398.915Z" fill="white"/>
<path d="M624.923 376.468C600.076 375.791 596.366 363.654 596.219 363.124L596.072 362.594C597.485 362.505 598.898 362.417 600.311 362.329C613.147 361.71 631.753 361.327 643.058 362.329C643.882 362.417 644.648 362.476 645.472 362.594C647.238 364.42 648.975 367.012 648.269 369.811C647.18 374.053 641.38 375.467 636.257 376.056L624.952 376.498L624.923 376.468Z" fill="white"/>
<path d="M533.571 423.306L574.728 444.368L570.076 450.053L531.804 430.17L533.571 423.306Z" fill="#37474F"/>
<path opacity="0.8" d="M533.571 423.306L574.728 444.368L570.076 450.053L531.804 430.17L533.571 423.306Z" fill="white"/>
<path d="M622.833 378.324L639.496 376.468L635.816 387.662C635.816 387.662 647.268 447.343 649.505 467.433C650.83 479.452 652.008 515.803 652.008 515.803L643.323 525.377L630.399 519.249C630.399 519.249 630.693 478.362 630.634 464.753C630.546 445.488 629.663 387.662 629.663 387.662L622.185 380.445L622.803 378.324H622.833Z" fill="#263238"/>
<path d="M618.77 389.312L630.899 378.265L645.855 388.575C645.855 388.575 661.34 373.906 649.829 363.153C647.592 362.859 645.325 362.564 643.028 362.329C631.724 361.327 613.117 361.71 600.282 362.329C597.367 362.476 594.423 362.712 591.567 362.977C592.421 367.13 596.808 380.799 618.77 389.312Z" fill="#37474F"/>
<path opacity="0.8" d="M618.77 389.312L630.899 378.265L645.855 388.575C645.855 388.575 661.34 373.906 649.829 363.153C647.592 362.859 645.325 362.564 643.028 362.329C631.724 361.327 613.117 361.71 600.282 362.329C597.367 362.476 594.423 362.712 591.567 362.977C592.421 367.13 596.808 380.799 618.77 389.312Z" fill="white"/>
<path d="M625.718 373.964C601.783 373.523 598.633 362.446 598.633 362.446C607.936 353.256 604.374 328.158 601.194 314.372L612.646 323.857L628.22 336.789C627.749 338.91 627.396 341.031 627.219 343.093C626.395 351.547 628.573 359.236 640.997 362.181C640.997 362.181 655.747 371.961 633.843 373.729L625.718 373.964Z" fill="#CE7A63"/>
<path opacity="0.2" d="M628.22 336.789C627.749 338.91 627.396 341.031 627.219 343.093C621.42 341.915 613.647 335.728 612.823 329.778C612.529 327.539 612.47 325.389 612.617 323.828L628.191 336.759L628.22 336.789Z" fill="black"/>
<path d="M596.484 294.547C600.458 312.84 601.871 323.739 612.646 332.076C628.897 344.625 650.418 333.49 652.008 314.548C653.421 297.522 646.679 270.45 627.455 265.266C608.495 260.17 592.509 276.254 596.484 294.547V294.547Z" fill="#CE7A63"/>
<path d="M625.335 296.344C625.571 297.846 626.542 298.965 627.543 298.847C628.515 298.73 629.133 297.404 628.897 295.931C628.662 294.429 627.69 293.309 626.689 293.427C625.688 293.545 625.099 294.871 625.335 296.344Z" fill="#263238"/>
<path d="M642.351 294.311C642.587 295.813 643.558 296.933 644.559 296.815C645.531 296.697 646.149 295.371 645.914 293.899C645.678 292.396 644.707 291.277 643.706 291.395C642.734 291.513 642.116 292.838 642.351 294.311Z" fill="#263238"/>
<path d="M637.052 295.725C637.052 295.725 641.821 303.973 646.237 307.714C643.941 310.513 639.26 309.924 639.26 309.924L637.082 295.754L637.052 295.725Z" fill="#BA4D3C"/>
<path d="M619.212 291.483C619.212 291.483 618.917 291.454 618.77 291.365C618.328 291.13 618.181 290.57 618.417 290.157C620.772 285.886 624.893 285.65 625.07 285.65C625.541 285.592 625.983 286.004 626.012 286.505C626.012 287.006 625.659 287.418 625.158 287.447C624.982 287.447 621.832 287.713 619.977 291.041C619.8 291.336 619.506 291.513 619.182 291.513L619.212 291.483Z" fill="#263238"/>
<path d="M648.769 287.624C648.475 287.624 648.21 287.477 648.033 287.241C645.737 283.883 642.44 283.824 642.41 283.824C641.91 283.824 641.527 283.412 641.527 282.94C641.527 282.44 641.939 282.057 642.41 282.057C642.587 282.057 646.708 282.116 649.505 286.24C649.77 286.652 649.682 287.212 649.27 287.477C649.123 287.595 648.946 287.624 648.769 287.624V287.624Z" fill="#263238"/>
<path d="M603.137 309.393C603.137 309.393 611.233 314.725 610.497 308.274C609.761 301.823 606.847 280.112 606.847 280.112L615.826 272.748C615.826 272.748 654.216 273.013 651.772 253.542C649.329 234.07 631.488 249.477 631.488 249.477C631.488 249.477 635.139 238.518 622.273 238.695C609.408 238.872 607.936 251.038 607.936 251.038C607.936 251.038 595.807 243.85 589.83 250.301C583.854 256.753 585.326 266.326 585.326 266.326C585.326 266.326 555.886 270.45 575.022 298.877C594.158 327.304 608.319 330.397 603.167 309.423L603.137 309.393Z" fill="#263238"/>
<path d="M592.274 313.635C595.542 317.553 600.046 319.88 603.873 320.528C609.644 321.5 610.939 316.169 607.995 311.014C605.345 306.359 599.163 300.261 594.04 301.617C588.977 302.972 588.535 309.128 592.274 313.635Z" fill="#CE7A63"/>
<path d="M619.123 333.46C616.503 326.803 612.882 315.108 616.739 304.975C620.595 294.841 634.756 312.339 639.731 312.339C644.707 312.339 648.887 304.592 651.861 309.924C654.834 315.285 642.145 345.921 639.466 337.879C639.466 337.879 635.875 343.387 632.577 338.35C632.577 338.35 630.369 342.592 626.866 338.35C626.866 338.35 621.92 340.53 619.153 333.46H619.123Z" fill="#263238"/>
<path d="M644.353 314.872C644.353 314.872 638.789 313.429 623.039 312.987C624.746 317.759 628.102 321.736 636.169 321.883C644.236 322.031 644.353 314.872 644.353 314.872Z" fill="#263238"/>
<path d="M632.518 318.054C636.405 318.113 639.201 319.085 641.233 320.587C640.055 321.383 638.406 321.913 636.169 321.883C632.283 321.824 629.516 320.882 627.455 319.35C628.632 318.555 630.252 318.024 632.518 318.054Z" fill="#CD5754"/>
<path d="M643.617 314.725C643.146 315.727 642.675 316.728 641.085 316.993C637.788 317.141 629.427 315.962 627.19 315.432C625.747 315.167 624.54 314.637 623.686 313.017C635.816 313.37 641.704 314.342 643.617 314.725Z" fill="white"/>
<path d="M1201.03 538.014C1199.94 537.749 1198.56 538.75 1197.97 540.429C1197.38 542.138 1197.8 543.847 1198.91 544.112C1200.03 544.377 1201.42 543.346 1202.01 541.696C1202.68 539.988 1202.15 538.279 1201.03 538.014Z" fill="#2E353A"/>
<path d="M1195 556.219C1192.44 555.954 1190.14 554.569 1188.73 552.419C1193.03 549.797 1196.97 546.615 1200.45 542.933L1195 556.189V556.219Z" fill="#A02724"/>
<path d="M1208.51 535.422C1208.1 532.829 1206.48 530.591 1204.13 529.412C1203.68 529.177 1203.48 528.676 1203.6 528.175C1203.77 527.615 1204.33 527.291 1204.89 527.468C1207.92 528.882 1210.04 531.739 1210.54 535.039C1210.63 535.628 1210.25 536.158 1209.69 536.246C1209.51 536.276 1209.34 536.276 1209.16 536.246C1208.81 536.099 1208.54 535.775 1208.48 535.422H1208.51Z" fill="#2E353A"/>
<path d="M1250.11 617.196C1251.26 622.322 1252.02 624.737 1247.46 626.946C1237.83 631.925 1227.21 633.692 1216.78 632.043C1205.92 630.187 1203.98 626.298 1204.42 623.176C1204.86 620.643 1207.13 619.111 1209.42 617.962C1214.08 616.253 1217.29 611.275 1217.43 605.56C1217.7 602.997 1217.96 597.901 1217.29 597.135L1236.72 584.262L1251.38 567.913C1247.84 581.14 1247.17 604.176 1250.11 617.225V617.196Z" fill="#B55B52"/>
<path d="M1188.99 628.596C1188.99 628.596 1196.18 608.771 1207.83 604.176C1219.49 599.58 1254.44 602.143 1254.44 602.143C1256.09 609.301 1258.27 616.312 1260.97 623.176L1188.99 628.596Z" fill="#37474F"/>
<path d="M1260.33 545.997C1259.83 529.648 1246.17 516.804 1229.86 517.305C1207.36 518.101 1194.23 547.028 1192.2 566.706C1189.96 588.593 1211.49 606.915 1232.12 596.959C1245.84 590.331 1249.67 578.4 1257.91 558.664C1259.65 554.657 1260.47 550.327 1260.33 545.967V545.997Z" fill="#B55B52"/>
<path opacity="0.2" d="M1256.73 610.804C1257.97 614.987 1259.38 619.14 1260.97 623.176L1194.47 628.184C1195.88 624.884 1197.94 620.731 1200.62 616.99C1216.7 610.48 1244.78 610.45 1256.73 610.774V610.804Z" fill="black"/>
<path d="M1244.55 588.445C1242.1 587.886 1238.54 587.62 1233.8 588.534C1230.24 589.211 1226.62 587.532 1225.06 584.262L1214.55 562.405C1214.55 562.405 1199.47 557.397 1217.93 527.262C1217.93 527.262 1182.78 515.626 1208.75 491.765C1234.71 467.875 1217.93 500.161 1217.93 500.161C1217.93 500.161 1250.73 482.486 1234.33 504.874C1234.33 504.874 1284.47 507.407 1272.01 534.567C1272.01 534.567 1292.77 534.98 1252.29 585.647C1250.43 587.974 1247.43 589.093 1244.55 588.445Z" fill="#263238"/>
<path d="M1222.35 548.236C1216.7 547.411 1210.63 553.096 1208.63 558.163C1206.42 563.907 1209.31 570.506 1215.25 568.915C1219.85 567.619 1223.79 564.644 1226.35 560.637C1229.53 555.6 1228 549.06 1222.35 548.236V548.236Z" fill="#B55B52"/>
<path d="M1252.29 642.942C1254.88 648.068 1257.74 653.664 1260.3 659.114C1262.86 664.623 1265.45 670.102 1267.77 675.61C1270.16 681.09 1272.37 686.598 1274.25 692.018C1276.17 697.38 1277.75 702.8 1278.49 707.425C1278.9 709.693 1279.02 711.784 1278.96 712.815C1278.96 713.051 1278.96 713.228 1278.96 713.287C1278.96 713.287 1278.96 713.346 1279.02 713.287H1279.08L1279.23 712.992C1279.7 712.315 1276.87 715.643 1274.84 717.057C1272.75 718.501 1270.39 719.944 1267.92 721.358C1257.91 726.984 1246.37 732.022 1235.24 737.147L1238.98 752.701C1245.72 752.2 1252.11 751.258 1258.65 749.961C1265.15 748.665 1271.63 747.045 1278.23 744.777C1281.52 743.628 1284.85 742.361 1288.26 740.653C1291.68 738.915 1295.21 737.059 1299.13 733.671C1301.04 731.933 1303.16 729.783 1305.1 726.307C1305.34 725.865 1305.58 725.394 1305.78 724.981L1306.28 723.833C1306.61 723.037 1306.84 722.33 1307.11 721.594C1307.58 720.15 1307.9 718.766 1308.14 717.44C1309.05 712.226 1308.9 707.925 1308.61 703.919C1307.84 695.966 1306.14 689.131 1304.28 682.445C1302.34 675.817 1300.07 669.483 1297.66 663.268C1295.18 657.082 1292.59 651.013 1289.74 645.122C1286.88 639.142 1284.08 633.427 1280.7 627.447L1252.38 642.912L1252.29 642.942Z" fill="#B55B52"/>
<path d="M1242.49 737.795L1218.55 731.639L1216.58 753.172C1216.58 753.172 1232.71 759.83 1242.63 749.431L1242.46 737.825L1242.49 737.795Z" fill="#B55B52"/>
<path d="M1208.92 734.791L1203.83 752.171L1216.58 753.172L1218.55 731.639L1208.92 734.791Z" fill="#B55B52"/>
<path d="M1303.1 668.275L1262.3 688.513C1262.3 688.513 1260.18 687.983 1244.05 662.178C1225.35 632.131 1235.6 615.281 1258.15 614.456C1281.2 613.602 1289.41 642.147 1303.13 668.275H1303.1Z" fill="#37474F"/>
<path opacity="0.2" d="M1290.41 674.579L1270.9 684.271L1260.97 672.547L1271.98 643.119L1275.05 639.76L1282.7 638.641L1290.41 674.579Z" fill="black"/>
<path d="M1037.29 987.508L1017 978.729L1001.4 1027.6L1021.72 1036.41L1037.29 987.508Z" fill="#B55B52"/>
<path opacity="0.2" d="M1037.29 987.508L1017 978.729L1009.23 1003.15L1029.72 1011.22L1037.29 987.508Z" fill="black"/>
<path d="M999.135 1019.03C993.07 1024.12 980.676 1027.81 971.196 1028.37C963.895 1028.75 963.247 1037.14 972.433 1038.68C981.588 1040.21 997.545 1039.5 1004.26 1039.77C1015.15 1040.18 1018.83 1041.97 1027.46 1041.83C1029.61 1041.71 1031.25 1039.91 1031.19 1037.76L1029.37 1018.2C1029.31 1017.35 1028.55 1016.67 1027.66 1016.73L1002.87 1017.52C1001.49 1017.58 1000.19 1018.11 999.135 1019.03Z" fill="#263238"/>
<path d="M1222.61 785.752C1222.61 785.752 1239.66 805.96 1225.91 837.951C1210.4 874.214 1128.14 858.277 1083.19 869.854C1076.8 933.865 1039.44 999.585 1039.44 999.585L1008.2 987.331C1008.2 987.331 1021.74 936.34 1031.9 846.023C1036.88 801.571 1149.63 796.681 1149.63 796.681L1222.61 785.752V785.752Z" fill="#263238"/>
<path d="M1045.65 993.782L1005.88 979.878L1003.46 994.46L1039.7 1007.63L1045.65 993.782Z" fill="#263238"/>
<path d="M1133.35 1008.48L1111.45 1007.42L1115.04 1059.15L1136.91 1060.21L1133.35 1008.48Z" fill="#B55B52"/>
<path d="M1109.06 1053.7C1103 1058.77 1092.75 1065.81 1083.36 1067.16C1077.33 1068.02 1072.79 1077.18 1084.1 1077.18C1095.4 1077.18 1107.53 1076.09 1114.22 1075.88C1125.11 1075.53 1128.73 1076.5 1137.39 1076.5C1139.53 1076.41 1141.21 1074.58 1141.12 1072.43L1139.33 1052.87C1139.24 1052.02 1138.5 1051.37 1137.62 1051.43L1112.86 1052.2C1111.48 1052.26 1110.15 1052.79 1109.09 1053.7H1109.06Z" fill="#263238"/>
<path opacity="0.2" d="M1135.35 1037L1113.54 1037.03L1111.45 1007.45L1133.35 1008.51L1135.35 1037Z" fill="black"/>
<path d="M1277.34 789.287C1277.34 789.287 1295.27 825.903 1277.81 849.234C1262.03 870.355 1181.31 871.798 1140.3 871.798C1144.36 921.847 1139.86 1024.68 1139.86 1024.68L1107.03 1024.21C1107.03 1024.21 1083.83 925.352 1079.09 856.156C1076.44 817.714 1213.16 792.233 1213.16 792.233L1277.34 789.287V789.287Z" fill="#263238"/>
<path d="M1144.39 1017.85L1099.26 1016.52L1101.2 1030.01L1142.65 1030.6L1144.39 1017.85Z" fill="#263238"/>
<path d="M1281.32 791.202L1146.39 796.828L1159.08 645.387C1160.52 628.242 1174.86 615.045 1192.06 615.045H1259.3C1272.31 615.045 1282.82 625.65 1282.7 638.67L1281.32 791.202V791.202Z" fill="#37474F"/>
<path d="M1166.41 637.698L1162.7 645.681C1161.41 648.421 1160.08 651.131 1158.73 653.841C1155.96 659.232 1153.19 664.623 1150.22 669.837C1147.31 675.08 1144.24 680.206 1141.01 685.125C1137.83 690.074 1134.44 694.787 1130.88 699.088C1129.11 701.268 1127.29 703.33 1125.43 705.245C1125.43 705.245 1124.37 706.217 1122.28 705.657C1120.16 705.127 1117.66 704.302 1115.16 703.242C1105 698.97 1094.17 692.254 1083.83 685.891L1072.97 697.615C1077.3 703.035 1081.74 707.808 1086.72 712.491C1091.66 717.146 1096.9 721.564 1103.06 725.541C1106.15 727.515 1109.42 729.459 1113.3 731.05C1117.19 732.611 1121.61 734.172 1127.82 734.202C1130.91 734.172 1134.62 733.554 1138.3 731.757C1140.09 730.932 1141.95 729.636 1143.33 728.487L1145.45 726.69C1148.25 724.245 1150.87 721.741 1153.34 719.149C1163.17 708.75 1171.01 697.556 1178.04 686.068C1181.49 680.265 1184.78 674.462 1187.76 668.452C1189.26 665.477 1190.7 662.472 1192.14 659.438C1193.62 656.345 1194.85 653.429 1196.24 649.982L1166.41 637.669V637.698Z" fill="#B55B52"/>
<path d="M1087.37 691.37L1076.71 669.071L1058.96 681.384C1058.96 681.384 1064.23 698.028 1078.56 698.97L1087.37 691.37V691.37Z" fill="#B55B52"/>
<path d="M1068.11 663.71L1051.54 670.956L1058.96 681.384L1076.71 669.071L1068.11 663.71Z" fill="#B55B52"/>
<path d="M1180.87 695.406L1142.74 670.455C1142.74 670.455 1142.12 668.275 1156.2 641.351C1172.57 610.008 1192.32 610.273 1204.45 629.274C1216.87 648.745 1196.47 670.308 1180.87 695.406Z" fill="#37474F"/>
<path d="M1345.32 1076.38C1346.62 1075.67 1347.12 1074.02 1346.41 1072.73L1242.34 881.136C1241.63 879.84 1239.98 879.339 1238.69 880.046C1237.39 880.753 1236.89 882.403 1237.6 883.699L1341.67 1075.29C1342.38 1076.59 1344.02 1077.09 1345.32 1076.38Z" fill="#37474F"/>
<g opacity="0.2">
<path opacity="0.2" d="M1345.32 1076.38C1346.62 1075.67 1347.12 1074.02 1346.41 1072.73L1242.34 881.136C1241.63 879.84 1239.98 879.339 1238.69 880.046C1237.39 880.753 1236.89 882.403 1237.6 883.699L1341.67 1075.29C1342.38 1076.59 1344.02 1077.09 1345.32 1076.38Z" fill="black"/>
</g>
<path opacity="0.2" d="M1295.07 989.481L1285.91 972.573L1288.97 966.946L1298.13 983.855L1295.07 989.481Z" fill="black"/>
<path d="M1196.62 1076.38C1197.91 1075.67 1198.41 1074.02 1197.71 1072.73L1093.64 881.136C1092.93 879.84 1091.28 879.339 1089.99 880.046C1088.69 880.753 1088.19 882.403 1088.9 883.699L1192.97 1075.29C1193.67 1076.59 1195.32 1077.09 1196.62 1076.38Z" fill="#37474F"/>
<g opacity="0.2">
<path opacity="0.2" d="M1196.62 1076.38C1197.91 1075.67 1198.41 1074.02 1197.71 1072.73L1093.64 881.136C1092.93 879.84 1091.28 879.339 1089.99 880.046C1088.69 880.753 1088.19 882.403 1088.9 883.699L1192.97 1075.29C1193.67 1076.59 1195.32 1077.09 1196.62 1076.38Z" fill="black"/>
</g>
<path opacity="0.2" d="M1146.39 989.481L1137.21 972.573L1140.27 966.946L1149.46 983.855L1146.39 989.481Z" fill="black"/>
<path d="M1093.67 1075.29L1197.74 883.699C1198.44 882.403 1197.97 880.753 1196.65 880.046C1195.35 879.339 1193.7 879.811 1193 881.136L1088.93 1072.73C1088.22 1074.02 1088.69 1075.67 1090.02 1076.38C1091.31 1077.09 1092.96 1076.62 1093.67 1075.29Z" fill="#37474F"/>
<g opacity="0.2">
<path opacity="0.2" d="M1093.67 1075.29L1197.74 883.699C1198.44 882.403 1197.97 880.753 1196.65 880.046C1195.35 879.339 1193.7 879.811 1193 881.136L1088.93 1072.73C1088.22 1074.02 1088.69 1075.67 1090.02 1076.38C1091.31 1077.09 1092.96 1076.62 1093.67 1075.29Z" fill="black"/>
</g>
<path d="M1242.37 1075.29L1346.44 883.699C1347.15 882.403 1346.67 880.753 1345.35 880.046C1344.05 879.339 1342.41 879.811 1341.7 881.136L1237.63 1072.73C1236.92 1074.02 1237.39 1075.67 1238.72 1076.38C1240.01 1077.09 1241.66 1076.62 1242.37 1075.29Z" fill="#37474F"/>
<g opacity="0.2">
<path opacity="0.2" d="M1242.37 1075.29L1346.44 883.699C1347.15 882.403 1346.67 880.753 1345.35 880.046C1344.05 879.339 1342.41 879.811 1341.7 881.136L1237.63 1072.73C1236.92 1074.02 1237.39 1075.67 1238.72 1076.38C1240.01 1077.09 1241.66 1076.62 1242.37 1075.29Z" fill="black"/>
</g>
<path d="M1220.35 871.562H1099.5C1091.84 871.562 1085.63 877.778 1085.63 885.437H1220.35V871.562Z" fill="#37474F"/>
<path d="M1306.11 693.933C1348.59 693.933 1378.82 725.6 1376.61 767.813L1371.76 860.044C1371.02 874.272 1359.24 885.437 1345 885.437H1174.3L1209.57 767.813C1222.23 725.629 1263.62 693.933 1306.11 693.933V693.933Z" fill="#37474F"/>
<path opacity="0.3" d="M1306.11 693.933C1348.59 693.933 1378.82 725.6 1376.61 767.813L1371.76 860.044C1371.02 874.272 1359.24 885.437 1345 885.437H1174.3L1209.57 767.813C1222.23 725.629 1263.62 693.933 1306.11 693.933V693.933Z" fill="white"/>
<path d="M943.11 622.616C946.025 633.015 946.761 644.179 931.805 648.244C931.805 648.244 917.851 667.922 934.602 681.09C945.201 667.127 958.566 655.52 973.875 646.978C964.16 638.258 966.074 613.425 968.311 599.845L943.11 622.616V622.616Z" fill="#CE7A63"/>
<path d="M924.563 568.591C923.415 568.326 922.031 569.386 921.472 571.095C920.913 572.833 921.384 574.63 922.532 574.924C923.68 575.189 925.064 574.158 925.623 572.42C926.241 570.682 925.711 568.885 924.563 568.591Z" fill="#2E353A"/>
<path d="M921.237 566.264L925.034 568.827C922.326 570.24 921.237 566.264 921.237 566.264Z" fill="#2E353A"/>
<path d="M920.471 587.385C918.145 587.238 915.996 586.089 914.613 584.203C918.293 581.611 921.59 578.548 924.445 575.042L920.471 587.385V587.385Z" fill="#BA4D3C"/>
<path d="M928.685 557.132C930.981 558.664 932.335 561.256 932.365 563.996C932.365 564.614 932.806 565.085 933.395 565.115H933.454C934.013 565.115 934.484 564.673 934.514 564.113C934.514 560.637 932.806 557.367 929.98 555.364C929.509 555.011 928.832 555.129 928.479 555.6C928.302 555.924 928.302 556.336 928.479 556.66C928.479 556.837 928.596 557.014 928.714 557.132H928.685Z" fill="#2E353A"/>
<path d="M989.596 569.681C988.154 552.802 973.286 540.282 956.388 541.726C932.63 543.522 919.441 574.423 917.851 595.191C916.055 618.286 940.078 633.015 961.717 621.673C976.23 614.132 978.998 605.059 987.388 584.027C989.272 579.49 990.008 574.571 989.596 569.681V569.681Z" fill="#CE7A63"/>
<path d="M1001.2 596.988C1032.34 557.603 994.101 546.291 994.101 546.291C982.118 529.648 962.335 526.29 944.2 533.242C926.065 540.194 931.452 552.33 938.076 553.538C925.711 569.887 932.807 578.017 936.869 579.196C930.481 620.348 970.048 636.373 1001.2 596.988V596.988Z" fill="#263238"/>
<path d="M946.967 580.433C947.468 576.073 944.376 572.126 939.99 571.596C933.955 570.977 929.303 578.165 928.008 583.29C926.536 588.975 929.715 594.219 935.633 592.363C940.108 590.89 943.788 587.738 945.937 583.555C946.496 582.613 946.849 581.552 946.997 580.433H946.967Z" fill="#CE7A63"/>
<path d="M979.645 649.982C979.645 649.982 973.316 645.888 973.875 638.582C973.875 638.582 930.275 632.219 921.237 642.058C921.237 642.058 934.337 641.351 929.097 652.162L979.645 649.953V649.982Z" fill="#37474F"/>
<path opacity="0.6" d="M979.645 649.982C979.645 649.982 973.316 645.888 973.875 638.582C973.875 638.582 930.275 632.219 921.237 642.058C921.237 642.058 934.337 641.351 929.097 652.162L979.645 649.953V649.982Z" fill="#24C79D"/>
<path d="M934.514 778.476L934.249 789.729C947.88 791.379 961.599 792.027 975.347 791.732C982.619 791.614 989.861 790.849 996.986 789.405C999.105 788.934 1001.17 788.315 1003.17 787.52C1004.4 787.049 1005.61 786.489 1006.76 785.811C1008.38 784.898 1009.85 783.749 1011.12 782.424C1012.03 781.422 1012.79 780.303 1013.44 779.095C1013.8 778.359 1014.09 777.622 1014.36 776.856C1014.53 776.061 1014.65 775.266 1014.71 774.47L1015.09 771.878L1015.89 766.723C1017.42 752.996 1018.21 739.504 1018.83 725.983C1019.42 712.462 1019.77 699 1019.71 685.42L996.721 685.479L996.043 725.453C995.72 738.768 995.484 752.082 994.778 765.103L994.483 769.433C993.629 769.816 992.805 770.169 991.922 770.434C986.004 772.143 979.94 773.38 973.816 774.176C960.98 776.12 947.674 777.239 934.514 778.447V778.476Z" fill="#CE7A63"/>
<path d="M977.055 678.114C977.055 692.048 985.416 718.088 985.416 718.088L1019.92 696.849C1021.45 679.027 1017.77 656.109 1000.67 650.513C989.066 646.742 977.173 663.297 977.055 678.114Z" fill="#24C79D"/>
<path opacity="0.6" d="M1001.84 668.099L1009.76 675.934L1011.29 702.152L985.416 718.088C985.416 718.088 977.055 692.048 977.055 678.114C977.084 674.579 977.791 670.956 978.998 667.539L990.921 663.916L1001.84 668.099Z" fill="black"/>
<path d="M902.807 784.751C901.836 782.483 902.895 779.89 905.133 778.918L914.907 774.765C917.027 773.881 919.352 773.734 921.56 774.323L942.875 780.067L945.495 787.284C942.168 795.562 928.066 794.001 928.066 794.001L917.91 797.094C915.29 797.889 912.463 797.035 910.726 794.884L903.337 785.723C903.101 785.428 902.895 785.075 902.748 784.721L902.807 784.751Z" fill="#CE7A63"/>
<path d="M918.351 650.189C922.797 649.423 927.419 648.745 931.923 648.185C945.819 646.771 959.803 646.359 973.757 646.919C980.617 647.066 987.359 647.567 993.276 648.185C993.423 648.185 993.6 648.215 993.747 648.244C1004.43 649.658 1011.94 659.497 1010.53 670.19C1002.17 729.93 998.516 755.352 1000.93 789.464L908.548 792.263C897.773 736.588 893.416 703.389 891.973 683.859C890.737 667.51 902.159 652.928 918.293 650.189H918.351Z" fill="#24C79D"/>
<path d="M811.131 992.898L789.316 990.836L774.625 1044.6L796.44 1046.66L811.131 992.898Z" fill="#CE7A63"/>
<path d="M743.713 944.588L725.225 927.061L700.495 964.648L715.274 977.492L743.713 944.588Z" fill="#CE7A63"/>
<path d="M992.246 790.142C996.75 790.112 1000.7 793.146 1001.81 797.506C1014.3 846.229 1000.19 875.657 965.72 875.657C933.425 875.657 845.252 846.789 817.549 837.804C794.35 904.879 727.404 964.914 727.404 964.914L709.828 948.771C709.828 948.771 748.836 873.595 775.773 806.844C791.259 768.461 940.814 790.642 940.814 790.642C940.814 790.642 970.549 790.142 992.246 790.142V790.142Z" fill="#37474F"/>
<path opacity="0.6" d="M992.246 790.142C996.75 790.112 1000.7 793.146 1001.81 797.506C1014.3 846.229 1000.19 875.657 965.72 875.657C933.425 875.657 845.252 846.789 817.549 837.804C794.35 904.879 727.404 964.914 727.404 964.914L709.828 948.771C709.828 948.771 748.836 873.595 775.773 806.844C791.259 768.461 940.814 790.642 940.814 790.642C940.814 790.642 970.549 790.142 992.246 790.142V790.142Z" fill="white"/>
<path d="M969.665 789.405C1004.79 835.801 1001.99 875.569 965.72 875.569C933.425 875.569 893.121 877.454 849.373 874.685C839.747 945.089 803.094 1027.13 803.094 1027.13L778.923 1024.86C778.923 1024.86 800.974 921.935 802.682 849.941C803.741 806.432 926.477 810.143 926.477 810.143C926.477 810.143 948.115 789.523 969.665 789.405V789.405Z" fill="#37474F"/>
<path opacity="0.6" d="M969.665 789.405C1004.79 835.801 1001.99 875.569 965.72 875.569C933.425 875.569 893.121 877.454 849.373 874.685C839.747 945.089 803.094 1027.13 803.094 1027.13L778.923 1024.86C778.923 1024.86 800.974 921.935 802.682 849.941C803.741 806.432 926.477 810.143 926.477 810.143C926.477 810.143 948.115 789.523 969.665 789.405V789.405Z" fill="white"/>
<path d="M1000.67 783.249L907.105 786.047C906.193 786.047 905.574 786.607 905.574 787.166L906.634 795.532C906.723 796.033 907.429 796.387 908.253 796.387L1003.32 793.588C1004.4 793.588 1005.14 792.881 1004.79 792.263L1002.17 784.044C1001.87 783.514 1001.28 783.19 1000.67 783.249V783.249Z" fill="#263238"/>
<path d="M832.239 746.927C841.219 752.701 850.58 757.827 860.325 762.216C865.418 764.543 870.659 766.487 876.046 768.019C879.226 768.932 882.493 769.521 885.791 769.698C888.293 769.845 890.796 769.521 893.18 768.726C895.212 768.019 897.066 766.9 898.597 765.427C899.068 764.985 899.51 764.484 899.893 763.983L900.452 763.158L900.893 762.51L901.453 761.509C907.223 751.493 911.256 740.594 913.435 729.223C914.554 723.803 915.378 718.324 915.908 712.786C916.143 709.929 916.349 707.277 916.497 704.508C916.644 701.739 916.673 699.118 916.614 696.025L893.739 696.378C893.71 698.381 893.592 701.003 893.475 703.359C893.357 705.687 893.18 708.22 892.945 710.636C892.503 715.467 891.914 720.268 891.149 725.07C890.354 729.724 889.324 734.319 888.087 738.885C887.057 742.538 885.702 746.102 884.171 749.578C882.876 749.549 881.581 749.461 880.285 749.196C875.575 748.371 870.894 747.281 866.301 745.926C856.733 743.186 846.93 739.975 837.274 736.735L832.269 746.927H832.239Z" fill="#CE7A63"/>
<path d="M929.009 677.997C935.839 688.572 919.882 715.761 919.882 715.761L891.119 712.55C891.119 712.55 885.32 676.347 899.304 661.471C906.87 653.488 921.825 667.009 928.979 678.026L929.009 677.997Z" fill="#24C79D"/>
<path d="M812.927 739.799C812.22 739.563 811.837 738.797 812.073 738.09L827.176 692.843C827.411 692.166 828.177 691.783 828.883 692.018C829.59 692.254 829.973 693.02 829.737 693.727L814.634 738.974C814.458 739.445 814.046 739.799 813.574 739.887C813.339 739.916 813.133 739.887 812.927 739.828V739.799Z" fill="#2E353A"/>
<path d="M817.519 714.288C814.899 714.082 812.603 716.026 812.367 718.648L811.072 731.167C810.866 733.112 811.867 734.967 813.574 735.881L824.143 741.448C824.143 741.448 842.249 758.563 850.051 754.262L844.457 742.037L833.505 723.155C832.269 721.005 830.355 719.325 828.088 718.383L819.021 714.642C818.55 714.436 818.049 714.318 817.549 714.288H817.519Z" fill="#CE7A63"/>
<path d="M700.201 956.312C692.841 955.752 682.154 950.096 675.471 944.264C670.349 939.727 664.461 944.941 669.554 951.952C674.647 958.963 685.775 968.92 690.074 973.486C697.051 980.88 698.376 984.473 704.205 990.011C705.706 991.337 708.003 991.219 709.357 989.746L720.897 975.518C721.427 974.9 721.339 973.957 720.721 973.427L703.645 957.755C702.674 956.901 701.467 956.4 700.172 956.312H700.201Z" fill="#37474F"/>
<path d="M772.8 1043.24C767.619 1048.51 758.787 1056 750.161 1058.12C744.655 1059.47 741.27 1068.4 751.75 1067.34C762.231 1066.28 773.418 1064.16 779.601 1063.33C789.699 1062.01 793.143 1062.57 801.18 1061.77C803.182 1061.48 804.566 1059.65 804.271 1057.65L800.797 1039.65C800.65 1038.85 799.885 1038.32 799.09 1038.47L776.156 1041.5C774.861 1041.68 773.683 1042.3 772.8 1043.24Z" fill="#37474F"/>
<path d="M1060.81 1076.85C1062.11 1076.15 1062.61 1074.5 1061.9 1073.2L957.83 881.608C957.124 880.311 955.475 879.811 954.18 880.518C952.884 881.225 952.384 882.874 953.091 884.17L1057.16 1075.76C1057.87 1077.06 1059.52 1077.56 1060.81 1076.85Z" fill="#37474F"/>
<g opacity="0.2">
<path opacity="0.2" d="M1060.81 1076.85C1062.11 1076.15 1062.61 1074.5 1061.9 1073.2L957.83 881.608C957.124 880.311 955.475 879.811 954.18 880.518C952.884 881.225 952.384 882.874 953.091 884.17L1057.16 1075.76C1057.87 1077.06 1059.52 1077.56 1060.81 1076.85Z" fill="black"/>
</g>
<path opacity="0.2" d="M1010.56 989.953L1001.37 973.044L1004.43 967.418L1013.62 984.326L1010.56 989.953Z" fill="black"/>
<path d="M912.11 1076.85C913.406 1076.15 913.906 1074.5 913.199 1073.2L809.129 881.608C808.422 880.311 806.774 879.811 805.478 880.518C804.183 881.225 803.683 882.874 804.389 884.17L908.46 1075.76C909.166 1077.06 910.815 1077.56 912.11 1076.85Z" fill="#37474F"/>
<g opacity="0.2">
<path opacity="0.2" d="M912.11 1076.85C913.406 1076.15 913.906 1074.5 913.199 1073.2L809.129 881.608C808.422 880.311 806.774 879.811 805.478 880.518C804.183 881.225 803.683 882.874 804.389 884.17L908.46 1075.76C909.166 1077.06 910.815 1077.56 912.11 1076.85Z" fill="black"/>
</g>
<path opacity="0.2" d="M861.856 989.953L852.671 973.044L855.733 967.418L864.918 984.326L861.856 989.953Z" fill="black"/>
<path d="M809.129 1075.76L913.199 884.17C913.906 882.874 913.435 881.225 912.11 880.518C910.815 879.811 909.166 880.282 908.459 881.607L804.389 1073.2C803.683 1074.5 804.154 1076.15 805.478 1076.85C806.774 1077.56 808.422 1077.09 809.129 1075.76Z" fill="#37474F"/>
<g opacity="0.2">
<path opacity="0.2" d="M809.129 1075.76L913.199 884.17C913.906 882.874 913.435 881.225 912.11 880.518C910.815 879.811 909.166 880.282 908.459 881.607L804.389 1073.2C803.683 1074.5 804.154 1076.15 805.478 1076.85C806.774 1077.56 808.422 1077.09 809.129 1075.76Z" fill="black"/>
</g>
<path d="M957.83 1075.76L1061.9 884.17C1062.61 882.874 1062.14 881.225 1060.81 880.518C1059.52 879.811 1057.87 880.282 1057.16 881.607L953.091 1073.2C952.384 1074.5 952.855 1076.15 954.18 1076.85C955.475 1077.56 957.124 1077.09 957.83 1075.76Z" fill="#37474F"/>
<g opacity="0.2">
<path opacity="0.2" d="M957.83 1075.76L1061.9 884.17C1062.61 882.874 1062.14 881.225 1060.81 880.518C1059.52 879.811 1057.87 880.282 1057.16 881.607L953.091 1073.2C952.384 1074.5 952.855 1076.15 954.18 1076.85C955.475 1077.56 957.124 1077.09 957.83 1075.76Z" fill="black"/>
</g>
<path d="M935.809 872.034H814.958C807.304 872.034 801.092 878.249 801.092 885.908H935.809V872.034Z" fill="#37474F"/>
<path d="M1021.57 694.434C1064.05 694.434 1094.28 726.101 1092.08 768.314L1087.22 860.545C1086.48 874.773 1074.71 885.938 1060.46 885.938H889.765L925.034 768.314C937.693 726.13 979.086 694.434 1021.57 694.434V694.434Z" fill="#37474F"/>
<path opacity="0.3" d="M1021.57 694.434C1064.05 694.434 1094.28 726.101 1092.08 768.314L1087.22 860.545C1086.48 874.773 1074.71 885.938 1060.46 885.938H889.765L925.034 768.314C937.693 726.13 979.086 694.434 1021.57 694.434V694.434Z" fill="white"/>
</svg>
