<svg width="598" height="535" viewBox="0 0 598 535" fill="none" xmlns="http://www.w3.org/2000/svg">
<path d="M118.088 135.872C155.11 135.872 185.123 108.366 185.123 74.4361C185.123 40.5059 155.11 13 118.088 13C81.0653 13 51.0527 40.5059 51.0527 74.4361C51.0527 108.366 81.0653 135.872 118.088 135.872Z" fill="#24C79D" fill-opacity="0.13"/>
<path d="M63.5865 449.443C63.5865 449.443 31.1667 403.56 28.2058 350.924C25.2449 298.3 60.3496 230.198 135.992 229.483C211.634 228.767 257.189 250.861 274.88 192.777C292.57 134.705 317.349 63.2888 410.142 57.326C502.935 51.3631 559.368 106.761 570.798 174.65C582.228 242.538 586.33 378.027 476.65 475.579L452.423 495.476L122.441 494.509C122.441 494.509 82.3057 475.428 63.5865 449.443Z" fill="#DBF3EF"/>
<path fill-rule="evenodd" clip-rule="evenodd" d="M567.837 303.61C569.405 304.426 570.823 305.443 572.09 306.61L576.632 304.991L580.898 311.732L577.498 315.147C578.012 316.791 578.326 318.511 578.389 320.281L582.742 322.352L580.998 330.148H576.18C575.365 331.717 574.349 333.148 573.182 334.416L574.8 338.96L568.063 343.229L564.65 339.827C563.007 340.341 561.288 340.655 559.519 340.718L557.449 345.074L549.657 343.329V338.509C548.089 337.693 546.659 336.676 545.392 335.508L540.85 337.128L536.584 330.387L539.984 326.972C539.47 325.328 539.156 323.608 539.093 321.85L534.74 319.779L536.484 311.983H541.301C542.117 310.414 543.133 308.983 544.3 307.715L542.682 303.171L549.419 298.903L552.832 302.305C554.475 301.79 556.194 301.476 557.963 301.413L560.033 297.057L567.824 298.802V303.623L567.837 303.61ZM560.974 312.774C556.357 311.745 551.778 314.645 550.749 319.252C549.72 323.871 552.618 328.453 557.223 329.483C561.84 330.512 566.419 327.612 567.448 323.005C568.477 318.386 565.579 313.804 560.974 312.774Z" stroke="#37474F" stroke-opacity="0.32" stroke-miterlimit="10"/>
<path fill-rule="evenodd" clip-rule="evenodd" d="M415.713 323.219C418.862 324.863 421.722 326.897 424.269 329.257L433.415 326.005L442.01 339.576L435.159 346.455C436.201 349.756 436.816 353.234 436.954 356.774L445.723 360.941L442.21 376.621L432.512 376.646C430.869 379.797 428.836 382.671 426.477 385.207L429.727 394.358L416.164 402.957L409.289 396.103C405.989 397.145 402.514 397.76 398.976 397.898L394.81 406.673L379.14 403.158L379.115 393.455C375.966 391.81 373.105 389.776 370.558 387.416L361.412 390.668L352.818 377.098L359.668 370.218C358.627 366.917 358.012 363.439 357.874 359.899L349.116 355.732L352.629 340.053L362.328 340.028C363.959 336.877 366.004 334.002 368.363 331.466L365.113 322.315L378.676 313.716L385.551 320.57C388.851 319.528 392.326 318.913 395.864 318.775L400.03 310L415.7 313.515L415.725 323.219H415.713ZM401.899 341.672C392.615 339.588 383.406 345.425 381.323 354.715C379.24 364.004 385.074 373.219 394.359 375.302C403.643 377.386 412.852 371.549 414.935 362.259C417.017 352.97 411.183 343.756 401.899 341.672Z" stroke="#37474F" stroke-opacity="0.32" stroke-miterlimit="10"/>
<path fill-rule="evenodd" clip-rule="evenodd" d="M144.623 118.348C147.045 119.616 149.266 121.185 151.223 123.005L158.274 120.494L164.898 130.964L159.616 136.274C160.419 138.822 160.896 141.496 160.996 144.233L167.759 147.446L165.049 159.535H157.559C156.291 161.983 154.723 164.193 152.904 166.163L155.413 173.218L144.95 179.847L139.642 174.562C137.096 175.365 134.423 175.842 131.688 175.943L128.476 182.709L116.382 179.997V172.503C113.935 171.235 111.727 169.666 109.77 167.846L102.719 170.356L96.0941 159.887L101.376 154.577C100.573 152.028 100.096 149.355 99.996 146.618L93.2335 143.404L95.9435 131.315H103.434C104.701 128.867 106.269 126.658 108.088 124.687L105.579 117.632L116.043 111.004L121.35 116.289C123.897 115.486 126.569 115.009 129.304 114.908L132.516 108.142L144.598 110.853V118.348H144.611H144.623ZM133.972 132.583C126.808 130.976 119.706 135.483 118.1 142.651C116.494 149.819 120.999 156.924 128.163 158.531C135.327 160.138 142.428 155.631 144.034 148.463C145.64 141.295 141.135 134.19 133.972 132.583Z" stroke="#37474F" stroke-opacity="0.32" stroke-miterlimit="10"/>
<path fill-rule="evenodd" clip-rule="evenodd" d="M180.657 283.048C182.589 284.052 184.345 285.308 185.913 286.751L191.522 284.755L196.791 293.091L192.588 297.309C193.228 299.342 193.604 301.464 193.692 303.648L199.075 306.209L196.917 315.825H190.957C189.953 317.77 188.699 319.528 187.256 321.097L189.251 326.708L180.933 331.981L176.717 327.776C174.684 328.416 172.564 328.792 170.381 328.88L167.822 334.266L158.199 332.106V326.144C156.254 325.139 154.497 323.884 152.929 322.44L147.321 324.436L142.051 316.101L146.254 311.883C145.615 309.849 145.238 307.728 145.15 305.544L139.768 302.983L141.926 293.354H147.885C148.889 291.408 150.144 289.651 151.587 288.082L149.592 282.47L157.91 277.198L162.126 281.403C164.158 280.763 166.278 280.387 168.461 280.299L171.021 274.913L180.631 277.073V283.035H180.644L180.657 283.048ZM172.175 294.371C166.479 293.091 160.821 296.681 159.541 302.38C158.261 308.079 161.85 313.741 167.546 315.021C173.242 316.302 178.9 312.711 180.18 307.012C181.459 301.313 177.871 295.651 172.175 294.371V294.371Z" stroke="#37474F" stroke-opacity="0.32" stroke-miterlimit="10"/>
<path fill-rule="evenodd" clip-rule="evenodd" d="M50.5885 250.698C52.2571 251.564 53.7752 252.644 55.1303 253.899L59.9857 252.167L64.54 259.372L60.9016 263.025C61.4536 264.783 61.7798 266.615 61.8551 268.498L66.5098 270.708L64.6404 279.031H59.4964C58.6307 280.713 57.5517 282.232 56.2971 283.588L58.0285 288.446L50.8394 293.003L47.1884 289.362C45.4319 289.914 43.6001 290.241 41.7182 290.316L39.51 294.973L31.1918 293.103V287.956C29.5106 287.09 27.9925 286.01 26.6375 284.755L21.782 286.487L17.2277 279.282L20.8662 275.629C20.3141 273.871 19.9879 272.038 19.9126 270.155L15.2579 267.946L17.1273 259.623H22.2588C23.1245 257.941 24.2035 256.422 25.4581 255.066L23.7267 250.208L30.9283 245.651L34.5793 249.292C36.3358 248.739 38.1676 248.413 40.0495 248.338L42.2577 243.68L50.5634 245.551V250.698H50.5885ZM43.2614 260.489C38.3432 259.385 33.4501 262.485 32.3461 267.406C31.242 272.34 34.3409 277.223 39.2591 278.328C44.1898 279.432 49.0704 276.332 50.1744 271.411C51.2785 266.477 48.1796 261.594 43.2614 260.489Z" stroke="#37474F" stroke-opacity="0.32" stroke-miterlimit="10"/>
<path fill-rule="evenodd" clip-rule="evenodd" d="M513.8 161.933C515.468 162.799 516.987 163.879 518.342 165.134L523.197 163.402L527.751 170.607L524.113 174.261C524.665 176.018 524.991 177.851 525.066 179.734L529.721 181.943L527.852 190.266H522.708C521.842 191.948 520.763 193.467 519.508 194.823L521.24 199.681L514.051 204.238L510.4 200.597C508.643 201.15 506.811 201.476 504.929 201.552L502.721 206.209L494.403 204.338V199.191C492.722 198.325 491.204 197.246 489.849 195.99L484.993 197.723L480.439 190.517L484.077 186.864C483.525 185.107 483.199 183.274 483.124 181.391L478.469 179.181L480.339 170.859H485.483C486.348 169.176 487.427 167.657 488.682 166.302L486.951 161.444L494.152 156.887L497.803 160.527C499.56 159.975 501.391 159.648 503.273 159.573L505.482 154.916L513.787 156.786V161.933H513.8ZM506.473 171.725C501.555 170.62 496.661 173.721 495.557 178.642C494.453 183.575 497.552 188.458 502.47 189.563C507.401 190.668 512.282 187.567 513.386 182.646C514.49 177.713 511.391 172.829 506.473 171.725V171.725Z" stroke="#37474F" stroke-opacity="0.32" stroke-miterlimit="10"/>
<path d="M310.499 232.332H362.654C368.94 232.332 374.033 237.429 374.033 243.718V272.252C374.033 278.139 369.567 282.973 363.846 283.575V300.823L340.786 283.638H310.499C304.213 283.638 299.119 278.541 299.119 272.252V243.718C299.119 237.429 304.213 232.332 310.499 232.332Z" fill="white" stroke="#231F20" stroke-miterlimit="10"/>
<path d="M337.737 250.346C337.737 248.112 335.767 246.693 332.806 246.693C329.845 246.693 327.65 247.974 326.182 250.07L320.649 246.831C323.12 243.078 327.411 240.705 333.571 240.705C340.422 240.705 345.177 243.768 345.177 249.166C345.177 256.485 337.498 257.301 337.498 262.146H330.598C330.598 255.744 337.724 254.326 337.724 250.359L337.737 250.346ZM329.695 269.453C329.695 267.118 331.526 265.385 334.086 265.385C336.645 265.385 338.477 267.118 338.477 269.453C338.477 271.787 336.645 273.608 334.086 273.608C331.526 273.608 329.695 271.737 329.695 269.453Z" fill="#37474F"/>
<path d="M417.042 135.106H354.336C346.783 135.106 340.66 141.232 340.66 148.79V183.085C340.66 190.165 346.017 195.978 352.905 196.693V217.431L380.633 196.769H417.042C424.595 196.769 430.718 190.643 430.718 183.085V148.79C430.718 141.232 424.595 135.106 417.042 135.106Z" fill="white" stroke="#231F20" stroke-miterlimit="10"/>
<path d="M370.106 166.465C370.106 169.942 367.296 172.754 363.821 172.754C360.345 172.754 357.535 169.942 357.535 166.465C357.535 162.988 360.345 160.176 363.821 160.176C367.296 160.176 370.106 162.988 370.106 166.465Z" fill="#37474F"/>
<path d="M391.975 166.465C391.975 169.942 389.164 172.754 385.689 172.754C382.214 172.754 379.403 169.942 379.403 166.465C379.403 162.988 382.214 160.176 385.689 160.176C389.164 160.176 391.975 162.988 391.975 166.465Z" fill="#37474F"/>
<path d="M413.83 166.465C413.83 169.942 411.02 172.754 407.545 172.754C404.069 172.754 401.259 169.942 401.259 166.465C401.259 162.988 404.069 160.176 407.545 160.176C411.02 160.176 413.83 162.988 413.83 166.465Z" fill="#37474F"/>
<path d="M18.7207 494.321H536.822C543.823 494.321 550.824 494.446 557.825 494.321C558.126 494.321 558.44 494.321 558.741 494.321C559.343 494.321 559.343 493.379 558.741 493.379H40.6518C33.6509 493.379 26.65 493.254 19.6492 493.379C19.3481 493.379 19.0344 493.379 18.7333 493.379C18.1311 493.379 18.1311 494.321 18.7333 494.321H18.7207Z" fill="#231F20"/>
<path d="M89.4069 459.284V494.107L234.857 494.635L244.191 439.852L89.4069 459.284Z" fill="#BCB9BD" stroke="black" stroke-miterlimit="10"/>
<path d="M232.109 243.718C232.109 243.718 279.007 302.744 304.878 372.415C317.951 407.627 336.57 463.64 336.57 463.64L247.366 466.44L222.549 330.525L234.28 244.886" fill="#24C79D"/>
<path d="M231.77 244.057C236.375 249.857 240.666 255.907 244.906 261.971C255.358 276.947 265.119 292.425 274.102 308.33C285.757 328.943 296.158 350.334 304.426 372.541C311.264 390.919 317.675 409.448 324.024 428.001C326.671 435.747 329.306 443.492 331.928 451.25C332.794 453.811 333.659 456.385 334.512 458.945C334.977 460.339 335.328 461.87 335.943 463.214C336.018 463.389 336.068 463.59 336.131 463.766L336.583 463.176L306.321 464.13L258.444 465.636L247.378 465.988L247.83 466.339L246.149 457.138L241.933 434.027L236.325 403.309L230.528 371.587L225.761 345.513L223.176 331.341C223.126 331.052 223.038 330.751 223.013 330.449C223.063 330.926 223.063 330.248 223.101 329.997L224.004 323.432L227.68 296.631L231.984 265.184L234.618 245.953L234.744 245.024C234.819 244.434 233.916 244.17 233.841 244.773L231.959 258.506L227.831 288.684L223.791 318.185L222.511 327.487C222.373 328.516 222.06 329.658 222.11 330.688C222.16 331.629 222.461 332.608 222.624 333.525L223.916 340.618L228.27 364.444L233.916 395.375L239.687 426.96L244.38 452.669C245.195 457.1 245.96 461.544 246.814 465.975C246.851 466.176 246.889 466.365 246.926 466.565C246.964 466.766 247.19 466.917 247.378 466.917L277.64 465.963L325.517 464.456L336.583 464.105C336.871 464.105 337.135 463.804 337.034 463.515C333.76 453.661 330.422 443.819 327.073 433.989C320.699 415.285 314.238 396.605 307.463 378.052C299.496 356.246 289.923 335.169 278.794 314.795C269.535 297.861 259.398 281.403 248.482 265.473C245.019 260.427 241.494 255.43 237.855 250.51C236.212 248.275 234.631 245.651 232.674 243.668C232.586 243.58 232.523 243.467 232.435 243.367C232.059 242.89 231.394 243.568 231.77 244.032V244.057Z" fill="black"/>
<path d="M230.516 236.977C230.516 236.977 243.05 246.342 259.761 306.585C276.473 366.829 277.238 473.181 277.238 473.181H76.1329C76.1329 473.181 84.7397 376.771 86.308 358.33C87.8763 339.89 103.559 302.619 120.359 283.173C133.106 268.423 163.004 239.927 163.004 239.927C163.004 239.927 187.695 231.617 196.089 230.311C204.495 229.006 230.528 236.977 230.528 236.977H230.516Z" fill="#24C79D"/>
<path d="M230.29 237.379C230.139 237.266 230.754 237.806 230.88 237.944C231.545 238.609 232.147 239.35 232.711 240.103C235.421 243.655 237.604 247.635 239.599 251.627C243.664 259.699 246.964 268.16 249.975 276.683C254.279 288.898 258.13 301.351 261.192 313.942C266.461 335.584 269.372 357.803 271.605 379.935C273.663 400.409 275.018 420.972 275.883 441.534C276.184 448.551 276.423 455.569 276.586 462.586C276.636 464.795 276.686 467.017 276.724 469.227C276.737 470.344 276.573 471.637 276.774 472.742C276.799 472.88 276.774 473.043 276.774 473.193L277.251 472.716H79.1691C78.3912 472.716 77.2244 472.491 76.4716 472.716C76.3713 472.742 76.2332 472.716 76.1329 472.716L76.6096 473.193C77.0111 468.687 77.4126 464.18 77.8141 459.674C78.7551 449.104 79.696 438.534 80.637 427.951C81.7285 415.737 82.8075 403.535 83.8865 391.321C84.7146 381.893 85.5552 372.478 86.3707 363.05C86.7345 358.908 87.0984 354.815 87.9766 350.748C89.5449 343.53 91.9162 336.487 94.5886 329.608C100.611 314.18 108.327 298.777 118.753 285.835C122.83 280.776 127.372 276.081 131.889 271.411C136.92 266.189 142.039 261.067 147.195 255.97C151.273 251.941 155.376 247.936 159.491 243.957C160.57 242.915 161.649 241.885 162.728 240.843C162.916 240.668 163.092 240.442 163.305 240.291C162.954 240.542 163.468 240.266 163.719 240.191C174.045 236.927 184.358 233.035 195.01 230.976C200.254 229.96 205.912 231.315 211.044 232.408C216.602 233.588 222.11 235.031 227.567 236.6C228.508 236.877 229.462 237.153 230.403 237.441C230.98 237.617 231.231 236.713 230.654 236.538C221.282 233.675 211.533 230.939 201.759 229.922C196.716 229.395 192.174 230.575 187.331 231.905C181.171 233.6 175.061 235.521 168.976 237.492C167.157 238.082 165.337 238.672 163.518 239.287C162.966 239.475 162.678 239.613 162.264 240.015C159.466 242.639 156.743 245.325 153.996 247.999C143.971 257.765 133.972 267.595 124.487 277.901C119.782 283.01 115.441 288.32 111.627 294.132C106.959 301.225 102.894 308.719 99.2809 316.402C95.6675 324.085 92.6815 331.454 90.1597 339.274C88.1899 345.375 86.4585 351.677 85.8688 358.079C85.1286 366.026 84.4887 373.984 83.7861 381.931C82.7323 393.919 81.6658 405.908 80.5994 417.896C79.5329 429.884 78.5418 441.082 77.5004 452.681C76.9233 459.209 76.3336 465.737 75.7565 472.265L75.6687 473.219C75.6436 473.47 75.907 473.696 76.1454 473.696H269.046C271.618 473.696 274.34 473.947 276.912 473.696C277.025 473.696 277.138 473.696 277.251 473.696C277.502 473.696 277.728 473.482 277.728 473.219C277.665 464.481 277.376 455.732 277.05 446.995C276.297 426.909 275.08 406.836 273.224 386.826C271.153 364.481 268.418 342.086 263.6 320.143C260.878 307.765 257.277 295.576 253.312 283.537C250.138 273.934 246.65 264.406 242.385 255.23C240.139 250.397 237.692 245.589 234.643 241.195C233.665 239.789 232.486 237.768 231.005 236.801C230.917 236.751 230.842 236.663 230.754 236.6C230.265 236.236 229.801 237.052 230.277 237.416L230.29 237.379Z" fill="black"/>
<path d="M263.023 143.906L244.442 139.663C232.084 136.851 219.362 146.053 216.15 160.125L209.588 188.948C209.4 189.764 209.262 190.567 209.149 191.383C208.76 192.187 208.434 193.04 208.233 193.957L204.231 211.506L204.005 212.485L200.003 230.035C198.548 236.4 202.575 242.802 208.936 244.245L216.313 245.928C222.674 247.384 229.073 243.354 230.516 236.99L234.054 221.461L244.793 223.909C257.152 226.721 269.874 217.519 273.085 203.447L279.647 174.624C282.859 160.552 275.369 146.731 263.011 143.919L263.023 143.906Z" fill="white" stroke="#37474F" stroke-miterlimit="10"/>
<path d="M215.084 175.014C215.084 175.014 224.82 151.689 225.133 155.531C225.585 161.017 218.935 189.299 223.866 193.04C230.378 197.999 235.886 186.161 250.64 188.998C265.395 191.835 272.17 200.961 272.257 207.15C272.345 213.339 262.898 219.98 257.428 222.767C250.565 226.269 234.066 221.448 234.066 221.448C234.066 221.448 219.375 219.026 215.272 209.083C210.994 198.739 215.096 175.001 215.096 175.001L215.084 175.014Z" fill="#37474F"/>
<path d="M240.327 175.553C239.8 177.863 241.243 180.173 243.564 180.7C245.885 181.228 248.181 179.784 248.708 177.462C249.235 175.152 247.792 172.842 245.471 172.315C243.162 171.787 240.854 173.231 240.327 175.553Z" fill="#37474F"/>
<path d="M267.891 181.19C267.44 183.161 268.682 185.132 270.652 185.584C272.621 186.035 274.591 184.793 275.043 182.822C275.494 180.851 274.252 178.88 272.283 178.428C270.313 177.976 268.343 179.219 267.891 181.19Z" fill="#37474F"/>
<path d="M259.987 197.421C259.987 197.421 256.487 203.083 251.945 202.48C247.403 201.89 245.032 196.153 245.672 192.249L259.987 197.421Z" fill="white"/>
<path d="M259.385 197.07C258.281 198.84 256.612 200.535 254.693 201.376C251.443 202.794 248.47 200.547 247.152 197.635C246.437 196.053 246.086 194.183 246.349 192.45L245.483 192.94L258.005 197.459L259.811 198.112C260.665 198.413 261.028 197.07 260.188 196.756L247.667 192.237L245.86 191.584C245.534 191.471 245.057 191.722 244.994 192.074C244.455 195.626 245.822 199.744 248.771 201.928C250.276 203.045 252.196 203.485 254.028 203.07C255.746 202.681 257.265 201.589 258.494 200.359C259.272 199.581 260.012 198.714 260.589 197.785C261.066 197.02 259.862 196.317 259.385 197.083V197.07Z" fill="#37474F"/>
<path d="M260 175.629L255.897 189.701L263.651 187.103L260 175.629Z" fill="#E5809D"/>
<path d="M216.589 180.738L225.158 158.945C225.158 158.945 285.795 181.014 312.945 155.292C340.096 129.57 321.565 112.711 310.888 112.084C300.211 111.456 284.816 123.469 284.816 123.469C284.816 123.469 297.363 112.611 288.254 108.368C279.145 104.125 266.298 111.657 258.444 120.695C258.444 120.695 218.17 107.477 198.585 129.206C179 150.949 186.252 171.185 205.824 202.731L211.42 188.86L216.589 180.738Z" fill="#37474F"/>
<path d="M188.197 174.763C186.352 182.872 191.471 190.957 199.639 192.814C207.807 194.672 215.924 189.613 217.781 181.504C219.625 173.394 214.507 165.31 206.339 163.452C198.171 161.594 190.054 166.653 188.197 174.763Z" fill="white"/>
<path d="M211.056 182.044C212.06 178.642 211.32 174.474 208.397 172.265C206.841 171.085 204.909 170.57 203.002 170.344C202.337 170.269 202.349 171.298 203.002 171.386C205.749 171.725 208.509 172.867 209.726 175.516C210.454 177.073 210.542 179.031 210.304 180.613C210.241 181.002 210.178 181.403 210.065 181.78C209.877 182.42 210.881 182.696 211.069 182.056L211.056 182.044Z" fill="black"/>
<path d="M213.578 188.96C215.611 187.002 217.104 184.454 217.781 181.516C218.722 177.399 217.856 173.281 215.711 169.992" stroke="#263238" stroke-miterlimit="10"/>
<path d="M215.724 169.98C213.641 166.791 210.366 164.368 206.339 163.452C198.171 161.594 190.054 166.653 188.197 174.763C186.352 182.872 191.471 190.957 199.639 192.814C202.161 193.392 204.683 193.304 207.004 192.676C207.87 192.438 209.35 191.923 210.103 191.459" stroke="black" stroke-miterlimit="10"/>
<path d="M180.757 234.805C180.757 234.805 179.176 264.896 193.002 275.729C206.828 286.563 219.4 282.382 219.4 282.382C219.4 282.382 230.591 279.847 233.703 276.683C236.35 273.997 242.56 263.929 244.392 260.929C235.923 241.032 230.516 236.977 230.516 236.977C230.516 236.977 230.227 236.889 229.738 236.738C227.279 237.868 223.276 239.952 218.308 239.186C210.743 238.006 196.076 230.311 196.076 230.311C194.458 230.562 192.212 231.077 189.677 231.742L180.757 234.805Z" fill="white"/>
<path d="M180.293 234.805C180.105 238.496 180.293 242.237 180.606 245.902C181.234 252.995 182.551 260.213 185.6 266.691C189.326 274.612 196.427 279.997 204.808 282.42C209.626 283.813 214.745 284.064 219.6 282.809C225.058 281.403 231.695 280.135 235.346 275.465C237.705 272.453 239.762 269.189 241.808 265.963C242.711 264.544 243.614 263.113 244.48 261.669C244.819 261.092 244.881 261.004 244.681 260.376C244.179 258.832 243.351 257.326 242.673 255.845C239.875 249.744 236.802 243.367 232.41 238.22C231.946 237.68 231.432 236.977 230.804 236.588C229.587 235.822 228.383 236.851 227.229 237.328C224.757 238.37 222.122 239.023 219.425 238.822C215.46 238.521 211.508 236.814 207.882 235.307C204.557 233.926 201.295 232.395 198.083 230.788C197.544 230.512 196.904 230.035 196.314 229.884C195.725 229.734 195.085 229.972 194.508 230.098C193.04 230.386 191.572 230.738 190.129 231.114C187.708 231.742 185.349 232.709 182.99 233.525L180.631 234.341C180.067 234.542 180.305 235.445 180.882 235.245L187.306 233.035C188.134 232.746 188.95 232.445 189.778 232.182C190.945 231.83 192.149 231.579 193.341 231.303C193.968 231.165 195.348 230.637 195.863 230.713C196.377 230.788 197.13 231.366 197.619 231.604C198.899 232.244 200.191 232.872 201.484 233.487C204.884 235.094 208.334 236.613 211.884 237.868C215.636 239.211 219.462 240.278 223.465 239.5C225.522 239.098 227.279 238.157 229.224 237.466C229.926 237.215 230.052 237.19 230.415 237.466C231.331 238.169 232.097 239.249 232.787 240.165C234.518 242.45 236.011 244.911 237.404 247.409C238.47 249.317 239.474 251.275 240.427 253.246C241.005 254.426 241.557 255.619 242.109 256.811C242.385 257.414 242.661 258.029 242.924 258.631C243.175 259.209 243.802 260.075 243.827 260.69C243.865 261.669 242.234 263.515 241.695 264.381C240.653 266.038 239.599 267.695 238.52 269.327C236.789 271.951 235.007 275.352 232.348 277.16C229.474 279.118 225.861 280.123 222.549 281.064C218.86 282.106 215.272 282.872 211.395 282.621C202.663 282.069 193.353 277.436 188.511 269.992C184.609 263.992 182.877 256.698 181.961 249.681C181.347 245.011 181.071 240.253 181.209 235.533C181.209 235.282 181.221 235.031 181.234 234.767C181.259 234.165 180.318 234.165 180.293 234.767V234.805Z" fill="black"/>
<path d="M175.726 243.718L169.076 239.186C169.076 239.186 160.269 244.861 159.29 249.957C158.312 255.041 146.38 278.34 167.508 295.375C188.636 312.41 220.14 314.368 226.2 310.452C232.26 306.535 242.774 278.365 242.774 278.365L241.293 267.971C241.293 267.971 205.26 303.924 176.303 244.936" fill="#24C79D"/>
<path d="M221.294 292.413C232.398 285.734 243.012 275.089 247.955 269.792C245.546 263.44 243.326 258.28 241.331 254.087C237.366 263.038 222.06 281.14 220.403 281.567C189.138 289.601 181.798 234.529 181.798 234.529L169.001 238.145C170.306 280.688 206.05 301.577 221.282 292.413H221.294Z" fill="#24C79D"/>
<path d="M221.533 292.814C231.545 286.751 240.314 278.629 248.294 270.118C248.407 270.005 248.47 269.817 248.419 269.666C246.387 264.318 244.204 259.021 241.745 253.849C241.607 253.547 241.067 253.535 240.929 253.849C239.06 258.016 236.337 261.82 233.652 265.498C230.729 269.49 227.63 273.369 224.343 277.072C223.339 278.202 222.31 279.357 221.194 280.387C220.203 281.303 219.199 281.403 217.857 281.629C214.18 282.207 210.391 281.868 206.941 280.474C200.292 277.788 195.587 271.775 192.212 265.674C188.837 259.573 186.428 252.719 184.646 245.89C183.944 243.216 183.341 240.517 182.84 237.806C182.689 237.002 182.551 236.199 182.426 235.383C182.401 235.207 182.263 234.316 182.3 234.529C182.263 234.24 182.037 233.977 181.71 234.077L168.913 237.693C168.725 237.743 168.562 237.944 168.562 238.144C169.051 252.518 173.58 266.716 182.739 277.951C189.276 285.973 198.548 293.015 208.986 294.685C213.239 295.363 217.769 295.061 221.545 292.827C222.072 292.513 221.595 291.71 221.068 292.011C213.754 296.329 204.206 293.316 197.419 289.4C187.156 283.5 179.377 273.733 174.772 262.925C171.435 255.092 169.766 246.643 169.49 238.144L169.139 238.596L181.936 234.981L181.347 234.529C182.727 244.861 185.826 255.43 190.618 264.682C193.906 271.022 198.447 277.311 204.971 280.6C208.196 282.219 211.784 282.985 215.385 282.822C217.016 282.747 219.249 282.684 220.73 281.956C221.57 281.554 222.273 280.688 222.9 280.048C226.476 276.357 229.713 272.29 232.824 268.197C236.124 263.866 239.512 259.335 241.757 254.338H240.942C242.849 258.355 244.593 262.448 246.224 266.578C246.5 267.281 247.566 269.176 247.328 269.791C247.14 270.294 246.224 270.959 245.835 271.361C244.63 272.616 243.413 273.846 242.171 275.051C235.723 281.366 228.797 287.316 221.068 292.011C220.554 292.325 221.018 293.141 221.545 292.827L221.533 292.814Z" fill="black"/>
<path d="M217.003 238.985C217.003 238.985 212.399 242.287 211.834 243.718C211.27 245.149 213.641 251.903 218.17 251.715C222.687 251.514 227.329 249.116 227.065 246.204C226.802 243.291 222.298 238.157 222.298 238.157C222.298 238.157 217.819 237.944 217.016 238.985H217.003Z" fill="#37474F"/>
<path d="M215.874 247.798C215.874 247.798 211.571 277.549 201.621 314.883L217.932 315.41C217.932 315.41 226.426 269.791 221.708 247.811C218.572 233.198 215.874 247.811 215.874 247.811V247.798Z" fill="#37474F"/>
<path d="M191.271 231.83L202.048 221.084C202.048 221.084 206.352 226.784 209.438 230.562C215.423 237.868 220.391 238.132 220.391 238.132L204.106 255.217C204.106 255.217 192.864 244.358 191.258 231.83H191.271Z" fill="white" stroke="black" stroke-miterlimit="10"/>
<path d="M220.403 238.144L228.747 255.769C228.747 255.769 232.787 244.936 233.577 240.756C234.355 236.575 231.733 231.692 231.733 231.692C231.733 231.692 225.748 236.851 220.403 238.157V238.144Z" fill="white" stroke="black" stroke-miterlimit="10"/>
<path d="M232.122 276.305L170.336 272.492C163.115 272.046 156.901 277.541 156.456 284.766L150.889 375.054C150.444 382.278 155.936 388.496 163.156 388.941L224.942 392.755C232.163 393.201 238.377 387.705 238.822 380.481L244.389 290.193C244.834 282.969 239.342 276.751 232.122 276.305Z" fill="#37474F" stroke="black" stroke-miterlimit="10"/>
<path d="M201.973 262.197C196.628 261.87 192.036 265.925 191.71 271.273C191.384 276.62 195.436 281.215 200.781 281.541C206.126 281.868 210.718 277.813 211.044 272.465C211.37 267.118 207.318 262.523 201.973 262.197ZM201.044 277.148C198.134 276.972 195.913 274.461 196.089 271.536C196.264 268.624 198.774 266.402 201.697 266.578C204.608 266.753 206.828 269.264 206.653 272.189C206.477 275.101 203.968 277.323 201.044 277.148Z" fill="#928C96" stroke="black" stroke-miterlimit="10"/>
<path d="M216.125 284.617L185.161 282.709C181.71 282.496 179.076 279.52 179.289 276.056C179.502 272.603 182.476 269.967 185.938 270.181L216.903 272.089C220.353 272.302 222.988 275.277 222.775 278.742C222.561 282.194 219.588 284.83 216.125 284.617Z" fill="#928C96" stroke="black" stroke-miterlimit="10"/>
<path d="M179.992 343.404L178.135 337.391L204.633 326.595L229.06 316.841C229.06 316.841 234.48 314.306 237.203 315.975C239.925 317.645 237.818 319.515 237.592 320.093C237.366 320.67 230.428 326.03 230.428 326.03L227.768 327.989L240.892 323.909L242.786 323.218L243.049 318.373L243.187 314.519C243.187 314.519 242.824 314.205 243.187 314.519C245.157 316.163 248.495 326.106 248.319 326.646C247.779 328.328 247.19 329.646 247.19 329.646C247.19 329.646 247.278 329.872 248.244 331.767C249.41 334.052 247.579 336.688 247.579 336.688L246.324 337.73C246.324 337.73 246.575 337.893 247.604 339.036C248.645 340.178 247.98 342.664 246.926 343.718C245.872 344.773 245.496 344.873 245.496 344.873C245.496 344.873 247.064 344.835 246.901 346.53C246.738 348.225 246.901 348.727 244.266 351.526C241.619 354.326 235.722 356.384 233.715 357.564C231.72 358.744 218.321 362.347 218.321 362.347L193.654 368.084L189.715 368.837C189.715 368.837 180.305 346.819 180.004 343.417L179.992 343.404Z" fill="white"/>
<path d="M242.799 313.691C242.799 313.691 247.014 320.871 247.817 325.29C248.545 329.244 246.274 330.022 242.811 331.767C239.762 333.299 228.822 336.651 228.822 336.651" stroke="black" stroke-miterlimit="10"/>
<path d="M232.109 343.241C232.109 343.241 242.46 340.128 245.897 338.057C249.561 335.847 248.708 328.729 246.098 329.997" stroke="black" stroke-miterlimit="10"/>
<path d="M246.763 337.366C246.763 337.366 248.256 339.036 247.579 341.647C246.876 344.358 246.086 345.137 234.857 350.66" stroke="black" stroke-miterlimit="10"/>
<path d="M245.785 344.66C245.785 344.66 250.929 346.806 241.004 354.025C232.222 360.414 192.475 368.473 190.041 368.737C187.607 369.001 178.135 337.404 178.135 337.404C178.135 337.404 218.446 320.934 227.341 317.482C236.237 314.042 238.721 315.636 238.282 318.825C237.918 321.511 226.262 328.579 226.262 328.579L243.137 323.118" stroke="black" stroke-miterlimit="10"/>
<path d="M157.333 241.308C157.333 241.308 163.568 239.764 164.735 239.412C165.902 239.061 165.551 251.715 165.551 251.715L147.747 297.321C147.747 297.321 142.102 305.242 138.438 309.799C134.774 314.356 123.044 329.834 123.044 329.834L120.108 334.002L119.38 335.056L118.063 336.061L161.159 330.989L172.79 329.508L176.704 378.19L176.541 385.232C176.541 385.232 153.055 394.634 144.749 397.283C136.443 399.932 121.513 404.627 108.264 406.184C95.0151 407.74 85.3293 407.866 75.1542 406.41C64.9791 404.953 51.3036 402.317 41.4045 390.881C31.518 379.445 32.4339 364.557 34.5166 353.108C36.5993 341.659 44.8422 317.055 63.1223 298.526C81.4023 279.997 99.4816 267.13 114.738 259.585C129.994 252.053 152.126 242.601 157.32 241.295L157.333 241.308Z" fill="#24C79D"/>
<path d="M191.145 231.378C181.547 234.09 171.937 236.776 162.376 239.613C156.693 241.308 151.072 243.015 145.514 245.111C133.783 249.518 122.354 254.803 111.388 260.891C96.4078 269.201 82.1928 279.093 69.8221 290.981C56.3473 303.937 45.3943 319.302 38.8075 336.864C33.5255 350.974 29.5357 367.908 35.6458 382.433C40.1876 393.229 49.9988 400.07 60.8263 403.673C72.9837 407.728 86.2076 408.343 98.9045 407.539C112.63 406.673 125.842 403.761 138.94 399.643C156.028 394.283 173.028 387.881 188.887 379.483C189.615 379.093 190.342 378.704 191.057 378.303C191.195 378.227 191.308 378.052 191.296 377.901L187.858 333.688L187.381 327.499C187.356 327.16 187.105 326.997 186.792 327.047C179.189 328.127 171.586 329.156 163.982 330.148C149.542 332.044 135.076 333.864 120.585 335.332C114.048 335.998 107.499 336.638 100.924 336.889C100.322 336.914 100.322 337.856 100.924 337.831C114.01 337.328 127.096 335.646 140.094 334.102C153.055 332.558 165.99 330.863 178.925 329.081C181.635 328.704 184.345 328.34 187.055 327.951L186.465 327.499L189.439 365.837L190.142 374.888C190.204 375.692 190.192 376.545 190.33 377.349C190.355 377.487 190.305 377.713 190.367 377.838C190.418 377.951 190.719 377.499 190.543 377.537C190.154 377.612 189.652 378.026 189.314 378.215C188.423 378.692 187.532 379.156 186.641 379.621C183.454 381.253 180.23 382.797 176.968 384.278C165.601 389.437 153.883 393.856 142.014 397.698C133.507 400.447 124.963 402.97 116.143 404.527C101.577 407.113 86.2829 407.954 71.6538 405.393C58.5303 403.083 44.8423 397.434 38.0798 385.232C29.0715 368.988 34.9306 348.112 41.7057 332.207C50.1117 312.473 64.4522 295.865 80.9632 282.42C95.3037 270.745 111.388 261.23 128.138 253.447C136.92 249.367 145.941 245.626 155.187 242.764C165.011 239.714 174.935 236.964 184.834 234.152L191.421 232.282C191.998 232.119 191.76 231.202 191.17 231.378H191.145Z" fill="black"/>
<path d="M190.819 377.901L186.905 327.499C186.905 327.499 178.511 328.692 166.743 330.261L173.342 386.487C183.404 382.006 190.819 377.914 190.819 377.914V377.901Z" fill="#24C79D"/>
<path d="M191.296 377.901L187.858 333.688L187.381 327.499C187.356 327.16 187.105 326.997 186.792 327.047C180.117 328.001 173.43 328.905 166.755 329.784C166.529 329.809 166.253 329.972 166.278 330.261L168.499 349.191L172.062 379.545L172.878 386.487C172.915 386.864 173.242 387.052 173.58 386.889C179.502 384.24 185.374 381.441 191.057 378.315C191.584 378.027 191.108 377.211 190.581 377.499C184.897 380.638 179.026 383.437 173.104 386.073L173.806 386.475L171.586 367.544L168.022 337.19L167.207 330.248L166.73 330.726C173.493 329.822 180.268 328.918 187.018 327.951L186.428 327.499L189.866 371.712L190.342 377.901C190.393 378.504 191.334 378.504 191.283 377.901H191.296Z" fill="black"/>
<path d="M140.759 306.246C132.83 315.687 125.264 325.541 118.351 335.747C118.012 336.249 118.828 336.726 119.167 336.224C126.042 326.081 133.545 316.302 141.424 306.912C141.813 306.447 141.148 305.782 140.759 306.246Z" fill="black"/>
<path d="M51.4291 353.384C52.1443 351.69 52.9347 350.032 53.8004 348.401C54.6661 346.769 55.6196 345.199 56.3849 343.517C56.6233 342.977 56.5857 342.362 56.0838 341.986C55.6447 341.659 54.917 341.622 54.5281 342.074C53.2483 343.568 52.3074 345.262 51.4417 347.007C50.576 348.765 49.7855 350.547 49.0704 352.38C48.832 352.97 49.2711 353.686 49.8232 353.911C50.3627 354.125 51.1907 353.987 51.4417 353.384H51.4291Z" fill="white"/>
<path d="M73.1092 313.552C74.1757 312.034 75.2421 310.515 76.3211 308.983C76.8355 308.242 77.3499 307.514 77.8768 306.774C78.1529 306.385 78.4289 305.995 78.6547 305.569C78.8931 305.104 79.0687 304.589 79.2569 304.112C79.4577 303.623 79.1315 302.995 78.7049 302.757C78.2281 302.48 77.6385 302.581 77.2495 302.945C76.9108 303.271 76.5344 303.573 76.2333 303.937C75.882 304.351 75.5683 304.803 75.2672 305.255C74.7653 305.995 74.2635 306.749 73.7616 307.489C72.7203 309.033 71.6915 310.565 70.6501 312.109C70.2361 312.724 70.5121 313.716 71.1645 314.067C71.8922 314.456 72.6576 314.205 73.1218 313.552H73.1092Z" fill="white"/>
<path d="M85.4548 333.801C86.1198 332.822 86.7722 331.855 87.4371 330.876L88.4158 329.432C88.742 328.943 88.9929 328.378 89.2689 327.863C89.5324 327.349 89.432 326.746 88.9803 326.382C88.5663 326.056 87.8512 326.031 87.4748 326.47C87.0357 326.985 86.5714 327.499 86.1825 328.052C85.8563 328.529 85.5426 329.018 85.2164 329.495C84.5515 330.487 83.8865 331.479 83.2216 332.483C82.8452 333.048 83.0961 333.939 83.6858 334.253C84.3382 334.604 85.0533 334.391 85.4548 333.788V333.801Z" fill="white"/>
<path d="M110.046 292.689C112.417 290.492 114.776 288.283 117.147 286.086C117.536 285.722 117.511 285.044 117.147 284.68C116.783 284.316 116.131 284.303 115.742 284.68C113.408 286.914 111.087 289.149 108.753 291.383C107.9 292.212 109.193 293.492 110.058 292.689H110.046Z" fill="white"/>
<path d="M121.475 315.486C122.328 314.645 123.182 313.791 124.035 312.95C124.461 312.536 124.875 312.121 125.252 311.657C125.641 311.192 126.042 310.728 126.431 310.263C126.682 309.975 126.845 309.661 126.845 309.272C126.845 308.92 126.695 308.519 126.431 308.28C125.829 307.728 125.039 307.765 124.436 308.28C123.985 308.669 123.533 309.046 123.081 309.422C122.617 309.812 122.19 310.238 121.751 310.678C120.911 311.531 120.058 312.385 119.217 313.239C118.627 313.829 118.577 314.908 119.217 315.498C119.857 316.088 120.835 316.126 121.475 315.498V315.486Z" fill="white"/>
<path d="M146.003 278.943C147.986 277.399 149.943 275.855 151.888 274.26C152.427 273.821 152.39 272.917 152.001 272.415C151.612 271.913 150.746 271.624 150.181 272.051C148.099 273.645 146.041 275.277 143.996 276.934C143.419 277.411 143.469 278.466 143.996 278.955C144.272 279.206 144.623 279.395 145 279.37C145.401 279.357 145.69 279.194 146.003 278.955V278.943Z" fill="white"/>
<path d="M122.291 268.687C123.621 267.959 124.951 267.231 126.281 266.502C126.92 266.151 127.56 265.799 128.188 265.423C128.903 264.984 129.53 264.469 130.182 263.942C131.036 263.251 130.12 261.795 129.129 262.121C128.326 262.385 127.56 262.649 126.795 263.025C126.13 263.339 125.49 263.691 124.85 264.042C123.52 264.758 122.19 265.486 120.848 266.201C120.183 266.565 119.92 267.544 120.334 268.185C120.773 268.863 121.601 269.088 122.316 268.699L122.291 268.687Z" fill="white"/>
<path d="M155.928 258.092C157.86 257.276 159.767 256.397 161.636 255.43C162.515 254.979 163.393 254.502 164.246 254.012C165.199 253.472 166.002 252.744 166.818 252.016C167.521 251.401 166.78 250.007 165.864 250.384C164.923 250.773 163.957 251.1 163.067 251.602C162.201 252.091 161.335 252.568 160.457 253.033C158.738 253.924 156.994 254.765 155.2 255.518C154.535 255.795 154.058 256.397 154.272 257.163C154.447 257.79 155.238 258.381 155.915 258.092H155.928Z" fill="white"/>
<path d="M142.553 325.327C143.218 324.85 143.883 324.373 144.561 323.896C144.975 323.608 145.339 323.269 145.728 322.942C146.066 322.654 146.33 322.202 146.606 321.838C146.844 321.524 146.744 320.997 146.531 320.708C146.292 320.407 145.853 320.218 145.464 320.344C145.025 320.494 144.536 320.607 144.134 320.858C143.795 321.059 143.444 321.26 143.13 321.486L141.173 322.93C140.872 323.156 140.634 323.382 140.533 323.758C140.446 324.085 140.483 324.537 140.671 324.825C140.86 325.127 141.148 325.378 141.499 325.466C141.851 325.541 142.265 325.541 142.566 325.327H142.553Z" fill="white"/>
<path d="M81.302 366.39C82.2053 365.084 83.1086 363.766 84.0245 362.46C84.4636 361.82 84.9404 361.192 85.3419 360.515C85.7559 359.824 86.1699 359.134 86.584 358.431C86.8725 357.941 86.7345 357.276 86.2829 356.924C85.8563 356.61 85.1161 356.56 84.7522 357.012C83.7109 358.33 82.6946 359.636 81.7411 361.017C80.8252 362.347 79.8968 363.678 78.9809 365.009C78.5794 365.586 78.8554 366.54 79.4702 366.854C80.1602 367.218 80.8879 366.992 81.3145 366.364L81.302 366.39Z" fill="white"/>
<path d="M57.6395 383.563C58.5052 382.634 59.3709 381.717 60.2241 380.788C60.6381 380.336 61.0019 379.834 61.3909 379.345C61.8426 378.78 62.1562 378.14 62.5075 377.512C62.7083 377.148 62.6832 376.621 62.357 376.332C62.0433 376.043 61.554 375.943 61.1776 376.181C60.6005 376.545 59.9731 376.884 59.4713 377.349C59.0071 377.775 58.5178 378.177 58.0786 378.642C57.2129 379.558 56.3473 380.487 55.4941 381.416C54.9546 381.993 54.8793 382.998 55.4941 383.563C56.0838 384.102 57.0624 384.178 57.6395 383.563Z" fill="white"/>
<path d="M96.3325 395.262L101.389 389.751C101.69 389.425 101.74 388.86 101.389 388.534C101.05 388.22 100.498 388.182 100.172 388.534C98.4654 390.354 96.7591 392.174 95.0528 393.994C94.7266 394.333 94.6889 394.936 95.0528 395.275C95.4041 395.589 95.9812 395.651 96.3325 395.275V395.262Z" fill="white"/>
<path d="M115.252 362.912C116.582 361.444 117.975 360.013 119.418 358.657C120.12 357.991 120.823 357.326 121.538 356.673C122.278 355.983 122.906 355.154 123.583 354.401C124.524 353.359 123.332 351.69 122.065 352.43C121.137 352.958 120.183 353.472 119.355 354.138C118.565 354.778 117.787 355.456 117.046 356.146C115.579 357.527 114.161 358.958 112.793 360.439C112.178 361.117 112.078 362.247 112.793 362.912C113.458 363.528 114.6 363.64 115.265 362.912H115.252Z" fill="white"/>
<path d="M141.437 384.391C142.566 382.998 143.695 381.617 144.824 380.223C146.029 378.742 147.082 377.148 148.174 375.591C148.701 374.838 148.375 373.721 147.697 373.194C146.995 372.654 145.891 372.654 145.263 373.344C144.071 374.625 142.829 375.88 141.725 377.248C140.621 378.617 139.517 379.997 138.413 381.366C138.049 381.818 137.786 382.27 137.786 382.885C137.786 383.412 138.024 384.04 138.413 384.404C139.191 385.119 140.684 385.333 141.437 384.404V384.391Z" fill="white"/>
<path d="M157.521 351.551L160.357 348.627C160.582 348.388 160.808 348.162 161.034 347.924C161.348 347.597 161.599 347.233 161.85 346.869L162.966 345.199C163.255 344.76 163.154 344.045 162.778 343.693C162.402 343.342 161.737 343.178 161.272 343.505C160.745 343.881 160.219 344.258 159.692 344.635C159.328 344.898 158.964 345.137 158.65 345.463C158.412 345.714 158.174 345.953 157.935 346.204L155.1 349.129C154.472 349.769 154.41 350.911 155.1 351.551C155.777 352.167 156.856 352.242 157.521 351.551Z" fill="white"/>
<path d="M164.296 381.428C164.698 380.951 165.099 380.487 165.501 380.01C165.601 379.897 165.689 379.784 165.789 379.671C165.902 379.533 166.04 379.395 166.115 379.244C166.191 379.106 166.266 378.918 166.316 378.767C166.341 378.704 166.366 378.642 166.379 378.579C166.479 378.303 166.555 378.026 166.63 377.75C166.755 377.223 166.58 376.683 166.153 376.344C165.965 376.194 165.764 376.118 165.526 376.081C165.413 376.043 165.287 376.043 165.174 376.081C164.999 376.081 164.836 376.143 164.685 376.244C164.422 376.357 164.171 376.482 163.932 376.633C163.694 376.771 163.43 376.922 163.242 377.135C163.142 377.248 163.042 377.374 162.941 377.499C162.552 377.976 162.163 378.441 161.774 378.918C161.599 379.081 161.473 379.269 161.41 379.495C161.298 379.709 161.247 379.935 161.26 380.186C161.26 380.625 161.448 381.14 161.787 381.441C162.126 381.755 162.577 381.981 163.042 381.968C163.493 381.943 163.995 381.805 164.296 381.441V381.428Z" fill="white"/>
<path d="M95.2536 423.319C95.8307 422.516 96.4078 421.7 96.9975 420.896C97.6123 420.03 97.9134 418.976 98.2772 417.984C98.4404 417.544 98.1769 416.942 97.7628 416.728C97.2861 416.477 96.8219 416.578 96.4204 416.904C96.0314 417.218 95.63 417.519 95.241 417.846C94.7768 418.222 94.3879 418.687 94.0366 419.176C93.4595 419.98 92.8823 420.796 92.2926 421.599C92.0543 421.938 92.0166 422.528 92.117 422.917C92.2299 423.319 92.531 423.746 92.9074 423.934C93.3089 424.148 93.7857 424.248 94.2248 424.11C94.6764 423.972 94.9776 423.708 95.241 423.319H95.2536Z" fill="white"/>
<path d="M128.89 414.293C129.492 413.389 130.095 412.486 130.697 411.582C130.985 411.142 131.224 410.653 131.487 410.188L132.29 408.745C132.667 408.067 132.504 407.226 131.889 406.761C131.337 406.334 130.346 406.272 129.869 406.887C129.518 407.326 129.179 407.778 128.828 408.217C128.439 408.719 128.012 409.222 127.648 409.749C127.021 410.653 126.431 411.594 125.816 412.511C125.302 413.289 125.641 414.519 126.456 414.946C127.347 415.423 128.338 415.134 128.89 414.306V414.293Z" fill="white"/>
<path d="M111.175 436.55C111.576 435.885 111.99 435.232 112.392 434.567C112.593 434.24 112.781 433.902 112.956 433.55C113.17 433.098 113.32 432.646 113.471 432.169C113.646 431.592 113.358 430.839 112.818 430.562C112.254 430.261 111.564 430.336 111.087 430.788C110.936 430.926 110.798 431.065 110.648 431.203C110.435 431.403 110.271 431.642 110.096 431.88C109.857 432.194 109.644 432.508 109.443 432.847C109.042 433.512 108.628 434.165 108.226 434.83C107.762 435.596 108.038 436.739 108.841 437.165C109.669 437.605 110.673 437.366 111.175 436.55Z" fill="white"/>
<path d="M115.077 460.59L116.708 458.029C116.971 457.615 117.247 457.188 117.511 456.774C117.812 456.297 117.962 455.707 118.163 455.179C118.314 454.778 118.063 454.225 117.699 454.037C117.297 453.824 116.796 453.861 116.469 454.2C116.08 454.602 115.654 454.979 115.34 455.456C115.064 455.882 114.788 456.334 114.525 456.761C113.985 457.615 113.446 458.481 112.919 459.335C112.567 459.9 112.781 460.741 113.37 461.054C113.998 461.381 114.713 461.193 115.089 460.603L115.077 460.59Z" fill="white"/>
<path d="M143.482 431.366C144.134 430.449 144.786 429.533 145.439 428.629C145.64 428.353 145.665 427.863 145.577 427.55C145.489 427.223 145.238 426.872 144.924 426.709C144.598 426.533 144.197 426.445 143.845 426.57L143.507 426.709C143.293 426.834 143.13 426.997 143.005 427.211C142.352 428.127 141.7 429.043 141.048 429.947C140.847 430.223 140.822 430.713 140.91 431.027C140.997 431.353 141.248 431.705 141.562 431.868C141.888 432.044 142.29 432.132 142.641 432.006L142.98 431.868C143.193 431.742 143.356 431.579 143.482 431.366Z" fill="white"/>
<path d="M151.913 459.284C152.59 458.167 153.28 457.05 153.958 455.933C154.134 455.644 154.309 455.368 154.485 455.079C154.698 454.728 154.849 454.338 155.012 453.962L155.752 452.167C155.978 451.614 155.601 450.836 155.1 450.572C154.598 450.309 153.782 450.296 153.393 450.798C152.992 451.313 152.59 451.815 152.189 452.33C151.938 452.656 151.674 452.97 151.474 453.334L150.984 454.213C150.345 455.355 149.717 456.498 149.077 457.652C148.663 458.406 148.877 459.473 149.667 459.887C150.457 460.314 151.424 460.075 151.9 459.297L151.913 459.284Z" fill="white"/>
<path d="M175.776 411.896C176.504 410.791 177.231 409.686 177.947 408.581C178.674 407.477 179.327 406.334 179.979 405.192C180.381 404.489 180.167 403.472 179.427 403.083C178.624 402.656 177.834 402.932 177.319 403.635C176.541 404.702 175.751 405.77 175.023 406.887C174.308 407.991 173.593 409.109 172.878 410.213C172.401 410.954 172.702 412.096 173.48 412.498C174.321 412.937 175.249 412.674 175.764 411.896H175.776Z" fill="white"/>
<path d="M180.393 442.074C181.058 440.68 181.736 439.287 182.388 437.893C183.091 436.375 183.643 434.755 184.245 433.186C184.42 432.722 184.295 431.956 184.032 431.554C183.781 431.165 183.454 430.864 183.015 430.688C182.062 430.286 180.895 430.638 180.368 431.554C179.628 432.86 178.8 434.153 178.135 435.508C177.457 436.864 176.83 438.245 176.177 439.613C175.889 440.216 175.751 440.831 175.927 441.496C176.077 442.061 176.516 442.676 177.043 442.952C178.135 443.53 179.791 443.304 180.381 442.074H180.393Z" fill="white"/>
<path d="M195.649 458.418C195.687 458.33 195.725 458.242 195.762 458.155C195.712 458.293 195.712 458.28 195.787 458.117C195.863 457.941 195.938 457.765 196.013 457.59C196.151 457.288 196.289 456.975 196.427 456.673C196.728 456.021 197.055 455.38 197.381 454.74C198.046 453.46 198.773 452.229 199.489 450.987C199.865 450.334 199.664 449.38 198.974 449.003C198.246 448.614 197.456 448.853 196.992 449.518C195.286 452.041 193.956 454.828 192.789 457.627C192.488 458.343 193.115 459.284 193.83 459.448C194.696 459.648 195.336 459.184 195.649 458.406V458.418Z" fill="white"/>
<path d="M211.935 408.632C212.725 407.401 213.515 406.171 214.318 404.928C214.72 404.313 215.134 403.711 215.51 403.083C215.887 402.455 216.15 401.752 216.451 401.087C216.715 400.51 216.652 399.869 216.125 399.468C215.661 399.116 214.883 399.091 214.469 399.568C213.955 400.171 213.39 400.761 212.926 401.413C212.487 402.029 212.123 402.694 211.721 403.334C210.931 404.602 210.14 405.857 209.338 407.125C208.923 407.791 209.174 408.807 209.877 409.184C210.617 409.573 211.47 409.347 211.935 408.644V408.632Z" fill="white"/>
<path d="M247.692 401.501C248.344 400.233 249.009 398.978 249.662 397.71C249.975 397.095 250.289 396.492 250.59 395.865C250.791 395.451 250.992 395.049 251.117 394.609C251.217 394.245 251.318 393.869 251.418 393.492C251.594 392.839 251.305 392.036 250.69 391.71C250.113 391.408 249.235 391.408 248.783 391.961C248.256 392.601 247.717 393.216 247.315 393.957C246.989 394.559 246.663 395.174 246.349 395.777C245.697 397.045 245.045 398.313 244.405 399.581C243.953 400.459 244.141 401.677 245.082 402.179C245.948 402.644 247.19 402.443 247.679 401.501H247.692Z" fill="white"/>
<path d="M250.276 364.394C250.991 363.289 251.719 362.172 252.434 361.067C253.149 359.962 253.789 358.795 254.442 357.652C254.755 357.1 254.592 356.309 254.015 356.008C253.413 355.694 252.748 355.882 252.371 356.435C251.631 357.539 250.878 358.619 250.213 359.761C249.549 360.904 248.884 362.046 248.206 363.176C247.892 363.716 248.068 364.519 248.633 364.82C249.235 365.134 249.912 364.959 250.276 364.394Z" fill="white"/>
<path d="M265.759 377.662C266.173 376.934 266.587 376.219 266.988 375.491C267.088 375.302 267.201 375.127 267.302 374.938C267.465 374.625 267.578 374.286 267.716 373.959C267.866 373.57 268.017 373.193 268.167 372.804L268.243 372.29C268.243 372.026 268.193 371.775 268.08 371.536C267.916 371.16 267.653 370.796 267.277 370.608C266.976 370.444 266.637 370.356 266.285 370.344C265.859 370.319 265.181 370.57 264.905 370.921C264.654 371.248 264.404 371.574 264.153 371.9C263.939 372.177 263.688 372.453 263.513 372.742C263.4 372.917 263.299 373.106 263.199 373.294C262.785 374.022 262.371 374.738 261.97 375.466C261.681 375.968 261.593 376.608 261.744 377.16C261.882 377.675 262.283 378.227 262.747 378.478C263.262 378.742 263.877 378.88 264.441 378.704C264.981 378.529 265.47 378.202 265.759 377.7V377.662Z" fill="white"/>
<path d="M256.11 328.968C256.512 328.039 256.901 327.11 257.302 326.169C257.541 325.604 257.779 325.026 258.005 324.449C258.193 323.972 258.331 323.507 258.457 323.018C258.657 322.265 258.268 321.474 257.553 321.185C256.838 320.884 256.023 321.16 255.609 321.825C254.567 323.507 253.865 325.39 253.074 327.198C252.873 327.65 252.761 328.064 252.899 328.554C253.011 328.968 253.325 329.407 253.714 329.608C254.128 329.822 254.617 329.935 255.069 329.784C255.471 329.658 255.947 329.382 256.123 328.968H256.11Z" fill="white"/>
<path d="M248.909 299.832C249.247 299.166 249.574 298.501 249.912 297.848C250.075 297.534 250.239 297.208 250.402 296.894C250.502 296.693 250.615 296.505 250.665 296.292C250.715 296.103 250.753 295.903 250.803 295.702C250.866 295.438 250.766 295.137 250.515 294.999C250.289 294.873 249.95 294.886 249.762 295.099L249.398 295.513C249.235 295.702 249.135 295.877 249.034 296.103C248.871 296.417 248.708 296.744 248.545 297.057C248.206 297.723 247.88 298.388 247.541 299.041C247.353 299.405 247.428 299.907 247.83 300.12C248.194 300.309 248.708 300.233 248.909 299.832Z" fill="white"/>
<path d="M291.642 396.706C293.072 392.262 294.54 387.843 295.744 383.337C295.983 382.433 295.443 381.454 294.54 381.215C293.574 380.951 292.746 381.541 292.419 382.42C290.751 386.789 289.358 391.233 287.915 395.676C287.589 396.668 288.292 397.785 289.27 398.062C290.312 398.35 291.328 397.71 291.654 396.706H291.642Z" fill="white"/>
<path d="M277.339 354.866C277.941 353.736 278.568 352.631 279.145 351.489C279.472 350.836 279.823 350.183 280.036 349.48C280.224 348.865 280.413 348.25 280.601 347.622C280.776 347.045 280.488 346.304 279.948 346.015C279.434 345.739 278.618 345.739 278.217 346.241C277.815 346.731 277.427 347.233 277.025 347.723C276.561 348.288 276.197 348.915 275.846 349.556C275.231 350.673 274.654 351.815 274.064 352.945C273.6 353.824 273.813 355.041 274.742 355.543C275.62 356.008 276.837 355.794 277.339 354.866Z" fill="white"/>
<path d="M290.537 360.05C290.876 359.46 291.215 358.858 291.541 358.268C291.704 357.979 291.867 357.678 292.018 357.376C292.206 356.975 292.344 356.573 292.482 356.159C292.645 355.669 292.382 355.041 291.93 354.803C291.742 354.702 291.541 354.652 291.328 354.64C291.064 354.64 290.65 354.778 290.475 354.991C290.199 355.33 289.923 355.644 289.697 356.021C289.521 356.309 289.358 356.598 289.195 356.899C288.881 357.502 288.555 358.104 288.242 358.707C288.078 359.021 288.016 359.385 288.103 359.736C288.191 360.05 288.43 360.377 288.718 360.527C289.346 360.866 290.174 360.703 290.537 360.05Z" fill="white"/>
<path d="M272.973 323.407C273.449 322.101 273.914 320.808 274.39 319.503C274.616 318.875 274.855 318.26 275.068 317.62C275.294 316.929 275.394 316.226 275.494 315.511C275.595 314.845 275.381 314.218 274.729 313.942C274.114 313.691 273.412 313.917 273.06 314.481C272.646 315.172 272.27 315.85 271.969 316.603C271.718 317.243 271.505 317.908 271.279 318.561C270.815 319.892 270.35 321.223 269.886 322.553C269.61 323.344 270.2 324.336 271.003 324.512C271.906 324.712 272.659 324.235 272.96 323.394L272.973 323.407Z" fill="white"/>
<path d="M72.8959 446.58H69.3201H47.1131L53.1479 504.188H69.3201H72.8959H89.0681L95.1029 446.58H72.8959Z" fill="white"/>
<path d="M72.8959 446.116H47.1131C46.8747 446.116 46.6113 446.329 46.6364 446.593L48.6689 466.038L51.9184 497.057L52.6712 504.213C52.6963 504.464 52.8594 504.69 53.1479 504.69H89.0681C89.3442 504.69 89.5073 504.476 89.5449 504.213L91.5774 484.768L94.8269 453.748L95.5797 446.593C95.6048 446.342 95.3413 446.116 95.1029 446.116H72.8959C72.2937 446.116 72.2937 447.057 72.8959 447.057H95.1029L94.6262 446.58L92.5937 466.026L89.3442 497.045L88.5914 504.2L89.0681 503.723H53.1479L53.6247 504.2L51.5922 484.755L48.3427 453.736L47.5899 446.58L47.1131 447.057H72.8833C73.4856 447.057 73.4856 446.116 72.8833 446.116H72.8959Z" fill="#231F20"/>
<path d="M51.4541 488.057H90.7619L93.8483 458.494H48.3677L51.4541 488.057Z" fill="#37474F"/>
<path d="M51.4542 488.521H90.7493C91.0254 488.521 91.1885 488.308 91.2261 488.044L93.9361 462.159L94.3251 458.494C94.3501 458.243 94.0867 458.017 93.8483 458.017H48.3678C48.1294 458.017 47.8659 458.23 47.891 458.494L50.601 484.379L50.99 488.044C51.0527 488.647 51.9937 488.647 51.9309 488.044L49.2209 462.159L48.832 458.494L48.3552 458.971H93.8483L93.3715 458.494L90.6615 484.379L90.2726 488.044L90.7493 487.567H51.4542C50.8519 487.567 50.8519 488.509 51.4542 488.509V488.521Z" fill="#231F20"/>
<path d="M90.536 430.412H52.1317C50.6558 430.412 49.4593 431.609 49.4593 433.086V438.145C49.4593 439.621 50.6558 440.818 52.1317 440.818H90.536C92.012 440.818 93.2084 439.621 93.2084 438.145V433.086C93.2084 431.609 92.012 430.412 90.536 430.412Z" fill="#928C96"/>
<path d="M90.5235 440.341H52.8091C51.2534 440.341 50.0615 439.714 49.9235 437.931C49.8106 436.387 49.7729 434.642 49.9235 433.098C50.212 430.148 54.0763 430.864 56.159 430.864H89.7958C91.5021 430.864 92.6689 431.705 92.7191 433.6C92.7818 435.697 93.4719 440.09 90.5109 440.329C89.9087 440.379 89.9087 441.321 90.5109 441.27C93.0829 441.057 93.6601 439.086 93.6601 436.902C93.6601 435.22 94.1117 432.722 93.0829 431.253C91.7405 429.345 88.5035 429.922 86.4836 429.922H59.8476C57.3258 429.922 54.7664 429.822 52.2446 429.922C50.3626 429.998 49.0578 431.265 48.9825 433.161C48.9198 434.793 48.8696 436.5 48.9825 438.12C49.2209 441.622 52.5206 441.27 55.0298 441.27H90.5235C91.1257 441.27 91.1257 440.329 90.5235 440.329V440.341Z" fill="#231F20"/>
<path d="M45.9338 436.852H96.7339C98.9672 436.852 100.786 438.672 100.786 440.906V447.057C100.786 449.292 98.9672 451.112 96.7339 451.112H45.9338C43.7005 451.112 41.8813 449.292 41.8813 447.057V440.906C41.8813 438.672 43.7005 436.852 45.9338 436.852Z" fill="#928C96"/>
<path d="M96.7214 450.635H73.5107C64.4773 450.635 55.4314 450.773 46.4106 450.635C44.0142 450.598 42.3957 449.154 42.3455 446.681C42.3204 445.438 42.3455 444.183 42.3455 442.927C42.3455 441.672 42.1699 440.304 42.7721 439.212C44.2651 436.5 48.9073 437.329 51.4918 437.329H95.5923C97.286 437.329 98.9296 437.504 99.8706 439.212C100.473 440.304 100.297 441.722 100.297 442.927C100.297 444.208 100.335 445.476 100.297 446.756C100.247 448.878 98.9296 450.522 96.7214 450.635C96.1192 450.66 96.1192 451.602 96.7214 451.577C98.4528 451.489 99.9835 450.635 100.774 449.041C101.301 447.986 101.238 446.869 101.238 445.727C101.238 443.342 101.84 439.977 100.172 437.994C98.1894 435.634 93.886 436.387 91.1508 436.387H56.0085C52.6963 436.387 49.3715 436.299 46.0593 436.387C43.4245 436.462 41.5049 438.32 41.392 440.957C41.3042 443.103 41.1662 445.463 41.4297 447.597C41.9817 452.104 46.6489 451.577 49.9361 451.577H65.8574C75.9447 451.577 86.0319 451.69 96.1067 451.577C96.3074 451.577 96.5081 451.577 96.6963 451.577C97.2986 451.577 97.2986 450.635 96.6963 450.635H96.7214Z" fill="#231F20"/>
<path d="M396.529 363.364C396.529 363.364 362.817 419.101 314.451 455.318C273.073 486.299 334.149 507.54 346.933 508.707C359.718 509.875 390.394 459.762 403.103 417.996C415.813 376.231 400.017 359.008 396.529 363.377V363.364Z" fill="#698593"/>
<path d="M396.115 363.126C392.878 368.473 389.302 373.645 385.702 378.755C376.819 391.333 367.246 403.435 356.995 414.933C343.985 429.52 329.833 443.128 314.212 454.916C305.555 461.444 296.07 471.725 301.39 483.261C303.46 487.743 307.136 491.333 311.001 494.271C315.379 497.61 320.26 500.259 325.278 502.506C329.845 504.552 334.575 506.297 339.406 507.627C342.228 508.406 345.817 509.674 348.778 509.033C352.968 508.13 356.544 504.477 359.379 501.501C364.222 496.417 368.35 490.63 372.202 484.78C382.314 469.39 390.645 452.719 397.407 435.596C404.032 418.812 410.029 400.409 408.097 382.131C407.557 377.085 406.416 371.888 403.869 367.444C402.727 365.448 400.795 362.561 398.248 362.272C397.457 362.184 396.705 362.423 396.19 363.05C395.801 363.515 396.466 364.18 396.855 363.716C398.185 362.109 400.519 364.481 401.372 365.486C404.12 368.725 405.512 373.106 406.378 377.198C409.916 393.944 405.098 411.632 399.503 427.361C393.38 444.584 385.438 461.28 376.016 476.947C372.064 483.525 367.81 489.99 362.98 495.965C359.756 499.945 356.155 504.163 351.688 506.811C350.308 507.627 348.753 508.33 347.122 508.268C345.704 508.217 344.273 507.866 342.893 507.565C338.59 506.598 334.362 505.205 330.247 503.598C320.837 499.932 310.398 494.798 304.313 486.4C301.654 482.722 300.135 478.29 300.951 473.746C302.042 467.67 306.446 462.686 310.938 458.757C314.363 455.769 318.114 453.171 321.64 450.309C325.341 447.309 328.967 444.208 332.505 441.019C339.431 434.78 346.043 428.202 352.391 421.373C363.03 409.937 372.954 397.823 382.189 385.232C387.107 378.516 391.887 371.675 396.303 364.607C396.504 364.281 396.705 363.954 396.905 363.628C397.219 363.113 396.404 362.636 396.09 363.151L396.115 363.126Z" fill="#231F20"/>
<path d="M424.181 341.333C424.181 341.333 411.911 342.852 398.838 360.038C385.764 377.236 365.464 433.412 356.167 491.659L359.279 507.464L394.748 510.967L496.084 506.987L517.953 472.428C517.953 472.428 490.413 342.162 424.181 341.32V341.333Z" fill="#698593"/>
<path d="M424.181 340.869C421.998 341.145 419.828 342.061 417.858 342.99C412.187 345.677 407.219 349.781 402.978 354.363C395.576 362.373 390.733 372.114 386.404 382.019C380.52 395.476 375.702 409.41 371.449 423.457C366.255 440.605 361.939 458.029 358.526 475.629C357.535 480.726 356.619 485.822 355.804 490.944C355.578 492.413 356.142 493.994 356.431 495.438L358.815 507.59C358.852 507.803 359.066 507.916 359.266 507.941L393.643 511.331C395.337 511.494 397.031 511.343 398.737 511.28L413.793 510.69L459.198 508.908L493.563 507.565C494.29 507.54 495.294 507.678 496.009 507.464C496.774 507.238 497.201 506.083 497.602 505.443L508.242 488.634L517.877 473.407C518.204 472.892 518.404 472.629 518.329 472.039C518.241 471.311 518.003 470.57 517.827 469.854C515.82 461.243 513.386 452.732 510.701 444.321C506.285 430.474 501.065 416.842 494.767 403.736C488.03 389.726 479.987 376.081 469.561 364.481C460.114 353.987 448.245 345.036 434.218 341.998C430.919 341.283 427.544 340.906 424.169 340.856C423.566 340.856 423.566 341.785 424.169 341.798C438.584 342.024 451.595 348.727 462.096 358.28C473.488 368.649 482.196 381.78 489.435 395.287C496.674 408.795 502.232 422.365 507.125 436.488C510.538 446.354 513.536 456.372 516.071 466.503C516.547 468.398 516.773 470.532 517.451 472.365C517.576 472.704 517.438 472.365 517.514 472.24C517.25 472.666 516.974 473.093 516.711 473.507L512.508 480.148L500.576 499.016L496.448 505.544C496.235 505.87 495.796 506.347 495.695 506.724C495.808 506.259 496.335 506.623 495.746 506.523C494.767 506.372 493.588 506.611 492.596 506.648L486.524 506.887L468.307 507.602L422.513 509.397C413.391 509.762 404.22 510.402 395.086 510.477C391.749 510.502 388.299 509.849 384.986 509.523L363.532 507.401L359.266 506.975L359.718 507.326L357.711 497.145C357.372 495.438 356.92 493.718 356.694 491.999C356.582 491.12 356.832 490.291 356.983 489.4C357.372 487.04 357.786 484.667 358.2 482.32C361.349 464.833 365.414 447.509 370.332 430.437C374.46 416.088 379.165 401.865 384.823 388.044C388.65 378.704 392.79 368.976 398.8 360.791C403.417 354.514 409.213 348.752 416.064 344.923C417.946 343.869 419.928 342.952 421.986 342.312C422.525 342.149 423.077 341.998 423.629 341.873C423.755 341.848 424.332 341.747 424.144 341.772C424.733 341.697 424.746 340.756 424.144 340.831L424.181 340.869Z" fill="#231F20"/>
<path d="M417.971 472.466L417.808 502.154L382.941 495.928C382.941 495.928 379.629 494.622 376.756 497.032C373.883 499.443 373.82 500.861 373.544 501.74C373.268 502.619 372.227 505.895 370.533 507.527C368.839 509.159 367.547 508.996 366.518 507.766L365.489 506.535C365.489 506.535 365.063 506.272 364.423 506.812C363.783 507.351 362.177 507.916 361.424 506.686C360.659 505.456 360.621 505.581 360.621 505.581C360.621 505.581 360.396 505.067 359.869 505.506C359.342 505.945 357.146 506.598 356.155 505.205C355.151 503.799 354.775 502.882 354.775 502.882C354.775 502.882 354.461 502.744 353.784 502.958C353.106 503.171 350.346 503.61 349.104 500.284C347.862 496.957 349.141 492.162 349.969 489.023C350.798 485.873 354.06 479.169 356.757 476.558C359.442 473.947 364.373 471.072 369.329 470.633C374.284 470.193 387.935 470.696 393.681 471.009C399.427 471.311 417.983 472.453 417.983 472.453L417.971 472.466Z" fill="white"/>
<path d="M372.164 486.362C372.164 486.362 366.317 495.049 364.987 499.97C363.67 504.891 366.217 508.682 367.848 508.707C369.479 508.732 371.913 507.226 373.306 502.455C374.686 497.685 378.174 495.463 380.583 495.589C382.992 495.727 419.614 502.48 419.614 502.48" stroke="#231F20" stroke-miterlimit="10"/>
<path d="M365.803 484.655C365.803 484.655 360.81 494.07 359.994 499.129C359.191 504.188 361.299 507.176 362.403 507.427C363.507 507.678 365.301 506.171 365.301 506.171" stroke="#231F20" stroke-miterlimit="10"/>
<path d="M360.446 480.625C360.446 480.625 355.101 489.463 354.398 494.748C353.696 500.033 354.449 503.887 356.368 505.406C358.3 506.924 360.483 505.079 360.483 505.079" stroke="#231F20" stroke-miterlimit="10"/>
<path d="M418.924 472.528C418.924 472.528 383.807 470.093 372.352 470.407C360.897 470.733 355.54 476.583 352.479 482.709C349.417 488.835 347.912 497.095 349.192 500.083C351.4 505.205 354.561 502.481 354.561 502.481" stroke="#231F20" stroke-miterlimit="10"/>
<path d="M417.356 493.141L419.614 465.398C419.614 465.398 436.489 465.461 447.254 464.67C458.006 463.866 474.128 461.845 479.222 461.017C484.329 460.176 485.006 459.749 485.006 459.749C485.006 459.749 486.813 459.799 486.311 458.481C485.809 457.163 479.034 443.166 473.488 435.044C467.956 426.922 466.488 423.884 466.488 423.884L435.385 369.98L457.053 347.698C457.053 347.698 483.362 357.401 507.502 385.734C531.641 414.067 534.476 424.411 535.656 426.972C536.835 429.533 544.262 447.02 544.313 459.159C544.363 471.298 543.46 495.802 513.687 511.255C513.687 511.255 507.163 516.139 490.15 518.16C473.137 520.181 451.081 517.632 436.74 514.996C422.4 512.36 416.917 510.264 416.917 510.264L417.344 493.166L417.356 493.141Z" fill="#698593"/>
<path d="M426.916 465.636C416.929 465.549 412.337 464.67 412.337 464.67L407.783 507.627C407.783 507.627 413.379 509.51 422.274 511.745L426.929 465.624L426.916 465.636Z" fill="#37474F"/>
<path d="M426.916 465.159C422.136 465.109 417.168 465.097 412.463 464.205C412.137 464.143 411.898 464.343 411.873 464.657L407.896 502.192L407.319 507.615C407.294 507.828 407.482 508.004 407.67 508.067C412.425 509.661 417.293 510.967 422.161 512.184C422.475 512.26 422.726 512.034 422.751 511.732L426.816 471.361L427.393 465.611C427.456 465.009 426.515 465.009 426.452 465.611L422.387 505.983L421.81 511.732L422.4 511.28C417.532 510.05 412.664 508.757 407.909 507.163L408.26 507.615L412.237 470.08L412.814 464.657L412.225 465.109C417.03 466.013 422.074 466.038 426.929 466.088C427.531 466.088 427.531 465.147 426.929 465.147L426.916 465.159Z" fill="#231F20"/>
<path d="M447.605 345.727C449.625 345.965 452.624 346.857 454.857 347.61C461.557 349.869 467.918 353.146 473.89 356.899C483.776 363.101 492.697 370.758 500.802 379.131C512.407 391.132 522.908 404.753 531.126 419.289C538.365 432.069 543.735 446.43 543.898 461.268C544.011 472.34 540.988 483.274 534.727 492.438C528.943 500.899 520.7 507.489 511.441 511.82C500.262 517.042 487.904 518.474 475.684 518.524C461.356 518.587 447.041 516.678 433.039 513.754C424.959 512.071 416.917 510.063 409.05 507.552C408.674 507.427 408.285 507.314 407.909 507.176L408.26 507.627L412.237 470.093L412.814 464.67L412.224 465.122C416.101 465.862 420.166 465.963 424.093 466.063C436.828 466.39 449.6 465.373 462.234 463.866C473.651 462.498 485.006 460.653 496.298 458.506C496.887 458.393 496.636 457.489 496.047 457.602C478.181 461.017 460.114 463.716 441.947 464.77C433.353 465.272 424.658 465.498 416.064 464.682C414.872 464.569 413.655 464.456 412.475 464.231C412.149 464.168 411.911 464.369 411.886 464.682L407.909 502.217L407.331 507.64C407.306 507.853 407.494 508.029 407.683 508.092C413.579 510.075 419.627 511.632 425.674 513.076C438.998 516.239 452.599 518.486 466.274 519.227C479.95 519.967 493.324 519.541 505.908 515.097C515.581 511.695 524.514 506.008 531.34 498.313C538.403 490.354 542.92 480.437 544.338 469.892C546.119 456.673 543.196 443.266 538.052 431.102C531.264 415.034 520.713 400.409 509.434 387.203C500.877 377.198 491.342 367.959 480.64 360.276C473.915 355.456 466.701 351.238 459.022 348.137C455.585 346.756 451.909 345.388 448.22 344.873C448.032 344.848 447.831 344.81 447.643 344.785C447.041 344.71 447.053 345.651 447.643 345.727H447.605Z" fill="#231F20"/>
<path d="M487.202 459.51C482.359 449.179 476.826 439.036 470.54 429.52C470.214 429.018 469.398 429.483 469.725 429.997C476.01 439.525 481.543 449.656 486.386 459.987C486.637 460.54 487.453 460.063 487.202 459.51Z" fill="#231F20"/>
<path d="M410.87 411.268C406.654 403.234 404.007 394.032 402.551 385.132C401.221 376.985 401.058 368.561 402.74 360.464C404.684 351.1 409.163 342.475 415.788 335.584C416.578 334.755 416.729 334.391 417.745 334.228L420.706 333.763L430.091 332.282L438.71 330.914C439.45 330.801 440.19 330.713 440.931 330.562C441.282 330.487 440.843 330.562 440.78 330.5C440.918 330.587 441.069 330.688 441.194 330.801C446.062 335.132 450.19 339.864 452.235 346.216C454.43 353.033 453.59 360.628 451.532 367.394C446.451 384.127 432.085 396.367 418.184 405.92C415.574 407.715 412.902 409.435 410.217 411.117C409.703 411.431 410.18 412.247 410.694 411.933C426.527 402.079 443.641 389.651 450.98 371.775C453.439 365.787 454.907 358.858 454.405 352.355C453.791 344.484 449.713 337.278 443.992 331.968C443.227 331.265 441.959 329.734 440.868 329.646C440.379 329.608 439.751 329.822 439.274 329.897L435.624 330.474L417.557 333.337C416.641 333.487 416.541 333.512 415.788 334.266C414.031 336.023 412.4 337.919 410.907 339.902C408.084 343.655 405.826 347.811 404.157 352.204C401.046 360.427 400.142 369.34 400.77 378.064C401.585 389.35 404.609 401.112 409.778 411.23C409.866 411.406 409.954 411.594 410.054 411.77C410.33 412.31 411.146 411.833 410.87 411.293V411.268Z" fill="#231F20"/>
<path d="M418.636 409.159H402.288C399.599 409.159 397.42 411.34 397.42 414.03V448.012C397.42 450.702 399.599 452.882 402.288 452.882H418.636C421.324 452.882 423.504 450.702 423.504 448.012V414.03C423.504 411.34 421.324 409.159 418.636 409.159Z" fill="white"/>
<path d="M418.636 452.405H406.579C405.161 452.405 403.718 452.468 402.3 452.405C399.478 452.267 397.909 450.096 397.897 447.434C397.859 438.496 397.897 429.558 397.897 420.62V415.373C397.897 413.741 397.922 412.184 399.189 410.916C400.732 409.372 402.815 409.623 404.797 409.623H412.476C414.408 409.623 416.352 409.598 418.284 409.623C420.982 409.649 422.939 411.419 423.052 414.155C423.178 417.432 423.052 420.733 423.052 424.01V439.689C423.052 442.451 423.19 445.237 423.052 447.987C422.939 450.447 421.133 452.28 418.648 452.393C418.046 452.418 418.046 453.359 418.648 453.334C421.659 453.209 423.893 450.962 423.993 447.949C424.031 446.832 423.993 445.702 423.993 444.585V415.059C423.993 413.415 423.83 411.858 422.688 410.54C421.183 408.807 419.2 408.682 417.105 408.682C412.287 408.682 407.482 408.632 402.664 408.682C400.042 408.707 397.683 410.188 397.094 412.875C396.855 413.929 396.968 415.109 396.968 416.189V446.016C396.968 447.183 396.855 448.426 397.207 449.556C397.972 452.092 400.268 453.334 402.79 453.347C407.633 453.372 412.476 453.347 417.306 453.347H418.661C419.263 453.347 419.263 452.405 418.661 452.405H418.636Z" fill="#231F20"/>
<path d="M410.468 428.604C413.953 428.604 416.779 425.777 416.779 422.29C416.779 418.802 413.953 415.975 410.468 415.975C406.983 415.975 404.157 418.802 404.157 422.29C404.157 425.777 406.983 428.604 410.468 428.604Z" fill="#BCB9BD"/>
<path d="M417.833 431.692H403.091V434.755H417.833V431.692Z" fill="#BCB9BD"/>
<path d="M416.428 437.969H404.496V440.191H416.428V437.969Z" fill="#BCB9BD"/>
<path d="M420.154 378.893C420.154 378.893 406.503 383.086 399.452 362.686C392.389 342.287 400.92 333.675 417.695 327.211C434.469 320.746 454.418 322.516 470.666 325.353C486.901 328.19 491.204 337.19 491.794 344.434C492.383 351.677 487.101 364.255 484.366 363.665C481.631 363.075 469.147 351.426 457.354 360.489C445.56 369.553 429.338 377.135 420.154 378.893Z" fill="#698593"/>
<path d="M420.028 378.428C417.13 379.307 413.655 378.617 411.008 377.324C403.267 373.507 399.678 363.942 398.085 356.008C396.491 348.074 397.784 341.007 403.63 335.634C406.428 333.06 409.791 331.165 413.228 329.583C417.983 327.386 422.964 325.729 428.108 324.725C439.312 322.528 450.918 323.018 462.184 324.499C471.23 325.692 482.033 326.959 487.879 334.906C492.233 340.831 491.881 348.087 489.636 354.778C488.983 356.723 488.193 358.644 487.164 360.427C486.687 361.243 485.746 363.101 484.63 363.188C483.814 363.251 482.622 362.259 481.97 361.858C480.527 360.992 479.084 360.125 477.566 359.372C474.04 357.615 470.151 356.334 466.161 356.573C461.005 356.887 457.479 359.925 453.414 362.749C444.858 368.687 435.335 373.758 425.411 376.972C423.642 377.549 421.86 378.039 420.041 378.403C419.451 378.516 419.702 379.432 420.292 379.307C424.646 378.441 428.861 376.859 432.939 375.127C438.208 372.867 443.314 370.218 448.22 367.243C450.729 365.712 453.201 364.105 455.572 362.372C457.944 360.64 460.189 358.845 463.113 358.029C467.88 356.698 472.798 358.029 477.102 360.176C478.683 360.966 480.201 361.883 481.719 362.787C482.484 363.251 483.45 363.992 484.379 364.092C486.825 364.356 488.569 359.912 489.297 358.242C492.233 351.551 493.65 343.831 490.288 337.04C486.248 328.88 477.227 325.905 468.846 324.524C457.228 322.603 445.309 321.499 433.579 322.892C423.843 324.047 413.529 327.047 405.5 332.885C399.515 337.228 396.228 343.492 396.529 350.936C397.006 362.611 404.659 382.106 419.502 379.47C419.765 379.42 420.028 379.37 420.292 379.294C420.869 379.119 420.618 378.215 420.041 378.391L420.028 378.428Z" fill="#231F20"/>
<path d="M418.297 265.285C418.297 265.285 409.878 278.529 396.416 281.805C382.954 285.081 371.211 282.282 367.196 267.607C363.181 252.92 381.649 240.617 393.317 240.592C393.317 240.592 388.675 221.31 408.862 218.335C427.531 215.586 430.856 232.972 430.856 232.972C430.856 232.972 444.218 220.181 464.681 231.441C485.144 242.701 484.993 265.536 481.844 274.097C481.844 274.097 497.138 276.633 500.287 292.287C503.437 307.954 497.502 315.147 483.425 319.904C483.425 319.904 473.551 322.189 469.787 320.068C469.787 320.068 478.457 333.676 464.38 341.496C448.27 350.434 436.665 333.939 430.279 327.901C423.88 321.863 438.196 297.886 439.827 292.111C439.827 292.111 418.586 286.199 418.297 265.272V265.285Z" fill="#37474F"/>
<path d="M449.186 287.14C446.363 287.165 443.766 288.107 441.646 289.638L441.571 281.843C441.445 269.49 432.474 259.473 421.622 259.586L405.312 259.749C394.472 259.862 385.702 270.055 385.827 282.408L386.091 307.703C386.216 320.055 395.199 330.073 406.039 329.96L415.474 329.859L415.612 343.48C415.675 349.066 420.279 353.598 425.875 353.535L432.349 353.472C437.932 353.409 442.449 348.802 442.399 343.204L442.236 327.801V326.947L442.072 311.544C442.072 311.23 442.035 310.929 442.01 310.628C444.13 312.071 446.702 312.912 449.462 312.875C456.639 312.799 462.385 306.975 462.31 299.857C462.234 292.739 456.363 287.027 449.199 287.103L449.186 287.14Z" fill="white" stroke="#37474F" stroke-miterlimit="10"/>
<path d="M442.963 301.803C442.938 301.526 442.951 301.25 442.963 300.974C442.963 300.836 442.976 300.71 442.988 300.572C442.988 300.497 443.001 300.434 443.013 300.359C443.013 300.309 443.051 300.07 443.038 300.158C443.026 300.246 443.063 300.007 443.063 299.957C443.076 299.869 443.089 299.794 443.101 299.706C443.139 299.518 443.176 299.33 443.227 299.129C443.452 298.25 443.691 297.647 444.205 296.894C444.418 296.58 444.695 296.254 445.046 295.94C445.397 295.626 445.786 295.375 446.25 295.149C447.555 294.522 449.148 294.459 450.616 294.597C450.968 294.635 451.269 294.271 451.269 293.944C451.269 293.555 450.968 293.317 450.616 293.291C447.994 293.04 445.159 293.593 443.427 295.752C442.298 297.158 441.771 298.915 441.646 300.698C441.621 301.074 441.596 301.451 441.633 301.828C441.696 302.669 443.013 302.681 442.951 301.828L442.963 301.803Z" fill="#231F20"/>
<path d="M418.548 290.354C418.573 292.388 416.942 294.045 414.91 294.07C412.877 294.095 411.221 292.463 411.196 290.429C411.171 288.396 412.802 286.739 414.834 286.713C416.867 286.688 418.523 288.32 418.548 290.354Z" fill="#37474F"/>
<path d="M394.484 290.065C394.497 291.797 393.116 293.216 391.373 293.241C389.641 293.254 388.223 291.873 388.198 290.128C388.186 288.396 389.566 286.977 391.31 286.952C393.041 286.939 394.459 288.32 394.484 290.053V290.065Z" fill="#37474F"/>
<path d="M402.564 286.839L403.53 300.509L396.968 296.593L402.564 286.839Z" fill="#E5809D"/>
<path d="M407.482 309.573C407.482 312.398 405.211 314.795 402.351 314.82C399.49 314.846 397.169 312.523 397.106 309.686L396.63 310.163L406.516 310.063H407.934C408.536 310.038 408.536 309.096 407.934 309.109L398.047 309.209H396.63C396.379 309.222 396.153 309.435 396.153 309.699C396.216 312.247 397.784 314.507 400.18 315.398C402.577 316.289 405.387 315.523 406.993 313.553C407.921 312.423 408.398 311.042 408.398 309.586C408.398 308.983 407.457 308.983 407.457 309.586L407.482 309.573Z" fill="#231F20"/>
<path d="M396.416 281.805C382.954 285.082 371.211 282.282 367.196 267.607C363.181 252.92 381.649 240.618 393.317 240.592C393.317 240.592 388.675 221.31 408.862 218.335C427.531 215.586 430.856 232.972 430.856 232.972C430.856 232.972 430.969 232.86 431.207 232.671L431.722 235.521L449.186 287.153L445.51 287.831C441.646 289.663 440.153 292.526 440.178 292.413C440.178 292.413 418.573 286.211 418.297 265.285C418.297 265.285 409.878 278.529 396.416 281.805Z" fill="#37474F"/>
<path d="M407.482 355.694C407.482 355.694 412.287 346.819 418.548 344.22C424.809 341.622 448.27 340.919 452.825 350.296C457.379 359.674 421.936 370.758 421.936 370.758C421.936 370.758 408.047 364.055 407.495 355.707L407.482 355.694Z" fill="white" stroke="#37474F" stroke-miterlimit="10"/>
<path d="M400.481 349.166C400.481 349.166 403.455 373.62 418.284 374.009C433.127 374.399 448.433 362.46 454.732 357.916C463.2 351.815 461.318 351.012 461.318 351.012C461.318 351.012 454.167 340.14 445.146 344.572C430.881 351.589 428.71 352.769 426.402 354.075C424.081 355.38 420.317 357.577 420.317 357.577C420.317 357.577 418.862 359.648 416.754 356.472C414.646 353.296 409.615 342.626 409.075 337.366C409.075 337.366 397.319 342.4 400.469 349.166H400.481Z" fill="#698593"/>
<path d="M414.521 361.757C419.853 358.079 425.649 354.991 431.345 351.916C437.982 348.325 444.77 345.036 451.47 341.572C455.76 339.362 460.854 337.052 464.003 333.224C466.638 330.023 465.785 326.57 463.389 323.507C463.012 323.03 462.347 323.696 462.724 324.173C463.853 325.616 464.907 327.349 464.781 329.257C464.668 330.926 463.652 332.345 462.498 333.487C458.897 337.065 453.853 339.312 449.399 341.584C438.986 346.882 428.522 352.079 418.523 358.142C417.03 359.046 415.524 359.962 414.081 360.954C413.58 361.293 414.056 362.109 414.558 361.77L414.521 361.757Z" fill="#231F20"/>
<path d="M408.235 334.73C408.511 337.642 409.188 340.567 410.004 343.367C411.61 348.915 414.094 354.313 417.971 358.657C418.372 359.109 419.037 358.443 418.636 357.991C414.809 353.698 412.4 348.338 410.845 342.852C410.092 340.216 409.452 337.467 409.188 334.73C409.126 334.127 408.185 334.127 408.247 334.73H408.235Z" fill="#231F20"/>
<path d="M246.977 521.662L355.327 521.863C366.568 521.888 372.39 513.151 368.312 502.355L339.907 427.11C335.83 416.314 323.409 407.552 312.167 407.527L203.817 407.326C192.576 407.301 186.754 416.038 190.832 426.834L219.237 502.079C223.314 512.875 235.735 521.637 246.977 521.662Z" fill="#37474F"/>
<path d="M263.325 458.632C264.592 463.415 269.497 467.294 274.265 467.294C279.033 467.294 281.881 463.44 280.601 458.657C279.334 453.874 274.428 449.995 269.66 449.995C264.893 449.995 262.045 453.849 263.312 458.632H263.325Z" fill="white"/>
<path d="M430.624 522.016L322.638 521.827C320.881 521.824 319.454 520.391 319.457 518.633L319.474 508.779C319.477 507.022 320.91 505.593 322.666 505.596L430.653 505.785C432.409 505.788 433.837 507.221 433.834 508.979L433.817 518.833C433.814 520.591 432.381 522.019 430.624 522.016Z" fill="#37474F"/>
</svg>
