<svg width="1946" height="1810" viewBox="0 0 1946 1810" fill="none" xmlns="http://www.w3.org/2000/svg">
<g clip-path="url(#clip0_2_590)">
<path d="M1884.77 464.42C1844.21 497.39 1786.58 533.98 1739.12 549.73L1809.63 563.01L1518.37 906.46L937.85 1073.53L250.86 1806.17L792.02 1805.98L1067.76 1363.28L1620.2 1035.06L1834.75 577.84L1880.46 633.17C1871.32 584.01 1875.51 515.87 1884.76 464.42H1884.77Z" fill="#239E7F"/>
<path d="M158.09 1240.02C158.09 1240.02 126.63 1183.62 118.97 1171.63C111.31 1159.64 91.3699 1112 90.6599 1110.12C89.9499 1108.24 104.39 1085.7 101.17 1084.93C97.9499 1084.16 94.3799 1096.82 90.9399 1095.3C87.4999 1093.79 77.4499 1063.32 75.4899 1064.83C71.8199 1067.66 80.9099 1083.73 78.9499 1084.75C76.9899 1085.76 71.0699 1067.06 67.2299 1067.61C63.3899 1068.16 74.5299 1084.75 73.4599 1086.21C72.3899 1087.67 60.8199 1072.05 58.7299 1075.38C57.5899 1077.19 69.3699 1089.02 67.0999 1090.13C64.8399 1091.24 54.3699 1083.6 53.2599 1085.8C52.1499 1088 62.9499 1091.02 66.1699 1096.96C69.3999 1102.9 74.8899 1105.47 77.1799 1116.46C79.4699 1127.45 82.8699 1167.25 94.5699 1187.11C106.26 1206.96 131.98 1250.91 131.98 1250.91L158.09 1240.02V1240.02Z" fill="#F79C8D"/>
<path d="M149.38 1221.74C149.38 1221.74 184.18 1259.25 189.36 1274.37C194.54 1289.49 184.32 1311.11 170.2 1312.06C156.09 1313 124.68 1245.48 124.68 1245.48L149.37 1221.74H149.38Z" fill="#24C79D"/>
<path d="M313.31 1493.31C310.78 1491.19 307.71 1492.15 298.92 1488.09C297.22 1487.3 292.74 1486.05 290.73 1485.65C290.35 1485.57 290.06 1485.29 289.96 1484.92C287.29 1474.81 275.58 1428.05 274.29 1414.57C272.98 1400.78 264.08 1342.33 262.73 1333.44C262.64 1332.84 262.04 1332.45 261.45 1332.61L235.9 1339.73C235.38 1339.88 235.06 1340.4 235.18 1340.94C236.76 1347.91 246.58 1391.65 249.46 1413.79C251.76 1431.44 278.05 1488.06 278.58 1491.68V1491.78C278.75 1492.87 279.69 1493.68 280.79 1493.68C287.28 1493.68 308.07 1493.68 309.26 1493.68C310.34 1493.68 314.1 1493.97 313.31 1493.31V1493.31Z" fill="#F48C7F"/>
<path d="M256.43 1308.21C242.84 1266.97 227.63 1268.73 227.63 1268.73L239.39 1355.43C247.78 1353.14 258.72 1348.03 267.1 1345.66C264.32 1332.62 259.78 1318.37 256.43 1308.22V1308.21Z" fill="#239E7F"/>
<path d="M252.21 1200.98C248.05 1173.86 223.51 1154.36 197.85 1167.52C192.08 1170.48 184.27 1176.48 180.28 1181.6C169.5 1195.43 166.75 1212.51 155.62 1225.94C159.71 1229.04 164.65 1232.29 170.54 1235.42L177.47 1226.18L175.08 1237.71C192.31 1245.95 216.64 1252.76 249.91 1252.56C254.09 1233.72 254.42 1215.44 252.2 1200.97L252.21 1200.98Z" fill="#37474F"/>
<path d="M260.21 1802.15C256.29 1799.26 253.13 1797.36 240.62 1791.29C239.8 1790.89 236.83 1789 235.76 1788.35C233.04 1786.69 230.32 1784.07 227.97 1781.45C225.73 1778.95 224.66 1770.93 224.16 1764.54C225.45 1750.26 246.13 1521.3 250.5 1496.52C255 1470.94 248.14 1431.91 248.14 1431.91L232.17 1425.89L201.85 1530.97L204.24 1610.95C204.24 1610.95 197.11 1634 196.21 1647.78C195.31 1661.56 206.51 1773.39 206.51 1773.39C206.51 1777.39 206.35 1781.01 205.91 1783.26C205.09 1787.44 200.51 1796.05 202.61 1799.99C204.71 1803.93 207.11 1804.91 207.11 1804.91L261.59 1805.79C264.56 1805.84 262.6 1803.92 260.2 1802.16L260.21 1802.15Z" fill="#F48C7F"/>
<path d="M177.53 1423.69C177.53 1423.69 158.61 1452.23 154.11 1475.84C149.61 1499.46 157.42 1572.04 148.75 1602.99C144.06 1619.74 126.28 1645.62 123.58 1667.27C120.88 1688.92 111.48 1751.4 111.48 1751.4C110.06 1757.96 107.83 1766.07 104.94 1769.85C103.17 1772.16 99.9398 1775.08 97.8098 1779.25C94.5098 1785.75 96.3298 1795.42 98.7698 1800.74C100.02 1803.47 98.6798 1803.47 101.53 1804.35C109.97 1806.96 118.94 1802.56 122.54 1794.47C124.55 1789.95 126.31 1783.91 126.66 1776.31C127.03 1768.25 128.3 1761.85 129.64 1757.11L190.11 1608.78L233.89 1480.77L245.1 1414.84L177.54 1423.7L177.53 1423.69Z" fill="#F79C8D"/>
<path d="M124.17 1790.2C111.08 1792.59 102.38 1784.92 97.8399 1779.17C94.5099 1785.68 92.8899 1795.39 95.3399 1800.73C97.4899 1805.44 103.79 1805.3 108.75 1805.49C113.99 1805.69 118.05 1802.77 120.65 1798.19C121.86 1796.05 123.12 1793.39 124.17 1790.19V1790.2Z" fill="#353E43"/>
<path d="M235.76 1788.34C221.35 1792.04 210.7 1789.53 204.75 1787.12C203.21 1791.48 201.18 1796.96 202.26 1800.12C203.58 1803.99 205.47 1804.86 207.13 1804.9C220.29 1805.25 255.33 1805.72 265.37 1805.85C266.77 1805.87 267.54 1804.23 266.64 1803.15C264.15 1800.17 236.84 1789 235.77 1788.34H235.76Z" fill="#353E43"/>
<path d="M189.8 1609.06C190.93 1609.14 192.07 1609.21 193.21 1609.28C193.27 1609.28 193.33 1609.28 193.39 1609.29C194.51 1609.36 195.64 1609.42 196.77 1609.48C196.84 1609.48 196.91 1609.48 196.98 1609.49C198.11 1609.55 199.25 1609.6 200.39 1609.65C200.45 1609.65 200.51 1609.65 200.56 1609.65C201.72 1609.7 202.88 1609.74 204.04 1609.78C216.95 1610.2 232.9 1610.04 243.14 1608.3C248.36 1556.07 250.3 1508.4 252.23 1497.85C256.91 1472.26 248.15 1431.88 248.15 1431.88L243.97 1431.13L246.61 1416.18L176.36 1425.04C176.36 1425.04 156.69 1453.58 152.01 1477.19C147.33 1500.81 155.45 1573.39 146.44 1604.34C146.44 1604.34 166.5 1607.46 189.82 1609.05L189.8 1609.06Z" fill="#37474F"/>
<path d="M192.85 1261.32C192.85 1261.32 167.8 1259.72 157.89 1270.55C147.98 1281.37 179.87 1367 181.67 1380.78C183.47 1394.56 172.49 1431.19 172.49 1431.19C172.49 1431.19 231.33 1443.06 248.14 1431.9C248.14 1431.9 249.94 1332.83 248.14 1322.99C246.34 1313.15 231.32 1273.13 227.72 1269.19C224.12 1265.25 192.84 1261.32 192.84 1261.32H192.85Z" fill="#24C79D"/>
<path d="M201.18 1227.78C201.18 1227.78 201.05 1228.52 200.82 1229.78C199.7 1235.82 195.4 1255.84 192.5 1261.34C188.99 1267.99 204.52 1289.21 219.47 1286.62C223.92 1285.85 215.71 1267.13 216.1 1265.15C216.86 1261.35 217.88 1256.17 218.93 1250.86C219.52 1247.86 220.12 1244.83 220.68 1241.97C222.28 1233.86 223.58 1227.22 223.58 1227.22L201.18 1227.78V1227.78Z" fill="#F7A491"/>
<path d="M200.82 1229.78C201.05 1228.52 201.18 1227.78 201.18 1227.78L223.58 1227.22C223.58 1227.22 222.28 1233.85 220.68 1241.97C220.12 1244.81 219.53 1247.83 218.94 1250.81C215.48 1250.3 211.87 1248.61 208.25 1245.44C204.3 1241.98 201.71 1237.81 200.15 1233.36C200.43 1231.94 200.66 1230.72 200.83 1229.78H200.82Z" fill="#F47458"/>
<path d="M216.26 1176.75C216.26 1176.75 205.7 1175.53 199.09 1184.11C192.47 1192.69 185.34 1219.22 201.78 1233.64C218.22 1248.06 234.46 1231.74 236.87 1214.43C239.28 1197.12 240.21 1176.13 216.27 1176.76L216.26 1176.75Z" fill="#F7A491"/>
<path d="M241.73 1214.17C239.77 1217.99 236.47 1220.11 234.37 1218.9C232.27 1217.69 232.16 1213.61 234.12 1209.78C236.08 1205.96 239.38 1203.84 241.48 1205.05C243.58 1206.26 243.69 1210.34 241.73 1214.17Z" fill="#F7A491"/>
<path d="M217.44 1173.92C217.44 1173.92 203.34 1199.15 193.25 1200.31C183.16 1201.48 181.84 1214.88 181.84 1214.88C181.84 1214.88 185.45 1183.99 195.44 1178.04C205.43 1172.08 217.45 1173.92 217.45 1173.92H217.44Z" fill="#37474F"/>
<path d="M195.89 1206.65C196.71 1211.13 195.06 1215.24 192.2 1215.83C189.34 1216.42 186.36 1213.26 185.54 1208.78C184.72 1204.3 186.37 1200.19 189.23 1199.6C192.09 1199.01 195.07 1202.17 195.89 1206.65Z" fill="#F7A491"/>
<path d="M208.32 1222.92L223.58 1225.92C223.58 1225.92 222.09 1231.65 215.34 1230.52C207.11 1229.15 208.32 1222.92 208.32 1222.92V1222.92Z" fill="white"/>
<path d="M1465.62 1807.81L1471.88 1806.63L1444.68 1663.23L1438.42 1664.42L1465.62 1807.81Z" fill="#3C8F7C"/>
<path d="M1176.15 1808.36H1168.62L1196.68 1663.1L1202.93 1664.29L1176.15 1808.36Z" fill="#3C8F7C"/>
<path d="M1395.9 1808.36H1388.38L1416.43 1663.1L1422.68 1664.29L1395.9 1808.36Z" fill="#3C8F7C"/>
<path d="M1244.74 1808.36L1250.85 1808.44L1223.95 1663.75L1217.7 1664.94L1244.74 1808.36Z" fill="#184655"/>
<path d="M1353.05 1348.29C1386.46 1351.87 1429.7 1355.64 1473.11 1429.31C1520.55 1509.82 1495.58 1630.08 1458.13 1663.5C1420.69 1696.92 1298.39 1738.18 1195.58 1676.41C1195.58 1676.41 1133.5 1638.97 1165.36 1576.84C1214.38 1481.23 1207.46 1461.29 1229.38 1423.82C1251.3 1386.35 1282.12 1340.7 1353.05 1348.29V1348.29Z" fill="#37474F"/>
<path d="M1473.11 1429.31C1443.48 1379.03 1413.94 1361.32 1387.54 1353.99C1397.75 1364.56 1408.1 1378.15 1418.46 1395.74C1465.9 1476.25 1440.93 1596.51 1403.48 1629.93C1370.27 1659.57 1270.34 1695.36 1176.44 1660C1186.09 1670.68 1195.58 1676.41 1195.58 1676.41C1298.39 1738.18 1420.68 1696.92 1458.13 1663.5C1495.58 1630.08 1520.55 1509.82 1473.11 1429.31V1429.31Z" fill="#263238"/>
<path d="M1245.78 1470.66L1237.19 1496.43L1263.37 1486.13L1245.78 1470.66Z" fill="#F79C8D"/>
<path d="M1272.76 1393.99C1271.01 1394.06 1266.23 1395.66 1259.24 1408.82C1250.31 1425.64 1237.26 1476.44 1237.26 1476.44L1276.21 1490.9L1281.21 1480.3L1289.45 1398.67C1289.45 1398.67 1273.23 1393.98 1272.75 1394L1272.76 1393.99Z" fill="#239E7F"/>
<path d="M1324.25 1386.67C1313.11 1386.68 1285.55 1389.92 1272.76 1394C1272.76 1394 1263.36 1474.49 1281.22 1535.65C1285.22 1549.34 1277.91 1592.41 1277.91 1592.41L1393.33 1590.89C1393.33 1590.89 1379.66 1486.78 1384.81 1469.96C1389.96 1453.14 1390.08 1394.54 1390.08 1394.54C1390.08 1394.54 1389.29 1394.42 1364.15 1390.09C1352.42 1388.07 1336.14 1386.66 1324.25 1386.68V1386.67Z" fill="#24C79D"/>
<path d="M1337.7 1741.8C1337.7 1741.8 1335.15 1771.17 1330.45 1779.3C1325.76 1787.43 1330.7 1801.26 1330.94 1803.16C1331.18 1805.06 1340.82 1807.77 1356.14 1806.14C1371.46 1804.51 1371.21 1800.99 1369.98 1795.3C1368.75 1789.61 1360.59 1782.29 1360.1 1776.86C1359.61 1771.44 1364.79 1751.92 1364.79 1751.92L1337.69 1741.8H1337.7Z" fill="#F7A491"/>
<path d="M1290.94 1568.17C1290.94 1568.17 1211.27 1563.76 1193.48 1574.5C1175.69 1585.24 1196.7 1607.29 1196.7 1607.29C1196.7 1607.29 1261.56 1635.4 1370.15 1641.64C1395.86 1643.12 1398.08 1574.82 1393.27 1569.17C1388.46 1563.52 1290.94 1568.17 1290.94 1568.17Z" fill="#161D21"/>
<path d="M1358.06 1808.43C1373.84 1806.76 1371.88 1799.03 1370.61 1793.17C1369.81 1789.5 1365.29 1785.17 1362.59 1781.08C1361.18 1782.2 1358.89 1784.18 1352.04 1786.19C1344.93 1788.28 1335.17 1784.14 1328.96 1781.54C1326.75 1789.75 1326.64 1800.23 1326.85 1801.82C1327.1 1803.77 1342.29 1810.1 1358.06 1808.43V1808.43Z" fill="#263238"/>
<path d="M1349.35 1624.97C1346.17 1648.98 1330.41 1768.48 1330.41 1768.48L1366.98 1773C1366.98 1773 1411.95 1617.02 1409.65 1593.16C1407.34 1569.3 1390.51 1567.29 1390.51 1567.29C1390.51 1567.29 1357.78 1561.42 1349.36 1624.97H1349.35Z" fill="#161D21"/>
<path d="M1391.34 1403.49C1380.55 1399.46 1375.27 1496.36 1373.81 1536.24C1354.7 1538.07 1321.39 1536.25 1313.1 1535.63C1309.2 1535.34 1300.21 1532.05 1296.33 1531.55C1292.35 1531.03 1288.75 1530.76 1286.8 1531.1C1286.08 1531.22 1266.16 1539.34 1264.46 1541.12C1262.35 1543.33 1256.63 1548.9 1257.6 1551.31C1258.56 1553.72 1268.59 1544.6 1268.59 1544.6L1273.49 1541.86C1267.39 1547.8 1255.76 1555.62 1257.44 1558.46C1259.07 1561.24 1269.57 1553.3 1277.04 1547.89C1270.63 1553.66 1262.66 1564 1264.49 1565.61C1266.14 1567.06 1275.2 1555.1 1284.89 1551.65C1288.48 1550.37 1292.06 1553.91 1294.88 1554.34C1296.96 1554.65 1300.16 1555.32 1302.2 1554.75L1312.69 1551.79C1316.26 1552.11 1316.35 1554.22 1319.96 1554.98C1324.15 1555.87 1331.02 1556.8 1336.35 1558.1C1367.07 1565.58 1377.31 1569.05 1386.72 1569.05C1415.21 1569.03 1416.86 1413.02 1391.35 1403.49H1391.34Z" fill="#F7A491"/>
<path d="M1411.82 1494.46C1413.84 1453.6 1413.55 1403.25 1390.57 1394.66C1381.5 1391.27 1365.52 1411.65 1368.39 1495.29C1380.66 1496.3 1398.67 1497.11 1411.82 1494.46Z" fill="#24C79D"/>
<path d="M1230.76 1766.93C1230.76 1766.93 1233.95 1777.13 1228.24 1783.87C1222.53 1790.61 1198.78 1797.23 1195.67 1800.88C1192.55 1804.53 1192.79 1807.64 1192.79 1807.64L1259.43 1805.81L1258.7 1785.75L1255.63 1771.34L1230.76 1766.93V1766.93Z" fill="#F7A491"/>
<path d="M1224.1 1787.23C1224.1 1787.23 1241.22 1794.13 1249.49 1790.05C1257.76 1785.96 1257.51 1784.83 1259.9 1786.35C1262.29 1787.87 1263.15 1808.37 1263.15 1808.37L1188.22 1808.87C1183.01 1808.75 1180.37 1804.92 1184.61 1801.65C1187.51 1799.4 1190.87 1797.9 1192.78 1796.81C1198.64 1793.46 1224.1 1787.23 1224.1 1787.23V1787.23Z" fill="#263238"/>
<path d="M1233.29 1586.99C1228.14 1576.19 1216.43 1562.12 1195.82 1570.6C1176.16 1578.68 1170.89 1598.53 1177.09 1618.86C1183.29 1639.19 1224.12 1758.71 1225.55 1775.14L1258.15 1775.36C1258.15 1775.36 1252.23 1680.72 1250.77 1657.85C1249.37 1635.84 1242.21 1605.69 1233.3 1586.99H1233.29Z" fill="#161D21"/>
<path d="M1180.37 1476.91H1289.34C1292.22 1476.91 1294.82 1478.65 1295.91 1481.32L1329.46 1563.16H1389.54C1391.22 1563.16 1392.58 1564.52 1392.58 1566.2C1392.58 1567.88 1391.22 1569.24 1389.54 1569.24H1218.55C1213.85 1569.24 1209.59 1566.48 1207.66 1562.19L1173.87 1486.93C1171.76 1482.23 1175.2 1476.91 1180.35 1476.91H1180.37Z" fill="#355389"/>
<path d="M1239.04 1524.56C1239.78 1528.24 1242.98 1530.69 1246.2 1530.05C1249.42 1529.41 1251.43 1525.9 1250.7 1522.23C1249.97 1518.56 1246.76 1516.1 1243.54 1516.74C1240.32 1517.38 1238.31 1520.89 1239.04 1524.56Z" fill="white"/>
<path d="M1337.49 1352.17L1342.82 1387.31C1342.82 1387.31 1323.35 1429.15 1311.72 1425.52C1301.97 1422.48 1307.97 1385.45 1307.97 1385.45C1307.97 1385.45 1313.29 1365.57 1311.69 1355.62C1310.1 1345.67 1337.48 1352.16 1337.48 1352.16L1337.49 1352.17Z" fill="#F7A491"/>
<path opacity="0.2" d="M1311.7 1355.62C1310.11 1345.67 1337.49 1352.16 1337.49 1352.16L1337.93 1355.07C1337.13 1357.02 1336.15 1358.69 1334.96 1359.97C1328.84 1366.55 1319.28 1370.51 1311.01 1370.81C1311.84 1365.44 1312.35 1359.69 1311.69 1355.62H1311.7Z" fill="#F47458"/>
<path d="M1341.99 1302.45C1342.76 1302.17 1348.19 1342.47 1337.89 1353.57C1327.58 1364.66 1307.5 1368.29 1300.3 1359.55C1292.33 1349.89 1292.73 1306.57 1308.76 1295.16C1324.78 1283.75 1341.99 1302.45 1341.99 1302.45V1302.45Z" fill="#F7A491"/>
<path d="M1314.86 1273.6C1327.24 1276.13 1335.27 1283.69 1338.21 1286.92C1343.83 1287.58 1351.48 1290.69 1359.37 1303.76C1369.08 1319.83 1361.91 1337.63 1350.61 1346.37C1339.31 1355.11 1339.47 1365.19 1339.47 1365.19L1337.68 1359.97C1336.36 1356.02 1335.82 1351.82 1336.26 1347.68C1336.52 1345.19 1337.06 1342.5 1338.09 1340.29C1340.81 1334.46 1332.25 1330.58 1329.85 1325.73C1328 1321.99 1327.91 1313.44 1325 1307.27L1321.52 1302.55C1321.52 1302.55 1313.5 1296.31 1305.66 1298.07C1297.82 1299.83 1298.95 1270.36 1314.84 1273.6H1314.86Z" fill="#0E2E35"/>
<path d="M1330.39 1332.9C1330.31 1337.82 1332.54 1341.84 1335.38 1341.89C1338.22 1341.94 1340.59 1337.99 1340.67 1333.07C1340.75 1328.15 1338.52 1324.13 1335.68 1324.08C1332.84 1324.03 1330.47 1327.98 1330.39 1332.9Z" fill="#F7A491"/>
<path d="M1316.47 1346.53L1300.94 1345.73C1300.94 1345.73 1300.99 1351.65 1307.81 1352.2C1316.13 1352.87 1316.47 1346.53 1316.47 1346.53Z" fill="white"/>
<path d="M1625.95 1150.62C1627.65 1157.58 1630.7 1168.59 1630.7 1168.59C1630.46 1171.62 1629.56 1184.21 1628.5 1199.64L1651.18 1190.56C1651.18 1190.56 1650.91 1165.41 1651.92 1163.87C1652.78 1162.57 1654.21 1164.19 1661.17 1154.24C1663.18 1151.37 1663.55 1146.24 1663.55 1146.24C1663.55 1146.24 1663.96 1139.92 1662.55 1139.34C1661.13 1138.75 1659.51 1139.69 1658.99 1140.79C1658.48 1141.88 1658.61 1144.42 1658.1 1145.52C1657.59 1146.61 1654.3 1147.93 1652.92 1147.86C1651.54 1147.79 1653.09 1129.18 1653.09 1129.18C1653.09 1129.18 1653.86 1123.9 1654.25 1122.17C1654.58 1120.7 1655.92 1116.38 1655.92 1116.38C1655.92 1116.38 1657.49 1110.11 1655.55 1109.64C1654.4 1109.36 1651.48 1114.45 1649.48 1119.85C1647.32 1125.67 1646.1 1131.84 1645.48 1131.75C1644.03 1131.56 1644.8 1121.35 1644.8 1121.35C1644.8 1121.35 1646.24 1116.67 1646.21 1114.47C1647.57 1111.77 1648.48 1106.75 1646.08 1106.34C1645.64 1106.26 1642.47 1112.63 1642.47 1112.63C1642.47 1112.63 1641.23 1117.12 1640.5 1119.21C1639.22 1122.91 1639.03 1128.75 1638.36 1131.32C1637.81 1133.46 1637.3 1132.58 1637.07 1132.67C1636.89 1132.74 1637.2 1129.79 1637.56 1125.72C1637.74 1123.68 1637.5 1121.32 1638.07 1118.99C1638.6 1116.83 1638.9 1113.75 1639.04 1111.88C1639.43 1106.6 1636.1 1107.14 1634.95 1111.97C1634.51 1113.81 1634.05 1115.81 1633.59 1117.85C1631.8 1125.76 1631.85 1133.39 1631 1133.45C1629.89 1133.53 1630.62 1119.65 1630.62 1119.65C1630.62 1119.65 1628.92 1111.97 1627.23 1119.1C1625.27 1127.38 1625.48 1134.12 1625.5 1134.42C1625.68 1136.44 1624.22 1143.66 1625.91 1150.63L1625.95 1150.62Z" fill="#F8A492"/>
<path d="M1866.72 1132.28C1865.02 1139.24 1861.97 1150.25 1861.97 1150.25C1862.21 1153.28 1863.11 1165.87 1864.17 1181.3L1841.49 1172.22C1841.49 1172.22 1841.76 1147.07 1840.75 1145.53C1839.89 1144.23 1838.46 1145.85 1831.5 1135.9C1829.49 1133.03 1829.12 1127.9 1829.12 1127.9C1829.12 1127.9 1828.71 1121.58 1830.12 1121C1831.54 1120.41 1833.17 1121.35 1833.68 1122.45C1834.19 1123.54 1834.06 1126.08 1834.57 1127.17C1835.08 1128.26 1838.36 1129.58 1839.75 1129.51C1841.13 1129.44 1839.58 1110.83 1839.58 1110.83C1839.58 1110.83 1838.81 1105.55 1838.42 1103.82C1838.09 1102.35 1836.75 1098.03 1836.75 1098.03C1836.75 1098.03 1835.18 1091.77 1837.12 1091.29C1838.27 1091.01 1841.19 1096.1 1843.19 1101.5C1845.35 1107.32 1846.57 1113.49 1847.19 1113.4C1848.64 1113.21 1847.87 1103 1847.87 1103C1847.87 1103 1846.43 1098.32 1846.46 1096.12C1845.1 1093.42 1844.19 1088.4 1846.59 1087.99C1847.03 1087.91 1850.2 1094.28 1850.2 1094.28C1850.2 1094.28 1851.44 1098.77 1852.17 1100.86C1853.45 1104.56 1853.64 1110.4 1854.31 1112.97C1854.86 1115.11 1855.37 1114.23 1855.6 1114.32C1855.78 1114.39 1855.47 1111.44 1855.11 1107.37C1854.93 1105.32 1855.17 1102.97 1854.6 1100.64C1854.07 1098.48 1853.77 1095.4 1853.63 1093.53C1853.24 1088.25 1856.56 1088.79 1857.71 1093.62C1858.15 1095.46 1858.61 1097.46 1859.07 1099.5C1860.86 1107.41 1860.81 1115.04 1861.66 1115.1C1862.77 1115.18 1862.04 1101.3 1862.04 1101.3C1862.04 1101.3 1863.74 1093.62 1865.43 1100.75C1867.39 1109.02 1867.18 1115.77 1867.16 1116.07C1866.98 1118.09 1868.44 1125.31 1866.75 1132.28H1866.72Z" fill="#F8A492"/>
<path d="M1804.67 1723.96C1804.67 1723.96 1817.25 1739.55 1820.38 1741.47C1823.51 1743.39 1818.98 1766.05 1810.45 1767.53C1805.64 1768.37 1802.97 1763.07 1802.97 1763.07L1804.35 1756.54L1786.38 1738.03L1804.67 1723.95V1723.96Z" fill="#F7A491"/>
<path d="M1739.87 1727.82C1739.87 1727.82 1750.35 1744.89 1753.22 1747.2C1756.08 1749.5 1748.69 1771.4 1740.04 1771.78C1735.16 1772 1733.19 1766.4 1733.19 1766.4L1735.39 1760.1L1719.93 1739.44L1739.87 1727.82Z" fill="#F7A491"/>
<path d="M1752.59 1746.52C1752.59 1746.52 1746.57 1754.2 1743.28 1757.25C1739.04 1761.2 1733.61 1765.05 1733.61 1765.05C1733.61 1765.05 1727.46 1776.21 1725.78 1780.11C1722.04 1788.78 1717.83 1798.45 1718.44 1803.3C1718.64 1804.86 1722.14 1806.51 1725.06 1805.61C1737.21 1801.87 1768.27 1773.46 1772.2 1765.83C1776.72 1757.03 1752.6 1746.51 1752.6 1746.51L1752.59 1746.52Z" fill="#13375B"/>
<path d="M1663.92 1486.48C1665.05 1483.32 1666.13 1480.4 1667.18 1477.65C1680.1 1480.47 1694.7 1483.57 1709.71 1486.77L1711.54 1541.8C1711.54 1537.55 1700.25 1629.58 1700.25 1629.58C1700.25 1629.58 1729.42 1694.17 1749.38 1731.82C1741.19 1742.04 1737.35 1745.33 1725.49 1752.3C1694.51 1715.17 1653.98 1647.22 1652.29 1635.92C1651.32 1629.42 1650.45 1524.37 1663.92 1486.47V1486.48Z" fill="#37474F"/>
<path d="M1779.25 1502.39C1775.3 1545.27 1766.52 1627.25 1767.26 1633.85C1769.46 1642.07 1808.51 1717.93 1815.54 1728.97C1809.96 1737.37 1801.32 1746.46 1792.03 1748.97C1790.2 1749.47 1725.76 1657.76 1722.24 1650.48C1718.27 1642.25 1711.65 1597.37 1711.53 1541.8L1709.7 1486.77C1734.71 1492.1 1757.72 1497.33 1779.25 1502.39Z" fill="#37474F"/>
<path d="M1697.1 1306.92L1726.55 1310.96C1726.55 1310.96 1750.1 1311.39 1753.02 1311.39C1755.94 1311.39 1774.49 1418.96 1779.84 1459.38C1785.19 1499.81 1781.05 1506.96 1781.05 1506.96C1781.05 1506.96 1743.71 1515.36 1716.09 1512.91C1687.37 1510.36 1655.05 1494.86 1655.05 1494.86C1655.05 1494.86 1679.6 1417.18 1684.47 1392.92C1689.34 1368.66 1697.1 1306.92 1697.1 1306.92V1306.92Z" fill="#32D5AB"/>
<path d="M1625.7 1176.8C1625.7 1176.8 1623.81 1256.89 1626.83 1263.01C1631.22 1271.92 1680.67 1335.11 1680.67 1335.11C1680.67 1335.11 1657.05 1433.96 1647.12 1468.09C1646.12 1471.53 1641.69 1493.73 1641.69 1495.9C1641.69 1500.7 1662.58 1506.79 1665.07 1506.43C1667.29 1506.11 1685.52 1412.08 1697.16 1366.07C1701.1 1350.48 1707.87 1335.75 1717.12 1322.6L1725.21 1311.1L1663.09 1248.84C1663.09 1248.84 1655.43 1179.54 1655.43 1173.79C1655.43 1172.28 1628.7 1171.16 1625.69 1176.8H1625.7Z" fill="#37474F"/>
<path d="M1752.01 1311.4L1829.47 1232.47C1829.47 1232.47 1840.26 1157.83 1841.03 1155.02C1841.78 1152.26 1861.02 1150.77 1868.77 1150.01C1871.26 1149.77 1867.47 1229.51 1863.76 1242.87C1859.38 1258.66 1800.83 1330.6 1800.83 1330.6C1800.83 1330.6 1790.34 1369.57 1792.86 1398.15C1797.06 1445.62 1808.37 1510.93 1806.35 1512.97C1793.76 1520.9 1745.45 1521.75 1742.39 1516.82C1708.62 1462.43 1752.01 1311.38 1752.01 1311.38V1311.4Z" fill="#37474F"/>
<path d="M1819.67 1740.89C1819.67 1740.89 1814.68 1749.27 1811.81 1752.73C1808.11 1757.18 1803.21 1761.7 1803.21 1761.7C1803.21 1761.7 1798.54 1773.56 1797.37 1777.64C1794.77 1786.72 1791.82 1797.68 1793.05 1802.42C1793.44 1803.94 1796.79 1806.85 1799.55 1805.05C1810.2 1798.11 1838.67 1765.62 1841.58 1757.56C1844.94 1748.26 1819.67 1740.9 1819.67 1740.9V1740.89Z" fill="#13375B"/>
<path d="M1728.72 1208.56C1732.01 1208.68 1735.31 1208.65 1738.6 1208.36C1742.31 1208.03 1747.05 1207.79 1749.77 1208.36C1755.5 1209.57 1764.59 1213.63 1767.62 1221.14C1771.4 1230.49 1784.91 1229.1 1768.9 1264.58C1750.78 1304.74 1729.61 1291.59 1729.32 1290.69C1729.03 1289.78 1718.85 1256.67 1718.85 1256.67C1718.85 1256.67 1706.18 1269.23 1706.39 1268.67C1706.59 1268.13 1689.14 1207.12 1728.72 1208.55V1208.56Z" fill="#0E2E35"/>
<path d="M1726.95 1296.38L1724.84 1312.09C1724.84 1312.09 1720.11 1334.73 1726.19 1339.09C1732.27 1343.45 1752.06 1311.44 1752.06 1311.44L1749.97 1271.63L1726.95 1296.38Z" fill="#F7A491"/>
<path d="M1750.64 1284.54C1745.62 1298.12 1733.65 1306.47 1725.15 1309.71L1726.94 1296.39L1749.96 1271.64L1750.63 1284.54H1750.64Z" fill="#F47458"/>
<path d="M1743.09 1226.61C1731.76 1220.11 1717.29 1225.73 1713.03 1237.91C1711.18 1243.21 1709.14 1249.92 1707.57 1257.39C1703.79 1275.35 1709.72 1294.66 1717.88 1296.22C1726.04 1297.78 1750.82 1290.41 1756.55 1264.98C1760.08 1249.28 1754.97 1233.43 1743.09 1226.61Z" fill="#F7A491"/>
<path d="M1750.15 1265.85C1749.39 1269.83 1751.4 1273.55 1754.64 1274.17C1757.88 1274.79 1761.13 1272.07 1761.89 1268.09C1762.65 1264.11 1760.64 1260.39 1757.4 1259.77C1754.16 1259.15 1750.91 1261.87 1750.15 1265.85Z" fill="#F7A491"/>
<path d="M1757.4 1259.77C1757.4 1259.77 1747.28 1258.58 1746.09 1251.33C1744.9 1244.08 1737.47 1226.6 1719.84 1226.03C1702.22 1225.46 1738.47 1218.27 1739.72 1218.74C1740.97 1219.21 1756 1224.76 1756 1224.76C1756 1224.76 1763.97 1238.63 1763.99 1239.83C1764.01 1241.03 1763.05 1253.67 1763.05 1253.67L1757.41 1259.77H1757.4Z" fill="#0E2E35"/>
<path d="M1731.09 1278.21L1713.03 1275.07C1713.03 1275.07 1712.24 1282.02 1720.14 1283.63C1729.77 1285.59 1731.08 1278.21 1731.08 1278.21H1731.09Z" fill="white"/>
<path d="M818.35 1351.72C819.03 1354.07 819.42 1354.84 820.29 1356.42C825.87 1366.58 838.83 1381.09 838.83 1381.09L848.85 1358.51C848.85 1358.51 847.22 1351.42 844.38 1341.28C834.7 1343.81 825.48 1345.27 818.35 1351.72V1351.72Z" fill="#F8A492"/>
<path d="M875.81 1332.14C875.81 1332.14 819.91 1356.21 818.1 1355.75C816.94 1355.45 795.17 1319.02 794.94 1284.76C794.83 1268.94 811.27 1249.9 829.6 1253.67C838.83 1255.57 838.69 1258.13 852.34 1277.98C866 1297.82 875.81 1332.14 875.81 1332.14Z" fill="white"/>
<path d="M923.53 1763.73C923.53 1763.73 922.2 1785.68 922.2 1785.73C921.71 1788.52 919.79 1795.4 919.79 1797.94C919.79 1807.46 964.99 1789.86 954.86 1785.64C953.94 1785.26 949.14 1782.37 948.84 1779.13C948.38 1774.14 947.2 1764.04 947.2 1764.04L923.54 1763.73H923.53Z" fill="#F7A491"/>
<path d="M954.75 1785.55C954.75 1785.55 944.14 1788.46 938.7 1789.19C933.26 1789.92 926.1 1783.79 922.25 1785.44C918.02 1787.26 918.18 1803.67 918.18 1803.67C918.18 1803.67 975.09 1808.34 991.09 1803.51C997.43 1801.6 976.43 1792.33 954.74 1785.55H954.75Z" fill="#37474F"/>
<path d="M831.06 1763.73C831.06 1763.73 829.73 1785.68 829.73 1785.73C829.24 1788.52 827.32 1795.4 827.32 1797.94C827.32 1807.46 872.52 1789.86 862.39 1785.64C861.47 1785.26 855.24 1780.21 854.94 1776.98C854.48 1771.99 854.72 1764.04 854.72 1764.04L831.06 1763.73Z" fill="#F7A491"/>
<path d="M862.28 1785.55C862.28 1785.55 851.67 1788.46 846.23 1789.19C840.79 1789.92 833.63 1783.79 829.78 1785.44C825.55 1787.26 825.38 1803.67 825.38 1803.67C825.38 1803.67 882.55 1809.11 898.63 1803.51C904.87 1801.33 883.97 1792.33 862.28 1785.55Z" fill="#37474F"/>
<path d="M844.88 1363.89L884.69 1308.12C884.86 1307.63 885.22 1306.63 885.77 1305.11C887.78 1299.58 891.95 1288.06 895.58 1276.6L895.62 1276.48C896.76 1272.48 899.18 1265.49 901.52 1258.73C904.12 1251.22 907.35 1241.9 907.46 1240.31C907.36 1240.04 907.17 1239.55 906.92 1238.9C905.46 1235.11 903.49 1226.09 902.79 1222.16C902.35 1219.66 901.9 1213.59 904.87 1213.59C909.54 1213.59 907.31 1219.66 909.47 1223.44C910.26 1220.91 911.86 1215.89 912.71 1210.8L913.49 1198.94C913.64 1198.05 912.69 1191.5 915.96 1191.5H916.12C919.06 1191.72 919 1198.67 920.22 1210.44C920.61 1209.09 920.99 1207.45 921.29 1205.95C921.26 1205.15 921.84 1201.61 922.29 1199.74C921.7 1196.46 922.04 1191.29 925.53 1191.78C927.28 1192.03 927.13 1199.24 927.13 1199.24C927.11 1200.23 927.01 1207.86 927.06 1209.36C927.42 1206.8 928.82 1195.88 931.56 1195.88C933.83 1195.88 934.01 1198.82 933.97 1201.14C933.94 1202.52 932.52 1214.34 932.44 1215.72C933.51 1213.93 934.78 1203.5 935.84 1203.5C940.27 1203.5 938.67 1218.32 937.04 1222.18C936.89 1222.57 936.72 1223.35 936.54 1224.25C935.99 1226.89 935.06 1231.31 932.74 1235.28C929.96 1240.04 926.12 1247.6 925.54 1248.76C925.11 1251.12 923.78 1259.62 922.1 1270.3C921.38 1274.87 920.6 1279.89 919.78 1285.08H919.74C919.59 1286.2 918.76 1289.77 915.61 1303.18C911.3 1321.53 910.85 1322.32 910.66 1322.66C908.79 1325.97 865.86 1384.26 864.04 1386.74L862.96 1388.2L844.88 1363.86V1363.89Z" fill="#F7A491"/>
<path d="M918.93 1233.82C918.93 1233.82 915.7 1225.56 909.95 1225.54C909.95 1225.54 913.16 1224.38 915.92 1226.56C918.68 1228.74 918.93 1233.82 918.93 1233.82Z" fill="#F47458"/>
<path d="M835.26 1217.85L830.14 1250.26C830.14 1250.26 849.67 1265.94 861.05 1262.63C870.6 1259.85 864.05 1247.37 864.05 1247.37C864.05 1247.37 858.96 1230.07 860.52 1221C862.08 1211.93 835.26 1217.85 835.26 1217.85Z" fill="#F7A491"/>
<path d="M838.94 1227.65C843.83 1229.96 853.51 1233.11 861.04 1233.88C860.32 1229.34 859.91 1224.55 860.52 1221C861.24 1216.81 855.91 1215.82 849.97 1215.97C842.19 1216.64 835.26 1217.85 835.26 1217.85L834.27 1224.08C835.75 1225.64 837.3 1226.88 838.93 1227.65H838.94Z" fill="#FE875E"/>
<path d="M810.62 1180.46C809.81 1180.46 818.34 1216.67 831.53 1222.9C844.72 1229.13 864.4 1225.88 868.09 1216.13C872.17 1205.34 857.28 1168.41 838.72 1163.71C820.16 1159.02 810.62 1180.46 810.62 1180.46V1180.46Z" fill="#F7A491"/>
<path d="M825.88 1147.2C815.34 1153.28 810.51 1162.29 808.88 1165.99C803.93 1168.34 797.95 1173.41 795.08 1187.09C791.55 1203.91 804.11 1216.87 817.42 1220.77C830.73 1224.67 832.79 1233.48 832.79 1233.48L834.3 1224C834.3 1224 831.34 1215.74 826.88 1211.61C822.43 1207.48 828.99 1201.46 829.57 1196.55C830.01 1192.77 827.23 1185.43 827.83 1179.22C827.83 1179.22 835.23 1168.01 842.52 1165.24C854.95 1160.52 839.4 1139.41 825.88 1147.2V1147.2Z" fill="#37474F"/>
<path d="M831.49 1202.85C833.21 1207.03 832.51 1211.18 829.92 1212.12C827.33 1213.06 823.83 1210.43 822.1 1206.25C820.38 1202.07 821.08 1197.92 823.67 1196.98C826.26 1196.04 829.76 1198.67 831.49 1202.85Z" fill="#F7A491"/>
<path d="M880.63 1364.79L957.42 1352.27C957.42 1352.27 948.68 1330.27 945.56 1330.27C942.44 1330.27 887.49 1354.26 887.49 1354.26L883.12 1363.04L880.62 1364.79H880.63Z" fill="#F8A492"/>
<path d="M841.3 1417.44C841.3 1417.44 833.64 1454.47 836.76 1482.56C839.88 1510.64 840.13 1610.39 840.13 1610.39L828.22 1770L856.49 1770.62C856.49 1770.62 890.01 1611.09 889.38 1615.19C888.76 1619.28 900.62 1502.87 900.62 1502.87L860.66 1413.95L841.3 1417.46V1417.44Z" fill="#353E43"/>
<path d="M848.79 1415.68C848.79 1415.68 843.79 1449.03 850.04 1463.65C856.28 1478.27 903.59 1621.78 904.22 1633.48C904.84 1645.18 920.58 1774.51 920.58 1774.51L953.45 1773.59L960.56 1629.8L945.67 1449.09L931.21 1403.4L848.79 1415.69V1415.68Z" fill="#37474F"/>
<path d="M830.14 1250.26C830.14 1250.26 838.24 1255.58 845.8 1254.96C853.36 1254.34 864.05 1247.37 864.05 1247.37L862.56 1242.33C862.56 1242.33 843 1239.48 842.51 1239.79C842.02 1240.1 830.13 1250.26 830.13 1250.26H830.14Z" fill="#F7A491"/>
<path d="M916.52 1329.18C916.52 1329.18 945.57 1356.59 958.68 1351.91C971.79 1347.23 977.22 1331.23 945.23 1307.83C916.6 1286.88 916.53 1329.18 916.53 1329.18H916.52Z" fill="#F8A492"/>
<path d="M936.2 1363.03C931.89 1339.55 900.61 1266.5 898.11 1253.05C896.9 1246.51 880.03 1246.36 863.96 1247.22C846.99 1248.12 830.13 1250.27 830.13 1250.27C830.13 1250.27 815.11 1252.74 808.5 1258.93C801.89 1265.12 800.13 1282.25 809.64 1314.77C817.14 1340.44 826.44 1354.53 831.04 1373.23C831.97 1379.5 832.77 1385.69 833.83 1392.92C835.52 1420.88 833.81 1457.81 833.81 1457.81C833.81 1457.81 915.6 1474.78 946.19 1449.03C946.19 1449.03 940.62 1387.08 936.2 1363.03V1363.03Z" fill="#E8E8E8"/>
<path d="M957.06 1312.55C957.06 1312.55 924.97 1339.04 923.09 1339.04C921.88 1339.04 877.29 1306.24 867 1279.29C861.31 1264.39 873.25 1247.72 886.88 1247.78C896.33 1247.82 900.53 1250.25 919.26 1266.05C937.99 1281.84 957.06 1312.55 957.06 1312.55V1312.55Z" fill="white"/>
<path d="M1089.25 728.31C1081.4 723.01 1073.36 717.99 1065.62 712.54C1064.21 711.54 1062.96 709 1063.12 707.3C1064.14 696.38 1065.78 685.51 1066.73 674.59C1067 671.41 1067.72 669.74 1070.78 668.55C1081.53 664.35 1092.16 659.86 1102.83 655.46C1104.56 654.75 1106.26 653.97 1109.25 652.68C1104.15 636.3 1099.12 620.11 1093.95 603.51C1080.21 606.24 1067.69 608.51 1055.27 611.3C1050.89 612.28 1048.51 611.78 1045.69 607.72C1039.93 599.43 1033.02 591.94 1026.82 583.94C1025.87 582.71 1025.46 580.24 1026.01 578.81C1030.23 567.89 1034.44 556.94 1039.31 546.31C1041.65 541.21 1040.48 538.46 1035.91 536.08C1034.15 535.17 1032.72 533.62 1031.14 532.36C1023.25 528.12 1015.35 523.87 1007.46 519.63C1006.47 519.43 1005.41 519.39 1004.49 519.01C994.86 515.07 996.72 515.15 991.25 523.19C984.59 532.98 978.09 542.89 972.38 551.45C957.63 550.07 943.84 548.78 929.6 547.45C924.21 534.37 918.58 520.69 912.91 506.93C895.53 509.27 879.56 514.74 863.89 522.17C866.6 535.68 869.2 548.85 871.91 562.01C872.4 564.37 872.25 565.8 869.94 567.53C860.88 574.31 851.98 581.32 843.41 588.7C840.94 590.83 839.35 590.84 836.7 589.72C825.74 585.11 814.68 580.76 803.71 576.2C800.98 575.07 799.22 575.15 797.2 577.82C788.14 589.78 781.97 603.16 776.9 617.16C775.9 619.93 777.23 621.13 779.32 622.49C789 628.78 798.53 635.31 808.25 641.53C811.05 643.32 811.91 644.87 811.35 648.49C809.42 661 808.21 673.62 806.61 687.21C794.72 692.11 781.22 697.67 767.73 703.23C770.04 720.94 774.79 737.33 782.63 752.95C797.35 749.92 811.68 746.98 824.65 744.31C832.74 753.64 840.04 762.5 847.88 770.86C850.84 774.02 851.37 776.4 849.64 780.3C845.02 790.69 840.81 801.26 836.54 811.8C835.7 813.88 834.04 816.31 837.29 818.03C850.52 825.01 863.74 832.01 876.97 838.99C879.78 840.47 881.56 839.53 883.26 836.88C889.59 827.02 896.36 817.44 902.52 807.49C904.9 803.65 907.45 803.5 911.44 804.04C921.29 805.36 931.21 806.5 941.12 806.72C945.39 806.82 946.96 807.93 948.4 811.73C953.03 823.94 958.15 835.97 962.98 847.82C973.57 847.82 1002.42 838.78 1012.82 832.32C1010.1 819.32 1007.48 806.15 1004.5 793.06C1003.75 789.79 1004.73 788.38 1007.23 786.41C1015.31 780.05 1022.94 773.12 1030.96 766.68C1032.31 765.6 1035.05 765 1036.59 765.6C1046.37 769.43 1056.02 773.6 1065.67 777.77C1071.06 780.1 1073.23 781.06 1075.3 779.68L1097.89 737.66C1097.94 734.24 1095.6 732.63 1089.25 728.34V728.31ZM1005.29 713.57C985.1 751.13 938.28 765.2 900.72 745.01C863.16 724.81 849.09 678 869.28 640.44C889.47 602.88 936.29 588.81 973.85 609C1011.41 629.19 1025.48 676.01 1005.29 713.57Z" fill="#CECECE" fill-opacity="0.31"/>
<path d="M696.27 908.19C683.57 909.43 670.92 911.11 658.2 912.09C655.88 912.27 652.39 910.69 651.11 908.8C642.79 896.59 635.18 883.9 626.78 871.74C624.34 868.2 623.65 865.86 625.8 862C633.35 848.41 640.54 834.63 647.84 820.91C649.02 818.69 650.13 816.42 652.12 812.51C632.77 799.88 613.64 787.39 594.03 774.59C582.11 789.21 571.06 802.33 560.56 815.87C556.86 820.65 553.95 822.17 547.54 820.37C534.44 816.7 520.84 814.86 507.54 811.88C505.5 811.42 502.95 809.2 502.3 807.24C497.31 792.28 492.28 777.31 488.21 762.08C486.26 754.77 482.69 752.92 475.9 754.38C473.29 754.94 470.48 754.56 467.76 754.61C455.92 756.98 444.08 759.35 432.25 761.71C431.05 762.36 429.92 763.22 428.64 763.62C415.26 767.8 417.26 766.29 418.48 779.33C419.97 795.22 421.72 811.08 423.14 824.86C406.64 836.09 391.22 846.59 375.29 857.42C358.46 848.46 340.88 839.1 323.19 829.68C307.16 847.02 295.27 866.41 285.38 887.57C299.78 899.27 313.8 910.71 327.9 922.05C330.43 924.09 331.51 925.69 330.59 929.48C327 944.29 323.78 959.22 321.22 974.23C320.48 978.56 318.84 979.93 315.13 981.05C299.8 985.67 284.58 990.64 269.27 995.33C265.47 996.49 263.71 998.09 263.9 1002.6C264.76 1022.79 269.84 1041.98 276.59 1060.86C277.93 1064.6 280.34 1064.7 283.68 1064.31C299.13 1062.53 314.62 1061.13 330.06 1059.25C334.51 1058.71 336.72 1059.58 339.25 1063.81C347.98 1078.46 357.56 1092.59 367.55 1108.08C359.41 1123.37 350.17 1140.73 340.93 1158.08C358.52 1174.48 377.52 1187.42 399.08 1196.91C411.77 1181.13 424.12 1165.78 435.3 1151.88C451.71 1154.62 466.89 1157.56 482.2 1159.5C487.99 1160.23 490.57 1162.25 492.12 1167.79C496.24 1182.54 500.94 1197.13 505.56 1211.73C506.47 1214.62 506.83 1218.56 511.68 1217.55C531.41 1213.45 551.14 1209.37 570.86 1205.26C575.05 1204.39 576.08 1201.88 575.58 1197.67C573.7 1182 572.5 1166.25 570.35 1150.62C569.52 1144.59 572.05 1142.24 576.65 1139.38C588.01 1132.3 599.28 1124.96 609.77 1116.69C614.29 1113.12 616.87 1112.94 621.63 1115.64C636.92 1124.34 652.56 1132.44 667.74 1140.6C678.73 1131.51 700.93 1097.36 706.18 1081.73C692.2 1070.57 678.17 1059.14 663.84 1048.11C660.25 1045.35 660.06 1043.06 660.97 1038.86C663.9 1025.32 665.88 1011.58 668.68 998.01C669.15 995.73 671.48 992.76 673.6 992.06C687.04 987.64 700.64 983.69 714.24 979.74C721.84 977.53 724.92 976.67 725.87 973.45L713.27 910.44C710.39 906.84 706.57 907.18 696.3 908.18L696.27 908.19ZM596.45 964.95C607.72 1021.28 571.19 1076.07 514.86 1087.33C458.54 1098.6 403.74 1062.07 392.48 1005.74C381.21 949.42 417.74 894.62 474.07 883.36C530.39 872.09 585.19 908.62 596.45 964.95Z" fill="#CECECE"/>
<path opacity="0.2" d="M669.87 580.68C664.78 578.27 659.61 576.03 654.57 573.52C653.65 573.06 652.69 571.67 652.63 570.66C652.25 564.15 652.25 557.61 651.83 551.1C651.71 549.21 651.98 548.16 653.67 547.19C659.61 543.76 665.46 540.17 671.35 536.64C672.3 536.07 673.24 535.46 674.88 534.43C670.42 525.26 666.02 516.18 661.5 506.88C653.67 509.71 646.5 512.16 639.45 514.91C636.96 515.88 635.52 515.79 633.5 513.66C629.38 509.3 624.64 505.51 620.28 501.36C619.61 500.72 619.15 499.3 619.35 498.41C620.86 491.61 622.35 484.8 624.27 478.11C625.19 474.9 624.26 473.39 621.36 472.4C620.25 472.02 619.27 471.24 618.23 470.64C613.21 468.85 608.19 467.06 603.17 465.27C602.57 465.24 601.94 465.31 601.37 465.17C595.36 463.71 596.45 463.59 593.96 468.81C590.92 475.16 587.98 481.57 585.39 487.11C576.59 487.61 568.37 488.09 559.88 488.57C555.54 481.36 551.01 473.82 546.45 466.24C536.44 469.16 527.54 473.81 518.99 479.57C521.79 487.27 524.5 494.78 527.26 502.28C527.76 503.62 527.8 504.48 526.59 505.7C521.87 510.49 517.26 515.41 512.88 520.52C511.62 521.99 510.68 522.14 509.02 521.72C502.17 519.99 495.27 518.42 488.42 516.71C486.72 516.29 485.69 516.49 484.74 518.24C480.48 526.08 478.04 534.5 476.31 543.18C475.97 544.9 476.86 545.48 478.21 546.1C484.46 548.94 490.65 551.92 496.92 554.72C498.73 555.52 499.37 556.36 499.36 558.53C499.34 566.06 499.76 573.58 500.02 581.72C493.46 585.66 486.03 590.13 478.59 594.6C481.53 604.81 485.78 614.02 491.79 622.51C500.18 619.42 508.34 616.41 515.73 613.68C521.32 618.44 526.4 623 531.76 627.22C533.78 628.81 534.3 630.16 533.63 632.61C531.84 639.13 530.31 645.72 528.74 652.3C528.43 653.6 527.67 655.17 529.73 655.89C538.13 658.82 546.53 661.75 554.93 664.67C556.72 665.29 557.67 664.58 558.44 662.87C561.28 656.51 564.41 650.27 567.14 643.87C568.2 641.4 569.69 641.08 572.08 641.04C577.99 640.94 583.92 640.72 589.77 639.97C592.29 639.65 593.31 640.16 594.5 642.27C598.31 649.04 602.39 655.65 606.29 662.19C612.52 661.24 628.67 653.35 634.21 648.63C631.45 641.23 628.74 633.72 625.81 626.29C625.08 624.43 625.52 623.52 626.82 622.13C631.01 617.67 634.87 612.92 639.02 608.41C639.72 607.65 641.27 607.06 642.23 607.27C648.32 608.65 654.37 610.24 660.41 611.83C663.79 612.72 665.15 613.09 666.24 612.09L675.78 585.37C675.51 583.35 673.98 582.61 669.87 580.66V580.68ZM619.19 579.51C610.67 603.39 584.4 615.84 560.51 607.32C536.63 598.8 524.18 572.52 532.7 548.64C541.22 524.76 567.49 512.31 591.38 520.83C615.26 529.35 627.71 555.62 619.19 579.51Z" fill="#CECECE"/>
<path d="M589.03 1796.49L573.92 1796.43C575.91 1730.49 577.67 1630.35 574.34 1624.73C574.34 1624.75 574.56 1625.09 575.35 1625.49L587.61 1622.29C589.59 1623.29 590.79 1623.89 591.2 1651.93C591.41 1666.36 591.33 1686.29 590.96 1711.16C590.33 1753.5 589.05 1796.07 589.03 1796.49Z" fill="#355389"/>
<path d="M633.31 1795.68H531.36C526.66 1795.68 522.86 1799.49 522.86 1804.18C522.86 1805 523.53 1805.67 524.35 1805.67H640.33C641.15 1805.67 641.82 1805 641.82 1804.18C641.82 1799.48 638.01 1795.68 633.32 1795.68H633.31Z" fill="#355389"/>
<path d="M587.38 1787.3H574.89C571.2 1787.3 568.2 1790.3 568.2 1793.99C568.2 1797.69 571.2 1800.68 574.89 1800.68H587.38C591.07 1800.68 594.07 1797.68 594.07 1793.99C594.07 1790.29 591.07 1787.3 587.38 1787.3Z" fill="#355389"/>
<path d="M225.91 1504.89H219.88V1805.48H225.91V1504.89Z" fill="#13375B"/>
<path d="M529.96 1338.58C529.41 1325.22 531.37 1312.03 537.35 1299.59C542.49 1288.89 555.22 1282.82 566.82 1282.8C603.67 1282.75 608.35 1331.43 631.8 1350.21C638.97 1355.95 646.98 1360.62 653.76 1366.81C678.8 1389.66 667.52 1431.95 644.53 1451.99C628.57 1465.89 603.5 1473.79 583.83 1462.92C573.56 1457.25 565.77 1447.82 560.22 1437.49C552.34 1422.83 547.26 1405.91 541.66 1390.28C535.69 1373.65 530.7 1356.33 529.96 1338.58Z" fill="#37474F"/>
<path d="M428.31 1478.56L508.49 1456.21C508.49 1456.21 525.38 1433.52 547.11 1403.08C554.22 1410.11 558.16 1420.92 565.32 1427.88L512.25 1486.58C510.34 1488.7 507.62 1489.91 504.76 1489.92L431.08 1490.17L405.87 1492.18V1476.04L428.31 1478.56V1478.56Z" fill="#F48C7F"/>
<path d="M543.74 1461.54C543.74 1461.54 571.26 1433.32 578.34 1421.07C585.42 1408.81 573.52 1416.79 561.36 1413.57C556.76 1412.35 557.92 1385.37 549.22 1394.14C534.94 1408.53 516.99 1433.69 516.99 1433.69L543.75 1461.55L543.74 1461.54Z" fill="#96D9C9"/>
<path d="M582.86 1381.75C582.86 1381.75 607.56 1376.87 618.82 1386.29C630.09 1395.71 616.41 1479.41 616.42 1493.29C616.43 1507.17 624.16 1546.37 624.16 1546.37C624.16 1546.37 549.31 1559.47 537.42 1538.64C537.42 1538.64 534.04 1459.27 534.54 1449.29C535.04 1439.31 546.14 1398.49 549.21 1394.12C552.28 1389.75 582.86 1381.74 582.86 1381.74V1381.75Z" fill="#50BFA5"/>
<path d="M583.02 1343.55C583.02 1343.55 583.15 1344.29 583.38 1345.55C584.5 1351.58 588.81 1371.57 591.73 1377.07C595.25 1383.71 579.67 1404.9 564.68 1402.31C560.22 1401.54 568.45 1382.84 568.06 1380.86C567.3 1377.07 566.27 1371.9 565.22 1366.59C564.63 1363.6 564.03 1360.56 563.46 1357.71C561.86 1349.61 560.55 1342.98 560.55 1342.98L583.02 1343.54V1343.55Z" fill="#F7A491"/>
<path d="M583.38 1345.54C583.15 1344.28 583.02 1343.54 583.02 1343.54L560.55 1342.98C560.55 1342.98 561.86 1349.61 563.46 1357.71C564.02 1360.54 564.62 1363.56 565.21 1366.54C568.68 1366.03 572.3 1364.35 575.94 1361.17C579.9 1357.71 582.5 1353.55 584.06 1349.11C583.78 1347.69 583.55 1346.47 583.38 1345.54V1345.54Z" fill="#F47458"/>
<path d="M567.9 1292.59C567.9 1292.59 578.49 1291.37 585.13 1299.94C591.77 1308.51 598.92 1335 582.43 1349.41C565.94 1363.81 549.65 1347.51 547.24 1330.22C544.82 1312.93 543.89 1291.97 567.91 1292.6L567.9 1292.59Z" fill="#F7A491"/>
<path d="M542.35 1329.96C544.32 1333.78 547.62 1335.89 549.73 1334.68C551.84 1333.47 551.95 1329.39 549.98 1325.58C548.01 1321.76 544.71 1319.65 542.6 1320.86C540.49 1322.07 540.38 1326.15 542.35 1329.96Z" fill="#F7A491"/>
<path d="M566.71 1289.76C566.71 1289.76 580.86 1314.95 590.98 1316.12C601.1 1317.29 602.43 1330.67 602.43 1330.67C602.43 1330.67 598.81 1299.82 588.79 1293.87C578.77 1287.92 566.71 1289.76 566.71 1289.76Z" fill="#37474F"/>
<path d="M588.32 1322.45C587.5 1326.92 589.15 1331.03 592.02 1331.61C594.89 1332.2 597.87 1329.05 598.7 1324.57C599.52 1320.1 597.87 1315.99 595 1315.4C592.14 1314.81 589.15 1317.96 588.32 1322.44V1322.45Z" fill="#F7A491"/>
<path d="M493.12 1737.4C493.12 1737.4 515.84 1764.64 515.99 1767.01C516.14 1769.38 515.09 1795.25 512.39 1797.62C509.69 1799.99 501.75 1801.67 504.3 1804.34C506.23 1806.36 521.07 1805.93 530.9 1805.38C533.77 1805.22 537.37 1782.32 538.51 1778.95C540.16 1774.06 544.18 1763.05 542.68 1759.64C541.95 1757.98 538.45 1754.57 533.52 1751.38C528.33 1748.03 508.5 1720.43 508.5 1720.43L493.14 1737.39L493.12 1737.4Z" fill="#F48C7F"/>
<path d="M533.18 1751.22C533.18 1751.22 517.92 1794.17 511.95 1796.25C510.36 1796.8 502.76 1798.2 501.32 1801.56C500.89 1802.57 501.32 1805.96 501.32 1805.96H533.12C533.12 1805.96 537.14 1787.03 538.73 1778.72C538.73 1778.72 547.15 1758.4 546.21 1756.56C545.27 1754.71 533.17 1751.23 533.17 1751.23L533.18 1751.22Z" fill="#37474F"/>
<path d="M357.03 1750.48C357.03 1750.48 338.48 1776.6 340.11 1784.86C340.98 1789.28 344.88 1795.08 342.64 1799.24C340.41 1803.4 337.85 1804.45 337.85 1804.45L279.98 1805.38C276.83 1805.43 278.91 1803.41 281.45 1801.54C285.61 1798.49 288.97 1796.47 302.26 1790.05C303.13 1789.63 306.28 1787.63 307.42 1786.94C310.31 1785.18 313.2 1782.41 315.7 1779.64C319.86 1775.02 338.13 1737.4 338.13 1737.4L357.03 1750.48V1750.48Z" fill="#F7A491"/>
<path d="M307.43 1786.93C322.74 1790.85 334.05 1788.18 340.38 1785.64C342.01 1790.26 344.18 1796.05 343.03 1799.39C341.63 1803.48 339.62 1804.4 337.86 1804.45C323.88 1804.82 286.65 1805.32 275.99 1805.45C274.5 1805.47 273.68 1803.73 274.64 1802.59C277.28 1799.44 306.3 1787.62 307.44 1786.93H307.43Z" fill="#37474F"/>
<path d="M424.14 1589.34C424.14 1589.34 447.11 1615.56 452.97 1619.71C458.83 1623.86 515.06 1727.41 515.06 1727.41L495.03 1742.04C495.03 1742.04 444.77 1679.38 421.17 1645.86C401.21 1617.52 408.56 1619.32 396.83 1602.07C390.37 1592.57 391.83 1579.73 400.35 1572.03C401.41 1571.07 402.56 1570.07 403.81 1569.03C421.18 1554.55 540.25 1538.26 540.25 1538.26L616.41 1545.72C616.41 1545.72 554.18 1589.36 551.86 1590.52C549.54 1591.68 465.93 1603.87 464.19 1603.87C462.45 1603.87 424.13 1589.35 424.13 1589.35L424.14 1589.34Z" fill="#37474F"/>
<path d="M624.16 1546.37C624.16 1546.37 637.22 1585.56 617.63 1603.85C598.03 1622.14 481.62 1620.11 443.3 1620.11C443.3 1620.11 427.62 1663.08 425.88 1670.04C424.14 1677.01 348.08 1767 348.08 1767L327.18 1753.65C327.18 1753.65 409.05 1594.56 415.43 1587.59C421.82 1580.62 512.97 1552.75 535.62 1546.37C558.26 1539.98 624.16 1546.37 624.16 1546.37Z" fill="#324148"/>
<path d="M472.69 1475.87L542.21 1460.49C542.21 1460.49 567.35 1428.19 591.5 1400.38C598.61 1407.41 602.55 1418.22 609.71 1425.18L556.64 1483.88C554.73 1486 552.01 1487.21 549.15 1487.22L475.47 1487.47L450.26 1489.48V1473.34L472.7 1475.86L472.69 1475.87Z" fill="#F7A491"/>
<path d="M588.11 1458.85C588.11 1458.85 615.63 1430.64 622.71 1418.38C629.79 1406.12 624.54 1385.58 612.38 1382.36C600.22 1379.14 561.35 1430.99 561.35 1430.99L588.11 1458.85Z" fill="#96D9C9"/>
<path d="M329.87 1396.73H444.52C447.55 1396.73 450.29 1398.56 451.44 1401.37L486.74 1487.47H549.95C551.72 1487.47 553.15 1488.9 553.15 1490.67C553.15 1492.44 551.72 1493.87 549.95 1493.87H370.06C365.11 1493.87 360.63 1490.97 358.6 1486.45L323.05 1407.27C320.83 1402.32 324.45 1396.73 329.87 1396.73V1396.73Z" fill="#1C2529"/>
<path d="M391.6 1446.87C392.37 1450.74 395.75 1453.32 399.13 1452.65C402.52 1451.97 404.63 1448.29 403.86 1444.42C403.09 1440.55 399.71 1437.97 396.32 1438.64C392.93 1439.32 390.82 1443 391.59 1446.87H391.6Z" fill="white"/>
<path d="M562.03 1508.39H219.5C215.49 1508.39 212.24 1505.14 212.24 1501.13C212.24 1497.12 215.49 1493.87 219.5 1493.87H562.03C566.04 1493.87 569.29 1497.12 569.29 1501.13C569.29 1505.14 566.04 1508.39 562.03 1508.39Z" fill="#184655"/>
<path d="M561.52 1339.88L577.05 1339.08C577.05 1339.08 577 1345 570.18 1345.55C561.86 1346.22 561.52 1339.88 561.52 1339.88Z" fill="white"/>
<path d="M512.93 1624.13L519.94 1594.93C524.85 1574.51 542.93 1559.65 563.92 1558.8L652.77 1555.21L655.51 1546.17L563.56 1549.89C538.6 1550.9 517.09 1568.57 511.26 1592.86L503.81 1623.89C506.33 1624 509.41 1624.08 512.93 1624.15V1624.13Z" fill="#355389"/>
<path d="M632.1 1608.58C632.1 1608.58 510.03 1610.67 497.3 1608.58C484.57 1606.49 479.07 1622.45 482.86 1630.8C486.65 1639.15 497.11 1642.39 512.49 1643.15C527.88 1643.91 655.9 1647.52 659.5 1644.1C662.45 1641.31 701.26 1508.63 715.38 1460.1C718.2 1450.4 712.64 1440.27 702.94 1437.42C693.29 1434.59 683.17 1440.06 680.25 1449.68L632.08 1608.57L632.1 1608.58Z" fill="#184655"/>
<path d="M562.05 1504.89H556.02V1805.48H562.05V1504.89Z" fill="#13375B"/>
<path d="M560.55 1524.35H219.88V1527.58H560.55V1524.35Z" fill="#13375B"/>
<path d="M1469.08 58.5199C1469.08 58.5199 1513.34 87.1699 1622.42 83.2699C1622.42 83.2699 1505.5 127.42 1459.79 134.25L1440.98 59.9399L1469.09 58.5199H1469.08Z" fill="#23C198"/>
<path d="M1489.94 95.9399C1489.94 95.9399 1481.01 116.86 1459.79 134.25L1449.99 95.5299L1450.62 76.7999L1489.94 95.9399Z" fill="#239E7F"/>
<path d="M1321.72 16.13C1321.72 16.13 1449.53 7.48996 1469.4 14.79L1489.94 95.93C1489.94 95.93 1417.19 89.68 1346.32 113.32L1321.71 16.13H1321.72Z" fill="#24C79D"/>
<path d="M1244.73 920.59C1244.73 920.59 1238.57 930.64 1239.13 933.62C1239.69 936.6 1247.09 968.1 1251.17 970.19C1255.25 972.27 1265.58 971.87 1263.26 975.96C1261.51 979.05 1243.04 983.16 1230.72 985.57C1227.12 986.27 1215.51 959.1 1213.05 955.3C1209.48 949.78 1201.08 937.43 1201.86 932.75C1202.24 930.47 1205.5 925.16 1210.6 919.68C1215.96 913.92 1219.76 903.15 1219.76 903.15L1244.72 920.6L1244.73 920.59Z" fill="#F48C7F"/>
<path d="M1334.15 917.72C1334.15 917.72 1332.07 940.25 1332.07 940.3C1332.36 943.71 1332.26 952.35 1333.02 955.32C1335.85 966.51 1381.06 933.05 1368.5 930.96C1367.36 930.77 1363.25 928 1361.95 924.28C1359.95 918.55 1362.85 909.98 1362.85 909.98L1334.16 917.72H1334.15Z" fill="#F7A491"/>
<path d="M1315.82 512.72C1315.82 512.72 1328.88 548.85 1329.02 549.4C1344.2 609.35 1385.73 723.45 1386.33 735.29C1387.78 764.18 1363.94 919.45 1363.94 919.45L1330.9 923.74L1330.18 745.25L1297.69 681.56L1242.1 553.48L1315.82 512.73V512.72Z" fill="#2B383F"/>
<path d="M1216.48 572.76L1219.29 609.43L1239.43 758.16L1212.5 915.33C1212.5 915.33 1226.53 933.66 1240.27 933.25L1303.34 762.92L1318.34 561.6L1305.72 520.91L1216.49 572.76H1216.48Z" fill="#37474F"/>
<path d="M1210.96 919.37C1210.96 919.37 1243.24 967.67 1251.27 968.36C1253.4 968.54 1263.24 967.89 1266.06 971.6C1266.91 972.72 1268.71 978.31 1268.71 978.31L1228.21 989.97C1228.21 989.97 1217.26 964.86 1212.7 955.09C1212.7 955.09 1195.95 932.62 1196.52 930.05C1197.1 927.48 1210.96 919.38 1210.96 919.38V919.37Z" fill="#13375B"/>
<path d="M1331 961.06L1332.23 940.04C1332.23 940.04 1345.66 942.1 1351.51 939.71C1357.36 937.32 1368.34 930.9 1368.34 930.9C1394.57 932.74 1415.38 931.58 1413.4 938.91L1331 961.06V961.06Z" fill="#13375B"/>
<path d="M1393.68 390.79L1411.15 404.19C1414.52 401.6 1421.88 390.67 1426.64 387.27L1410.68 369.86C1409.36 368.9 1408.66 367.31 1408.81 365.69C1408.92 364.55 1409.08 363.46 1409.25 363.01C1409.75 361.63 1410.19 359.99 1410.69 358.62C1411.19 357.24 1407.89 354.48 1406.16 353.99C1404.43 353.5 1403.86 360.13 1403.11 362.11C1400.85 368.06 1398.12 384.35 1397.6 387.05L1393.68 390.81V390.79Z" fill="#F48C7F"/>
<path d="M1413.04 402.49C1408.13 397.26 1401.21 394.32 1396.08 388.88L1318.57 442.25C1318.57 442.25 1258.64 371.38 1226.1 396.49C1240.34 420.47 1257.51 443.45 1266.35 454.4C1286.25 479.04 1316.64 490.8 1322.57 488.08C1329.25 485.02 1411.3 404.59 1413.04 402.48V402.49Z" fill="#13375B"/>
<path d="M1074.01 225.1C1076.57 231.93 1081.01 242.68 1081.01 242.68C1081.13 245.77 1081.77 258.6 1082.58 274.32L1104.39 262.37C1104.39 262.37 1101.04 236.99 1101.88 235.32C1102.59 233.9 1104.24 235.37 1110.05 224.46C1111.73 221.31 1111.48 216.08 1111.48 216.08C1111.48 216.08 1111.13 209.65 1109.62 209.23C1108.12 208.81 1106.59 209.96 1106.2 211.13C1105.81 212.3 1106.26 214.85 1105.87 216.01C1105.48 217.18 1102.33 218.91 1100.93 219.01C1099.53 219.11 1098.82 200.11 1098.82 200.11C1098.82 200.11 1098.95 194.68 1099.14 192.89C1099.3 191.36 1100.12 186.83 1100.12 186.83C1100.12 186.83 1100.94 180.31 1098.92 180.06C1097.73 179.92 1095.4 185.42 1094.03 191.12C1092.56 197.26 1092.08 203.65 1091.45 203.64C1089.96 203.62 1089.49 193.21 1089.49 193.21C1089.49 193.21 1090.38 188.31 1090.07 186.09C1091.12 183.19 1091.42 178.01 1088.94 177.89C1088.48 177.87 1086.07 184.69 1086.07 184.69C1086.07 184.69 1085.36 189.37 1084.89 191.58C1084.05 195.47 1084.57 201.39 1084.21 204.08C1083.91 206.31 1083.3 205.48 1083.08 205.6C1082.91 205.69 1082.86 202.67 1082.72 198.52C1082.65 196.43 1082.12 194.08 1082.42 191.65C1082.69 189.41 1082.62 186.25 1082.53 184.35C1082.28 178.97 1078.99 179.92 1078.41 184.94C1078.19 186.85 1077.97 188.93 1077.76 191.05C1076.92 199.26 1077.91 206.96 1077.05 207.13C1075.94 207.35 1074.98 193.23 1074.98 193.23C1074.98 193.23 1072.32 185.67 1071.49 193.09C1070.52 201.69 1071.55 208.48 1071.62 208.78C1072.05 210.8 1071.45 218.28 1074.02 225.11L1074.01 225.1Z" fill="#F8A492"/>
<path d="M1227.03 290.37C1227.03 290.37 1213.88 279.48 1206.3 295.58C1206.3 295.58 1198.58 292.4 1194.38 300.24C1194.38 300.24 1180.84 297.89 1180.04 317.8C1180.04 317.8 1173.17 317.34 1173.25 325.44C1173.33 333.54 1178.03 338.37 1178.03 338.37C1178.03 338.37 1174.6 341.66 1177.2 348.79C1179.41 354.86 1184.7 355.18 1184.7 355.18C1184.7 355.18 1187.37 365.54 1192.32 368.15C1197.27 370.77 1203.3 368.49 1203.3 368.49C1203.3 368.49 1205.64 374 1210.9 372.84C1216.16 371.69 1222.14 365.82 1228.38 367.38C1234.62 368.94 1249.79 364.66 1249.79 364.66C1249.79 364.66 1266.23 354.82 1258.88 337.7C1258.88 337.7 1267.01 328.35 1257.83 319.43C1257.83 319.43 1261.79 303.25 1249.15 295.52C1236.51 287.79 1227.04 290.35 1227.04 290.35L1227.03 290.37Z" fill="#37474F"/>
<path d="M1264.25 402.28L1237.48 388.51C1237.48 388.51 1213.7 391.98 1210.75 392.34C1207.8 392.7 1202.25 503.49 1201.78 544.99C1201.31 586.49 1206.38 593.21 1206.38 593.21C1206.38 593.21 1245.13 597.13 1272.74 591.28C1301.45 585.2 1332.2 565.58 1332.2 565.58C1332.2 565.58 1297.9 490.09 1290.01 466.18C1282.13 442.27 1264.24 402.29 1264.24 402.29L1264.25 402.28Z" fill="#24C79D"/>
<path d="M1211.81 392.06L1123.89 321.78C1123.89 321.78 1103.86 247.69 1102.74 244.94C1101.64 242.24 1082.02 243.09 1074.1 243.27C1071.56 243.33 1085.13 323.43 1090.52 336.48C1096.88 351.9 1164.83 417.43 1164.83 417.43C1164.83 417.43 1180.2 455.52 1181.14 484.71C1182.7 533.19 1179.25 600.55 1181.55 602.38C1195.24 608.85 1244.16 603.8 1246.65 598.45C1274.12 539.37 1211.81 392.06 1211.81 392.06V392.06Z" fill="#13375B"/>
<path d="M1235.16 374.11L1239.17 389.52C1239.17 389.52 1246.63 411.52 1241.07 416.61C1235.51 421.7 1211.85 392.18 1211.85 392.18L1209.14 352.23L1235.16 374.12V374.11Z" fill="#F7A491"/>
<path d="M1210.02 365.17C1216.69 378.1 1229.67 384.98 1238.56 387.18L1235.16 374.11L1209.14 352.22L1210.02 365.17Z" fill="#F47458"/>
<path d="M1173.49 329.16C1174.22 335.21 1178.25 339.69 1182.49 339.18C1186.73 338.67 1189.58 333.35 1188.84 327.3C1188.11 321.25 1184.08 316.77 1179.84 317.28C1175.6 317.79 1172.75 323.11 1173.48 329.16H1173.49Z" fill="#37474F"/>
<path d="M1193.68 302.85C1194.1 306.32 1198.63 308.64 1203.79 308.01C1208.95 307.39 1212.79 304.06 1212.37 300.59C1211.95 297.11 1207.43 294.8 1202.26 295.43C1197.1 296.05 1193.26 299.38 1193.68 302.85Z" fill="#37474F"/>
<path d="M1218.16 308.82C1230 303.07 1244.15 309.69 1247.58 322.19C1249.07 327.62 1250.65 334.49 1251.71 342.08C1254.26 360.34 1246.94 379.29 1238.63 380.3C1230.32 381.31 1205.92 372.24 1201.95 346.36C1199.5 330.38 1205.74 314.85 1218.16 308.82V308.82Z" fill="#F7A491"/>
<path d="M1208.32 347.67C1208.81 351.71 1206.53 355.3 1203.23 355.7C1199.93 356.1 1196.86 353.15 1196.37 349.11C1195.88 345.07 1198.16 341.48 1201.46 341.08C1204.76 340.68 1207.83 343.63 1208.32 347.67Z" fill="#F7A491"/>
<path d="M1253.05 295.36C1262.46 301.12 1266.71 311.09 1262.56 317.62C1258.41 324.15 1247.42 324.78 1238.01 319.02C1228.61 313.26 1224.35 303.29 1228.5 296.76C1232.65 290.23 1243.64 289.6 1253.05 295.36Z" fill="#37474F"/>
<path d="M1231.29 303.65C1231.65 306.6 1228.37 309.43 1223.97 309.96C1219.57 310.49 1215.71 308.53 1215.35 305.57C1214.99 302.62 1218.27 299.79 1222.67 299.26C1227.07 298.73 1230.93 300.69 1231.29 303.65Z" fill="#37474F"/>
<path d="M1257.75 323.52C1258.21 327.32 1255.54 330.77 1251.78 331.22C1248.02 331.67 1244.6 328.96 1244.15 325.16C1243.69 321.36 1246.36 317.91 1250.12 317.46C1253.88 317.01 1257.29 319.72 1257.75 323.52Z" fill="#37474F"/>
<path d="M1286.57 418.75C1286.57 418.75 1323.73 506.59 1336.95 537.56C1338.38 540.91 1345.57 562.8 1345.83 564.99C1346.42 569.84 1326.05 578.55 1323.5 578.49C1321.22 578.43 1291.3 485.66 1273.92 440.6C1268.03 425.33 1259.39 411.27 1248.43 399.11L1239.99 392.14L1239.17 389.53C1239.17 389.53 1276.91 392.89 1286.57 418.75V418.75Z" fill="#13375B"/>
<path d="M1321.16 -0.0526339L1314.5 1.63379L1466 599.901L1472.66 598.214L1321.16 -0.0526339Z" fill="#13375B"/>
<path d="M1429.9 379.45C1429.66 378.13 1429.23 376.77 1428.69 375.42C1428.07 373.98 1427.06 372.24 1426.38 371.73C1425.94 371.41 1425.62 370.36 1425.21 369.29C1425.08 368.95 1424.9 368.62 1424.69 368.32V368.3C1424.05 367.44 1423.26 366.71 1422.39 366.09C1421.56 365.5 1420.85 364.73 1419.93 363.42C1419.22 362.4 1418.28 361.53 1417.16 360.98C1416.06 360.44 1415.21 360.43 1414.82 361.11C1412.99 364.25 1403.85 374.27 1407.56 379.11C1410.66 383.16 1414.7 387.38 1415.53 389.3C1416.67 391.93 1420.69 391.75 1423.09 390.83C1427.61 389.1 1431.16 386.25 1429.91 379.44L1429.9 379.45Z" fill="#F7A491"/>
<path d="M1945.95 1803.1H0V1810H1945.95V1803.1Z" fill="#184655"/>
<path d="M1293.56 263.41C1293.93 262.59 1295.17 262.45 1295.77 263.07C1296.73 264.07 1297.71 265.05 1298.69 266.04C1300.84 268.22 1300.86 268.38 1301.18 268.33C1301.95 268.21 1301.97 266.82 1301.93 266.31C1301.84 265.17 1301.47 264.05 1301.62 262.9C1301.91 260.66 1303.97 259.51 1305.81 261.01C1307.5 262.39 1309.12 263.87 1310.73 265.36C1310.86 262.91 1310.92 260.46 1311.08 258.02C1311.14 257.15 1312.02 256.77 1312.7 257.3C1314.2 258.48 1318.66 261.96 1320.13 263.11C1320.51 263.41 1322.12 265 1322.58 264.71C1322.99 264.45 1322.97 262.74 1323.01 262.36C1323.24 260.26 1323.35 259.53 1324.26 252.72C1324.37 251.91 1325.61 251.53 1326.14 252.16C1331.37 258.42 1332.16 257.76 1332.63 259.64C1332.74 260.06 1332.4 260.34 1332 260.3C1331 260.2 1330.76 260.1 1328.15 257.58C1327.47 256.93 1326.82 256.26 1326.17 255.57C1325.23 263.85 1325.19 265.96 1323.12 266.58C1321.68 267.01 1321.44 266.56 1313.03 259.95C1313.03 262.52 1312.87 265.08 1312.76 267.65C1312.72 268.63 1311.67 269.08 1310.92 268.47C1304.9 263.51 1304.94 263.14 1304.29 262.84C1304.27 262.84 1304.29 262.39 1304.18 263.03C1304 264.12 1305.03 266.47 1304.27 268.44C1303.6 270.17 1301.7 271.5 1299.86 270.6C1298.79 270.07 1298.5 269.55 1295.28 266.45C1294.32 268.44 1293.13 270.31 1291.63 272.15C1290.98 272.95 1290.45 273.39 1289.48 273.75C1288.69 274.04 1287.74 273.18 1288.01 272.36C1288.76 270.03 1290.85 269.47 1293.57 263.39L1293.56 263.41Z" fill="#F47458"/>
<path d="M1265.85 233.04C1268.12 233.43 1270.3 233.64 1272.7 233.63C1273.15 233.63 1273.99 233.72 1274.28 233.27C1274.99 232.18 1273.14 230.5 1272.32 226.24C1271.96 224.39 1271.06 220.61 1273.54 219.86C1274.81 219.47 1276.4 219.78 1277.7 219.81C1278.69 219.84 1279.69 219.82 1280.68 219.83C1278.91 212.92 1278.5 213.3 1279.21 211.76C1279.4 211.36 1280.02 211.16 1280.39 211.41C1281.78 212.33 1281.38 212.14 1283.7 220.84C1283.91 221.63 1283.34 222.59 1282.45 222.57C1281.11 222.53 1275.03 222.05 1274.27 222.11C1274.32 222.18 1274.25 222.51 1274.25 222.58C1274.28 225.45 1275.26 227.89 1276.27 230.51C1277.1 232.66 1277.05 235.56 1274.31 236.17C1272.82 236.5 1269.78 236.28 1267.44 236.01C1268.68 240.22 1269.94 244.43 1271.15 248.65C1271.39 249.48 1270.75 250.64 1269.77 250.55C1267.05 250.31 1264.33 250.15 1261.61 250.02C1262.36 252.5 1263.49 254.85 1264.96 256.99C1266.04 258.57 1263.82 260.5 1261.37 256.33C1259.92 254.04 1258.88 251.54 1258.25 248.87C1258.04 247.99 1258.63 246.94 1259.63 246.96C1262.33 247.01 1265.03 247.18 1267.72 247.41C1266.54 243.2 1265.4 238.97 1264.22 234.76C1263.93 233.73 1264.83 232.87 1265.84 233.04H1265.85Z" fill="#66CCB2"/>
<path d="M1202.65 209.57C1201.86 209.54 1201.38 209.03 1201.27 208.27C1200.73 204.57 1200.52 200.91 1201.27 197.21C1201.66 195.28 1204.46 196.01 1204.2 197.89C1203.79 200.84 1203.52 203.89 1203.8 206.88C1205.99 206.83 1208.15 206.58 1210.29 206.06C1211.1 205.86 1212.16 206.41 1212.1 207.37C1211.96 209.75 1211.15 218.77 1211.05 218.84C1211.07 218.84 1211.13 218.82 1211.29 218.84C1212.23 219.03 1215.46 218.36 1216.92 218.45C1218.56 218.55 1219.09 220.78 1219.17 222.13C1219.34 224.86 1217.3 227.87 1218.26 230.54C1219.18 233.11 1223.22 230.28 1226.24 232.38C1228.57 234 1227.76 236.72 1226.8 241.03C1226.56 242.09 1226.32 243.11 1225.28 243.64C1225.02 243.77 1224.65 243.79 1224.44 243.55C1223.3 242.24 1223.88 240.69 1224.65 236.75C1224.75 236.25 1225.07 235.4 1224.72 234.95C1223.55 233.45 1220.14 235.59 1217.38 233.79C1215.23 232.39 1214.92 229.64 1215.27 227.31C1215.55 225.49 1216.67 223.24 1216.08 221.38C1214.51 221.46 1212.93 221.59 1211.38 221.55C1209.68 221.51 1208.52 220.61 1208.44 218.87C1208.35 216.94 1208.67 214.94 1208.82 213.02C1208.92 211.73 1209.02 210.43 1209.13 209.14C1207 209.48 1204.85 209.64 1202.67 209.57H1202.65Z" fill="#07345A"/>
<path d="M1315.54 304.14C1322.05 312.49 1315.92 316.53 1313.19 314.11C1312.02 313.07 1311.97 311.27 1313.34 310.4C1313.97 310 1314.98 310.63 1314.72 311.4C1314.51 312.03 1315.22 312.2 1315.52 311.53C1315.92 310.63 1315.28 309.5 1314.88 308.7C1313.95 306.84 1312.78 304.42 1310.49 304.06C1307.07 303.52 1303.37 306.94 1305.24 312.16C1307.95 319.69 1320.14 319.6 1322.35 311.72C1323.55 307.43 1321.84 302.76 1318.36 300.04C1317.68 299.51 1318.51 298.6 1319.2 298.9C1324.4 301.13 1326.24 307.89 1324.34 312.95C1322.39 318.14 1316.84 320.62 1311.55 319.73C1306 318.79 1301.48 313.92 1302.21 308.1C1303.01 301.72 1310.99 298.31 1315.54 304.15V304.14Z" fill="#3C8F7C"/>
<path d="M1181.08 234.41C1181.98 235.77 1182.49 238.54 1180.65 239.4C1179.8 239.8 1178.76 239.54 1178.46 238.55C1178.17 237.58 1178.7 236.69 1177.83 235.93C1177.08 235.28 1175.98 235.64 1175.28 236.2C1173.16 237.93 1173.71 241.72 1174.81 243.87C1176.57 247.28 1181.36 247.97 1183.74 244.39C1184.49 243.27 1184.67 241.95 1185 240.68C1185.18 239.97 1186.31 239.66 1186.67 240.41C1188.05 243.32 1186.11 246.84 1183.62 248.49C1181.01 250.23 1177.36 250.08 1174.78 248.36C1171.9 246.44 1170.54 242.66 1170.65 239.3C1170.89 232.3 1178.14 230.01 1181.06 234.41H1181.08Z" fill="#24C79D"/>
<path d="M850.65 1211.35C850.65 1211.35 853.75 1216.39 859.88 1213.34C867.35 1209.62 864.37 1204.02 864.37 1204.02L850.65 1211.35Z" fill="white"/>
<path d="M1228.97 359.79C1228.97 359.79 1229.58 365.68 1236.43 365.58C1244.77 365.46 1244.52 359.12 1244.52 359.12L1228.98 359.79H1228.97Z" fill="white"/>
</g>
<defs>
<clipPath id="clip0_2_590">
<rect width="1945.95" height="1810" fill="white"/>
</clipPath>
</defs>
</svg>
